<svg xmlns="http://www.w3.org/2000/svg" xmlns:xlink="http://www.w3.org/1999/xlink" width="108" height="108" viewBox="0 0 108 108">
  <defs>
    <filter id="Trazado_978624" x="0" y="0" width="108" height="108" filterUnits="userSpaceOnUse">
      <feOffset dy="3" input="SourceAlpha"/>
      <feGaussianBlur stdDeviation="3" result="blur"/>
      <feFlood flood-opacity="0.161"/>
      <feComposite operator="in" in2="blur"/>
      <feComposite in="SourceGraphic"/>
    </filter>
    <filter id="Trazado_1076716" x="0" y="0" width="108" height="108" filterUnits="userSpaceOnUse">
      <feOffset dy="3" input="SourceAlpha"/>
      <feGaussianBlur stdDeviation="3" result="blur-2"/>
      <feFlood flood-opacity="0.161"/>
      <feComposite operator="in" in2="blur-2"/>
      <feComposite in="SourceGraphic"/>
    </filter>
  </defs>
  <g id="Grupo_1218115" data-name="Grupo 1218115" transform="translate(-616 -299)">
    <g id="Grupo_1211417" data-name="Grupo 1211417" transform="translate(625 305)">
      <g id="Grupo_1209735" data-name="Grupo 1209735">
        <g id="Grupo_1200660" data-name="Grupo 1200660">
          <g id="Grupo_1181203" data-name="Grupo 1181203">
            <g id="Grupo_1172348" data-name="Grupo 1172348">
              <g id="Grupo_1171897" data-name="Grupo 1171897">
                <g id="Grupo_1171052" data-name="Grupo 1171052">
                  <g id="Grupo_1164581" data-name="Grupo 1164581">
                    <g id="Grupo_1144123" data-name="Grupo 1144123">
                      <g transform="matrix(1, 0, 0, 1, -9, -6)" filter="url(#Trazado_978624)">
                        <g id="Trazado_978624-2" data-name="Trazado 978624" transform="translate(9 6)" fill="#fdfaeb">
                          <path d="M 45 88.5 C 39.12687683105469 88.5 33.43022537231445 87.35007476806641 28.06830024719238 85.08217620849609 C 22.88852500915527 82.89131164550781 18.23629951477051 79.75458526611328 14.2408504486084 75.75914764404297 C 10.24541282653809 71.76370239257812 7.108687400817871 67.11147308349609 4.917825222015381 61.93170166015625 C 2.649924993515015 56.56977462768555 1.5 50.87312316894531 1.5 45 C 1.5 39.12687683105469 2.649924993515015 33.43022537231445 4.917825222015381 28.06830024719238 C 7.108687400817871 22.88852500915527 10.24541282653809 18.23629951477051 14.2408504486084 14.2408504486084 C 18.23629951477051 10.24541282653809 22.88852500915527 7.108687400817871 28.06830024719238 4.917825222015381 C 33.43022537231445 2.649924993515015 39.12687683105469 1.5 45 1.5 C 50.87312316894531 1.5 56.56977462768555 2.649924993515015 61.93170166015625 4.917825222015381 C 67.11147308349609 7.108687400817871 71.76370239257812 10.24541282653809 75.75914764404297 14.2408504486084 C 79.75458526611328 18.23629951477051 82.89131164550781 22.88852500915527 85.08217620849609 28.06830024719238 C 87.35007476806641 33.43022537231445 88.5 39.12687683105469 88.5 45 C 88.5 50.87312316894531 87.35007476806641 56.56977462768555 85.08217620849609 61.93170166015625 C 82.89131164550781 67.11147308349609 79.75458526611328 71.76370239257812 75.75914764404297 75.75914764404297 C 71.76370239257812 79.75458526611328 67.11147308349609 82.89131164550781 61.93170166015625 85.08217620849609 C 56.56977462768555 87.35007476806641 50.87312316894531 88.5 45 88.5 Z" stroke="none"/>
                          <path d="M 45 3 C 39.32871246337891 3 33.82865524291992 4.110054016113281 28.65262985229492 6.299339294433594 C 23.65165710449219 8.414573669433594 19.15968322753906 11.44334411621094 15.301513671875 15.301513671875 C 11.44334411621094 19.15968322753906 8.414573669433594 23.65165710449219 6.299339294433594 28.65262985229492 C 4.110054016113281 33.82865524291992 3 39.32871246337891 3 45 C 3 50.67128753662109 4.110054016113281 56.17134475708008 6.299339294433594 61.34737396240234 C 8.414573669433594 66.34834289550781 11.44334411621094 70.84031677246094 15.301513671875 74.698486328125 C 19.15968322753906 78.55665588378906 23.65165710449219 81.58542633056641 28.65262985229492 83.70066070556641 C 33.82865524291992 85.88994598388672 39.32871246337891 87 45 87 C 50.67128753662109 87 56.17134475708008 85.88994598388672 61.34737396240234 83.70066070556641 C 66.34834289550781 81.58542633056641 70.84031677246094 78.55665588378906 74.698486328125 74.698486328125 C 78.55665588378906 70.84031677246094 81.58542633056641 66.34834289550781 83.70066070556641 61.34737396240234 C 85.88994598388672 56.17134475708008 87 50.67128753662109 87 45 C 87 39.32871246337891 85.88994598388672 33.82865524291992 83.70066070556641 28.65262985229492 C 81.58542633056641 23.65165710449219 78.55665588378906 19.15968322753906 74.698486328125 15.301513671875 C 70.84031677246094 11.44334411621094 66.34834289550781 8.414573669433594 61.34737396240234 6.299339294433594 C 56.17134475708008 4.110054016113281 50.67128753662109 3 45 3 M 45 0 C 69.85281372070312 0 90 20.14718627929688 90 45 C 90 69.85281372070312 69.85281372070312 90 45 90 C 20.14718627929688 90 0 69.85281372070312 0 45 C 0 20.14718627929688 20.14718627929688 0 45 0 Z" stroke="none" fill="#847625"/>
                        </g>
                      </g>
                      <g transform="matrix(1, 0, 0, 1, -9, -6)" filter="url(#Trazado_1076716)">
                        <g id="Trazado_1076716-2" data-name="Trazado 1076716" transform="translate(9 6)" fill="#fdfaeb">
                          <path d="M 45 88.5 C 39.12687683105469 88.5 33.43022537231445 87.35007476806641 28.06830024719238 85.08217620849609 C 22.88852500915527 82.89131164550781 18.23629951477051 79.75458526611328 14.2408504486084 75.75914764404297 C 10.24541282653809 71.76370239257812 7.108687400817871 67.11147308349609 4.917825222015381 61.93170166015625 C 2.649924993515015 56.56977462768555 1.5 50.87312316894531 1.5 45 C 1.5 39.12687683105469 2.649924993515015 33.43022537231445 4.917825222015381 28.06830024719238 C 7.108687400817871 22.88852500915527 10.24541282653809 18.23629951477051 14.2408504486084 14.2408504486084 C 18.23629951477051 10.24541282653809 22.88852500915527 7.108687400817871 28.06830024719238 4.917825222015381 C 33.43022537231445 2.649924993515015 39.12687683105469 1.5 45 1.5 C 50.87312316894531 1.5 56.56977462768555 2.649924993515015 61.93170166015625 4.917825222015381 C 67.11147308349609 7.108687400817871 71.76370239257812 10.24541282653809 75.75914764404297 14.2408504486084 C 79.75458526611328 18.23629951477051 82.89131164550781 22.88852500915527 85.08217620849609 28.06830024719238 C 87.35007476806641 33.43022537231445 88.5 39.12687683105469 88.5 45 C 88.5 50.87312316894531 87.35007476806641 56.56977462768555 85.08217620849609 61.93170166015625 C 82.89131164550781 67.11147308349609 79.75458526611328 71.76370239257812 75.75914764404297 75.75914764404297 C 71.76370239257812 79.75458526611328 67.11147308349609 82.89131164550781 61.93170166015625 85.08217620849609 C 56.56977462768555 87.35007476806641 50.87312316894531 88.5 45 88.5 Z" stroke="none"/>
                          <path d="M 45 3 C 39.32871246337891 3 33.82865524291992 4.110054016113281 28.65262985229492 6.299339294433594 C 23.65165710449219 8.414573669433594 19.15968322753906 11.44334411621094 15.301513671875 15.301513671875 C 11.44334411621094 19.15968322753906 8.414573669433594 23.65165710449219 6.299339294433594 28.65262985229492 C 4.110054016113281 33.82865524291992 3 39.32871246337891 3 45 C 3 50.67128753662109 4.110054016113281 56.17134475708008 6.299339294433594 61.34737396240234 C 8.414573669433594 66.34834289550781 11.44334411621094 70.84031677246094 15.301513671875 74.698486328125 C 19.15968322753906 78.55665588378906 23.65165710449219 81.58542633056641 28.65262985229492 83.70066070556641 C 33.82865524291992 85.88994598388672 39.32871246337891 87 45 87 C 50.67128753662109 87 56.17134475708008 85.88994598388672 61.34737396240234 83.70066070556641 C 66.34834289550781 81.58542633056641 70.84031677246094 78.55665588378906 74.698486328125 74.698486328125 C 78.55665588378906 70.84031677246094 81.58542633056641 66.34834289550781 83.70066070556641 61.34737396240234 C 85.88994598388672 56.17134475708008 87 50.67128753662109 87 45 C 87 39.32871246337891 85.88994598388672 33.82865524291992 83.70066070556641 28.65262985229492 C 81.58542633056641 23.65165710449219 78.55665588378906 19.15968322753906 74.698486328125 15.301513671875 C 70.84031677246094 11.44334411621094 66.34834289550781 8.414573669433594 61.34737396240234 6.299339294433594 C 56.17134475708008 4.110054016113281 50.67128753662109 3 45 3 M 45 0 C 69.85281372070312 0 90 20.14718627929688 90 45 C 90 69.85281372070312 69.85281372070312 90 45 90 C 20.14718627929688 90 0 69.85281372070312 0 45 C 0 20.14718627929688 20.14718627929688 0 45 0 Z" stroke="none" fill="#847625"/>
                        </g>
                      </g>
                    </g>
                  </g>
                </g>
              </g>
            </g>
          </g>
        </g>
      </g>
    </g>
    <g id="justicia_4_" data-name="justicia (4)" transform="translate(633 321)">
      <path id="Trazado_1088119" data-name="Trazado 1088119" d="M436,294.5l-6.5,6.5h4.336a6.5,6.5,0,0,0,6.5-6.5Z" transform="translate(-367.424 -251.936)" fill="#ffbb6e"/>
      <path id="Trazado_1088120" data-name="Trazado 1088120" d="M338.908,294.5H316a6.5,6.5,0,0,0,6.5,6.5h9.9A6.5,6.5,0,0,0,338.908,294.5Z" transform="translate(-270.328 -251.936)" fill="#ffd478"/>
      <path id="Trazado_1088121" data-name="Trazado 1088121" d="M127.5,294.5,121,301h4.336a6.5,6.5,0,0,0,6.5-6.5Z" transform="translate(-103.512 -251.936)" fill="#ffbb6e"/>
      <path id="Trazado_1088122" data-name="Trazado 1088122" d="M30.408,294.5H7.5A6.5,6.5,0,0,0,14,301h9.9A6.5,6.5,0,0,0,30.408,294.5Z" transform="translate(-6.416 -251.936)" fill="#ffd478"/>
      <path id="Trazado_1088123" data-name="Trazado 1088123" d="M301,384.5h6.5v10.84H301Z" transform="translate(-257.496 -328.928)" fill="#ff8053"/>
      <path id="Trazado_1088124" data-name="Trazado 1088124" d="M166,384.5h21.68v10.84H166Z" transform="translate(-142.008 -328.928)" fill="#ffa061"/>
      <path id="Trazado_1088125" data-name="Trazado 1088125" d="M102.631,429.5H63.254l-3.133,4.7a4.051,4.051,0,0,1-3.37,1.8v2.168h54.99Z" transform="translate(-48.548 -367.424)" fill="#ffd478"/>
      <path id="Trazado_1088126" data-name="Trazado 1088126" d="M382.539,434.2l-3.133-4.7H374.2l3.133,4.7a4.051,4.051,0,0,0,3.37,1.8l2.606,2.168L385.91,436A4.051,4.051,0,0,1,382.539,434.2Z" transform="translate(-320.112 -367.424)" fill="#ffbb6e"/>
      <path id="Trazado_1088127" data-name="Trazado 1088127" d="M241,67.5h6.5V78.34H241Z" transform="translate(-206.168 -57.744)" fill="#ff8053"/>
      <path id="Trazado_1088128" data-name="Trazado 1088128" d="M226,67.5h4.336V78.34H226Z" transform="translate(-193.336 -57.744)" fill="#ffa061"/>
      <path id="Trazado_1088129" data-name="Trazado 1088129" d="M241,142.5h6.5v34.977H241Z" transform="translate(-206.168 -121.904)" fill="#ffe7ad"/>
      <path id="Trazado_1088130" data-name="Trazado 1088130" d="M226,142.5h4.336v34.977H226Z" transform="translate(-193.336 -121.904)" fill="#fff5de"/>
      <path id="Trazado_1088131" data-name="Trazado 1088131" d="M260.336,127.5H256v4.336h4.336a2.168,2.168,0,0,0,0-4.336Z" transform="translate(-219 -109.072)" fill="#ffbb6e"/>
      <path id="Trazado_1088132" data-name="Trazado 1088132" d="M219.672,129.668A2.168,2.168,0,0,0,217.5,127.5h-4.336a2.168,2.168,0,0,0,0,4.336H217.5A2.168,2.168,0,0,0,219.672,129.668Z" transform="translate(-180.504 -109.072)" fill="#ffd478"/>
      <path id="Trazado_1088133" data-name="Trazado 1088133" d="M320.336,369.5H316v4.336h4.336a2.168,2.168,0,0,0,0-4.336Z" transform="translate(-270.328 -316.096)" fill="#ffbb6e"/>
      <path id="Trazado_1088134" data-name="Trazado 1088134" d="M177.016,371.668a2.168,2.168,0,0,0-2.168-2.168h-21.68a2.168,2.168,0,0,0,0,4.336h21.68A2.168,2.168,0,0,0,177.016,371.668Z" transform="translate(-129.176 -316.096)" fill="#ffd478"/>
      <path id="Trazado_1088135" data-name="Trazado 1088135" d="M384.586,37.5H380.25v4.336h4.336a2.168,2.168,0,0,0,0-4.336Z" transform="translate(-325.292 -32.08)" fill="#ffbb6e"/>
      <path id="Trazado_1088136" data-name="Trazado 1088136" d="M131.338,39.668A2.168,2.168,0,0,0,129.17,37.5H88.918a2.168,2.168,0,0,0,0,4.336H129.17A2.168,2.168,0,0,0,131.338,39.668Z" transform="translate(-74.212 -32.08)" fill="#ffd478"/>
      <path id="Trazado_1088137" data-name="Trazado 1088137" d="M429.586,474.5H425.25l4.336,4.336h4.336A4.336,4.336,0,0,0,429.586,474.5Z" transform="translate(-363.788 -405.92)" fill="#ffd478"/>
      <path id="Trazado_1088138" data-name="Trazado 1088138" d="M84.346,474.5H31.086a4.336,4.336,0,0,0-4.336,4.336H88.682A4.336,4.336,0,0,0,84.346,474.5Z" transform="translate(-22.884 -405.92)" fill="#ffe7ad"/>
      <circle id="Elipse_14357" data-name="Elipse 14357" cx="6.504" cy="6.504" r="6.504" transform="translate(30.496 1.084)" fill="#ffe7ad"/>
      <circle id="Elipse_14358" data-name="Elipse 14358" cx="2.168" cy="2.168" r="2.168" transform="translate(34.832 5.42)" fill="#ffd478"/>
      <circle id="Elipse_14359" data-name="Elipse 14359" cx="2.168" cy="2.168" r="2.168" transform="translate(12.538 9.756)" fill="#ffe7ad"/>
      <circle id="Elipse_14360" data-name="Elipse 14360" cx="2.168" cy="2.168" r="2.168" transform="translate(57.126 9.756)" fill="#ffe7ad"/>
      <path id="Trazado_1088139" data-name="Trazado 1088139" d="M44.588,42.564a7.6,7.6,0,0,0,7.588,7.588H66.412A7.6,7.6,0,0,0,74,42.564a1.085,1.085,0,0,0-.106-.468L60.829,14.789a3.248,3.248,0,0,0,.886-5.034,3.25,3.25,0,0,0-2.421-5.42H43.854a7.586,7.586,0,0,0-13.709,0H14.706a3.25,3.25,0,0,0-2.421,5.42,3.248,3.248,0,0,0,.886,5.034L.106,42.1A1.085,1.085,0,0,0,0,42.564a7.6,7.6,0,0,0,7.588,7.588H21.824a7.6,7.6,0,0,0,7.588-7.588,1.085,1.085,0,0,0-.106-.468L16.242,14.789a3.249,3.249,0,0,0,1.53-3.95H30.146a7.617,7.617,0,0,0,1.434,2.051V17.53a3.251,3.251,0,0,0,0,6.131V52.32H23.992a3.252,3.252,0,0,0-1.084,6.318v2.354h-8.2a1.084,1.084,0,0,0-.9.483l-3.133,4.7A2.961,2.961,0,0,1,8.2,67.5a5.426,5.426,0,0,0-5.42,5.42A1.084,1.084,0,0,0,3.866,74H70.134a1.084,1.084,0,0,0,1.084-1.084A5.426,5.426,0,0,0,65.8,67.5a2.961,2.961,0,0,1-2.469-1.321l-3.133-4.7a1.084,1.084,0,0,0-.9-.483h-8.2V58.638a3.252,3.252,0,0,0-1.084-6.317H42.42V23.661a3.251,3.251,0,0,0,0-6.131V12.891a7.622,7.622,0,0,0,1.434-2.051H56.228a3.249,3.249,0,0,0,1.53,3.95L44.694,42.1a1.084,1.084,0,0,0-.106.468Zm21.824,5.42H52.176a5.428,5.428,0,0,1-5.31-4.336H71.722A5.429,5.429,0,0,1,66.412,47.984Zm-19.02-6.5L59.294,16.6,71.2,41.48ZM14.706,16.6l11.9,24.877H2.8Zm7.118,31.381H7.588a5.428,5.428,0,0,1-5.31-4.336H27.134A5.429,5.429,0,0,1,21.824,47.984ZM15.79,11.924a1.084,1.084,0,1,1-1.084-1.084A1.085,1.085,0,0,1,15.79,11.924ZM14.706,8.672a1.084,1.084,0,0,1,0-2.168H29.491a7.511,7.511,0,0,0,0,2.168Zm19.042,8.672v-2.9a7.574,7.574,0,0,0,6.5,0v2.9ZM68.864,71.832H5.136A3.258,3.258,0,0,1,8.2,69.664H65.8A3.258,3.258,0,0,1,68.864,71.832Zm-7.339-4.455c.027.041.056.079.085.119H12.39c.028-.04.058-.078.085-.119l2.812-4.217H58.714ZM51.092,55.572a1.085,1.085,0,0,1-1.084,1.084H28.328a1.084,1.084,0,0,0,0,2.168h20.6v2.168H25.076V57.74a1.084,1.084,0,0,0-1.084-1.084,1.084,1.084,0,0,1,0-2.168H50.008A1.085,1.085,0,0,1,51.092,55.572ZM33.748,52.32V23.848h6.5V52.32ZM41.336,21.68H32.664a1.084,1.084,0,0,1,0-2.168h8.672a1.084,1.084,0,0,1,0,2.168ZM37,13.008a5.42,5.42,0,1,1,5.42-5.42A5.426,5.426,0,0,1,37,13.008Zm7.509-6.5H59.294a1.084,1.084,0,0,1,0,2.168H44.509a7.512,7.512,0,0,0,0-2.168Zm15.869,5.42a1.084,1.084,0,1,1-1.084-1.084A1.085,1.085,0,0,1,60.378,11.924Z" transform="translate(0)"/>
      <path id="Trazado_1088140" data-name="Trazado 1088140" d="M236.752,30A3.252,3.252,0,1,0,240,33.252,3.256,3.256,0,0,0,236.752,30Zm0,4.336a1.084,1.084,0,1,1,1.084-1.084A1.085,1.085,0,0,1,236.752,34.336Z" transform="translate(-199.752 -25.664)"/>
    </g>
  </g>
</svg>
