<svg xmlns="http://www.w3.org/2000/svg" xmlns:xlink="http://www.w3.org/1999/xlink" width="983.102" height="276.618" viewBox="0 0 983.102 276.618">
  <defs>
    <filter id="Rectángulo_420336" x="342" y="37.618" width="296" height="239" filterUnits="userSpaceOnUse">
      <feOffset dy="3" input="SourceAlpha"/>
      <feGaussianBlur stdDeviation="3" result="blur"/>
      <feFlood flood-opacity="0.161"/>
      <feComposite operator="in" in2="blur"/>
      <feComposite in="SourceGraphic"/>
    </filter>
    <filter id="Rectángulo_417619" x="180.163" y="178.64" width="175" height="49.972" filterUnits="userSpaceOnUse">
      <feOffset dy="3" input="SourceAlpha"/>
      <feGaussianBlur stdDeviation="3" result="blur-2"/>
      <feFlood flood-opacity="0.161"/>
      <feComposite operator="in" in2="blur-2"/>
      <feComposite in="SourceGraphic"/>
    </filter>
    <filter id="Rectángulo_417619-2" x="0" y="31.64" width="230" height="49.972" filterUnits="userSpaceOnUse">
      <feOffset dy="3" input="SourceAlpha"/>
      <feGaussianBlur stdDeviation="3" result="blur-3"/>
      <feFlood flood-opacity="0.161"/>
      <feComposite operator="in" in2="blur-3"/>
      <feComposite in="SourceGraphic"/>
    </filter>
    <filter id="Rectángulo_417619-3" x="596" y="175.506" width="208" height="49.972" filterUnits="userSpaceOnUse">
      <feOffset dy="3" input="SourceAlpha"/>
      <feGaussianBlur stdDeviation="3" result="blur-4"/>
      <feFlood flood-opacity="0.161"/>
      <feComposite operator="in" in2="blur-4"/>
      <feComposite in="SourceGraphic"/>
    </filter>
    <filter id="Rectángulo_417619-4" x="753.102" y="31.64" width="230" height="49.972" filterUnits="userSpaceOnUse">
      <feOffset dy="3" input="SourceAlpha"/>
      <feGaussianBlur stdDeviation="3" result="blur-5"/>
      <feFlood flood-opacity="0.161"/>
      <feComposite operator="in" in2="blur-5"/>
      <feComposite in="SourceGraphic"/>
    </filter>
  </defs>
  <g id="Grupo_1218111" data-name="Grupo 1218111" transform="translate(-310 -4411.5)">
    <g id="Grupo_1218104" data-name="Grupo 1218104">
      <g transform="matrix(1, 0, 0, 1, 310, 4411.5)" filter="url(#Rectángulo_420336)">
        <rect id="Rectángulo_420336-2" data-name="Rectángulo 420336" width="278" height="221" rx="100" transform="translate(351 43.62)" fill="#f2d944"/>
      </g>
      <g id="Grupo_1218093" data-name="Grupo 1218093" transform="translate(348.391 4241.681)">
        <g id="Grupo_1218069" data-name="Grupo 1218069" transform="translate(329.835 169.819)">
          <g id="Grupo_1218068" data-name="Grupo 1218068" transform="translate(16.003 110.319)">
            <g id="Grupo_1218061" data-name="Grupo 1218061" transform="translate(126.332)">
              <path id="Trazado_1088048" data-name="Trazado 1088048" d="M413.294,390.825H389.943l2.594-127.455H410.7Z" transform="translate(-384.43 -254.344)" fill="#a8a8a8"/>
              <g id="Grupo_1218060" data-name="Grupo 1218060" transform="translate(10.458 9.618)">
                <rect id="Rectángulo_420299" data-name="Rectángulo 420299" width="0.649" height="123.184" transform="translate(6.406 0.003)" fill="#bfbfbf"/>
                <rect id="Rectángulo_420300" data-name="Rectángulo 420300" width="0.649" height="123.19" transform="translate(11.461 0.007) rotate(-0.602)" fill="#bfbfbf"/>
                <rect id="Rectángulo_420301" data-name="Rectángulo 420301" width="123.19" height="0.649" transform="matrix(0.011, -1, 1, 0.011, 0, 123.211)" fill="#bfbfbf"/>
              </g>
              <rect id="Rectángulo_420302" data-name="Rectángulo 420302" width="29.62" height="5.621" transform="translate(2.378 131.941)" fill="#6d6d6d"/>
              <rect id="Rectángulo_420303" data-name="Rectángulo 420303" width="34.376" height="4.973" transform="translate(0 136.481)" fill="#6d6d6d"/>
              <rect id="Rectángulo_420304" data-name="Rectángulo 420304" width="17.134" height="4.217" transform="translate(8.621 7.513)" fill="#6d6d6d"/>
              <path id="Trazado_1088049" data-name="Trazado 1088049" d="M415.436,260.734c-1.932-1.93-4.3-2.026-7.176-2.149s-8.716-.121-11.595,0-5.244.219-7.176,2.149c-2.1,2.094-2.1,5.626-2.1,5.626a3.666,3.666,0,1,0,6.916-1.693,5.906,5.906,0,0,1,2.638-.406c.821.108,1.643.219,2.463.325a25.4,25.4,0,0,0,2.992.348,6.237,6.237,0,0,0,.878-.049c.845-.111,1.688-.229,2.533-.34.264-.035.526-.071.79-.1l1.371-.18a5.888,5.888,0,0,1,2.638.406,3.665,3.665,0,1,0,6.916,1.693S417.534,262.828,415.436,260.734Z" transform="translate(-385.277 -255.964)" fill="#919191"/>
              <path id="Trazado_1088050" data-name="Trazado 1088050" d="M411.672,258.3a1.034,1.034,0,0,1-.914,1.122H391.831a1.034,1.034,0,0,1-.914-1.122h0a1.034,1.034,0,0,1,.914-1.122h18.927a1.034,1.034,0,0,1,.914,1.122Z" transform="translate(-384.106 -256.4)" fill="#bfbfbf"/>
              <rect id="Rectángulo_420305" data-name="Rectángulo 420305" width="20.711" height="0.973" transform="translate(6.832)" fill="#6d6d6d"/>
            </g>
            <g id="Grupo_1218063" data-name="Grupo 1218063" transform="translate(189.497)">
              <path id="Trazado_1088051" data-name="Trazado 1088051" d="M460.706,390.825H437.355l2.6-127.455h18.161Z" transform="translate(-431.842 -254.344)" fill="#a8a8a8"/>
              <g id="Grupo_1218062" data-name="Grupo 1218062" transform="translate(10.461 9.62)">
                <rect id="Rectángulo_420306" data-name="Rectángulo 420306" width="0.649" height="123.184" transform="translate(6.403 0.001)" fill="#bfbfbf"/>
                <rect id="Rectángulo_420307" data-name="Rectángulo 420307" width="0.649" height="123.19" transform="translate(11.457 0.007) rotate(-0.602)" fill="#bfbfbf"/>
                <rect id="Rectángulo_420308" data-name="Rectángulo 420308" width="123.19" height="0.649" transform="matrix(0.011, -1, 1, 0.011, 0, 123.212)" fill="#bfbfbf"/>
              </g>
              <rect id="Rectángulo_420309" data-name="Rectángulo 420309" width="29.62" height="5.621" transform="translate(2.378 131.941)" fill="#6d6d6d"/>
              <rect id="Rectángulo_420310" data-name="Rectángulo 420310" width="34.376" height="4.973" transform="translate(0 136.481)" fill="#6d6d6d"/>
              <rect id="Rectángulo_420311" data-name="Rectángulo 420311" width="17.134" height="4.217" transform="translate(8.621 7.513)" fill="#6d6d6d"/>
              <path id="Trazado_1088052" data-name="Trazado 1088052" d="M462.849,260.734c-1.932-1.93-4.3-2.026-7.176-2.149s-8.716-.121-11.595,0-5.244.219-7.176,2.149c-2.1,2.094-2.1,5.626-2.1,5.626a3.666,3.666,0,1,0,6.916-1.693,5.906,5.906,0,0,1,2.638-.406c.822.108,1.643.219,2.463.325a25.4,25.4,0,0,0,2.992.348,6.238,6.238,0,0,0,.878-.049c.845-.111,1.688-.229,2.533-.34.264-.035.526-.071.79-.1l1.371-.18a5.888,5.888,0,0,1,2.638.406,3.665,3.665,0,1,0,6.916,1.693S464.945,262.828,462.849,260.734Z" transform="translate(-432.688 -255.964)" fill="#919191"/>
              <path id="Trazado_1088053" data-name="Trazado 1088053" d="M459.084,258.3a1.034,1.034,0,0,1-.914,1.122H439.243a1.034,1.034,0,0,1-.914-1.122h0a1.034,1.034,0,0,1,.914-1.122H458.17a1.034,1.034,0,0,1,.914,1.122Z" transform="translate(-431.518 -256.4)" fill="#bfbfbf"/>
              <rect id="Rectángulo_420312" data-name="Rectángulo 420312" width="20.711" height="0.973" transform="translate(6.832)" fill="#6d6d6d"/>
            </g>
            <g id="Grupo_1218065" data-name="Grupo 1218065">
              <path id="Trazado_1088054" data-name="Trazado 1088054" d="M318.469,390.825H295.118l2.594-127.455h18.161Z" transform="translate(-289.605 -254.344)" fill="#a8a8a8"/>
              <g id="Grupo_1218064" data-name="Grupo 1218064" transform="translate(10.455 9.614)">
                <rect id="Rectángulo_420313" data-name="Rectángulo 420313" width="0.649" height="123.184" transform="translate(6.409 0.007)" fill="#bfbfbf"/>
                <rect id="Rectángulo_420314" data-name="Rectángulo 420314" width="0.649" height="123.19" transform="translate(11.471 0.007) rotate(-0.602)" fill="#bfbfbf"/>
                <rect id="Rectángulo_420315" data-name="Rectángulo 420315" width="123.19" height="0.649" transform="matrix(0.011, -1, 1, 0.011, 0, 123.209)" fill="#bfbfbf"/>
              </g>
              <rect id="Rectángulo_420316" data-name="Rectángulo 420316" width="29.62" height="5.621" transform="translate(2.378 131.941)" fill="#6d6d6d"/>
              <rect id="Rectángulo_420317" data-name="Rectángulo 420317" width="34.376" height="4.973" transform="translate(0 136.481)" fill="#6d6d6d"/>
              <rect id="Rectángulo_420318" data-name="Rectángulo 420318" width="17.134" height="4.217" transform="translate(8.621 7.513)" fill="#6d6d6d"/>
              <path id="Trazado_1088055" data-name="Trazado 1088055" d="M320.611,260.734c-1.932-1.93-4.3-2.026-7.176-2.149s-8.716-.121-11.595,0-5.244.219-7.176,2.149c-2.1,2.094-2.1,5.626-2.1,5.626a3.666,3.666,0,1,0,6.916-1.693,5.906,5.906,0,0,1,2.638-.406c.822.108,1.643.219,2.463.325a25.4,25.4,0,0,0,2.992.348,6.237,6.237,0,0,0,.878-.049c.845-.111,1.688-.229,2.533-.34.264-.035.526-.071.79-.1l1.371-.18a5.888,5.888,0,0,1,2.638.406,3.665,3.665,0,1,0,6.916,1.693S322.708,262.828,320.611,260.734Z" transform="translate(-290.452 -255.964)" fill="#919191"/>
              <path id="Trazado_1088056" data-name="Trazado 1088056" d="M316.847,258.3a1.034,1.034,0,0,1-.914,1.122H297.006a1.034,1.034,0,0,1-.914-1.122h0a1.034,1.034,0,0,1,.914-1.122h18.927a1.034,1.034,0,0,1,.914,1.122Z" transform="translate(-289.281 -256.4)" fill="#bfbfbf"/>
              <rect id="Rectángulo_420319" data-name="Rectángulo 420319" width="20.711" height="0.973" transform="translate(6.832)" fill="#6d6d6d"/>
            </g>
            <g id="Grupo_1218067" data-name="Grupo 1218067" transform="translate(63.165)">
              <path id="Trazado_1088057" data-name="Trazado 1088057" d="M365.881,390.825H342.53l2.6-127.455h18.161Z" transform="translate(-337.017 -254.344)" fill="#a8a8a8"/>
              <g id="Grupo_1218066" data-name="Grupo 1218066" transform="translate(10.456 9.616)">
                <rect id="Rectángulo_420320" data-name="Rectángulo 420320" width="0.649" height="123.184" transform="translate(6.407 0.005)" fill="#bfbfbf"/>
                <rect id="Rectángulo_420321" data-name="Rectángulo 420321" width="0.649" height="123.19" transform="translate(11.466 0.007) rotate(-0.602)" fill="#bfbfbf"/>
                <rect id="Rectángulo_420322" data-name="Rectángulo 420322" width="123.19" height="0.649" transform="matrix(0.011, -1, 1, 0.011, 0, 123.21)" fill="#bfbfbf"/>
              </g>
              <rect id="Rectángulo_420323" data-name="Rectángulo 420323" width="29.62" height="5.621" transform="translate(2.378 131.941)" fill="#6d6d6d"/>
              <rect id="Rectángulo_420324" data-name="Rectángulo 420324" width="34.376" height="4.973" transform="translate(0 136.481)" fill="#6d6d6d"/>
              <rect id="Rectángulo_420325" data-name="Rectángulo 420325" width="17.134" height="4.217" transform="translate(8.621 7.513)" fill="#6d6d6d"/>
              <path id="Trazado_1088058" data-name="Trazado 1088058" d="M368.024,260.734c-1.932-1.93-4.3-2.026-7.176-2.149s-8.716-.121-11.593,0-5.244.219-7.176,2.149c-2.1,2.094-2.1,5.626-2.1,5.626a3.666,3.666,0,1,0,6.916-1.693,5.906,5.906,0,0,1,2.638-.406c.821.108,1.643.219,2.463.325a25.4,25.4,0,0,0,2.992.348,6.237,6.237,0,0,0,.878-.049c.845-.111,1.688-.229,2.533-.34.264-.035.526-.071.79-.1l1.371-.18a5.888,5.888,0,0,1,2.638.406,3.665,3.665,0,1,0,6.916,1.693S370.12,262.828,368.024,260.734Z" transform="translate(-337.863 -255.964)" fill="#919191"/>
              <path id="Trazado_1088059" data-name="Trazado 1088059" d="M364.259,258.3a1.034,1.034,0,0,1-.914,1.122H344.418a1.034,1.034,0,0,1-.914-1.122h0a1.034,1.034,0,0,1,.914-1.122h18.927a1.034,1.034,0,0,1,.914,1.122Z" transform="translate(-336.693 -256.4)" fill="#bfbfbf"/>
              <rect id="Rectángulo_420326" data-name="Rectángulo 420326" width="20.711" height="0.973" transform="translate(6.833)" fill="#6d6d6d"/>
            </g>
          </g>
          <rect id="Rectángulo_420327" data-name="Rectángulo 420327" width="229.462" height="12.378" transform="translate(13.208 97.941)" fill="#bfbfbf"/>
          <rect id="Rectángulo_420328" data-name="Rectángulo 420328" width="240.589" height="12.378" transform="translate(7.646 250.367)" fill="#a8a8a8"/>
          <rect id="Rectángulo_420329" data-name="Rectángulo 420329" width="255.881" height="12.378" transform="translate(0 261.069)" fill="#bfbfbf"/>
          <rect id="Rectángulo_420330" data-name="Rectángulo 420330" width="197.383" height="12.378" transform="translate(29.249 85.618)" fill="#a8a8a8"/>
          <path id="Trazado_1088060" data-name="Trazado 1088060" d="M403.614,173.789,288.882,247.407v12.378H518.346V247.407Z" transform="translate(-275.674 -173.789)" fill="#bfbfbf"/>
          <path id="Trazado_1088061" data-name="Trazado 1088061" d="M294.725,249.549v-.769l106.947-67.612L508.62,248.78v.769Z" transform="translate(-273.732 -171.337)" fill="#a8a8a8"/>
        </g>
        <g id="Grupo_1218074" data-name="Grupo 1218074" transform="translate(41.609 315.174)">
          <g id="Grupo_1218071" data-name="Grupo 1218071">
            <circle id="Elipse_14353" data-name="Elipse 14353" cx="50.757" cy="50.757" r="50.757" fill="#074777"/>
            <g id="Grupo_1218070" data-name="Grupo 1218070" transform="translate(31.717 15.059)">
              <path id="Trazado_1088062" data-name="Trazado 1088062" d="M93.312,340.581H77.92a6.946,6.946,0,0,1-6.937-6.937V307.2a6.946,6.946,0,0,1,6.937-6.937H93.312a6.946,6.946,0,0,1,6.937,6.937v26.449A6.944,6.944,0,0,1,93.312,340.581ZM77.92,303.727a3.473,3.473,0,0,0-3.469,3.468v26.449a3.473,3.473,0,0,0,3.469,3.469H93.312a3.473,3.473,0,0,0,3.469-3.469V307.2a3.472,3.472,0,0,0-3.469-3.468H77.92Z" transform="translate(-66.577 -300.259)" fill="#b56e39"/>
              <path id="Trazado_1088063" data-name="Trazado 1088063" d="M105.48,360.315a5.641,5.641,0,0,1-5.642,5.641h-26.8a5.641,5.641,0,0,1-5.641-5.641V330.7a5.642,5.642,0,0,1,5.641-5.641h26.8a5.642,5.642,0,0,1,5.642,5.641Z" transform="translate(-67.4 -294.561)" fill="#e8b16d"/>
              <path id="Trazado_1088064" data-name="Trazado 1088064" d="M99.433,363.385h-26.8a3.477,3.477,0,0,1-3.473-3.474V330.292a3.477,3.477,0,0,1,3.473-3.474h26.8a3.478,3.478,0,0,1,3.474,3.474V359.91A3.478,3.478,0,0,1,99.433,363.385Zm-26.8-35.7a2.609,2.609,0,0,0-2.606,2.607v29.618a2.61,2.61,0,0,0,2.606,2.606h26.8a2.61,2.61,0,0,0,2.607-2.606V330.293a2.61,2.61,0,0,0-2.607-2.607Z" transform="translate(-66.995 -294.156)" fill="#b56e39"/>
              <path id="Trazado_1088065" data-name="Trazado 1088065" d="M86.51,339.574a3.057,3.057,0,1,0-4.346,2.769v5.118a.681.681,0,0,0,.68.68h1.219a.68.68,0,0,0,.68-.68v-5.118A3.054,3.054,0,0,0,86.51,339.574Z" transform="translate(-64.414 -291.928)" fill="#6d6d6d"/>
            </g>
          </g>
          <g id="Grupo_1218073" data-name="Grupo 1218073" transform="translate(718.486)">
            <circle id="Elipse_14354" data-name="Elipse 14354" cx="50.757" cy="50.757" r="50.757" fill="#074777"/>
            <g id="Grupo_1218072" data-name="Grupo 1218072" transform="translate(24.374 15.378)">
              <path id="Trazado_1088066" data-name="Trazado 1088066" d="M695.066,357.636c-.568,6.536-7.814,9.093-13.355,8.952s-9.661,4.689-9.661,4.689a15.687,15.687,0,0,0-2.938-2.528,12.206,12.206,0,0,0-5.763-2.137c-.312-.023-.636-.028-.96-.023a17.39,17.39,0,0,1-8.275-1.824,8.827,8.827,0,0,1-5.081-7.127c-.137-1.574-.488-4.893-.909-9.054-1.347-13.117-3.443-34.583-1.932-35.987,1.989-1.847,8.173-3.575,11.508-5.826,1-.676,2.051-1.353,3.12-1.995,3.865-2.341,8-4.256,11.23-4.256,2.421,0,5.359,1.08,8.3,2.608a61.238,61.238,0,0,1,6.047,3.643,20.617,20.617,0,0,0,2.563,1.427c2.944,1.42,6.508,2.66,8.343,3.927a4.484,4.484,0,0,1,.6.472C699.9,314.442,695.634,351.1,695.066,357.636Z" transform="translate(-645.665 -300.519)" fill="#b56e39"/>
              <path id="Trazado_1088067" data-name="Trazado 1088067" d="M671.416,366.041a15.784,15.784,0,0,0-9.421-3.5c-.108,0-.561.009-.679.009-3.623,0-9.147-1.556-9.521-5.843-.106-1.208-.331-3.394-.616-6.162-.817-7.921-3.222-31.234-2.688-36.505.963-.556,2.65-1.275,3.96-1.832a40.062,40.062,0,0,0,6.523-3.245c7.3-4.93,10.929-5.667,12.442-5.667s5.141.737,12.442,5.668a39.966,39.966,0,0,0,6.523,3.244c1.31.558,3,1.278,3.96,1.832.534,5.271-1.87,28.584-2.688,36.505-.285,2.768-.512,4.955-.616,6.162-.373,4.287-5.9,5.843-9.52,5.843,0,0-.569-.009-.679-.009A15.8,15.8,0,0,0,671.416,366.041Z" transform="translate(-645.033 -299.882)" fill="#e8b16d"/>
              <path id="Trazado_1088068" data-name="Trazado 1088068" d="M679.892,303.127l-1.342,3.148L655,361.591l-1.347,3.172a8.827,8.827,0,0,1-5.081-7.127c-.137-1.574-.488-4.893-.909-9.054l2.552-8.809v-.006l8.7-30.019v-.006l1.444-4.967c3.865-2.341,8-4.256,11.23-4.256C674.01,300.518,676.948,301.6,679.892,303.127Z" transform="translate(-645.206 -300.519)" fill="#fff" opacity="0.4"/>
              <path id="Trazado_1088069" data-name="Trazado 1088069" d="M694,310.689l-2.257,4.529-24.415,49.035-1.524,3.057a12.2,12.2,0,0,0-5.763-2.137c.438-1,.915-2.092,1.42-3.263,5.8-13.288,15.953-36.487,22.813-52.031q.716-1.62,1.381-3.12C688.6,308.183,692.165,309.422,694,310.689Z" transform="translate(-642.361 -299.085)" fill="#fff" opacity="0.4"/>
            </g>
          </g>
        </g>
        <g id="Grupo_1218086" data-name="Grupo 1218086" transform="translate(188.144 169.819)">
          <g id="Grupo_1218077" data-name="Grupo 1218077" transform="translate(425.415)">
            <circle id="Elipse_14355" data-name="Elipse 14355" cx="50.757" cy="50.757" r="50.757" fill="#074777"/>
            <g id="Grupo_1218076" data-name="Grupo 1218076" transform="translate(17.363 24.765)">
              <path id="Trazado_1088070" data-name="Trazado 1088070" d="M555.642,237.367a16.974,16.974,0,0,1-3.115-.778l-2.142-42.932s.487-3.7-.876-3.7c-1.387,0-.877,3.7-.877,3.7l-2.142,42.932a16.851,16.851,0,0,1-3.115.778c-1.85.293-2.142,4.576-2.142,4.576h16.55S557.492,237.658,555.642,237.367Z" transform="translate(-516.116 -189.957)" fill="#919191"/>
              <path id="Trazado_1088071" data-name="Trazado 1088071" d="M575.157,192.463c-3.943-.926-6.717.68-12.509,1.653a16.624,16.624,0,0,1-9.88-1.215h0a16.624,16.624,0,0,1-9.88,1.215c-5.791-.973-8.565-2.579-12.509-1.653s-3.7,3.359-2.678,4.331,2.532,0,2.87-.68,1.315-2.921,3.116-2.628,8.858,4.478,13.289,4.574,7.154.1,11.583,0,11.486-4.282,13.288-4.574,2.774,1.946,3.116,2.628,1.848,1.653,2.87.68S579.1,193.385,575.157,192.463Zm-46.289,3.711a.876.876,0,1,1,.876-.876A.878.878,0,0,1,528.867,196.174Zm47.8,0a.876.876,0,1,1,.876-.876A.877.877,0,0,1,576.667,196.174Z" transform="translate(-519.373 -189.445)" fill="#a8a8a8"/>
              <path id="Trazado_1088072" data-name="Trazado 1088072" d="M549.37,192.95a.365.365,0,0,1-.364.364h-1.643a.363.363,0,0,1-.364-.364h0a.364.364,0,0,1,.364-.364h1.643a.364.364,0,0,1,.364.364Z" transform="translate(-514.791 -189.353)" fill="#a8a8a8"/>
              <g id="Grupo_1218075" data-name="Grupo 1218075" transform="translate(0 6.251)">
                <path id="Trazado_1088073" data-name="Trazado 1088073" d="M559.64,213.193h18.886a10.331,10.331,0,0,1-9.2,5.615A11.507,11.507,0,0,1,559.64,213.193Z" transform="translate(-511.886 -190.869)" fill="#a8a8a8"/>
                <path id="Trazado_1088074" data-name="Trazado 1088074" d="M578.553,217.653a.145.145,0,0,1-.134-.09l-9.2-22-9.421,22a.146.146,0,0,1-.268-.116l9.558-22.321a.146.146,0,0,1,.134-.089h0a.145.145,0,0,1,.134.09l9.329,22.321a.146.146,0,0,1-.079.191A.142.142,0,0,1,578.553,217.653Z" transform="translate(-511.913 -195.04)" fill="#6d6d6d"/>
                <path id="Trazado_1088075" data-name="Trazado 1088075" d="M539.815,213.193H520.929a10.331,10.331,0,0,0,9.2,5.615A11.51,11.51,0,0,0,539.815,213.193Z" transform="translate(-520.781 -190.869)" fill="#a8a8a8"/>
                <path id="Trazado_1088076" data-name="Trazado 1088076" d="M520.955,217.653a.154.154,0,0,1-.057-.011.146.146,0,0,1-.079-.191l9.329-22.321a.172.172,0,0,1,.134-.09.146.146,0,0,1,.134.089l9.558,22.321a.146.146,0,0,1-.268.116l-9.421-22-9.2,22A.144.144,0,0,1,520.955,217.653Z" transform="translate(-520.809 -195.04)" fill="#6d6d6d"/>
              </g>
            </g>
          </g>
          <g id="Grupo_1218085" data-name="Grupo 1218085">
            <circle id="Elipse_14356" data-name="Elipse 14356" cx="50.757" cy="50.757" r="50.757" fill="#074777"/>
            <g id="Grupo_1218084" data-name="Grupo 1218084" transform="translate(19.653 24.943)">
              <g id="Grupo_1218080" data-name="Grupo 1218080" transform="translate(23.484)">
                <rect id="Rectángulo_420331" data-name="Rectángulo 420331" width="5.546" height="2.449" transform="matrix(0.673, -0.74, 0.74, 0.673, 2.857, 7.579)" fill="#6d6d6d"/>
                <path id="Trazado_1088077" data-name="Trazado 1088077" d="M200.874,197.363h0a2.541,2.541,0,0,1-2.528-.524l-.585-.533a2.537,2.537,0,0,1-.168-3.584,2.535,2.535,0,0,1,3.582-.17l.585.532a2.539,2.539,0,0,1-.885,4.277ZM199,193.06a1.448,1.448,0,0,0-.5,2.441l.585.533a1.449,1.449,0,0,0,1.444.3h0a1.449,1.449,0,0,0,.505-2.442l-.585-.533A1.454,1.454,0,0,0,199,193.06Z" transform="translate(-195.591 -189.689)" fill="#6d6d6d"/>
                <g id="Grupo_1218079" data-name="Grupo 1218079">
                  <path id="Trazado_1088078" data-name="Trazado 1088078" d="M208.1,202.389c5.628-6.185,14.781-7.054,20.4-1.938s5.618,14.31-.01,20.494-14.781,7.054-20.4,1.938S202.473,208.574,208.1,202.389Zm2.254,2.05c-4.5,4.943-4.592,12.2-.213,16.19s11.6,3.207,16.1-1.735,4.592-12.2.213-16.19S214.852,199.5,210.354,204.439Z" transform="translate(-193.995 -188.489)" fill="#bfbfbf"/>
                  <path id="Trazado_1088079" data-name="Trazado 1088079" d="M209.535,190.421l9.084,8.265a.922.922,0,0,1,.076.079,1.226,1.226,0,0,1,.006,1.657l-2.671,2.935a13.415,13.415,0,0,0-6.138,6.745c-1.73,4.253-.995,9.034,2.243,11.979,4.016,3.655,10.426,3.281,14.932-.858a1.755,1.755,0,0,1,2.474-.112,1.677,1.677,0,0,1-.063,2.626h0l-.018.016c-.046.046-.093.086-.141.125a15.925,15.925,0,0,1-9.735,4.153,13.3,13.3,0,0,1-9.793-3.375,13.5,13.5,0,0,1-4.235-11.2,1.164,1.164,0,0,1-.229-.164l-9.084-8.265a1.226,1.226,0,0,1-.081-1.734L207.8,190.5A1.226,1.226,0,0,1,209.535,190.421Z" transform="translate(-195.841 -190.101)" fill="#a8a8a8"/>
                  <path id="Trazado_1088080" data-name="Trazado 1088080" d="M205.927,191.763a.706.706,0,1,0,1-.047A.706.706,0,0,0,205.927,191.763Z" transform="translate(-193.566 -189.772)" fill="#6d6d6d"/>
                  <path id="Trazado_1088081" data-name="Trazado 1088081" d="M197.886,200.6a.706.706,0,1,0,1-.047A.706.706,0,0,0,197.886,200.6Z" transform="translate(-195.414 -187.742)" fill="#6d6d6d"/>
                  <path id="Trazado_1088082" data-name="Trazado 1088082" d="M210.674,196.082a.706.706,0,1,0,1-.047A.706.706,0,0,0,210.674,196.082Z" transform="translate(-192.475 -188.78)" fill="#6d6d6d"/>
                  <path id="Trazado_1088083" data-name="Trazado 1088083" d="M202.633,204.918a.706.706,0,1,0,1-.047A.706.706,0,0,0,202.633,204.918Z" transform="translate(-194.323 -186.749)" fill="#6d6d6d"/>
                  <path id="Trazado_1088084" data-name="Trazado 1088084" d="M200.567,197.654a.706.706,0,1,0,1-.047A.706.706,0,0,0,200.567,197.654Z" transform="translate(-194.798 -188.419)" fill="#6d6d6d"/>
                  <path id="Trazado_1088085" data-name="Trazado 1088085" d="M203.247,194.708a.706.706,0,1,0,1-.047A.706.706,0,0,0,203.247,194.708Z" transform="translate(-194.182 -189.096)" fill="#6d6d6d"/>
                  <g id="Grupo_1218078" data-name="Grupo 1218078" transform="translate(6.763 12.436)">
                    <path id="Trazado_1088086" data-name="Trazado 1088086" d="M201.634,200.581a1.125,1.125,0,1,0,1.589-.075A1.124,1.124,0,0,0,201.634,200.581Z" transform="translate(-201.341 -200.213)" fill="#6d6d6d"/>
                    <rect id="Rectángulo_420332" data-name="Rectángulo 420332" width="0.871" height="2.722" transform="matrix(0.673, -0.74, 0.74, 0.673, 0.821, 1.451)" fill="#6d6d6d"/>
                  </g>
                </g>
              </g>
              <g id="Grupo_1218083" data-name="Grupo 1218083" transform="translate(0 7.612)">
                <rect id="Rectángulo_420333" data-name="Rectángulo 420333" width="2.449" height="5.546" transform="translate(13.298 6.057) rotate(-88.074)" fill="#6d6d6d"/>
                <path id="Trazado_1088087" data-name="Trazado 1088087" d="M191.188,202.019a2.538,2.538,0,0,1-3.355-2.487l.027-.791a2.536,2.536,0,0,1,2.621-2.45,2.538,2.538,0,0,1,2.45,2.621l-.027.791A2.549,2.549,0,0,1,191.188,202.019Zm-1.259-4.564a1.456,1.456,0,0,0-.98,1.323l-.027.791a1.45,1.45,0,0,0,1.916,1.42,1.456,1.456,0,0,0,.98-1.323l.027-.791a1.449,1.449,0,0,0-1.4-1.5A1.491,1.491,0,0,0,189.929,197.456Z" transform="translate(-174.198 -196.291)" fill="#6d6d6d"/>
                <g id="Grupo_1218082" data-name="Grupo 1218082" transform="translate(0 5.303)">
                  <path id="Trazado_1088088" data-name="Trazado 1088088" d="M207.065,223.8c-.256,7.6-7.263,13.55-15.62,13.268s-14.949-6.69-14.693-14.288,7.263-13.55,15.62-13.269S207.321,216.2,207.065,223.8Zm-27.267-.917c-.2,5.918,5.072,10.916,11.749,11.139s12.273-4.408,12.471-10.325-5.072-10.916-11.749-11.141S180,216.964,179.8,222.881Z" transform="translate(-176.745 -198.559)" fill="#bfbfbf"/>
                  <path id="Trazado_1088089" data-name="Trazado 1088089" d="M181.851,201.787l-.413,12.274a1.083,1.083,0,0,0,0,.109,1.226,1.226,0,0,0,1.183,1.16l3.966.134a13.427,13.427,0,0,1,9.116.306c4.255,1.727,7.167,5.588,7.02,9.964-.182,5.428-4.92,9.76-11.029,10.1a1.755,1.755,0,0,0-1.807,1.695,1.677,1.677,0,0,0,1.926,1.787h.026c.064,0,.127-.006.188-.014a15.934,15.934,0,0,0,9.766-4.079,13.294,13.294,0,0,0,4.412-9.372,13.507,13.507,0,0,0-5.072-10.847,1.149,1.149,0,0,0,.042-.277l.413-12.274a1.226,1.226,0,0,0-1.186-1.268l-17.285-.582A1.223,1.223,0,0,0,181.851,201.787Z" transform="translate(-175.667 -200.603)" fill="#a8a8a8"/>
                  <path id="Trazado_1088090" data-name="Trazado 1088090" d="M183.639,201.738a.706.706,0,1,1-.729.683A.707.707,0,0,1,183.639,201.738Z" transform="translate(-175.329 -200.343)" fill="#6d6d6d"/>
                  <path id="Trazado_1088091" data-name="Trazado 1088091" d="M195.579,202.139a.706.706,0,1,1-.729.683A.707.707,0,0,1,195.579,202.139Z" transform="translate(-172.585 -200.25)" fill="#6d6d6d"/>
                  <path id="Trazado_1088092" data-name="Trazado 1088092" d="M183.423,208.152a.706.706,0,1,1-.729.683A.707.707,0,0,1,183.423,208.152Z" transform="translate(-175.378 -198.869)" fill="#6d6d6d"/>
                  <path id="Trazado_1088093" data-name="Trazado 1088093" d="M195.363,208.553a.706.706,0,1,1-.729.683A.707.707,0,0,1,195.363,208.553Z" transform="translate(-172.635 -198.777)" fill="#6d6d6d"/>
                  <path id="Trazado_1088094" data-name="Trazado 1088094" d="M191.6,202.005a.706.706,0,1,1-.729.683A.707.707,0,0,1,191.6,202.005Z" transform="translate(-173.499 -200.281)" fill="#6d6d6d"/>
                  <path id="Trazado_1088095" data-name="Trazado 1088095" d="M187.619,201.871a.706.706,0,1,1-.729.683A.707.707,0,0,1,187.619,201.871Z" transform="translate(-174.414 -200.312)" fill="#6d6d6d"/>
                  <g id="Grupo_1218081" data-name="Grupo 1218081" transform="translate(18.596 5.135)">
                    <path id="Trazado_1088096" data-name="Trazado 1088096" d="M193.029,204.779a1.125,1.125,0,1,1-1.162,1.086A1.124,1.124,0,0,1,193.029,204.779Z" transform="translate(-191.866 -204.778)" fill="#6d6d6d"/>
                    <rect id="Rectángulo_420334" data-name="Rectángulo 420334" width="2.722" height="0.871" transform="translate(0.584 3.831) rotate(-88.074)" fill="#6d6d6d"/>
                  </g>
                </g>
              </g>
              <path id="Trazado_1088097" data-name="Trazado 1088097" d="M191.6,199.4h0a2.517,2.517,0,0,1-2.97-3.681l.8-1.336a2.517,2.517,0,0,1,4.6.692,2.493,2.493,0,0,1-.288,1.9l-.8,1.336A2.518,2.518,0,0,1,191.6,199.4Zm-.471-5.069a1.43,1.43,0,0,0-.761.615l-.8,1.336a1.428,1.428,0,0,0,1.685,2.088h0a1.43,1.43,0,0,0,.761-.615l.8-1.336a1.428,1.428,0,0,0-1.685-2.088Z" transform="translate(-174.096 -189.397)" fill="#6d6d6d"/>
              <path id="Trazado_1088098" data-name="Trazado 1088098" d="M198.452,196.569a2.518,2.518,0,0,1-1.724-.037l-1.452-.566a2.516,2.516,0,1,1,1.825-4.69l1.452.566a2.516,2.516,0,0,1-.1,4.727Zm-2.725-4.3a1.429,1.429,0,0,0-.058,2.685l1.452.566a1.429,1.429,0,0,0,1.037-2.662l-1.454-.566A1.422,1.422,0,0,0,195.727,192.268Z" transform="translate(-172.856 -189.871)" fill="#6d6d6d"/>
              <path id="Trazado_1088099" data-name="Trazado 1088099" d="M195.453,196.315l-1.476.5a2.518,2.518,0,0,1-1.626-4.765l1.476-.5a2.518,2.518,0,0,1,1.626,4.765Zm-2.75-3.232a1.428,1.428,0,0,0,.922,2.7l1.476-.5a1.428,1.428,0,1,0-.921-2.7Z" transform="translate(-173.551 -189.8)" fill="#6d6d6d"/>
            </g>
          </g>
        </g>
        <g id="Grupo_1218089" data-name="Grupo 1218089" transform="translate(152.974 325.367)">
          <g id="Grupo_1218087" data-name="Grupo 1218087">
            <path id="Trazado_1088100" data-name="Trazado 1088100" d="M135.361,297.9h-2.4a.8.8,0,0,1,0-1.6h2.4a.8.8,0,0,1,0,1.6Z" transform="translate(-132.165 -296.303)" fill="#a8a8a8"/>
            <path id="Trazado_1088101" data-name="Trazado 1088101" d="M304.783,297.9H300.04a.8.8,0,0,1,0-1.6h4.743a.8.8,0,0,1,0,1.6Zm-9.485,0h-4.743a.8.8,0,1,1,0-1.6H295.3a.8.8,0,0,1,0,1.6Zm-9.487,0h-4.743a.8.8,0,0,1,0-1.6h4.743a.8.8,0,0,1,0,1.6Zm-9.487,0h-4.743a.8.8,0,0,1,0-1.6h4.743a.8.8,0,0,1,0,1.6Zm-9.487,0h-4.743a.8.8,0,0,1,0-1.6h4.743a.8.8,0,0,1,0,1.6Zm-9.487,0h-4.743a.8.8,0,0,1,0-1.6h4.743a.8.8,0,0,1,0,1.6Zm-9.487,0h-4.743a.8.8,0,0,1,0-1.6h4.743a.8.8,0,0,1,0,1.6Zm-9.487,0h-4.743a.8.8,0,0,1,0-1.6h4.743a.8.8,0,0,1,0,1.6Zm-9.487,0h-4.743a.8.8,0,0,1,0-1.6h4.743a.8.8,0,0,1,0,1.6Zm-9.487,0h-4.743a.8.8,0,0,1,0-1.6h4.743a.8.8,0,0,1,0,1.6Zm-9.487,0h-4.743a.8.8,0,0,1,0-1.6h4.743a.8.8,0,1,1,0,1.6Zm-9.485,0H195.69a.8.8,0,0,1,0-1.6h4.743a.8.8,0,0,1,0,1.6Zm-9.487,0H186.2a.8.8,0,0,1,0-1.6h4.743a.8.8,0,0,1,0,1.6Zm-9.487,0h-4.743a.8.8,0,0,1,0-1.6h4.743a.8.8,0,0,1,0,1.6Zm-9.487,0H167.23a.8.8,0,0,1,0-1.6h4.743a.8.8,0,0,1,0,1.6Zm-9.487,0h-4.743a.8.8,0,1,1,0-1.6h4.743a.8.8,0,1,1,0,1.6Zm-9.487,0h-4.743a.8.8,0,1,1,0-1.6H153a.8.8,0,1,1,0,1.6Zm-9.487,0H138.77a.8.8,0,1,1,0-1.6h4.743a.8.8,0,0,1,0,1.6Z" transform="translate(-130.831 -296.303)" fill="#a8a8a8"/>
            <path id="Trazado_1088102" data-name="Trazado 1088102" d="M280.018,297.9h-2.4a.8.8,0,1,1,0-1.6h2.4a.8.8,0,0,1,0,1.6Z" transform="translate(-98.925 -296.303)" fill="#a8a8a8"/>
          </g>
          <g id="Grupo_1218088" data-name="Grupo 1218088" transform="translate(415.379)">
            <path id="Trazado_1088103" data-name="Trazado 1088103" d="M473.126,297.9h-2.4a.8.8,0,1,1,0-1.6h2.4a.8.8,0,0,1,0,1.6Z" transform="translate(-469.93 -296.303)" fill="#a8a8a8"/>
            <path id="Trazado_1088104" data-name="Trazado 1088104" d="M642.548,297.9H637.8a.8.8,0,0,1,0-1.6h4.743a.8.8,0,0,1,0,1.6Zm-9.487,0h-4.743a.8.8,0,0,1,0-1.6h4.743a.8.8,0,0,1,0,1.6Zm-9.485,0h-4.745a.8.8,0,0,1,0-1.6h4.745a.8.8,0,0,1,0,1.6Zm-9.488,0h-4.743a.8.8,0,0,1,0-1.6h4.743a.8.8,0,1,1,0,1.6Zm-9.487,0h-4.743a.8.8,0,0,1,0-1.6H604.6a.8.8,0,1,1,0,1.6Zm-9.485,0h-4.743a.8.8,0,0,1,0-1.6h4.743a.8.8,0,0,1,0,1.6Zm-9.487,0h-4.743a.8.8,0,0,1,0-1.6h4.743a.8.8,0,0,1,0,1.6Zm-9.488,0H571.4a.8.8,0,0,1,0-1.6h4.743a.8.8,0,1,1,0,1.6Zm-9.485,0h-4.743a.8.8,0,1,1,0-1.6h4.743a.8.8,0,1,1,0,1.6Zm-9.487,0h-4.743a.8.8,0,0,1,0-1.6h4.743a.8.8,0,1,1,0,1.6Zm-9.487,0H542.94a.8.8,0,0,1,0-1.6h4.743a.8.8,0,1,1,0,1.6Zm-9.487,0h-4.743a.8.8,0,1,1,0-1.6H538.2a.8.8,0,1,1,0,1.6Zm-9.487,0h-4.743a.8.8,0,1,1,0-1.6h4.743a.8.8,0,1,1,0,1.6Zm-9.487,0H514.48a.8.8,0,0,1,0-1.6h4.743a.8.8,0,0,1,0,1.6Zm-9.485,0H505a.8.8,0,1,1,0-1.6h4.743a.8.8,0,0,1,0,1.6Zm-9.487,0h-4.745a.8.8,0,0,1,0-1.6h4.745a.8.8,0,1,1,0,1.6Zm-9.488,0h-4.743a.8.8,0,1,1,0-1.6h4.743a.8.8,0,1,1,0,1.6Zm-9.485,0h-4.743a.8.8,0,0,1,0-1.6h4.743a.8.8,0,1,1,0,1.6Z" transform="translate(-468.596 -296.303)" fill="#a8a8a8"/>
            <path id="Trazado_1088105" data-name="Trazado 1088105" d="M617.782,297.9h-2.4a.8.8,0,0,1,0-1.6h2.4a.8.8,0,1,1,0,1.6Z" transform="translate(-436.69 -296.303)" fill="#a8a8a8"/>
          </g>
        </g>
        <g id="Grupo_1218092" data-name="Grupo 1218092" transform="translate(292.889 188.543)">
          <g id="Grupo_1218090" data-name="Grupo 1218090">
            <path id="Trazado_1088106" data-name="Trazado 1088106" d="M249.133,186.643h-2.4a.8.8,0,0,1,0-1.6h2.4a.8.8,0,0,1,0,1.6Z" transform="translate(-245.937 -185.044)" fill="#a8a8a8"/>
            <path id="Trazado_1088107" data-name="Trazado 1088107" d="M351.975,186.643H347.24a.8.8,0,1,1,0-1.6h4.735a.8.8,0,0,1,0,1.6Zm-9.471,0h-4.735a.8.8,0,1,1,0-1.6H342.5a.8.8,0,0,1,0,1.6Zm-9.471,0H328.3a.8.8,0,1,1,0-1.6h4.735a.8.8,0,0,1,0,1.6Zm-9.471,0h-4.735a.8.8,0,1,1,0-1.6h4.735a.8.8,0,1,1,0,1.6Zm-9.471,0h-4.735a.8.8,0,0,1,0-1.6h4.735a.8.8,0,0,1,0,1.6Zm-9.469,0h-4.735a.8.8,0,1,1,0-1.6h4.735a.8.8,0,1,1,0,1.6Zm-9.471,0h-4.735a.8.8,0,0,1,0-1.6h4.735a.8.8,0,0,1,0,1.6Zm-9.471,0h-4.735a.8.8,0,1,1,0-1.6h4.735a.8.8,0,1,1,0,1.6Zm-9.471,0h-4.735a.8.8,0,1,1,0-1.6h4.735a.8.8,0,0,1,0,1.6Zm-9.469,0h-4.735a.8.8,0,1,1,0-1.6h4.735a.8.8,0,1,1,0,1.6Zm-9.471,0h-4.735a.8.8,0,0,1,0-1.6h4.735a.8.8,0,0,1,0,1.6Z" transform="translate(-244.604 -185.044)" fill="#a8a8a8"/>
            <path id="Trazado_1088108" data-name="Trazado 1088108" d="M339.641,186.643h-2.4a.8.8,0,1,1,0-1.6h2.4a.8.8,0,1,1,0,1.6Z" transform="translate(-225.139 -185.044)" fill="#a8a8a8"/>
          </g>
          <g id="Grupo_1218091" data-name="Grupo 1218091" transform="translate(202.139)">
            <path id="Trazado_1088109" data-name="Trazado 1088109" d="M413.5,186.643h-2.4a.8.8,0,0,1,0-1.6h2.4a.8.8,0,0,1,0,1.6Z" transform="translate(-410.306 -185.044)" fill="#a8a8a8"/>
            <path id="Trazado_1088110" data-name="Trazado 1088110" d="M516.344,186.643h-4.735a.8.8,0,1,1,0-1.6h4.735a.8.8,0,1,1,0,1.6Zm-9.471,0h-4.736a.8.8,0,0,1,0-1.6h4.736a.8.8,0,0,1,0,1.6Zm-9.471,0h-4.735a.8.8,0,1,1,0-1.6H497.4a.8.8,0,1,1,0,1.6Zm-9.471,0H483.2a.8.8,0,0,1,0-1.6h4.733a.8.8,0,0,1,0,1.6Zm-9.468,0h-4.735a.8.8,0,0,1,0-1.6h4.735a.8.8,0,0,1,0,1.6Zm-9.471,0h-4.735a.8.8,0,0,1,0-1.6h4.735a.8.8,0,1,1,0,1.6Zm-9.471,0h-4.735a.8.8,0,0,1,0-1.6h4.735a.8.8,0,1,1,0,1.6Zm-9.471,0h-4.735a.8.8,0,0,1,0-1.6h4.735a.8.8,0,1,1,0,1.6Zm-9.471,0h-4.735a.8.8,0,1,1,0-1.6h4.735a.8.8,0,0,1,0,1.6Zm-9.471,0h-4.735a.8.8,0,0,1,0-1.6h4.735a.8.8,0,1,1,0,1.6Zm-9.471,0h-4.735a.8.8,0,1,1,0-1.6h4.735a.8.8,0,0,1,0,1.6Z" transform="translate(-408.973 -185.044)" fill="#a8a8a8"/>
            <path id="Trazado_1088111" data-name="Trazado 1088111" d="M504.011,186.643h-2.4a.8.8,0,0,1,0-1.6h2.4a.8.8,0,1,1,0,1.6Z" transform="translate(-389.508 -185.044)" fill="#a8a8a8"/>
          </g>
        </g>
      </g>
    </g>
    <g id="Grupo_1218096" data-name="Grupo 1218096" transform="translate(-603.837 3752.491)">
      <g transform="matrix(1, 0, 0, 1, 913.84, 659.01)" filter="url(#Rectángulo_417619)">
        <g id="Rectángulo_417619-5" data-name="Rectángulo 417619" transform="translate(189.16 184.64)" fill="#fff" stroke="#ba9c5a" stroke-width="1">
          <rect width="157" height="31.972" rx="15" stroke="none"/>
          <rect x="0.5" y="0.5" width="156" height="30.972" rx="14.5" fill="none"/>
        </g>
      </g>
      <g id="Trazado_1082200" data-name="Trazado 1082200" transform="translate(1084 834.649)" fill="#fff">
        <path d="M 24 47.5 C 20.82729911804199 47.5 17.74976921081543 46.87873077392578 14.85289001464844 45.65346145629883 C 12.05459022521973 44.46987915039062 9.541350364685059 42.77537155151367 7.382989883422852 40.61700820922852 C 5.224629878997803 38.45864868164062 3.530119895935059 35.94541168212891 2.346539974212646 33.14710998535156 C 1.121269941329956 30.25023078918457 0.5 27.17270088195801 0.5 24 C 0.5 20.82729911804199 1.121269941329956 17.74976921081543 2.346539974212646 14.85289001464844 C 3.530119895935059 12.05459022521973 5.224629878997803 9.541350364685059 7.382989883422852 7.382989883422852 C 9.541350364685059 5.224629878997803 12.05459022521973 3.530119895935059 14.85289001464844 2.346539974212646 C 17.74976921081543 1.121269941329956 20.82729911804199 0.5 24 0.5 C 27.17270088195801 0.5 30.25023078918457 1.121269941329956 33.14710998535156 2.346539974212646 C 35.94541168212891 3.530119895935059 38.45864868164062 5.224629878997803 40.61700820922852 7.382989883422852 C 42.77537155151367 9.541350364685059 44.46987915039062 12.05459022521973 45.65346145629883 14.85289001464844 C 46.87873077392578 17.74976921081543 47.5 20.82729911804199 47.5 24 C 47.5 27.17270088195801 46.87873077392578 30.25023078918457 45.65346145629883 33.14710998535156 C 44.46987915039062 35.94541168212891 42.77537155151367 38.45864868164062 40.61700820922852 40.61700820922852 C 38.45864868164062 42.77537155151367 35.94541168212891 44.46987915039062 33.14710998535156 45.65346145629883 C 30.25023078918457 46.87873077392578 27.17270088195801 47.5 24 47.5 Z" stroke="none"/>
        <path d="M 24 1 C 20.89458084106445 1 17.8825798034668 1.607978820800781 15.04766845703125 2.807041168212891 C 12.3089714050293 3.965419769287109 9.849151611328125 5.623939514160156 7.736549377441406 7.736549377441406 C 5.623939514160156 9.849151611328125 3.965419769287109 12.3089714050293 2.807041168212891 15.04766845703125 C 1.607978820800781 17.8825798034668 1 20.89458084106445 1 24 C 1 27.10541915893555 1.607978820800781 30.1174201965332 2.807041168212891 32.95233154296875 C 3.965419769287109 35.6910285949707 5.623939514160156 38.15084838867188 7.736549377441406 40.26345062255859 C 9.849151611328125 42.37606048583984 12.3089714050293 44.03458023071289 15.04766845703125 45.19295883178711 C 17.8825798034668 46.39202117919922 20.89458084106445 47 24 47 C 27.10541915893555 47 30.1174201965332 46.39202117919922 32.95233154296875 45.19295883178711 C 35.6910285949707 44.03458023071289 38.15084838867188 42.37606048583984 40.26345062255859 40.26345062255859 C 42.37606048583984 38.15084838867188 44.03458023071289 35.6910285949707 45.19295883178711 32.95233154296875 C 46.39202117919922 30.1174201965332 47 27.10541915893555 47 24 C 47 20.89458084106445 46.39202117919922 17.8825798034668 45.19295883178711 15.04766845703125 C 44.03458023071289 12.3089714050293 42.37606048583984 9.849151611328125 40.26345062255859 7.736549377441406 C 38.15084838867188 5.623939514160156 35.6910285949707 3.965419769287109 32.95233154296875 2.807041168212891 C 30.1174201965332 1.607978820800781 27.10541915893555 1 24 1 M 24 0 C 37.25482940673828 0 48 10.74517059326172 48 24 C 48 37.25482940673828 37.25482940673828 48 24 48 C 10.74517059326172 48 0 37.25482940673828 0 24 C 0 10.74517059326172 10.74517059326172 0 24 0 Z" stroke="none" fill="#ba9c5a"/>
      </g>
      <path id="Trazado_1090504" data-name="Trazado 1090504" d="M10.414-4.852Q10.414.2,5.711.2,1.148.2,1.148-4.734V-11.2H3.68v6.5q0,2.719,2.125,2.719,2.086,0,2.086-2.625V-11.2h2.523ZM20.336,0H17.875V-4.445q0-1.859-1.328-1.859a1.318,1.318,0,0,0-1.055.492,1.875,1.875,0,0,0-.414,1.25V0H12.609V-8h2.469v1.266h.031A2.829,2.829,0,0,1,17.68-8.2q2.656,0,2.656,3.3Zm3.2-9.266a1.442,1.442,0,0,1-1.023-.371,1.2,1.2,0,0,1-.4-.91,1.153,1.153,0,0,1,.4-.906,1.49,1.49,0,0,1,1.023-.352,1.486,1.486,0,0,1,1.027.352,1.158,1.158,0,0,1,.395.906,1.191,1.191,0,0,1-.395.922A1.466,1.466,0,0,1,23.539-9.266ZM24.758,0H22.289V-8h2.469Zm9.7-8L31.477,0H28.664L25.828-8h2.641l1.391,4.93a7.2,7.2,0,0,1,.273,1.422h.031a8.069,8.069,0,0,1,.289-1.375L31.875-8Zm8.086,4.7H37.32q.125,1.742,2.2,1.742a4.286,4.286,0,0,0,2.32-.625V-.4A6.1,6.1,0,0,1,38.953.2,4.058,4.058,0,0,1,35.945-.879a4.058,4.058,0,0,1-1.07-3,4.281,4.281,0,0,1,1.156-3.156A3.852,3.852,0,0,1,38.875-8.2a3.5,3.5,0,0,1,2.707,1.039,4,4,0,0,1,.957,2.82ZM40.25-4.812q0-1.719-1.391-1.719a1.328,1.328,0,0,0-1.027.492A2.234,2.234,0,0,0,37.3-4.812Zm8.977-.961a2.142,2.142,0,0,0-1.039-.242,1.5,1.5,0,0,0-1.258.59,2.573,2.573,0,0,0-.453,1.605V0H44.008V-8h2.469v1.484h.031a2.136,2.136,0,0,1,2.109-1.625,1.59,1.59,0,0,1,.609.094Zm.719,5.563v-2a5.256,5.256,0,0,0,1.215.547,4.028,4.028,0,0,0,1.145.18,2.455,2.455,0,0,0,1.035-.18.581.581,0,0,0,.379-.547.506.506,0,0,0-.172-.391,1.6,1.6,0,0,0-.441-.273,5.009,5.009,0,0,0-.59-.211Q52.2-3.18,51.9-3.3a5.913,5.913,0,0,1-.84-.387,2.427,2.427,0,0,1-.609-.48,1.889,1.889,0,0,1-.375-.633,2.525,2.525,0,0,1-.129-.852A2.192,2.192,0,0,1,50.238-6.8,2.393,2.393,0,0,1,51.02-7.6a3.57,3.57,0,0,1,1.117-.453A5.825,5.825,0,0,1,53.445-8.2a7.261,7.261,0,0,1,1.078.082,8.047,8.047,0,0,1,1.078.238v1.906a3.9,3.9,0,0,0-1-.41,4.235,4.235,0,0,0-1.051-.137,2.328,2.328,0,0,0-.457.043,1.505,1.505,0,0,0-.379.125.7.7,0,0,0-.258.211.486.486,0,0,0-.094.293.541.541,0,0,0,.141.375,1.221,1.221,0,0,0,.367.27,3.625,3.625,0,0,0,.5.2q.277.09.551.184a7.161,7.161,0,0,1,.891.375,2.848,2.848,0,0,1,.684.477,1.871,1.871,0,0,1,.438.641,2.277,2.277,0,0,1,.152.875,2.282,2.282,0,0,1-.309,1.215,2.471,2.471,0,0,1-.82.82,3.72,3.72,0,0,1-1.18.461A6.54,6.54,0,0,1,52.391.2,7.149,7.149,0,0,1,49.945-.211ZM64.164,0H61.828V-1.148H61.8A2.607,2.607,0,0,1,59.414.2a2.492,2.492,0,0,1-1.832-.66,2.366,2.366,0,0,1-.668-1.762q0-2.328,2.758-2.687L61.844-5.2q0-1.312-1.422-1.312a4.853,4.853,0,0,0-2.719.852V-7.523a6.116,6.116,0,0,1,1.41-.469,7.413,7.413,0,0,1,1.629-.2q3.422,0,3.422,3.414Zm-2.32-3.25v-.539L60.391-3.6q-1.2.156-1.2,1.086a.9.9,0,0,0,.293.691,1.126,1.126,0,0,0,.793.27,1.462,1.462,0,0,0,1.133-.48A1.735,1.735,0,0,0,61.844-3.25ZM68.586,0H66.117V-11.844h2.469Zm3.328-9.266a1.442,1.442,0,0,1-1.023-.371,1.2,1.2,0,0,1-.4-.91,1.153,1.153,0,0,1,.4-.906,1.49,1.49,0,0,1,1.023-.352,1.486,1.486,0,0,1,1.027.352,1.158,1.158,0,0,1,.395.906,1.191,1.191,0,0,1-.395.922A1.466,1.466,0,0,1,71.914-9.266ZM73.133,0H70.664V-8h2.469Zm9.906,0H80.57V-1.1h-.031A2.768,2.768,0,0,1,78.063.2,3.033,3.033,0,0,1,75.648-.863a4.382,4.382,0,0,1-.914-2.957A4.77,4.77,0,0,1,75.742-7a3.287,3.287,0,0,1,2.641-1.2,2.246,2.246,0,0,1,2.156,1.109h.031v-4.758h2.469ZM80.617-3.891v-.6a1.893,1.893,0,0,0-.453-1.3,1.5,1.5,0,0,0-1.18-.516A1.487,1.487,0,0,0,77.7-5.66a2.993,2.993,0,0,0-.461,1.77,2.59,2.59,0,0,0,.445,1.625,1.479,1.479,0,0,0,1.234.57,1.485,1.485,0,0,0,1.223-.6A2.507,2.507,0,0,0,80.617-3.891ZM91.773,0H89.438V-1.148h-.031A2.607,2.607,0,0,1,87.023.2a2.492,2.492,0,0,1-1.832-.66,2.366,2.366,0,0,1-.668-1.762q0-2.328,2.758-2.687L89.453-5.2q0-1.312-1.422-1.312a4.853,4.853,0,0,0-2.719.852V-7.523a6.116,6.116,0,0,1,1.41-.469,7.413,7.413,0,0,1,1.629-.2q3.422,0,3.422,3.414Zm-2.32-3.25v-.539L88-3.6q-1.2.156-1.2,1.086a.9.9,0,0,0,.293.691,1.126,1.126,0,0,0,.793.27,1.462,1.462,0,0,0,1.133-.48A1.735,1.735,0,0,0,89.453-3.25ZM101.555,0H99.086V-1.1h-.031A2.768,2.768,0,0,1,96.578.2,3.033,3.033,0,0,1,94.164-.863,4.382,4.382,0,0,1,93.25-3.82,4.77,4.77,0,0,1,94.258-7,3.287,3.287,0,0,1,96.9-8.2a2.246,2.246,0,0,1,2.156,1.109h.031v-4.758h2.469ZM99.133-3.891v-.6a1.893,1.893,0,0,0-.453-1.3A1.5,1.5,0,0,0,97.5-6.3a1.487,1.487,0,0,0-1.281.645,2.993,2.993,0,0,0-.461,1.77A2.59,2.59,0,0,0,96.2-2.266a1.479,1.479,0,0,0,1.234.57,1.485,1.485,0,0,0,1.223-.6A2.507,2.507,0,0,0,99.133-3.891Z" transform="translate(1137 865.649)" fill="#212429"/>
    </g>
    <g id="Grupo_1218105" data-name="Grupo 1218105" transform="translate(400 4440.14)">
      <g transform="matrix(1, 0, 0, 1, -90, -28.64)" filter="url(#Rectángulo_417619-2)">
        <g id="Rectángulo_417619-6" data-name="Rectángulo 417619" transform="translate(9 37.64)" fill="#fff" stroke="#ba9c5a" stroke-width="1">
          <rect width="212" height="31.972" rx="15" stroke="none"/>
          <rect x="0.5" y="0.5" width="211" height="30.972" rx="14.5" fill="none"/>
        </g>
      </g>
      <g id="Trazado_1082200-2" data-name="Trazado 1082200" transform="translate(102)" fill="#fff">
        <path d="M 24 47.5 C 20.82729911804199 47.5 17.74976921081543 46.87873077392578 14.85289001464844 45.65346145629883 C 12.05459022521973 44.46987915039062 9.541350364685059 42.77537155151367 7.382989883422852 40.61700820922852 C 5.224629878997803 38.45864868164062 3.530119895935059 35.94541168212891 2.346539974212646 33.14710998535156 C 1.121269941329956 30.25023078918457 0.5 27.17270088195801 0.5 24 C 0.5 20.82729911804199 1.121269941329956 17.74976921081543 2.346539974212646 14.85289001464844 C 3.530119895935059 12.05459022521973 5.224629878997803 9.541350364685059 7.382989883422852 7.382989883422852 C 9.541350364685059 5.224629878997803 12.05459022521973 3.530119895935059 14.85289001464844 2.346539974212646 C 17.74976921081543 1.121269941329956 20.82729911804199 0.5 24 0.5 C 27.17270088195801 0.5 30.25023078918457 1.121269941329956 33.14710998535156 2.346539974212646 C 35.94541168212891 3.530119895935059 38.45864868164062 5.224629878997803 40.61700820922852 7.382989883422852 C 42.77537155151367 9.541350364685059 44.46987915039062 12.05459022521973 45.65346145629883 14.85289001464844 C 46.87873077392578 17.74976921081543 47.5 20.82729911804199 47.5 24 C 47.5 27.17270088195801 46.87873077392578 30.25023078918457 45.65346145629883 33.14710998535156 C 44.46987915039062 35.94541168212891 42.77537155151367 38.45864868164062 40.61700820922852 40.61700820922852 C 38.45864868164062 42.77537155151367 35.94541168212891 44.46987915039062 33.14710998535156 45.65346145629883 C 30.25023078918457 46.87873077392578 27.17270088195801 47.5 24 47.5 Z" stroke="none"/>
        <path d="M 24 1 C 20.89458084106445 1 17.8825798034668 1.607978820800781 15.04766845703125 2.807041168212891 C 12.3089714050293 3.965419769287109 9.849151611328125 5.623939514160156 7.736549377441406 7.736549377441406 C 5.623939514160156 9.849151611328125 3.965419769287109 12.3089714050293 2.807041168212891 15.04766845703125 C 1.607978820800781 17.8825798034668 1 20.89458084106445 1 24 C 1 27.10541915893555 1.607978820800781 30.1174201965332 2.807041168212891 32.95233154296875 C 3.965419769287109 35.6910285949707 5.623939514160156 38.15084838867188 7.736549377441406 40.26345062255859 C 9.849151611328125 42.37606048583984 12.3089714050293 44.03458023071289 15.04766845703125 45.19295883178711 C 17.8825798034668 46.39202117919922 20.89458084106445 47 24 47 C 27.10541915893555 47 30.1174201965332 46.39202117919922 32.95233154296875 45.19295883178711 C 35.6910285949707 44.03458023071289 38.15084838867188 42.37606048583984 40.26345062255859 40.26345062255859 C 42.37606048583984 38.15084838867188 44.03458023071289 35.6910285949707 45.19295883178711 32.95233154296875 C 46.39202117919922 30.1174201965332 47 27.10541915893555 47 24 C 47 20.89458084106445 46.39202117919922 17.8825798034668 45.19295883178711 15.04766845703125 C 44.03458023071289 12.3089714050293 42.37606048583984 9.849151611328125 40.26345062255859 7.736549377441406 C 38.15084838867188 5.623939514160156 35.6910285949707 3.965419769287109 32.95233154296875 2.807041168212891 C 30.1174201965332 1.607978820800781 27.10541915893555 1 24 1 M 24 0 C 37.25482940673828 0 48 10.74517059326172 48 24 C 48 37.25482940673828 37.25482940673828 48 24 48 C 10.74517059326172 48 0 37.25482940673828 0 24 C 0 10.74517059326172 10.74517059326172 0 24 0 Z" stroke="none" fill="#ba9c5a"/>
      </g>
      <path id="Trazado_1090501" data-name="Trazado 1090501" d="M3.8-3.859V0H1.281V-11.2H5.234q4.234,0,4.234,3.57A3.426,3.426,0,0,1,8.254-4.9,4.813,4.813,0,0,1,5.008-3.859Zm0-5.406v3.492H4.8q2.016,0,2.016-1.766,0-1.727-2.016-1.727ZM17.578-3.3H12.359q.125,1.742,2.2,1.742a4.286,4.286,0,0,0,2.32-.625V-.4A6.1,6.1,0,0,1,13.992.2,4.058,4.058,0,0,1,10.984-.879a4.058,4.058,0,0,1-1.07-3A4.281,4.281,0,0,1,11.07-7.031,3.852,3.852,0,0,1,13.914-8.2a3.5,3.5,0,0,1,2.707,1.039,4,4,0,0,1,.957,2.82ZM15.289-4.812q0-1.719-1.391-1.719a1.328,1.328,0,0,0-1.027.492,2.234,2.234,0,0,0-.527,1.227Zm8.977-.961a2.142,2.142,0,0,0-1.039-.242,1.5,1.5,0,0,0-1.258.59,2.573,2.573,0,0,0-.453,1.605V0H19.047V-8h2.469v1.484h.031a2.136,2.136,0,0,1,2.109-1.625,1.59,1.59,0,0,1,.609.094Zm.719,5.563v-2a5.256,5.256,0,0,0,1.215.547,4.028,4.028,0,0,0,1.145.18,2.455,2.455,0,0,0,1.035-.18.581.581,0,0,0,.379-.547.506.506,0,0,0-.172-.391,1.6,1.6,0,0,0-.441-.273,5.009,5.009,0,0,0-.59-.211q-.32-.094-.617-.211a5.913,5.913,0,0,1-.84-.387,2.427,2.427,0,0,1-.609-.48,1.889,1.889,0,0,1-.375-.633,2.525,2.525,0,0,1-.129-.852A2.192,2.192,0,0,1,25.277-6.8a2.393,2.393,0,0,1,.781-.793,3.57,3.57,0,0,1,1.117-.453A5.825,5.825,0,0,1,28.484-8.2a7.261,7.261,0,0,1,1.078.082,8.047,8.047,0,0,1,1.078.238v1.906a3.9,3.9,0,0,0-1-.41,4.235,4.235,0,0,0-1.051-.137,2.328,2.328,0,0,0-.457.043,1.505,1.505,0,0,0-.379.125.7.7,0,0,0-.258.211.486.486,0,0,0-.094.293.541.541,0,0,0,.141.375,1.221,1.221,0,0,0,.367.27,3.625,3.625,0,0,0,.5.2q.277.09.551.184a7.161,7.161,0,0,1,.891.375,2.848,2.848,0,0,1,.684.477,1.871,1.871,0,0,1,.438.641,2.277,2.277,0,0,1,.152.875,2.282,2.282,0,0,1-.309,1.215A2.471,2.471,0,0,1,30-.41a3.72,3.72,0,0,1-1.18.461A6.54,6.54,0,0,1,27.43.2,7.149,7.149,0,0,1,24.984-.211ZM36.359.2A4.3,4.3,0,0,1,33.215-.926,4.064,4.064,0,0,1,32.07-3.969a4.065,4.065,0,0,1,1.188-3.105A4.487,4.487,0,0,1,36.469-8.2a4.249,4.249,0,0,1,3.125,1.121,3.985,3.985,0,0,1,1.133,2.965A4.23,4.23,0,0,1,39.559-.961,4.348,4.348,0,0,1,36.359.2Zm.063-6.5a1.647,1.647,0,0,0-1.359.6A2.653,2.653,0,0,0,34.578-4q0,2.3,1.859,2.3,1.773,0,1.773-2.367Q38.211-6.3,36.422-6.3ZM50.055,0H47.594V-4.445q0-1.859-1.328-1.859a1.318,1.318,0,0,0-1.055.492,1.875,1.875,0,0,0-.414,1.25V0H42.328V-8H44.8v1.266h.031A2.829,2.829,0,0,1,47.4-8.2q2.656,0,2.656,3.3Zm8.609,0H56.328V-1.148H56.3A2.607,2.607,0,0,1,53.914.2a2.492,2.492,0,0,1-1.832-.66,2.366,2.366,0,0,1-.668-1.762q0-2.328,2.758-2.687L56.344-5.2q0-1.312-1.422-1.312a4.853,4.853,0,0,0-2.719.852V-7.523a6.116,6.116,0,0,1,1.41-.469,7.413,7.413,0,0,1,1.629-.2q3.422,0,3.422,3.414Zm-2.32-3.25v-.539L54.891-3.6q-1.2.156-1.2,1.086a.9.9,0,0,0,.293.691,1.126,1.126,0,0,0,.793.27,1.462,1.462,0,0,0,1.133-.48A1.735,1.735,0,0,0,56.344-3.25ZM63.086,0H60.617V-11.844h2.469Zm3.328-9.266a1.442,1.442,0,0,1-1.023-.371,1.2,1.2,0,0,1-.4-.91,1.153,1.153,0,0,1,.4-.906,1.49,1.49,0,0,1,1.023-.352,1.486,1.486,0,0,1,1.027.352,1.158,1.158,0,0,1,.395.906,1.191,1.191,0,0,1-.395.922A1.466,1.466,0,0,1,66.414-9.266ZM67.633,0H65.164V-8h2.469Zm9.906,0H75.07V-1.1h-.031A2.768,2.768,0,0,1,72.563.2,3.033,3.033,0,0,1,70.148-.863a4.382,4.382,0,0,1-.914-2.957A4.77,4.77,0,0,1,70.242-7a3.287,3.287,0,0,1,2.641-1.2,2.246,2.246,0,0,1,2.156,1.109h.031v-4.758h2.469ZM75.117-3.891v-.6a1.893,1.893,0,0,0-.453-1.3,1.5,1.5,0,0,0-1.18-.516A1.487,1.487,0,0,0,72.2-5.66a2.993,2.993,0,0,0-.461,1.77,2.59,2.59,0,0,0,.445,1.625,1.479,1.479,0,0,0,1.234.57,1.485,1.485,0,0,0,1.223-.6A2.507,2.507,0,0,0,75.117-3.891ZM86.273,0H83.938V-1.148h-.031A2.607,2.607,0,0,1,81.523.2a2.492,2.492,0,0,1-1.832-.66,2.366,2.366,0,0,1-.668-1.762q0-2.328,2.758-2.687L83.953-5.2q0-1.312-1.422-1.312a4.853,4.853,0,0,0-2.719.852V-7.523a6.116,6.116,0,0,1,1.41-.469,7.413,7.413,0,0,1,1.629-.2q3.422,0,3.422,3.414Zm-2.32-3.25v-.539L82.5-3.6q-1.2.156-1.2,1.086a.9.9,0,0,0,.293.691,1.126,1.126,0,0,0,.793.27,1.462,1.462,0,0,0,1.133-.48A1.735,1.735,0,0,0,83.953-3.25ZM96.055,0H93.586V-1.1h-.031A2.768,2.768,0,0,1,91.078.2,3.033,3.033,0,0,1,88.664-.863,4.382,4.382,0,0,1,87.75-3.82,4.77,4.77,0,0,1,88.758-7,3.287,3.287,0,0,1,91.4-8.2a2.246,2.246,0,0,1,2.156,1.109h.031v-4.758h2.469ZM93.633-3.891v-.6a1.893,1.893,0,0,0-.453-1.3A1.5,1.5,0,0,0,92-6.3a1.487,1.487,0,0,0-1.281.645,2.993,2.993,0,0,0-.461,1.77A2.59,2.59,0,0,0,90.7-2.266a1.479,1.479,0,0,0,1.234.57,1.485,1.485,0,0,0,1.223-.6A2.507,2.507,0,0,0,93.633-3.891ZM105.047-.93h-.031V3.68h-2.469V-8h2.469v1.2h.031a2.9,2.9,0,0,1,2.57-1.4,2.892,2.892,0,0,1,2.4,1.066,4.54,4.54,0,0,1,.848,2.9,4.922,4.922,0,0,1-.988,3.211A3.222,3.222,0,0,1,107.25.2,2.491,2.491,0,0,1,105.047-.93Zm-.07-3.281v.641a2.037,2.037,0,0,0,.438,1.352,1.424,1.424,0,0,0,1.148.523,1.514,1.514,0,0,0,1.309-.652,3.15,3.15,0,0,0,.465-1.848q0-2.109-1.641-2.109a1.541,1.541,0,0,0-1.238.574A2.29,2.29,0,0,0,104.977-4.211ZM118.969,0h-2.336V-1.148H116.6A2.607,2.607,0,0,1,114.219.2a2.492,2.492,0,0,1-1.832-.66,2.366,2.366,0,0,1-.668-1.762q0-2.328,2.758-2.687l2.172-.289q0-1.312-1.422-1.312a4.853,4.853,0,0,0-2.719.852V-7.523a6.116,6.116,0,0,1,1.41-.469,7.413,7.413,0,0,1,1.629-.2q3.422,0,3.422,3.414Zm-2.32-3.25v-.539L115.2-3.6q-1.2.156-1.2,1.086a.9.9,0,0,0,.293.691,1.126,1.126,0,0,0,.793.27,1.462,1.462,0,0,0,1.133-.48A1.735,1.735,0,0,0,116.648-3.25ZM120.4-.211v-2a5.256,5.256,0,0,0,1.215.547,4.028,4.028,0,0,0,1.145.18,2.455,2.455,0,0,0,1.035-.18.581.581,0,0,0,.379-.547A.506.506,0,0,0,124-2.6a1.6,1.6,0,0,0-.441-.273,5.009,5.009,0,0,0-.59-.211q-.32-.094-.617-.211a5.913,5.913,0,0,1-.84-.387,2.427,2.427,0,0,1-.609-.48,1.889,1.889,0,0,1-.375-.633,2.525,2.525,0,0,1-.129-.852,2.192,2.192,0,0,1,.293-1.156,2.393,2.393,0,0,1,.781-.793,3.57,3.57,0,0,1,1.117-.453A5.825,5.825,0,0,1,123.9-8.2a7.261,7.261,0,0,1,1.078.082,8.047,8.047,0,0,1,1.078.238v1.906a3.9,3.9,0,0,0-1-.41A4.235,4.235,0,0,0,124-6.516a2.328,2.328,0,0,0-.457.043,1.505,1.505,0,0,0-.379.125.7.7,0,0,0-.258.211.486.486,0,0,0-.094.293.541.541,0,0,0,.141.375,1.221,1.221,0,0,0,.367.27,3.625,3.625,0,0,0,.5.2q.277.09.551.184a7.161,7.161,0,0,1,.891.375,2.848,2.848,0,0,1,.684.477,1.872,1.872,0,0,1,.438.641,2.277,2.277,0,0,1,.152.875,2.282,2.282,0,0,1-.309,1.215,2.471,2.471,0,0,1-.82.82,3.72,3.72,0,0,1-1.18.461A6.54,6.54,0,0,1,122.844.2,7.149,7.149,0,0,1,120.4-.211Zm8.813-9.055a1.442,1.442,0,0,1-1.023-.371,1.2,1.2,0,0,1-.4-.91,1.153,1.153,0,0,1,.4-.906,1.49,1.49,0,0,1,1.023-.352,1.486,1.486,0,0,1,1.027.352,1.158,1.158,0,0,1,.395.906,1.191,1.191,0,0,1-.395.922A1.466,1.466,0,0,1,129.211-9.266ZM130.43,0h-2.469V-8h2.469Zm9.7-8-2.977,8h-2.812L131.5-8h2.641l1.391,4.93a7.2,7.2,0,0,1,.273,1.422h.031a8.069,8.069,0,0,1,.289-1.375L137.547-8Zm7.469,8h-2.336V-1.148h-.031A2.607,2.607,0,0,1,142.844.2a2.492,2.492,0,0,1-1.832-.66,2.366,2.366,0,0,1-.668-1.762q0-2.328,2.758-2.687l2.172-.289q0-1.312-1.422-1.312a4.853,4.853,0,0,0-2.719.852V-7.523a6.116,6.116,0,0,1,1.41-.469,7.413,7.413,0,0,1,1.629-.2q3.422,0,3.422,3.414Zm-2.32-3.25v-.539L143.82-3.6q-1.2.156-1.2,1.086a.9.9,0,0,0,.293.691,1.126,1.126,0,0,0,.793.27,1.462,1.462,0,0,0,1.133-.48A1.735,1.735,0,0,0,145.273-3.25Z" transform="translate(-64 31)" fill="#212429"/>
    </g>
    <g id="Grupo_1218107" data-name="Grupo 1218107" transform="translate(974 4584.006)">
      <g transform="matrix(1, 0, 0, 1, -664, -172.51)" filter="url(#Rectángulo_417619-3)">
        <g id="Rectángulo_417619-7" data-name="Rectángulo 417619" transform="translate(605 181.51)" fill="#fff" stroke="#ba9c5a" stroke-width="1">
          <rect width="190" height="31.972" rx="15" stroke="none"/>
          <rect x="0.5" y="0.5" width="189" height="30.972" rx="14.5" fill="none"/>
        </g>
      </g>
      <g id="Trazado_1082200-3" data-name="Trazado 1082200" transform="translate(102)" fill="#fff">
        <path d="M 24 47.5 C 20.82729911804199 47.5 17.74976921081543 46.87873077392578 14.85289001464844 45.65346145629883 C 12.05459022521973 44.46987915039062 9.541350364685059 42.77537155151367 7.382989883422852 40.61700820922852 C 5.224629878997803 38.45864868164062 3.530119895935059 35.94541168212891 2.346539974212646 33.14710998535156 C 1.121269941329956 30.25023078918457 0.5 27.17270088195801 0.5 24 C 0.5 20.82729911804199 1.121269941329956 17.74976921081543 2.346539974212646 14.85289001464844 C 3.530119895935059 12.05459022521973 5.224629878997803 9.541350364685059 7.382989883422852 7.382989883422852 C 9.541350364685059 5.224629878997803 12.05459022521973 3.530119895935059 14.85289001464844 2.346539974212646 C 17.74976921081543 1.121269941329956 20.82729911804199 0.5 24 0.5 C 27.17270088195801 0.5 30.25023078918457 1.121269941329956 33.14710998535156 2.346539974212646 C 35.94541168212891 3.530119895935059 38.45864868164062 5.224629878997803 40.61700820922852 7.382989883422852 C 42.77537155151367 9.541350364685059 44.46987915039062 12.05459022521973 45.65346145629883 14.85289001464844 C 46.87873077392578 17.74976921081543 47.5 20.82729911804199 47.5 24 C 47.5 27.17270088195801 46.87873077392578 30.25023078918457 45.65346145629883 33.14710998535156 C 44.46987915039062 35.94541168212891 42.77537155151367 38.45864868164062 40.61700820922852 40.61700820922852 C 38.45864868164062 42.77537155151367 35.94541168212891 44.46987915039062 33.14710998535156 45.65346145629883 C 30.25023078918457 46.87873077392578 27.17270088195801 47.5 24 47.5 Z" stroke="none"/>
        <path d="M 24 1 C 20.89458084106445 1 17.8825798034668 1.607978820800781 15.04766845703125 2.807041168212891 C 12.3089714050293 3.965419769287109 9.849151611328125 5.623939514160156 7.736549377441406 7.736549377441406 C 5.623939514160156 9.849151611328125 3.965419769287109 12.3089714050293 2.807041168212891 15.04766845703125 C 1.607978820800781 17.8825798034668 1 20.89458084106445 1 24 C 1 27.10541915893555 1.607978820800781 30.1174201965332 2.807041168212891 32.95233154296875 C 3.965419769287109 35.6910285949707 5.623939514160156 38.15084838867188 7.736549377441406 40.26345062255859 C 9.849151611328125 42.37606048583984 12.3089714050293 44.03458023071289 15.04766845703125 45.19295883178711 C 17.8825798034668 46.39202117919922 20.89458084106445 47 24 47 C 27.10541915893555 47 30.1174201965332 46.39202117919922 32.95233154296875 45.19295883178711 C 35.6910285949707 44.03458023071289 38.15084838867188 42.37606048583984 40.26345062255859 40.26345062255859 C 42.37606048583984 38.15084838867188 44.03458023071289 35.6910285949707 45.19295883178711 32.95233154296875 C 46.39202117919922 30.1174201965332 47 27.10541915893555 47 24 C 47 20.89458084106445 46.39202117919922 17.8825798034668 45.19295883178711 15.04766845703125 C 44.03458023071289 12.3089714050293 42.37606048583984 9.849151611328125 40.26345062255859 7.736549377441406 C 38.15084838867188 5.623939514160156 35.6910285949707 3.965419769287109 32.95233154296875 2.807041168212891 C 30.1174201965332 1.607978820800781 27.10541915893555 1 24 1 M 24 0 C 37.25482940673828 0 48 10.74517059326172 48 24 C 48 37.25482940673828 37.25482940673828 48 24 48 C 10.74517059326172 48 0 37.25482940673828 0 24 C 0 10.74517059326172 10.74517059326172 0 24 0 Z" stroke="none" fill="#ba9c5a"/>
      </g>
      <path id="Trazado_1090503" data-name="Trazado 1090503" d="M8,0H1.281V-11.2H7.742v2.055H3.8v2.492H7.469v2.047H3.8v2.563H8Zm9.281-8L14.641-4.125,17.266,0H14.422L13.266-2.156q-.141-.258-.336-.727H12.9a5.073,5.073,0,0,1-.32.7L11.414,0H8.578l2.7-3.984L8.742-8H11.6l1.141,2.242a4.917,4.917,0,0,1,.32.75h.031a5.285,5.285,0,0,1,.336-.766L14.594-8ZM23.227-.094A3.649,3.649,0,0,1,21.578.2q-2.609,0-2.609-2.711V-6.18h-1.3V-8h1.3V-9.727l2.461-.7V-8h1.8v1.82h-1.8v3.234q0,1.25.992,1.25a1.673,1.673,0,0,0,.8-.227Zm6.609-5.68A2.142,2.142,0,0,0,28.8-6.016a1.5,1.5,0,0,0-1.258.59,2.573,2.573,0,0,0-.453,1.605V0H24.617V-8h2.469v1.484h.031a2.136,2.136,0,0,1,2.109-1.625,1.59,1.59,0,0,1,.609.094ZM37.641,0H35.3V-1.148h-.031A2.607,2.607,0,0,1,32.891.2a2.492,2.492,0,0,1-1.832-.66,2.366,2.366,0,0,1-.668-1.762q0-2.328,2.758-2.687L35.32-5.2q0-1.312-1.422-1.312a4.853,4.853,0,0,0-2.719.852V-7.523a6.116,6.116,0,0,1,1.41-.469,7.413,7.413,0,0,1,1.629-.2q3.422,0,3.422,3.414ZM35.32-3.25v-.539L33.867-3.6q-1.2.156-1.2,1.086a.9.9,0,0,0,.293.691,1.126,1.126,0,0,0,.793.27,1.462,1.462,0,0,0,1.133-.48A1.735,1.735,0,0,0,35.32-3.25ZM44.43-.094A3.649,3.649,0,0,1,42.781.2q-2.609,0-2.609-2.711V-6.18h-1.3V-8h1.3V-9.727l2.461-.7V-8h1.8v1.82h-1.8v3.234q0,1.25.992,1.25a1.673,1.673,0,0,0,.8-.227Zm8.516-3.2H47.727q.125,1.742,2.2,1.742a4.286,4.286,0,0,0,2.32-.625V-.4A6.1,6.1,0,0,1,49.359.2,4.058,4.058,0,0,1,46.352-.879a4.058,4.058,0,0,1-1.07-3,4.281,4.281,0,0,1,1.156-3.156A3.852,3.852,0,0,1,49.281-8.2a3.5,3.5,0,0,1,2.707,1.039,4,4,0,0,1,.957,2.82ZM50.656-4.812q0-1.719-1.391-1.719a1.328,1.328,0,0,0-1.027.492,2.234,2.234,0,0,0-.527,1.227Zm8.977-.961a2.142,2.142,0,0,0-1.039-.242,1.5,1.5,0,0,0-1.258.59,2.573,2.573,0,0,0-.453,1.605V0H54.414V-8h2.469v1.484h.031a2.136,2.136,0,0,1,2.109-1.625,1.59,1.59,0,0,1,.609.094Zm6.367,0a2.142,2.142,0,0,0-1.039-.242,1.5,1.5,0,0,0-1.258.59A2.573,2.573,0,0,0,63.25-3.82V0H60.781V-8H63.25v1.484h.031a2.136,2.136,0,0,1,2.109-1.625A1.59,1.59,0,0,1,66-8.047Zm2.461-3.492a1.442,1.442,0,0,1-1.023-.371,1.2,1.2,0,0,1-.4-.91,1.153,1.153,0,0,1,.4-.906,1.49,1.49,0,0,1,1.023-.352,1.486,1.486,0,0,1,1.027.352,1.158,1.158,0,0,1,.395.906,1.191,1.191,0,0,1-.395.922A1.466,1.466,0,0,1,68.461-9.266ZM69.68,0H67.211V-8H69.68Zm6.914-.094A3.649,3.649,0,0,1,74.945.2q-2.609,0-2.609-2.711V-6.18h-1.3V-8h1.3V-9.727l2.461-.7V-8h1.8v1.82H74.8v3.234q0,1.25.992,1.25a1.673,1.673,0,0,0,.8-.227ZM81.734.2A4.3,4.3,0,0,1,78.59-.926a4.064,4.064,0,0,1-1.145-3.043,4.065,4.065,0,0,1,1.188-3.105A4.487,4.487,0,0,1,81.844-8.2a4.249,4.249,0,0,1,3.125,1.121A3.985,3.985,0,0,1,86.1-4.109,4.23,4.23,0,0,1,84.934-.961,4.348,4.348,0,0,1,81.734.2ZM81.8-6.3a1.647,1.647,0,0,0-1.359.6A2.653,2.653,0,0,0,79.953-4q0,2.3,1.859,2.3,1.773,0,1.773-2.367Q83.586-6.3,81.8-6.3Zm11.125.531a2.142,2.142,0,0,0-1.039-.242,1.5,1.5,0,0,0-1.258.59,2.573,2.573,0,0,0-.453,1.605V0H87.7V-8h2.469v1.484H90.2a2.136,2.136,0,0,1,2.109-1.625,1.59,1.59,0,0,1,.609.094Zm2.461-3.492a1.442,1.442,0,0,1-1.023-.371,1.2,1.2,0,0,1-.4-.91,1.153,1.153,0,0,1,.4-.906,1.49,1.49,0,0,1,1.023-.352,1.486,1.486,0,0,1,1.027.352,1.158,1.158,0,0,1,.395.906,1.191,1.191,0,0,1-.395.922A1.466,1.466,0,0,1,95.383-9.266ZM96.6,0H94.133V-8H96.6Zm8.734,0H103V-1.148h-.031A2.607,2.607,0,0,1,100.586.2a2.492,2.492,0,0,1-1.832-.66,2.366,2.366,0,0,1-.668-1.762q0-2.328,2.758-2.687l2.172-.289q0-1.312-1.422-1.312a4.853,4.853,0,0,0-2.719.852V-7.523a6.116,6.116,0,0,1,1.41-.469,7.413,7.413,0,0,1,1.629-.2q3.422,0,3.422,3.414Zm-2.32-3.25v-.539l-1.453.188q-1.2.156-1.2,1.086a.9.9,0,0,0,.293.691,1.126,1.126,0,0,0,.793.27,1.462,1.462,0,0,0,1.133-.48A1.735,1.735,0,0,0,103.016-3.25ZM109.758,0h-2.469V-11.844h2.469Zm3.328-9.266a1.442,1.442,0,0,1-1.023-.371,1.2,1.2,0,0,1-.4-.91,1.153,1.153,0,0,1,.4-.906,1.49,1.49,0,0,1,1.023-.352,1.486,1.486,0,0,1,1.027.352,1.158,1.158,0,0,1,.395.906,1.191,1.191,0,0,1-.395.922A1.466,1.466,0,0,1,113.086-9.266ZM114.3,0h-2.469V-8H114.3Zm9.906,0h-2.469V-1.1h-.031A2.768,2.768,0,0,1,119.234.2,3.033,3.033,0,0,1,116.82-.863a4.382,4.382,0,0,1-.914-2.957A4.77,4.77,0,0,1,116.914-7a3.287,3.287,0,0,1,2.641-1.2,2.246,2.246,0,0,1,2.156,1.109h.031v-4.758h2.469Zm-2.422-3.891v-.6a1.893,1.893,0,0,0-.453-1.3,1.5,1.5,0,0,0-1.18-.516,1.487,1.487,0,0,0-1.281.645,2.993,2.993,0,0,0-.461,1.77,2.59,2.59,0,0,0,.445,1.625,1.479,1.479,0,0,0,1.234.57,1.485,1.485,0,0,0,1.223-.6A2.507,2.507,0,0,0,121.789-3.891ZM132.945,0h-2.336V-1.148h-.031A2.607,2.607,0,0,1,128.2.2a2.492,2.492,0,0,1-1.832-.66,2.366,2.366,0,0,1-.668-1.762q0-2.328,2.758-2.687l2.172-.289q0-1.312-1.422-1.312a4.853,4.853,0,0,0-2.719.852V-7.523a6.116,6.116,0,0,1,1.41-.469,7.413,7.413,0,0,1,1.629-.2q3.422,0,3.422,3.414Zm-2.32-3.25v-.539l-1.453.188q-1.2.156-1.2,1.086a.9.9,0,0,0,.293.691,1.126,1.126,0,0,0,.793.27,1.462,1.462,0,0,0,1.133-.48A1.735,1.735,0,0,0,130.625-3.25ZM142.727,0h-2.469V-1.1h-.031A2.768,2.768,0,0,1,137.75.2a3.033,3.033,0,0,1-2.414-1.059,4.382,4.382,0,0,1-.914-2.957A4.77,4.77,0,0,1,135.43-7a3.287,3.287,0,0,1,2.641-1.2,2.246,2.246,0,0,1,2.156,1.109h.031v-4.758h2.469ZM140.3-3.891v-.6a1.893,1.893,0,0,0-.453-1.3,1.5,1.5,0,0,0-1.18-.516,1.487,1.487,0,0,0-1.281.645,2.993,2.993,0,0,0-.461,1.77,2.59,2.59,0,0,0,.445,1.625,1.479,1.479,0,0,0,1.234.57,1.485,1.485,0,0,0,1.223-.6A2.507,2.507,0,0,0,140.3-3.891Z" transform="translate(-49 31)" fill="#212429"/>
    </g>
    <g id="Grupo_1218109" data-name="Grupo 1218109" transform="translate(-30.898 3605.491)">
      <g transform="matrix(1, 0, 0, 1, 340.9, 806.01)" filter="url(#Rectángulo_417619-4)">
        <g id="Rectángulo_417619-8" data-name="Rectángulo 417619" transform="translate(762.1 37.64)" fill="#fff" stroke="#ba9c5a" stroke-width="1">
          <rect width="212" height="31.972" rx="15" stroke="none"/>
          <rect x="0.5" y="0.5" width="211" height="30.972" rx="14.5" fill="none"/>
        </g>
      </g>
      <g id="Trazado_1082200-4" data-name="Trazado 1082200" transform="translate(1084 834.649)" fill="#fff">
        <path d="M 24 47.5 C 20.82729911804199 47.5 17.74976921081543 46.87873077392578 14.85289001464844 45.65346145629883 C 12.05459022521973 44.46987915039062 9.541350364685059 42.77537155151367 7.382989883422852 40.61700820922852 C 5.224629878997803 38.45864868164062 3.530119895935059 35.94541168212891 2.346539974212646 33.14710998535156 C 1.121269941329956 30.25023078918457 0.5 27.17270088195801 0.5 24 C 0.5 20.82729911804199 1.121269941329956 17.74976921081543 2.346539974212646 14.85289001464844 C 3.530119895935059 12.05459022521973 5.224629878997803 9.541350364685059 7.382989883422852 7.382989883422852 C 9.541350364685059 5.224629878997803 12.05459022521973 3.530119895935059 14.85289001464844 2.346539974212646 C 17.74976921081543 1.121269941329956 20.82729911804199 0.5 24 0.5 C 27.17270088195801 0.5 30.25023078918457 1.121269941329956 33.14710998535156 2.346539974212646 C 35.94541168212891 3.530119895935059 38.45864868164062 5.224629878997803 40.61700820922852 7.382989883422852 C 42.77537155151367 9.541350364685059 44.46987915039062 12.05459022521973 45.65346145629883 14.85289001464844 C 46.87873077392578 17.74976921081543 47.5 20.82729911804199 47.5 24 C 47.5 27.17270088195801 46.87873077392578 30.25023078918457 45.65346145629883 33.14710998535156 C 44.46987915039062 35.94541168212891 42.77537155151367 38.45864868164062 40.61700820922852 40.61700820922852 C 38.45864868164062 42.77537155151367 35.94541168212891 44.46987915039062 33.14710998535156 45.65346145629883 C 30.25023078918457 46.87873077392578 27.17270088195801 47.5 24 47.5 Z" stroke="none"/>
        <path d="M 24 1 C 20.89458084106445 1 17.8825798034668 1.607978820800781 15.04766845703125 2.807041168212891 C 12.3089714050293 3.965419769287109 9.849151611328125 5.623939514160156 7.736549377441406 7.736549377441406 C 5.623939514160156 9.849151611328125 3.965419769287109 12.3089714050293 2.807041168212891 15.04766845703125 C 1.607978820800781 17.8825798034668 1 20.89458084106445 1 24 C 1 27.10541915893555 1.607978820800781 30.1174201965332 2.807041168212891 32.95233154296875 C 3.965419769287109 35.6910285949707 5.623939514160156 38.15084838867188 7.736549377441406 40.26345062255859 C 9.849151611328125 42.37606048583984 12.3089714050293 44.03458023071289 15.04766845703125 45.19295883178711 C 17.8825798034668 46.39202117919922 20.89458084106445 47 24 47 C 27.10541915893555 47 30.1174201965332 46.39202117919922 32.95233154296875 45.19295883178711 C 35.6910285949707 44.03458023071289 38.15084838867188 42.37606048583984 40.26345062255859 40.26345062255859 C 42.37606048583984 38.15084838867188 44.03458023071289 35.6910285949707 45.19295883178711 32.95233154296875 C 46.39202117919922 30.1174201965332 47 27.10541915893555 47 24 C 47 20.89458084106445 46.39202117919922 17.8825798034668 45.19295883178711 15.04766845703125 C 44.03458023071289 12.3089714050293 42.37606048583984 9.849151611328125 40.26345062255859 7.736549377441406 C 38.15084838867188 5.623939514160156 35.6910285949707 3.965419769287109 32.95233154296875 2.807041168212891 C 30.1174201965332 1.607978820800781 27.10541915893555 1 24 1 M 24 0 C 37.25482940673828 0 48 10.74517059326172 48 24 C 48 37.25482940673828 37.25482940673828 48 24 48 C 10.74517059326172 48 0 37.25482940673828 0 24 C 0 10.74517059326172 10.74517059326172 0 24 0 Z" stroke="none" fill="#ba9c5a"/>
      </g>
      <path id="Trazado_1090502" data-name="Trazado 1090502" d="M3.8-3.859V0H1.281V-11.2H5.234q4.234,0,4.234,3.57A3.426,3.426,0,0,1,8.254-4.9,4.813,4.813,0,0,1,5.008-3.859Zm0-5.406v3.492H4.8q2.016,0,2.016-1.766,0-1.727-2.016-1.727ZM17.578-3.3H12.359q.125,1.742,2.2,1.742a4.286,4.286,0,0,0,2.32-.625V-.4A6.1,6.1,0,0,1,13.992.2,4.058,4.058,0,0,1,10.984-.879a4.058,4.058,0,0,1-1.07-3A4.281,4.281,0,0,1,11.07-7.031,3.852,3.852,0,0,1,13.914-8.2a3.5,3.5,0,0,1,2.707,1.039,4,4,0,0,1,.957,2.82ZM15.289-4.812q0-1.719-1.391-1.719a1.328,1.328,0,0,0-1.027.492,2.234,2.234,0,0,0-.527,1.227Zm8.977-.961a2.142,2.142,0,0,0-1.039-.242,1.5,1.5,0,0,0-1.258.59,2.573,2.573,0,0,0-.453,1.605V0H19.047V-8h2.469v1.484h.031a2.136,2.136,0,0,1,2.109-1.625,1.59,1.59,0,0,1,.609.094Zm.719,5.563v-2a5.256,5.256,0,0,0,1.215.547,4.028,4.028,0,0,0,1.145.18,2.455,2.455,0,0,0,1.035-.18.581.581,0,0,0,.379-.547.506.506,0,0,0-.172-.391,1.6,1.6,0,0,0-.441-.273,5.009,5.009,0,0,0-.59-.211q-.32-.094-.617-.211a5.913,5.913,0,0,1-.84-.387,2.427,2.427,0,0,1-.609-.48,1.889,1.889,0,0,1-.375-.633,2.525,2.525,0,0,1-.129-.852A2.192,2.192,0,0,1,25.277-6.8a2.393,2.393,0,0,1,.781-.793,3.57,3.57,0,0,1,1.117-.453A5.825,5.825,0,0,1,28.484-8.2a7.261,7.261,0,0,1,1.078.082,8.047,8.047,0,0,1,1.078.238v1.906a3.9,3.9,0,0,0-1-.41,4.235,4.235,0,0,0-1.051-.137,2.328,2.328,0,0,0-.457.043,1.505,1.505,0,0,0-.379.125.7.7,0,0,0-.258.211.486.486,0,0,0-.094.293.541.541,0,0,0,.141.375,1.221,1.221,0,0,0,.367.27,3.625,3.625,0,0,0,.5.2q.277.09.551.184a7.161,7.161,0,0,1,.891.375,2.848,2.848,0,0,1,.684.477,1.871,1.871,0,0,1,.438.641,2.277,2.277,0,0,1,.152.875,2.282,2.282,0,0,1-.309,1.215A2.471,2.471,0,0,1,30-.41a3.72,3.72,0,0,1-1.18.461A6.54,6.54,0,0,1,27.43.2,7.149,7.149,0,0,1,24.984-.211ZM36.359.2A4.3,4.3,0,0,1,33.215-.926,4.064,4.064,0,0,1,32.07-3.969a4.065,4.065,0,0,1,1.188-3.105A4.487,4.487,0,0,1,36.469-8.2a4.249,4.249,0,0,1,3.125,1.121,3.985,3.985,0,0,1,1.133,2.965A4.23,4.23,0,0,1,39.559-.961,4.348,4.348,0,0,1,36.359.2Zm.063-6.5a1.647,1.647,0,0,0-1.359.6A2.653,2.653,0,0,0,34.578-4q0,2.3,1.859,2.3,1.773,0,1.773-2.367Q38.211-6.3,36.422-6.3ZM50.055,0H47.594V-4.445q0-1.859-1.328-1.859a1.318,1.318,0,0,0-1.055.492,1.875,1.875,0,0,0-.414,1.25V0H42.328V-8H44.8v1.266h.031A2.829,2.829,0,0,1,47.4-8.2q2.656,0,2.656,3.3Zm8.609,0H56.328V-1.148H56.3A2.607,2.607,0,0,1,53.914.2a2.492,2.492,0,0,1-1.832-.66,2.366,2.366,0,0,1-.668-1.762q0-2.328,2.758-2.687L56.344-5.2q0-1.312-1.422-1.312a4.853,4.853,0,0,0-2.719.852V-7.523a6.116,6.116,0,0,1,1.41-.469,7.413,7.413,0,0,1,1.629-.2q3.422,0,3.422,3.414Zm-2.32-3.25v-.539L54.891-3.6q-1.2.156-1.2,1.086a.9.9,0,0,0,.293.691,1.126,1.126,0,0,0,.793.27,1.462,1.462,0,0,0,1.133-.48A1.735,1.735,0,0,0,56.344-3.25ZM63.086,0H60.617V-11.844h2.469Zm3.328-9.266a1.442,1.442,0,0,1-1.023-.371,1.2,1.2,0,0,1-.4-.91,1.153,1.153,0,0,1,.4-.906,1.49,1.49,0,0,1,1.023-.352,1.486,1.486,0,0,1,1.027.352,1.158,1.158,0,0,1,.395.906,1.191,1.191,0,0,1-.395.922A1.466,1.466,0,0,1,66.414-9.266ZM67.633,0H65.164V-8h2.469Zm9.906,0H75.07V-1.1h-.031A2.768,2.768,0,0,1,72.563.2,3.033,3.033,0,0,1,70.148-.863a4.382,4.382,0,0,1-.914-2.957A4.77,4.77,0,0,1,70.242-7a3.287,3.287,0,0,1,2.641-1.2,2.246,2.246,0,0,1,2.156,1.109h.031v-4.758h2.469ZM75.117-3.891v-.6a1.893,1.893,0,0,0-.453-1.3,1.5,1.5,0,0,0-1.18-.516A1.487,1.487,0,0,0,72.2-5.66a2.993,2.993,0,0,0-.461,1.77,2.59,2.59,0,0,0,.445,1.625,1.479,1.479,0,0,0,1.234.57,1.485,1.485,0,0,0,1.223-.6A2.507,2.507,0,0,0,75.117-3.891ZM86.273,0H83.938V-1.148h-.031A2.607,2.607,0,0,1,81.523.2a2.492,2.492,0,0,1-1.832-.66,2.366,2.366,0,0,1-.668-1.762q0-2.328,2.758-2.687L83.953-5.2q0-1.312-1.422-1.312a4.853,4.853,0,0,0-2.719.852V-7.523a6.116,6.116,0,0,1,1.41-.469,7.413,7.413,0,0,1,1.629-.2q3.422,0,3.422,3.414Zm-2.32-3.25v-.539L82.5-3.6q-1.2.156-1.2,1.086a.9.9,0,0,0,.293.691,1.126,1.126,0,0,0,.793.27,1.462,1.462,0,0,0,1.133-.48A1.735,1.735,0,0,0,83.953-3.25ZM96.055,0H93.586V-1.1h-.031A2.768,2.768,0,0,1,91.078.2,3.033,3.033,0,0,1,88.664-.863,4.382,4.382,0,0,1,87.75-3.82,4.77,4.77,0,0,1,88.758-7,3.287,3.287,0,0,1,91.4-8.2a2.246,2.246,0,0,1,2.156,1.109h.031v-4.758h2.469ZM93.633-3.891v-.6a1.893,1.893,0,0,0-.453-1.3A1.5,1.5,0,0,0,92-6.3a1.487,1.487,0,0,0-1.281.645,2.993,2.993,0,0,0-.461,1.77A2.59,2.59,0,0,0,90.7-2.266a1.479,1.479,0,0,0,1.234.57,1.485,1.485,0,0,0,1.223-.6A2.507,2.507,0,0,0,93.633-3.891ZM109.2,0h-2.336V-1.148h-.031A2.607,2.607,0,0,1,104.453.2a2.492,2.492,0,0,1-1.832-.66,2.366,2.366,0,0,1-.668-1.762q0-2.328,2.758-2.687l2.172-.289q0-1.312-1.422-1.312a4.853,4.853,0,0,0-2.719.852V-7.523a6.116,6.116,0,0,1,1.41-.469,7.413,7.413,0,0,1,1.629-.2q3.422,0,3.422,3.414Zm-2.32-3.25v-.539L105.43-3.6q-1.2.156-1.2,1.086a.9.9,0,0,0,.293.691,1.126,1.126,0,0,0,.793.27,1.462,1.462,0,0,0,1.133-.48A1.735,1.735,0,0,0,106.883-3.25ZM117.219-.289A4.881,4.881,0,0,1,114.8.2,4.083,4.083,0,0,1,111.82-.922,3.859,3.859,0,0,1,110.68-3.8,4.251,4.251,0,0,1,111.9-7.02a4.518,4.518,0,0,1,3.27-1.176,4.2,4.2,0,0,1,2.047.375v2.094a2.814,2.814,0,0,0-1.727-.578,2.275,2.275,0,0,0-1.684.621,2.317,2.317,0,0,0-.621,1.715,2.28,2.28,0,0,0,.594,1.668,2.182,2.182,0,0,0,1.633.605,3.258,3.258,0,0,0,1.8-.578Zm6.453.2A3.649,3.649,0,0,1,122.023.2q-2.609,0-2.609-2.711V-6.18h-1.3V-8h1.3V-9.727l2.461-.7V-8h1.8v1.82h-1.8v3.234q0,1.25.992,1.25a1.673,1.673,0,0,0,.8-.227Zm2.641-9.172a1.442,1.442,0,0,1-1.023-.371,1.2,1.2,0,0,1-.4-.91,1.153,1.153,0,0,1,.4-.906,1.49,1.49,0,0,1,1.023-.352,1.486,1.486,0,0,1,1.027.352,1.158,1.158,0,0,1,.395.906,1.191,1.191,0,0,1-.395.922A1.466,1.466,0,0,1,126.313-9.266ZM127.531,0h-2.469V-8h2.469Zm9.7-8L134.25,0h-2.812L128.6-8h2.641l1.391,4.93a7.2,7.2,0,0,1,.273,1.422h.031a8.069,8.069,0,0,1,.289-1.375L134.648-8ZM144.7,0h-2.336V-1.148h-.031A2.607,2.607,0,0,1,139.945.2a2.492,2.492,0,0,1-1.832-.66,2.366,2.366,0,0,1-.668-1.762q0-2.328,2.758-2.687l2.172-.289q0-1.312-1.422-1.312a4.853,4.853,0,0,0-2.719.852V-7.523a6.116,6.116,0,0,1,1.41-.469,7.413,7.413,0,0,1,1.629-.2q3.422,0,3.422,3.414Zm-2.32-3.25v-.539l-1.453.188q-1.2.156-1.2,1.086a.9.9,0,0,0,.293.691,1.126,1.126,0,0,0,.793.27,1.462,1.462,0,0,0,1.133-.48A1.735,1.735,0,0,0,142.375-3.25Z" transform="translate(1137 865.649)" fill="#212429"/>
    </g>
  </g>
</svg>
