<svg xmlns="http://www.w3.org/2000/svg" xmlns:xlink="http://www.w3.org/1999/xlink" width="110" height="110" viewBox="0 0 110 110">
  <defs>
    <filter id="Trazado_982547" x="0" y="0" width="110" height="110" filterUnits="userSpaceOnUse">
      <feOffset dy="3" input="SourceAlpha"/>
      <feGaussianBlur stdDeviation="3" result="blur"/>
      <feFlood flood-opacity="0.161"/>
      <feComposite operator="in" in2="blur"/>
      <feComposite in="SourceGraphic"/>
    </filter>
  </defs>
  <g id="Grupo_1218726" data-name="Grupo 1218726" transform="translate(-3296 -2158.989)">
    <g id="Grupo_1217629" data-name="Grupo 1217629" transform="translate(3305 2164.989)">
      <g id="Grupo_1211001" data-name="Grupo 1211001" transform="translate(0 0)">
        <g id="Grupo_1200151" data-name="Grupo 1200151">
          <g id="Grupo_1185952" data-name="Grupo 1185952" transform="translate(0 0)">
            <g id="Grupo_1184115" data-name="Grupo 1184115" transform="translate(0 0)">
              <g id="Grupo_1183744" data-name="Grupo 1183744">
                <g id="Grupo_1181546" data-name="Grupo 1181546">
                  <g id="Grupo_1177563" data-name="Grupo 1177563">
                    <g id="Grupo_1173148" data-name="Grupo 1173148">
                      <g id="Grupo_1163803" data-name="Grupo 1163803" transform="translate(0 0)">
                        <g id="Grupo_1163015" data-name="Grupo 1163015" transform="translate(0 0)">
                          <g id="Grupo_1157017" data-name="Grupo 1157017">
                            <g id="Grupo_1155793" data-name="Grupo 1155793">
                              <g id="Grupo_1154704" data-name="Grupo 1154704">
                                <g id="Grupo_1150790" data-name="Grupo 1150790">
                                  <g id="Grupo_1154214" data-name="Grupo 1154214">
                                    <g id="Grupo_1152583" data-name="Grupo 1152583">
                                      <g id="Grupo_1146973" data-name="Grupo 1146973">
                                        <g id="Grupo_1146954" data-name="Grupo 1146954">
                                          <g transform="matrix(1, 0, 0, 1, -9, -6)" filter="url(#Trazado_982547)">
                                            <g id="Trazado_982547-2" data-name="Trazado 982547" transform="translate(9 6)" fill="#f2d944">
                                              <path d="M 46.00000381469727 90.49986267089844 C 39.99188232421875 90.49986267089844 34.16427230834961 89.32350158691406 28.67905807495117 87.00344848632812 C 23.38020324707031 84.76223754882812 18.62104415893555 81.55341339111328 14.53375053405762 77.46613311767578 C 10.44647026062012 73.37885284423828 7.237643718719482 68.61968994140625 4.996417045593262 63.32085037231445 C 2.676363706588745 57.83565139770508 1.500003814697266 52.00805282592773 1.500003814697266 45.99993133544922 C 1.500003814697266 39.99182510375977 2.676363706588745 34.16422653198242 4.996417045593262 28.67901039123535 C 7.237643718719482 23.38017082214355 10.44647026062012 18.62101173400879 14.53375053405762 14.53373146057129 C 18.62104415893555 10.44645118713379 23.38020324707031 7.237624645233154 28.67905807495117 4.996411323547363 C 34.16427230834961 2.676357984542847 39.99188232421875 1.499997973442078 46.00000381469727 1.499997973442078 C 52.00812530517578 1.499997973442078 57.83573532104492 2.676357984542847 63.32094955444336 4.996411323547363 C 68.61980438232422 7.237624645233154 73.37896728515625 10.44645118713379 77.46625518798828 14.53373146057129 C 81.55353546142578 18.62101173400879 84.76236724853516 23.38017082214355 87.00359344482422 28.67901039123535 C 89.32364654541016 34.16422653198242 90.5 39.99182510375977 90.5 45.99993133544922 C 90.5 52.00805282592773 89.32364654541016 57.83565139770508 87.00359344482422 63.32085037231445 C 84.76236724853516 68.61968994140625 81.55353546142578 73.37885284423828 77.46625518798828 77.46613311767578 C 73.37896728515625 81.55341339111328 68.61980438232422 84.76223754882812 63.32094955444336 87.00344848632812 C 57.83573532104492 89.32350158691406 52.00812530517578 90.49986267089844 46.00000381469727 90.49986267089844 Z" stroke="none"/>
                                              <path d="M 46.00000381469727 3 C 40.19371795654297 3 34.56270217895508 4.136505126953125 29.26337432861328 6.377914428710938 C 24.14333343505859 8.54351806640625 19.54441833496094 11.64438629150391 15.59440612792969 15.59439086914062 C 11.64440155029297 19.54440307617188 8.54351806640625 24.14330291748047 6.377914428710938 29.26334381103516 C 4.136505126953125 34.56266021728516 3.000007629394531 40.19366073608398 3.000007629394531 45.99993133544922 C 3.000007629394531 51.80620193481445 4.136505126953125 57.43720245361328 6.377914428710938 62.73651885986328 C 8.54351806640625 67.85655975341797 11.64440155029297 72.45545959472656 15.59440612792969 76.40547180175781 C 19.54441833496094 80.35547637939453 24.14333343505859 83.45634460449219 29.26337432861328 85.6219482421875 C 34.56270217895508 87.86335754394531 40.19371795654297 88.99986267089844 46.00000381469727 88.99986267089844 C 51.80628967285156 88.99986267089844 57.43730545043945 87.86335754394531 62.73661804199219 85.6219482421875 C 67.85667419433594 83.45634460449219 72.45557403564453 80.35547637939453 76.40558624267578 76.40547180175781 C 80.35560607910156 72.45545959472656 83.45647430419922 67.85655975341797 85.62207794189453 62.73651885986328 C 87.86350250244141 57.43720245361328 89 51.80620193481445 89 45.99993133544922 C 89 40.19366073608398 87.86350250244141 34.56266021728516 85.62207794189453 29.26334381103516 C 83.45647430419922 24.14330291748047 80.35560607910156 19.54440307617188 76.40558624267578 15.59439086914062 C 72.45557403564453 11.64438629150391 67.85667419433594 8.54351806640625 62.73661804199219 6.377914428710938 C 57.43730545043945 4.136505126953125 51.80628967285156 3 46.00000381469727 3 M 46.00000381469727 0 C 71.40509033203125 0 92 20.59487152099609 92 45.99993133544922 C 92 71.40499114990234 71.40509033203125 91.99986267089844 46.00000381469727 91.99986267089844 C 20.59490203857422 91.99986267089844 7.62939453125e-06 71.40499114990234 7.62939453125e-06 45.99993133544922 C 7.62939453125e-06 20.59487152099609 20.59490203857422 0 46.00000381469727 0 Z" stroke="none" fill="#ba9c5a"/>
                                            </g>
                                          </g>
                                        </g>
                                      </g>
                                    </g>
                                  </g>
                                </g>
                              </g>
                            </g>
                          </g>
                        </g>
                      </g>
                    </g>
                  </g>
                </g>
              </g>
            </g>
          </g>
        </g>
      </g>
    </g>
    <g id="leyes_1_" data-name="leyes (1)" transform="translate(3313.624 2182.155)">
      <path id="Trazado_1089779" data-name="Trazado 1089779" d="M70.782,61.156a5.728,5.728,0,0,1-4.059-1.683l-.2-.2,1.761-1.761.2.2a3.238,3.238,0,0,0,3.753.608A19.677,19.677,0,0,1,87.7,57.431a17.143,17.143,0,0,0,11.7,0,19.691,19.691,0,0,1,15.472.889,3.238,3.238,0,0,0,3.753-.608l.2-.2,1.761,1.761-.2.2a5.736,5.736,0,0,1-6.627,1.075,17.194,17.194,0,0,0-13.506-.777,19.644,19.644,0,0,1-13.4,0,17.191,17.191,0,0,0-13.506.777A5.741,5.741,0,0,1,70.782,61.156Zm0,0" transform="translate(-56.167 -47.424)" fill="#ffa912"/>
      <path id="Trazado_1089780" data-name="Trazado 1089780" d="M151.653,296.215H166.6a7.473,7.473,0,0,1,7.473,7.473H144.18A7.473,7.473,0,0,1,151.653,296.215Zm0,0" transform="translate(-121.735 -250.026)" fill="#ffb531"/>
      <path id="Trazado_1089781" data-name="Trazado 1089781" d="M261.162,296.215H256.18a7.473,7.473,0,0,1,7.473,7.473h4.982A7.473,7.473,0,0,0,261.162,296.215Zm0,0" transform="translate(-216.298 -250.026)" fill="#ffa912"/>
      <g id="Grupo_1218725" data-name="Grupo 1218725" transform="translate(1.273 1.335)">
        <path id="Trazado_1089782" data-name="Trazado 1089782" d="M223.65,11.848a3.736,3.736,0,1,0-6.227,2.766V52.947H222.4V14.614A3.709,3.709,0,0,0,223.65,11.848Zm0,0" transform="translate(-183.796 -8.092)" fill="#ffb531"/>
        <path id="Trazado_1089783" data-name="Trazado 1089783" d="M8.18,192.215H33.088a7.473,7.473,0,0,1-7.473,7.473H15.652A7.472,7.472,0,0,1,8.18,192.215Zm0,0" transform="translate(-8.18 -163.551)" fill="#ffb531"/>
        <path id="Trazado_1089784" data-name="Trazado 1089784" d="M312.18,192.215h24.909a7.473,7.473,0,0,1-7.473,7.473h-9.963A7.472,7.472,0,0,1,312.18,192.215Zm0,0" transform="translate(-264.853 -163.551)" fill="#ffb531"/>
      </g>
      <path id="Trazado_1089785" data-name="Trazado 1089785" d="M399.653,192.215a7.473,7.473,0,0,1-7.473,7.473h4.982a7.473,7.473,0,0,0,7.473-7.473Zm0,0" transform="translate(-331.126 -162.216)" fill="#ffa912"/>
      <path id="Trazado_1089786" data-name="Trazado 1089786" d="M14.74,72.908a1.291,1.291,0,0,0-2.025,0L.261,90.344a1.245,1.245,0,1,0,2.025,1.447L13.727,75.775,25.169,91.791a1.245,1.245,0,1,0,2.025-1.447Zm0,0" transform="translate(0 -61.069)" fill="#d6d6d4"/>
      <path id="Trazado_1089787" data-name="Trazado 1089787" d="M331.195,90.344,318.74,72.908a1.291,1.291,0,0,0-2.025,0L304.261,90.344a1.245,1.245,0,1,0,2.025,1.447l11.442-16.016L329.17,91.791a1.245,1.245,0,0,0,2.025-1.447Zm0,0" transform="translate(-256.674 -61.069)" fill="#d6d6d4"/>
      <path id="Trazado_1089788" data-name="Trazado 1089788" d="M95.653,192.215a7.473,7.473,0,0,1-7.473,7.473h4.982a7.473,7.473,0,0,0,7.473-7.473Zm0,0" transform="translate(-74.453 -162.216)" fill="#ffa912"/>
      <path id="Trazado_1089789" data-name="Trazado 1089789" d="M84.223,354.178H49.351a11.138,11.138,0,0,1,0-9.963H84.223A11.138,11.138,0,0,0,84.223,354.178Zm0,0" transform="translate(-40.675 -290.553)" fill="#803f37"/>
      <path id="Trazado_1089790" data-name="Trazado 1089790" d="M75.848,344.8l.308-.582H73.393a12.433,12.433,0,0,0,0,9.963h2.758l-.294-.556A9.934,9.934,0,0,1,75.848,344.8Zm0,0" transform="translate(-61.088 -290.553)" fill="#ffb531"/>
      <path id="Trazado_1089791" data-name="Trazado 1089791" d="M235.375,344.819l.335-.6h-2.78a12.438,12.438,0,0,0,0,9.963H235.7l-.31-.556A9.927,9.927,0,0,1,235.375,344.819Zm0,0" transform="translate(-195.789 -290.553)" fill="#ffb531"/>
      <path id="Trazado_1089792" data-name="Trazado 1089792" d="M273.351,344.215a11.137,11.137,0,0,0,0,9.963h23.663a11.138,11.138,0,0,1,0-9.963Zm0,0" transform="translate(-229.803 -290.553)" fill="#e0e0de"/>
      <path id="Trazado_1089793" data-name="Trazado 1089793" d="M111.73,368.215h14.945v2.491H111.73Zm0,0" transform="translate(-94.336 -310.817)" fill="#f98500"/>
      <path id="Trazado_1089794" data-name="Trazado 1089794" d="M295.923,368.215H272.259a11.3,11.3,0,0,0,0,2.491h23.663A11.3,11.3,0,0,1,295.923,368.215Zm0,0" transform="translate(-229.817 -310.817)" fill="#d6d6d4"/>
      <path id="Trazado_1089795" data-name="Trazado 1089795" d="M84.223,418.178H49.351a11.138,11.138,0,0,1,0-9.963H84.223A11.138,11.138,0,0,0,84.223,418.178Zm0,0" transform="translate(-40.675 -344.59)" fill="#773730"/>
      <path id="Trazado_1089796" data-name="Trazado 1089796" d="M75.848,408.8l.308-.582H73.393a12.433,12.433,0,0,0,0,9.963h2.758l-.294-.556A9.935,9.935,0,0,1,75.848,408.8Zm0,0" transform="translate(-61.088 -344.589)" fill="#ffb531"/>
      <path id="Trazado_1089797" data-name="Trazado 1089797" d="M235.375,408.819l.335-.6h-2.78a12.438,12.438,0,0,0,0,9.963H235.7l-.31-.556A9.927,9.927,0,0,1,235.375,408.819Zm0,0" transform="translate(-195.789 -344.59)" fill="#ffb531"/>
      <path id="Trazado_1089798" data-name="Trazado 1089798" d="M273.351,408.215a11.137,11.137,0,0,0,0,9.963h23.663a11.138,11.138,0,0,1,0-9.963Zm0,0" transform="translate(-229.803 -344.59)" fill="#d6d6d4"/>
      <path id="Trazado_1089799" data-name="Trazado 1089799" d="M111.73,432.215h14.945v2.491H111.73Zm0,0" transform="translate(-94.336 -364.853)" fill="#f98500"/>
      <path id="Trazado_1089800" data-name="Trazado 1089800" d="M295.923,432.215H272.259a11.3,11.3,0,0,0,0,2.491h23.663A11.3,11.3,0,0,1,295.923,432.215Zm0,0" transform="translate(-229.817 -364.853)" fill="#c7c7c5"/>
      <path id="Trazado_1089801" data-name="Trazado 1089801" d="M111.73,432.215h14.945v2.491H111.73Zm0,0" transform="translate(-94.336 -364.853)"/>
      <path id="Trazado_1089802" data-name="Trazado 1089802" d="M111.73,368.215h14.945v2.491H111.73Zm0,0" transform="translate(-94.336 -310.817)"/>
      <path id="Trazado_1089803" data-name="Trazado 1089803" d="M74.673,29.275,63.053,13.007a5.7,5.7,0,0,0,1.325-.959l.2-.2-1.761-1.761-.2.2a3.256,3.256,0,0,1-3.759.612A19.822,19.822,0,0,0,43.4,10.01a16.788,16.788,0,0,1-2.117.6V8.365a4.982,4.982,0,1,0-7.473,0v2.242a16.714,16.714,0,0,1-2.11-.6,19.809,19.809,0,0,0-15.463.885,3.32,3.32,0,0,1-3.765-.609l-.2-.2-1.761,1.761.2.2A5.707,5.707,0,0,0,12.034,13L.413,29.275l.017.013A1.218,1.218,0,0,0,.18,30,8.729,8.729,0,0,0,8.9,38.716h9.963A8.73,8.73,0,0,0,27.58,30a1.218,1.218,0,0,0-.249-.711l.018-.013L16.121,13.566a6.027,6.027,0,0,0,1.21-.437,17.29,17.29,0,0,1,13.5-.78,19.449,19.449,0,0,0,2.972.793v31.8H30.071a8.727,8.727,0,0,0-8.619,7.473H8.828a1.246,1.246,0,0,0-1.113.689,12.433,12.433,0,0,0-.239,10.52,12.434,12.434,0,0,0,.239,10.521,1.245,1.245,0,0,0,1.113.688H67.364a1.245,1.245,0,0,0,1.115-1.8,9.943,9.943,0,0,1,0-8.85,22.165,22.165,0,0,1,.086-.247,1.127,1.127,0,0,0,.027-.156.941.941,0,0,0,0-.309,1.127,1.127,0,0,0-.027-.156,1,1,0,0,0-.051-.145.942.942,0,0,0-.035-.1,9.943,9.943,0,0,1,0-8.85,1.246,1.246,0,0,0-1.115-1.8H53.634a8.726,8.726,0,0,0-8.618-7.473H41.279v-31.8a19.676,19.676,0,0,0,2.971-.794,17.291,17.291,0,0,1,13.5.781,5.814,5.814,0,0,0,1.208.438L47.74,29.275l.017.013a1.218,1.218,0,0,0-.25.711,8.729,8.729,0,0,0,8.718,8.718h9.963A8.73,8.73,0,0,0,74.906,30a1.218,1.218,0,0,0-.249-.711ZM13.88,14.706,23.914,28.753H3.845Zm4.982,21.52H8.9a6.238,6.238,0,0,1-6.1-4.982H24.964a6.237,6.237,0,0,1-6.1,4.982ZM65.02,59.889a12.376,12.376,0,0,0,.5,2.491h-21c-.029-.072-.064-.143-.092-.215-.047-.125-.09-.249-.132-.374-.074-.216-.137-.437-.195-.657-.032-.125-.066-.249-.093-.373-.051-.24-.091-.481-.125-.722-.006-.046-.014-.091-.02-.137Zm0,7.473H43.863a1.061,1.061,0,0,1,.02-.137c.033-.242.074-.483.125-.722.027-.125.061-.249.093-.373.058-.221.125-.441.195-.658.043-.125.085-.249.132-.373.027-.072.063-.144.092-.215h21a12.349,12.349,0,0,0-.5,2.479Zm-23.4-11.582-.009.032a12.514,12.514,0,0,0-.216,1.245c-.013.107-.025.212-.036.319-.041.415-.07.829-.071,1.245v.032c0,.417.03.831.071,1.245.011.108.023.212.036.318a12.514,12.514,0,0,0,.216,1.245l.009.032q.1.442.239.872H39.47a9.93,9.93,0,0,1,0-7.473h2.389q-.136.448-.239.892ZM14.627,64.871h22.2a12.452,12.452,0,0,0,0,7.473h-22.2A9.936,9.936,0,0,1,14.627,64.871Zm22.2-2.491h-22.2a9.936,9.936,0,0,1,0-7.473h22.2a12.452,12.452,0,0,0,0,7.473ZM9.631,54.907h2.356a12.452,12.452,0,0,0,0,7.473H9.631a9.953,9.953,0,0,1,0-7.473Zm0,9.963h2.356a12.452,12.452,0,0,0,0,7.473H9.631a9.953,9.953,0,0,1,0-7.473Zm29.838,7.473a9.93,9.93,0,0,1,0-7.473h2.389q-.136.435-.239.872l-.009.032a12.514,12.514,0,0,0-.216,1.245c-.013.107-.025.212-.036.319-.041.415-.07.829-.071,1.245v.032c0,.417.03.831.071,1.245.011.108.023.212.036.318a12.514,12.514,0,0,0,.216,1.245l.009.032q.1.442.239.872Zm5.047,0c-.029-.072-.064-.143-.092-.215-.047-.125-.09-.249-.132-.374-.074-.216-.137-.437-.195-.657-.032-.125-.066-.249-.093-.373-.051-.24-.091-.481-.125-.722-.006-.046-.014-.091-.02-.137H65.02a12.385,12.385,0,0,0,.5,2.491ZM65.017,57.4H43.863a1.061,1.061,0,0,1,.02-.137c.033-.242.074-.483.125-.722.027-.125.061-.249.093-.373.058-.221.125-.441.195-.658.043-.125.085-.249.132-.373.027-.072.063-.144.092-.215h21a12.35,12.35,0,0,0-.5,2.479Zm-13.9-4.982H23.967a6.238,6.238,0,0,1,6.1-4.982H45.016a6.237,6.237,0,0,1,6.1,4.982ZM36.3,44.944V7.857a1.249,1.249,0,0,0-.411-.926,2.456,2.456,0,0,1-.834-1.842,2.491,2.491,0,1,1,4.982,0A2.458,2.458,0,0,1,39.2,6.932a1.246,1.246,0,0,0-.41.926V44.944ZM71.24,28.753H51.172L61.206,14.706Zm-5.052,7.473H56.225a6.238,6.238,0,0,1-6.1-4.982H72.29a6.237,6.237,0,0,1-6.1,4.982Zm0,0" transform="translate(-0.152)"/>
    </g>
  </g>
</svg>
