<svg xmlns="http://www.w3.org/2000/svg" width="105" height="115.5" viewBox="0 0 105 115.5">
  <g id="Grupo_1219048" data-name="Grupo 1219048" transform="translate(-180 -4158.071)">
    <rect id="Rectángulo_420870" data-name="Rectángulo 420870" width="78" height="113" transform="translate(207 4158.071)" fill="#f2d944"/>
    <g id="obediente_7_" data-name="obediente (7)" transform="translate(180 4172.168)">
      <g id="Grupo_1219038" data-name="Grupo 1219038" transform="translate(6.719 1.524)">
        <g id="Grupo_1219036" data-name="Grupo 1219036" transform="translate(0)">
          <g id="Grupo_1219033" data-name="Grupo 1219033" transform="translate(0 39.816)">
            <g id="Grupo_1219026" data-name="Grupo 1219026" transform="translate(0 0)">
              <path id="Trazado_1090077" data-name="Trazado 1090077" d="M39.243,204.354l3.66,6.34a.61.61,0,0,0,.528.3h25.08a.61.61,0,0,0,.528-.3l3.66-6.34a.61.61,0,0,0-.528-.914h-32.4A.61.61,0,0,0,39.243,204.354Z" transform="translate(-39.16 -203.44)" fill="#fed402"/>
            </g>
            <g id="Grupo_1219032" data-name="Grupo 1219032" transform="translate(0 0)">
              <g id="Grupo_1219027" data-name="Grupo 1219027" transform="translate(50.504 0)">
                <path id="Trazado_1090078" data-name="Trazado 1090078" d="M307.464,204.354l3.66,6.34a.61.61,0,0,0,.528.3h25.08a.61.61,0,0,0,.528-.3l3.66-6.34a.61.61,0,0,0-.528-.914h-32.4A.61.61,0,0,0,307.464,204.354Z" transform="translate(-307.382 -203.44)" fill="#fed402"/>
              </g>
              <g id="Grupo_1219028" data-name="Grupo 1219028" transform="translate(0 0)">
                <path id="Trazado_1090079" data-name="Trazado 1090079" d="M39.243,204.354l3.66,6.34a.61.61,0,0,0,.528.3h25.08a.61.61,0,0,0,.528-.3l3.66-6.34a.61.61,0,0,0-.528-.914h-32.4A.61.61,0,0,0,39.243,204.354Z" transform="translate(-39.16 -203.44)" fill="#ca6e59"/>
              </g>
              <g id="Grupo_1219029" data-name="Grupo 1219029" transform="translate(0)">
                <path id="Trazado_1090080" data-name="Trazado 1090080" d="M51.516,210.693l-3.66-6.34a.61.61,0,0,1,.528-.914H39.771a.61.61,0,0,0-.528.914l3.66,6.34a.61.61,0,0,0,.528.3h8.612A.61.61,0,0,1,51.516,210.693Z" transform="translate(-39.161 -203.439)" fill="#bb5d4c"/>
              </g>
              <g id="Grupo_1219030" data-name="Grupo 1219030" transform="translate(50.504 0)">
                <path id="Trazado_1090081" data-name="Trazado 1090081" d="M307.464,204.354l3.66,6.34a.61.61,0,0,0,.528.3h25.08a.61.61,0,0,0,.528-.3l3.66-6.34a.61.61,0,0,0-.528-.914h-32.4A.61.61,0,0,0,307.464,204.354Z" transform="translate(-307.382 -203.44)" fill="#ca6e59"/>
              </g>
              <g id="Grupo_1219031" data-name="Grupo 1219031" transform="translate(51.565)">
                <path id="Trazado_1090082" data-name="Trazado 1090082" d="M320.8,210.693l-3.66-6.34a.61.61,0,0,1,.528-.914h-9.676a.61.61,0,0,0-.528.914l3.66,6.34a.61.61,0,0,0,.528.3h9.676A.609.609,0,0,1,320.8,210.693Z" transform="translate(-307.383 -203.439)" fill="#bb5d4c"/>
              </g>
            </g>
          </g>
          <path id="Trazado_1090083" data-name="Trazado 1090083" d="M244.108,141.4v-37.26a1.016,1.016,0,0,0-1.016-1.016h-6.11a1.016,1.016,0,0,0-1.016,1.016V141.4h8.142Z" transform="translate(-197.974 -83.692)" fill="#bb5d4c"/>
          <path id="Trazado_1090084" data-name="Trazado 1090084" d="M239.414,141.4v-37.26a1.016,1.016,0,0,1,1.016-1.016h-3.448a1.016,1.016,0,0,0-1.016,1.016V141.4h3.448Z" transform="translate(-197.886 -83.692)" fill="#a44f3e"/>
          <g id="Grupo_1219034" data-name="Grupo 1219034" transform="translate(36.374 0)">
            <circle id="Elipse_14391" data-name="Elipse 14391" cx="5.689" cy="5.689" r="5.689" fill="#883f2e"/>
          </g>
          <g id="Grupo_1219035" data-name="Grupo 1219035" transform="translate(36.453)">
            <path id="Trazado_1090085" data-name="Trazado 1090085" d="M233.086,13.189a5.687,5.687,0,0,1,3.148-5.09,5.689,5.689,0,1,0,0,10.179A5.687,5.687,0,0,1,233.086,13.189Z" transform="translate(-228.005 -7.5)" fill="#6d3326"/>
          </g>
        </g>
        <g id="Grupo_1219037" data-name="Grupo 1219037" transform="translate(7.832 55.07)">
          <path id="Trazado_1090086" data-name="Trazado 1090086" d="M228.253,300.217v-4.668a4.064,4.064,0,0,0-4.064-4.064H213.32a4.064,4.064,0,0,0-4.064,4.064v4.668Z" transform="translate(-184.252 -291.485)" fill="#883f2e"/>
          <path id="Trazado_1090087" data-name="Trazado 1090087" d="M216.112,300.217v-4.668a4.064,4.064,0,0,1,4.064-4.064h-6.857a4.064,4.064,0,0,0-4.064,4.064v4.668Z" transform="translate(-184.052 -291.485)" fill="#6d3326"/>
          <path id="Trazado_1090088" data-name="Trazado 1090088" d="M205.647,343.713V337.94a3.483,3.483,0,0,0-3.483-3.483H174.655a3.483,3.483,0,0,0-3.483,3.483v5.773Z" transform="translate(-153.816 -325.725)" fill="#bb5d4c"/>
          <path id="Trazado_1090089" data-name="Trazado 1090089" d="M179.743,343.713V337.94a3.483,3.483,0,0,1,3.483-3.483h-8.57a3.483,3.483,0,0,0-3.483,3.483v5.773Z" transform="translate(-153.283 -325.725)" fill="#a44f3e"/>
          <path id="Trazado_1090090" data-name="Trazado 1090090" d="M82.862,379.006a5.3,5.3,0,0,0-5.159,5.428v10.313a5.3,5.3,0,0,0,5.159,5.428h2.091V385.791H95.5v14.384h59.075V379.006Z" transform="translate(-77.703 -361.221)" fill="#fff3de"/>
        </g>
      </g>
      <g id="Grupo_1219047" data-name="Grupo 1219047" transform="translate(1.524 74.379)">
        <g id="Grupo_1219042" data-name="Grupo 1219042" transform="translate(0)">
          <g id="Grupo_1219039" data-name="Grupo 1219039">
            <path id="Trazado_1090091" data-name="Trazado 1090091" d="M32.051,400.174a5.428,5.428,0,0,1-5.428-5.428V384.434a5.428,5.428,0,0,1,5.428-5.428H24.18a10.584,10.584,0,0,0,0,21.169h7.87Z" transform="translate(-13.596 -379.006)" fill="#3675bb"/>
          </g>
          <g id="Grupo_1219040" data-name="Grupo 1219040">
            <path id="Trazado_1090092" data-name="Trazado 1090092" d="M18.737,389.59a10.584,10.584,0,0,1,10.584-10.584H24.18a10.584,10.584,0,0,0,0,21.169h5.141A10.585,10.585,0,0,1,18.737,389.59Z" transform="translate(-13.596 -379.006)" fill="#2b68b6"/>
          </g>
          <g id="Grupo_1219041" data-name="Grupo 1219041" transform="translate(13.027 0.007)">
            <path id="Trazado_1090093" data-name="Trazado 1090093" d="M85.331,394.255a5.422,5.422,0,0,1-2.487-4.561V379.381c0-.114,0-.227.012-.34a5.428,5.428,0,0,0-5.152,5.421v10.313a5.428,5.428,0,0,0,5.428,5.428h2.2Z" transform="translate(-77.703 -379.041)" fill="#ffe5c2"/>
            <path id="Trazado_1090094" data-name="Trazado 1090094" d="M169.857,458.174h62.149v5.081H169.857Z" transform="translate(-155.131 -442.094)" fill="#ffe5c2"/>
          </g>
        </g>
        <g id="Grupo_1219046" data-name="Grupo 1219046" transform="translate(19.657 6.785)">
          <g id="Grupo_1219043" data-name="Grupo 1219043">
            <path id="Trazado_1090095" data-name="Trazado 1090095" d="M126.338,430.5V412.395h-11.1V430.5a.61.61,0,0,0,.956.5l4.593-3.178L125.382,431A.61.61,0,0,0,126.338,430.5Z" transform="translate(-115.24 -412.395)" fill="#fb2b3a"/>
          </g>
          <g id="Grupo_1219045" data-name="Grupo 1219045" transform="translate(0)">
            <g id="Grupo_1219044" data-name="Grupo 1219044">
              <path id="Trazado_1090096" data-name="Trazado 1090096" d="M120.349,412.395H115.24V430.5a.61.61,0,0,0,.956.5l4.153-2.874Z" transform="translate(-115.24 -412.395)" fill="#e41f2d"/>
            </g>
          </g>
        </g>
      </g>
      <path id="Trazado_1090097" data-name="Trazado 1090097" d="M102.2,94.21H99.227V76.549H102.2a1.486,1.486,0,0,0,0-2.971H72.9V69.635a4.851,4.851,0,0,0-4.81-4.88H65.466V61.691a5.416,5.416,0,0,0-5.214-5.443V32.283a1.464,1.464,0,1,0-2.928,0V56.244H52.431V21.909h4.893v3.442a1.464,1.464,0,1,0,2.928,0V21.414a2.461,2.461,0,0,0-2.44-2.476H56.342V13.9a7,7,0,0,0,5.308-5.385H79.592v2.709l-14.315,27.6a2.052,2.052,0,0,0-1.558,1.025,2.111,2.111,0,0,0,0,2.08L67.235,48.1a2.05,2.05,0,0,0,1.775,1.04H82.791a1.486,1.486,0,0,0,0-2.971H69.517l-2.5-4.4H95.1l-2.5,4.4H89.623a1.486,1.486,0,0,0,0,2.971H93.1a2.05,2.05,0,0,0,1.775-1.04l3.516-6.179a2.112,2.112,0,0,0,0-2.08,2.052,2.052,0,0,0-1.558-1.025L82.52,11.225V8.515H88a1.486,1.486,0,0,0,0-2.971H61.649a6.907,6.907,0,0,0-13.543,0H21.755a1.486,1.486,0,0,0,0,2.971h5.48v2.709L12.92,38.821a2.052,2.052,0,0,0-1.558,1.025,2.112,2.112,0,0,0,0,2.08h0l3.516,6.179a2.05,2.05,0,0,0,1.775,1.04H40.745a2.05,2.05,0,0,0,1.775-1.04l3.516-6.179a2.111,2.111,0,0,0,0-2.08,2.052,2.052,0,0,0-1.558-1.025l-14.315-27.6V8.515H48.106A7,7,0,0,0,53.413,13.9v5.038h-1.47a2.461,2.461,0,0,0-2.44,2.476V56.248a5.416,5.416,0,0,0-5.214,5.443v3.064H41.665a4.851,4.851,0,0,0-4.81,4.88v3.943H17.727a11.8,11.8,0,0,0,0,23.6h8.21v2.142a2.078,2.078,0,0,0,1.1,1.842,2.019,2.019,0,0,0,2.118-.132l3.579-2.513,3.579,2.513a2.019,2.019,0,0,0,2.118.132,2.078,2.078,0,0,0,1.1-1.842V97.18H102.2a1.485,1.485,0,0,0,0-2.97Zm-22.6-55.4h-11l11-21.2ZM82.52,17.6l11,21.2h-11Zm-55.285,0v21.2h-11Zm13,28.571H17.16l-2.5-4.4H42.74Zm.924-7.368h-11V17.6ZM50.877,7.03a4,4,0,1,1,4,4.059A4.035,4.035,0,0,1,50.877,7.03Zm-3.66,54.661a2.461,2.461,0,0,1,2.44-2.476H60.1a2.461,2.461,0,0,1,2.44,2.476v3.064H47.217ZM17.727,94.21a8.831,8.831,0,0,1,0-17.661h2.038a6.806,6.806,0,0,0-1.155,3.8V90.405a6.8,6.8,0,0,0,1.156,3.8ZM36.6,97.622l-3.033-2.13a1.446,1.446,0,0,0-1.666,0l-3.034,2.13V83.162H36.6ZM96.3,80.191H64.654a1.486,1.486,0,0,0,0,2.971H96.3V87.6H64.654a1.486,1.486,0,0,0,0,2.971H96.3V94.21H39.526V83.162H51.879a1.486,1.486,0,0,0,0-2.971H25.288a1.486,1.486,0,0,0,0,2.971h.649V94.21h-.649a3.782,3.782,0,0,1-3.75-3.8V80.354a3.782,3.782,0,0,1,3.75-3.8H48.826a1.486,1.486,0,0,0,0-2.971H39.783V69.635a1.9,1.9,0,0,1,1.882-1.909H68.09a1.9,1.9,0,0,1,1.882,1.909v3.943H55.658a1.486,1.486,0,0,0,0,2.971H96.3Z" transform="translate(-6.096 0)"/>
    </g>
  </g>
</svg>
