<svg xmlns="http://www.w3.org/2000/svg" xmlns:xlink="http://www.w3.org/1999/xlink" width="108" height="108" viewBox="0 0 108 108">
  <defs>
    <filter id="Trazado_978624" x="0" y="0" width="108" height="108" filterUnits="userSpaceOnUse">
      <feOffset dy="3" input="SourceAlpha"/>
      <feGaussianBlur stdDeviation="3" result="blur"/>
      <feFlood flood-opacity="0.161"/>
      <feComposite operator="in" in2="blur"/>
      <feComposite in="SourceGraphic"/>
    </filter>
    <filter id="Trazado_1076716" x="0" y="0" width="108" height="108" filterUnits="userSpaceOnUse">
      <feOffset dy="3" input="SourceAlpha"/>
      <feGaussianBlur stdDeviation="3" result="blur-2"/>
      <feFlood flood-opacity="0.161"/>
      <feComposite operator="in" in2="blur-2"/>
      <feComposite in="SourceGraphic"/>
    </filter>
  </defs>
  <g id="Grupo_1219050" data-name="Grupo 1219050" transform="translate(-616.5 -5249)">
    <g id="Grupo_1217636" data-name="Grupo 1217636" transform="translate(625.5 5255)">
      <g id="Grupo_1209740" data-name="Grupo 1209740" transform="translate(0)">
        <g id="Grupo_1208075" data-name="Grupo 1208075">
          <g id="Grupo_1181203" data-name="Grupo 1181203">
            <g id="Grupo_1172348" data-name="Grupo 1172348">
              <g id="Grupo_1171897" data-name="Grupo 1171897">
                <g id="Grupo_1171052" data-name="Grupo 1171052">
                  <g id="Grupo_1164581" data-name="Grupo 1164581">
                    <g id="Grupo_1144123" data-name="Grupo 1144123">
                      <g transform="matrix(1, 0, 0, 1, -9, -6)" filter="url(#Trazado_978624)">
                        <g id="Trazado_978624-2" data-name="Trazado 978624" transform="translate(9 6)" fill="#e5f0f6">
                          <path d="M 45 88.5 C 39.12687683105469 88.5 33.43022537231445 87.35007476806641 28.06830024719238 85.08217620849609 C 22.88852500915527 82.89131164550781 18.23629951477051 79.75458526611328 14.2408504486084 75.75914764404297 C 10.24541282653809 71.76370239257812 7.108687400817871 67.11147308349609 4.917825222015381 61.93170166015625 C 2.649924993515015 56.56977462768555 1.5 50.87312316894531 1.5 45 C 1.5 39.12687683105469 2.649924993515015 33.43022537231445 4.917825222015381 28.06830024719238 C 7.108687400817871 22.88852500915527 10.24541282653809 18.23629951477051 14.2408504486084 14.2408504486084 C 18.23629951477051 10.24541282653809 22.88852500915527 7.108687400817871 28.06830024719238 4.917825222015381 C 33.43022537231445 2.649924993515015 39.12687683105469 1.5 45 1.5 C 50.87312316894531 1.5 56.56977462768555 2.649924993515015 61.93170166015625 4.917825222015381 C 67.11147308349609 7.108687400817871 71.76370239257812 10.24541282653809 75.75914764404297 14.2408504486084 C 79.75458526611328 18.23629951477051 82.89131164550781 22.88852500915527 85.08217620849609 28.06830024719238 C 87.35007476806641 33.43022537231445 88.5 39.12687683105469 88.5 45 C 88.5 50.87312316894531 87.35007476806641 56.56977462768555 85.08217620849609 61.93170166015625 C 82.89131164550781 67.11147308349609 79.75458526611328 71.76370239257812 75.75914764404297 75.75914764404297 C 71.76370239257812 79.75458526611328 67.11147308349609 82.89131164550781 61.93170166015625 85.08217620849609 C 56.56977462768555 87.35007476806641 50.87312316894531 88.5 45 88.5 Z" stroke="none"/>
                          <path d="M 45 3 C 39.32871246337891 3 33.82865524291992 4.110054016113281 28.65262985229492 6.299339294433594 C 23.65165710449219 8.414573669433594 19.15968322753906 11.44334411621094 15.301513671875 15.301513671875 C 11.44334411621094 19.15968322753906 8.414573669433594 23.65165710449219 6.299339294433594 28.65262985229492 C 4.110054016113281 33.82865524291992 3 39.32871246337891 3 45 C 3 50.67128753662109 4.110054016113281 56.17134475708008 6.299339294433594 61.34737396240234 C 8.414573669433594 66.34834289550781 11.44334411621094 70.84031677246094 15.301513671875 74.698486328125 C 19.15968322753906 78.55665588378906 23.65165710449219 81.58542633056641 28.65262985229492 83.70066070556641 C 33.82865524291992 85.88994598388672 39.32871246337891 87 45 87 C 50.67128753662109 87 56.17134475708008 85.88994598388672 61.34737396240234 83.70066070556641 C 66.34834289550781 81.58542633056641 70.84031677246094 78.55665588378906 74.698486328125 74.698486328125 C 78.55665588378906 70.84031677246094 81.58542633056641 66.34834289550781 83.70066070556641 61.34737396240234 C 85.88994598388672 56.17134475708008 87 50.67128753662109 87 45 C 87 39.32871246337891 85.88994598388672 33.82865524291992 83.70066070556641 28.65262985229492 C 81.58542633056641 23.65165710449219 78.55665588378906 19.15968322753906 74.698486328125 15.301513671875 C 70.84031677246094 11.44334411621094 66.34834289550781 8.414573669433594 61.34737396240234 6.299339294433594 C 56.17134475708008 4.110054016113281 50.67128753662109 3 45 3 M 45 0 C 69.85281372070312 0 90 20.14718627929688 90 45 C 90 69.85281372070312 69.85281372070312 90 45 90 C 20.14718627929688 90 0 69.85281372070312 0 45 C 0 20.14718627929688 20.14718627929688 0 45 0 Z" stroke="none" fill="#1172b3"/>
                        </g>
                      </g>
                      <g transform="matrix(1, 0, 0, 1, -9, -6)" filter="url(#Trazado_1076716)">
                        <g id="Trazado_1076716-2" data-name="Trazado 1076716" transform="translate(9 6)" fill="#e5f0f6">
                          <path d="M 45 88.5 C 39.12687683105469 88.5 33.43022537231445 87.35007476806641 28.06830024719238 85.08217620849609 C 22.88852500915527 82.89131164550781 18.23629951477051 79.75458526611328 14.2408504486084 75.75914764404297 C 10.24541282653809 71.76370239257812 7.108687400817871 67.11147308349609 4.917825222015381 61.93170166015625 C 2.649924993515015 56.56977462768555 1.5 50.87312316894531 1.5 45 C 1.5 39.12687683105469 2.649924993515015 33.43022537231445 4.917825222015381 28.06830024719238 C 7.108687400817871 22.88852500915527 10.24541282653809 18.23629951477051 14.2408504486084 14.2408504486084 C 18.23629951477051 10.24541282653809 22.88852500915527 7.108687400817871 28.06830024719238 4.917825222015381 C 33.43022537231445 2.649924993515015 39.12687683105469 1.5 45 1.5 C 50.87312316894531 1.5 56.56977462768555 2.649924993515015 61.93170166015625 4.917825222015381 C 67.11147308349609 7.108687400817871 71.76370239257812 10.24541282653809 75.75914764404297 14.2408504486084 C 79.75458526611328 18.23629951477051 82.89131164550781 22.88852500915527 85.08217620849609 28.06830024719238 C 87.35007476806641 33.43022537231445 88.5 39.12687683105469 88.5 45 C 88.5 50.87312316894531 87.35007476806641 56.56977462768555 85.08217620849609 61.93170166015625 C 82.89131164550781 67.11147308349609 79.75458526611328 71.76370239257812 75.75914764404297 75.75914764404297 C 71.76370239257812 79.75458526611328 67.11147308349609 82.89131164550781 61.93170166015625 85.08217620849609 C 56.56977462768555 87.35007476806641 50.87312316894531 88.5 45 88.5 Z" stroke="none"/>
                          <path d="M 45 3 C 39.32871246337891 3 33.82865524291992 4.110054016113281 28.65262985229492 6.299339294433594 C 23.65165710449219 8.414573669433594 19.15968322753906 11.44334411621094 15.301513671875 15.301513671875 C 11.44334411621094 19.15968322753906 8.414573669433594 23.65165710449219 6.299339294433594 28.65262985229492 C 4.110054016113281 33.82865524291992 3 39.32871246337891 3 45 C 3 50.67128753662109 4.110054016113281 56.17134475708008 6.299339294433594 61.34737396240234 C 8.414573669433594 66.34834289550781 11.44334411621094 70.84031677246094 15.301513671875 74.698486328125 C 19.15968322753906 78.55665588378906 23.65165710449219 81.58542633056641 28.65262985229492 83.70066070556641 C 33.82865524291992 85.88994598388672 39.32871246337891 87 45 87 C 50.67128753662109 87 56.17134475708008 85.88994598388672 61.34737396240234 83.70066070556641 C 66.34834289550781 81.58542633056641 70.84031677246094 78.55665588378906 74.698486328125 74.698486328125 C 78.55665588378906 70.84031677246094 81.58542633056641 66.34834289550781 83.70066070556641 61.34737396240234 C 85.88994598388672 56.17134475708008 87 50.67128753662109 87 45 C 87 39.32871246337891 85.88994598388672 33.82865524291992 83.70066070556641 28.65262985229492 C 81.58542633056641 23.65165710449219 78.55665588378906 19.15968322753906 74.698486328125 15.301513671875 C 70.84031677246094 11.44334411621094 66.34834289550781 8.414573669433594 61.34737396240234 6.299339294433594 C 56.17134475708008 4.110054016113281 50.67128753662109 3 45 3 M 45 0 C 69.85281372070312 0 90 20.14718627929688 90 45 C 90 69.85281372070312 69.85281372070312 90 45 90 C 20.14718627929688 90 0 69.85281372070312 0 45 C 0 20.14718627929688 20.14718627929688 0 45 0 Z" stroke="none" fill="#1172b3"/>
                        </g>
                      </g>
                    </g>
                  </g>
                </g>
              </g>
            </g>
          </g>
        </g>
      </g>
    </g>
    <g id="banco_1_" data-name="banco (1)" transform="translate(634.829 5273.61)">
      <path id="Trazado_1090098" data-name="Trazado 1090098" d="M69.2,25.6H65.677l-6.459-4.886a11.965,11.965,0,1,0-18.8-14.233l-4.1-3.1a1.088,1.088,0,0,0-1.305,0L5.665,25.6H2.14A1.93,1.93,0,0,0,.21,27.53v5.756A1.928,1.928,0,0,0,2.14,35.2H6.189v3.369a1.083,1.083,0,0,0,1.082,1.082H8.8v21.7H7.282A1.076,1.076,0,0,0,6.2,62.433v2.231H4.014a1.083,1.083,0,0,0-1.082,1.082v4.562A1.083,1.083,0,0,0,4.014,71.39H67.328a1.083,1.083,0,0,0,1.082-1.082V65.746a1.083,1.083,0,0,0-1.082-1.082H65.141V62.433a1.076,1.076,0,0,0-1.082-1.082H62.62v-21.7h1.45a1.083,1.083,0,0,0,1.082-1.082V35.2H69.2a1.928,1.928,0,0,0,1.93-1.919V27.53A1.93,1.93,0,0,0,69.2,25.6ZM51.053,2.164a9.816,9.816,0,1,1-9.816,9.816A9.831,9.831,0,0,1,51.053,2.164ZM35.671,5.6l3.915,2.956a11.566,11.566,0,0,0-.513,3.424,12,12,0,0,0,11.98,11.98,11.827,11.827,0,0,0,6.392-1.874L62.1,25.6H9.245ZM8.353,37.491V35.2h11.8v2.287H8.353Zm20.335,2.164h1.528v21.7H28.688a1.076,1.076,0,0,0-1.082,1.082v2.231H22.319V62.433a1.076,1.076,0,0,0-1.082-1.082H19.8v-21.7h1.439a1.076,1.076,0,0,0,1.082-1.082V35.2h5.287v3.369A1.076,1.076,0,0,0,28.688,39.655Zm21.417,0h1.517v21.7H50.1a1.076,1.076,0,0,0-1.082,1.082v2.231H43.735V62.433a1.076,1.076,0,0,0-1.082-1.082H41.2v-21.7h1.45a1.076,1.076,0,0,0,1.082-1.082V35.2h5.287v3.369A1.076,1.076,0,0,0,50.1,39.655Zm-8.533,23.86v1.149H29.77V63.515ZM32.38,61.351v-21.7h6.659v21.7Zm9.191-23.86H29.77V35.2h11.8ZM17.634,39.655v21.7h-6.67v-21.7Zm-9.27,23.86h11.79v1.149H8.364ZM64.07,66.828h2.175v2.4H5.1v-2.4H64.07Zm-1.093-3.313v1.149H51.187V63.515Zm-9.191-2.164v-21.7h6.67v21.7Zm9.2-23.86h-11.8V35.2h11.8Zm5.979-4.451H2.374V27.764H68.967Z" transform="translate(0)"/>
      <path id="Trazado_1090099" data-name="Trazado 1090099" d="M46.806,1.94a9.816,9.816,0,1,0,9.816,9.816A9.831,9.831,0,0,0,46.806,1.94Zm5.365,14.724a3.77,3.77,0,0,1-3.77-3.759v-.323c0-.022.011-.033.011-.045a.72.72,0,0,1,.045-.212.6.6,0,0,1,.056-.2c.011-.022,0-.033.011-.045l2.3-4.44a2.129,2.129,0,0,0-.5.2,3.668,3.668,0,0,1-1.629.346,3.836,3.836,0,0,1-.6-.045V16.8H49.7a1.082,1.082,0,1,1,0,2.164H44.33a1.082,1.082,0,0,1,0-2.164h1.6V8.153a3.882,3.882,0,0,1-2.209-.3,2.112,2.112,0,0,0-.6-.234l2.008,4.518v.011a1.316,1.316,0,0,1,.045.223,1.3,1.3,0,0,1,.045.2v.335a3.765,3.765,0,0,1-7.529,0v-.368c.011-.067.033-.145.045-.212s.033-.145.056-.2a.084.084,0,0,0,.011-.045l2.889-5.588a.931.931,0,0,0,.089-.134A.244.244,0,0,0,40.8,6.3l.033-.033.067-.067a3.1,3.1,0,0,1,3.837-.257,2.284,2.284,0,0,0,1.182.011V5.632a1.082,1.082,0,1,1,2.164,0v.323a2.128,2.128,0,0,0,1.238-.033,3.021,3.021,0,0,1,3.86.357c.011,0,.011.011.022.011a.011.011,0,0,0,.011.011c0,.011.011.022.011.033a.848.848,0,0,1,.134.212l2.476,5.588v.011a1.3,1.3,0,0,1,.056.223,1.257,1.257,0,0,1,.033.2.011.011,0,0,1,.011.011v.323a3.77,3.77,0,0,1-3.77,3.759Z" transform="translate(4.247 0.224)" fill="#ffc216"/>
      <path id="Trazado_1090100" data-name="Trazado 1090100" d="M68.743,24.89v5.276H2.15V24.89H68.743Z" transform="translate(0.224 2.874)" fill="#e4e4e6"/>
      <path id="Trazado_1090101" data-name="Trazado 1090101" d="M65.74,59.91v2.4H4.59v-2.4H65.74Z" transform="translate(0.506 6.918)" fill="#e4e4e6"/>
      <path id="Trazado_1090102" data-name="Trazado 1090102" d="M48.24,35.55h6.67v21.7H48.24Z" transform="translate(5.546 4.105)" fill="#6aadd1"/>
      <path id="Trazado_1090103" data-name="Trazado 1090103" d="M29.05,35.55h6.659v21.7H29.05Z" transform="translate(3.33 4.105)" fill="#6aadd1"/>
      <path id="Trazado_1090104" data-name="Trazado 1090104" d="M9.85,35.55h6.67v21.7H9.85Z" transform="translate(1.113 4.105)" fill="#6aadd1"/>
      <g id="Grupo_1219049" data-name="Grupo 1219049" transform="translate(8.353 5.6)">
        <path id="Trazado_1090105" data-name="Trazado 1090105" d="M7.52,56.94H19.31v1.149H7.52Z" transform="translate(-7.509 0.975)" fill="#427eb6"/>
        <path id="Trazado_1090106" data-name="Trazado 1090106" d="M26.71,56.94h11.8v1.149H26.71Z" transform="translate(-5.293 0.975)" fill="#427eb6"/>
        <path id="Trazado_1090107" data-name="Trazado 1090107" d="M45.91,56.94H57.7v1.149H45.91Z" transform="translate(-3.076 0.975)" fill="#427eb6"/>
        <path id="Trazado_1090108" data-name="Trazado 1090108" d="M19.312,31.56v2.287H7.51V31.56Z" transform="translate(-7.51 -1.956)" fill="#427eb6"/>
        <path id="Trazado_1090109" data-name="Trazado 1090109" d="M26.71,31.56h11.8v2.287H26.71Z" transform="translate(-5.293 -1.956)" fill="#427eb6"/>
        <path id="Trazado_1090110" data-name="Trazado 1090110" d="M57.712,31.56v2.287H45.91V31.56Z" transform="translate(-3.076 -1.956)" fill="#427eb6"/>
        <path id="Trazado_1090111" data-name="Trazado 1090111" d="M61.161,25.02H8.31l26.425-20,3.915,2.956a11.566,11.566,0,0,0-.513,3.424,12,12,0,0,0,11.98,11.98,11.827,11.827,0,0,0,6.392-1.874Z" transform="translate(-7.418 -5.02)" fill="#427eb6"/>
      </g>
      <path id="Trazado_1090112" data-name="Trazado 1090112" d="M55.859,12.3a1.257,1.257,0,0,0-.033-.2,1.3,1.3,0,0,0-.056-.223v-.011L53.293,6.277a.849.849,0,0,0-.134-.212c0-.011-.011-.022-.011-.033a.011.011,0,0,1-.011-.011c-.011,0-.011-.011-.022-.011a3.021,3.021,0,0,0-3.86-.357,2.128,2.128,0,0,1-1.238.033V5.362a1.082,1.082,0,1,0-2.164,0v.323a2.284,2.284,0,0,1-1.182-.011,3.1,3.1,0,0,0-3.837.257L40.767,6l-.033.033a.244.244,0,0,1-.033.056.93.93,0,0,1-.089.134l-2.889,5.588a.084.084,0,0,1-.011.045c-.022.056-.033.134-.056.2s-.033.145-.045.212v.368a3.765,3.765,0,0,0,7.529,0V12.3a1.3,1.3,0,0,0-.045-.2,1.315,1.315,0,0,0-.045-.223v-.011L43.042,7.348a2.112,2.112,0,0,1,.6.234,3.882,3.882,0,0,0,2.209.3v8.645h-1.6a1.082,1.082,0,1,0,0,2.164h5.365a1.082,1.082,0,1,0,0-2.164H48.017V7.872a3.835,3.835,0,0,0,.6.045,3.668,3.668,0,0,0,1.629-.346,2.129,2.129,0,0,1,.5-.2l-2.3,4.44c-.011.011,0,.022-.011.045a.6.6,0,0,0-.056.2.72.72,0,0,0-.045.212c0,.011-.011.022-.011.045v.323a3.77,3.77,0,0,0,7.541,0ZM41.5,9.21l.892,2.019h-1.93Zm-.134,5.02a1.593,1.593,0,0,1-1.405-.837h2.822A1.6,1.6,0,0,1,41.369,14.23ZM52.234,9.21l.881,2.019h-1.93ZM52.1,14.23a1.6,1.6,0,0,1-1.417-.837h2.833A1.61,1.61,0,0,1,52.1,14.23Z" transform="translate(4.318 0.494)"/>
      <path id="Trazado_1090113" data-name="Trazado 1090113" d="M51.71,10.719H49.78L50.829,8.7Z" transform="translate(5.724 1.005)" fill="#ffc216"/>
      <path id="Trazado_1090114" data-name="Trazado 1090114" d="M42.1,10.719H40.17L41.207,8.7Z" transform="translate(4.614 1.005)" fill="#ffc216"/>
      <path id="Trazado_1090115" data-name="Trazado 1090115" d="M42.542,12.45a1.608,1.608,0,0,1-2.822,0Z" transform="translate(4.562 1.438)" fill="#6bc7db"/>
      <path id="Trazado_1090116" data-name="Trazado 1090116" d="M52.163,12.45a1.618,1.618,0,0,1-2.833,0Z" transform="translate(5.672 1.438)" fill="#6bc7db"/>
    </g>
  </g>
</svg>
