<svg id="Grupo_1219284" data-name="Grupo 1219284" xmlns="http://www.w3.org/2000/svg" width="159.466" height="220.136" viewBox="0 0 159.466 220.136">
  <path id="Trazado_1090243" data-name="Trazado 1090243" d="M401.541,129.135c-3.749,9.719-7.549,19.54-13.342,28.059s-13.855,15.743-23.487,18.218c-8.612,2.212-17.792.461-25.969-3.158s-15.526-9.011-22.8-14.364a21.657,21.657,0,0,1-5.509-5.152c-4.479-6.723-1.69-18.043,1.949-25.313a22.267,22.267,0,0,1-6.837-3.4,8.348,8.348,0,0,1-3.261-6.887c.337-3.851,4.008-6.6,4.583-10.415a13.682,13.682,0,0,0-.931-6.043c-2.542-8.1-23.972-17.915-22.756-33.121.881-11.021,79.155-23.838,89.937-19.315,4.02,1.686,2.4,20.8,3.5,29.918,3.753,5.573,11.885-.145,17.494,1.826,4.383,1.539,7.509,5.867,8.89,10.534s1.259,9.676.893,14.552C403.278,113.207,404.453,121.583,401.541,129.135Z" transform="translate(-244.669 -47.311)" fill="#79393a"/>
  <path id="Trazado_1090244" data-name="Trazado 1090244" d="M316.546,135.978a31.912,31.912,0,0,1,19.974-17.6,60.467,60.467,0,0,1,37.335.4S358.285,148.757,316.546,135.978Z" transform="translate(-237.105 -31.847)" fill="#fcc3a6"/>
  <path id="Trazado_1090245" data-name="Trazado 1090245" d="M313.243,190.847s4.227-54.226,16.606-60.956l25.3,43.151s-6.632,63.745-30.862,70.538c-19.085,5.349-40.8-46.9-50.505-54.014-9.616-7.052-6.414-15.608-9.2-19.191-6.967-8.948,5.493-16.475,5.493-16.475,6.622-3.469,19.137-1.873,17.732,3.8C287.8,157.7,306.128,185.337,313.243,190.847Z" transform="translate(-249.347 -28.618)" fill="#d45d3b"/>
  <path id="Trazado_1090246" data-name="Trazado 1090246" d="M318.826,176.82s6.871,18.386,15.895,23.328c0,0,3.792-13.47,6.529-25.611Z" transform="translate(-236.589 -18.512)" fill="#0d0000"/>
  <g id="Grupo_1219165" data-name="Grupo 1219165" transform="translate(0 98.613)">
    <g id="Grupo_1219164" data-name="Grupo 1219164" transform="translate(0 0)">
      <g id="Grupo_1219163" data-name="Grupo 1219163">
        <g id="Grupo_1219162" data-name="Grupo 1219162">
          <g id="Grupo_1219161" data-name="Grupo 1219161">
            <g id="Grupo_1219160" data-name="Grupo 1219160">
              <g id="Grupo_1219159" data-name="Grupo 1219159">
                <g id="Grupo_1219158" data-name="Grupo 1219158">
                  <path id="Trazado_1090247" data-name="Trazado 1090247" d="M281.778,159.665a6.54,6.54,0,0,0,1.54-4.454c.012-2.578-.373-6.483-1.37-8.545-1.495-3.1-6.392-11.974-9.106-12.771s.925,7.2,1.64,8.848a6.927,6.927,0,0,1,.594,3.046s-9.748-17.669-11.97-18.057,2.33,10.236,3.473,12.855c0,0-8.076-12.9-9.564-12.69-2.987.415,5.571,15,5.571,15s-7.34-10.5-9.009-9.215c-1.768,1.358,6.122,12.58,6.122,12.58s-5.771-6.129-7.706-5.688,9.2,14.261,11.168,16.177,7.829,8.4,11.7,7.937C277.28,164.4,280.3,161.4,281.778,159.665Z" transform="translate(-251.768 -127.722)" fill="#fcc3a6"/>
                </g>
              </g>
            </g>
          </g>
        </g>
      </g>
    </g>
  </g>
  <path id="Trazado_1090248" data-name="Trazado 1090248" d="M281.726,150.941a.463.463,0,0,0-.9-.123c-2.07,6.046-9.437,7.748-15.15,8.258a.212.212,0,0,0-.056.415c3.62,1.344,7.537-.223,10.856-1.8C279.13,156.423,282.062,154.218,281.726,150.941Z" transform="translate(-248.667 -23.955)" fill="#79373b"/>
  <path id="Trazado_1090249" data-name="Trazado 1090249" d="M310.152,190.189a57.7,57.7,0,0,1-3.4-5.853c-.884-1.766-1.443-3.862-2.681-5.4-.2-.251-.628-.038-.622.258a5.744,5.744,0,0,0,.053.612c-1.013,1.981-.742,4.981-.8,7.094a.767.767,0,0,0,1.533,0q.018-1.965.086-3.928c0-.147.012-.293.02-.439.327.747.694,1.473,1.02,2.158a52,52,0,0,0,3.542,6.229C309.411,191.694,310.665,190.969,310.152,190.189Z" transform="translate(-240.239 -17.542)" fill="#79373b"/>
  <path id="Trazado_1090250" data-name="Trazado 1090250" d="M270.708,142.3a7.1,7.1,0,0,0-1.446,4.4c-.011,1.22.19,3.25,1.458,3.8a.229.229,0,0,0,.331-.135c.218-1.045-.4-2.13-.466-3.2a8.652,8.652,0,0,1,1-4.19C271.821,142.455,271.146,141.765,270.708,142.3Z" transform="translate(-247.808 -25.852)" fill="#f39385"/>
  <path id="Trazado_1090251" data-name="Trazado 1090251" d="M266.272,138.35c-3.18-.105-6.886,2.756-8.131,5.577-.164.373.3.842.617.476A17.479,17.479,0,0,1,262.3,141a31.152,31.152,0,0,1,4.186-1.871C266.879,138.943,266.653,138.363,266.272,138.35Z" transform="translate(-250.333 -26.704)" fill="#f39385"/>
  <g id="Grupo_1219170" data-name="Grupo 1219170" transform="translate(93.979 67.591)">
    <g id="Grupo_1219169" data-name="Grupo 1219169" transform="translate(0 0)">
      <g id="Grupo_1219168" data-name="Grupo 1219168">
        <g id="Grupo_1219167" data-name="Grupo 1219167">
          <g id="Grupo_1219166" data-name="Grupo 1219166">
            <path id="Trazado_1090252" data-name="Trazado 1090252" d="M329.044,124.09s.688,5.1,7.652,4.833c15.012-.576,15.012-8.475,15.012-8.475a44.554,44.554,0,0,1-2.882-14.291c-.135-2.244-.113-3.731-.113-3.731l0,0L328.4,113.9l.348,5.484.169,2.7Z" transform="translate(-328.401 -102.426)" fill="#fcc3a6"/>
          </g>
        </g>
      </g>
    </g>
  </g>
  <path id="Trazado_1090253" data-name="Trazado 1090253" d="M328.4,113.744l.348,5.484s18.053-1.223,19.966-16.133Z" transform="translate(-234.422 -34.683)" fill="#0d0000"/>
  <g id="Grupo_1219174" data-name="Grupo 1219174" transform="translate(71.64 48.341)">
    <g id="Grupo_1219173" data-name="Grupo 1219173" transform="translate(0 0)">
      <g id="Grupo_1219172" data-name="Grupo 1219172">
        <g id="Grupo_1219171" data-name="Grupo 1219171">
          <path id="Trazado_1090254" data-name="Trazado 1090254" d="M318.316,89.919s-1.814-4.242-6.032-2.942-2.351,19.085,8.116,16.7Z" transform="translate(-310.185 -86.729)" fill="#f48d84"/>
        </g>
      </g>
    </g>
  </g>
  <g id="Grupo_1219179" data-name="Grupo 1219179" transform="translate(72.845 20.249)">
    <g id="Grupo_1219178" data-name="Grupo 1219178" transform="translate(0 0)">
      <g id="Grupo_1219177" data-name="Grupo 1219177">
        <g id="Grupo_1219176" data-name="Grupo 1219176">
          <g id="Grupo_1219175" data-name="Grupo 1219175">
            <path id="Trazado_1090255" data-name="Trazado 1090255" d="M359.487,89.573c-.724,10.252-4.562,28.721-22.2,33.357-9.59,2.514-17.745-1.128-22.013-11.932-.356-.9-.613-1.815-.883-2.723,0-.012-.012-.037-.012-.049-.319-1.079-.6-2.171-.871-3.238-.012-.049-.025-.086-.037-.135-.074-.307-.135-.6-.208-.9-.123-.527-.233-1.042-.343-1.557a2.552,2.552,0,0,1-.049-.27,80.492,80.492,0,0,1-1.656-12.558c-.025-.822-.049-1.692-.049-2.588-.049-8.18,1.607-18.849,18.628-22.663,12.141-2.71,28.194,5.85,29.825,19.143A56.147,56.147,0,0,1,359.487,89.573Z" transform="translate(-311.167 -63.822)" fill="#fcc3a6"/>
          </g>
        </g>
      </g>
    </g>
  </g>
  <g id="Grupo_1219183" data-name="Grupo 1219183" transform="translate(97.516 48.032)">
    <g id="Grupo_1219182" data-name="Grupo 1219182" transform="translate(0 0)">
      <g id="Grupo_1219181" data-name="Grupo 1219181">
        <g id="Grupo_1219180" data-name="Grupo 1219180">
          <path id="Trazado_1090256" data-name="Trazado 1090256" d="M331.322,89.217c.178,1.413.947,2.478,1.717,2.382s1.25-1.321,1.072-2.734-.947-2.478-1.717-2.382S331.144,87.8,331.322,89.217Z" transform="translate(-331.285 -86.477)" fill="#3b1034"/>
        </g>
      </g>
    </g>
  </g>
  <g id="Grupo_1219187" data-name="Grupo 1219187" transform="translate(80.503 50.311)">
    <g id="Grupo_1219186" data-name="Grupo 1219186" transform="translate(0 0)">
      <g id="Grupo_1219185" data-name="Grupo 1219185">
        <g id="Grupo_1219184" data-name="Grupo 1219184">
          <path id="Trazado_1090257" data-name="Trazado 1090257" d="M317.449,91.075c.178,1.413.947,2.478,1.717,2.382s1.251-1.321,1.072-2.734-.947-2.478-1.717-2.382S317.271,89.662,317.449,91.075Z" transform="translate(-317.412 -88.335)" fill="#3b1034"/>
        </g>
      </g>
    </g>
  </g>
  <g id="Grupo_1219191" data-name="Grupo 1219191" transform="translate(115.195 42.27)">
    <g id="Grupo_1219190" data-name="Grupo 1219190" transform="translate(0 0)">
      <g id="Grupo_1219189" data-name="Grupo 1219189">
        <g id="Grupo_1219188" data-name="Grupo 1219188">
          <path id="Trazado_1090258" data-name="Trazado 1090258" d="M347.569,85.662s1.936-4.995,6.885-3.655,3.491,22.056-8.753,19.708Z" transform="translate(-345.701 -81.779)" fill="#fcc3a6"/>
        </g>
      </g>
    </g>
  </g>
  <path id="Trazado_1090259" data-name="Trazado 1090259" d="M325.208,81.7c.132.816-4.307,2.211-7,2.646s-3.726-.077-3.857-.893,3.051-2.009,5.743-2.444S325.077,80.888,325.208,81.7Z" transform="translate(-237.602 -39.726)" fill="#79393a"/>
  <path id="Trazado_1090260" data-name="Trazado 1090260" d="M328.161,81.749c-.052.825,4.5,1.783,7.222,1.955s3.7-.438,3.753-1.262-3.231-1.7-5.953-1.875S328.214,80.925,328.161,81.749Z" transform="translate(-234.476 -39.79)" fill="#79393a"/>
  <path id="Trazado_1090261" data-name="Trazado 1090261" d="M352.968,91.59a5.941,5.941,0,0,0-1.967.491c.139-1.481.457-3.4,1.534-4.046a.614.614,0,0,0-.619-1.06c-1.89,1.127-2.082,4.236-2.229,6.2a.617.617,0,0,0,.922.53,4.5,4.5,0,0,1,2.358-.885C353.75,92.757,353.757,91.53,352.968,91.59Z" transform="translate(-229.604 -38.353)" fill="#f39385"/>
  <path id="Trazado_1090262" data-name="Trazado 1090262" d="M328.682,100.6c-.547-.067-3.369-.429-3.6-1.034-.134-.354.592-1.55.758-1.989a17.948,17.948,0,0,0,1.094-5.606c.034-.789-1.192-.787-1.226,0a16.807,16.807,0,0,1-.841,4.7c-.281.828-1.356,2.188-1.109,3.147.395,1.532,3.715,1.862,4.92,2.011C329.463,101.925,329.456,100.7,328.682,100.6Z" transform="translate(-235.48 -37.335)" fill="#f39385"/>
  <g id="Grupo_1219195" data-name="Grupo 1219195" transform="translate(86.757 66.714)">
    <g id="Grupo_1219194" data-name="Grupo 1219194" transform="translate(0 0)">
      <g id="Grupo_1219193" data-name="Grupo 1219193">
        <g id="Grupo_1219192" data-name="Grupo 1219192">
          <path id="Trazado_1090263" data-name="Trazado 1090263" d="M336.957,101.711s-9.211,1.185-14.445.554c0,0-.021,6.341,7.919,5.476C337,107.024,336.957,101.711,336.957,101.711Z" transform="translate(-322.512 -101.711)" fill="#fff"/>
        </g>
      </g>
    </g>
  </g>
  <g id="Grupo_1219199" data-name="Grupo 1219199" transform="translate(101.358 55.62)">
    <g id="Grupo_1219198" data-name="Grupo 1219198" transform="translate(0 0)">
      <g id="Grupo_1219197" data-name="Grupo 1219197">
        <g id="Grupo_1219196" data-name="Grupo 1219196">
          <path id="Trazado_1090264" data-name="Trazado 1090264" d="M334.427,95.7c.158,1.321,2.422,2.136,5.057,1.82s4.643-1.642,4.485-2.964-2.422-2.136-5.057-1.82S334.268,94.376,334.427,95.7Z" transform="translate(-334.418 -92.664)" fill="#f39385"/>
        </g>
      </g>
    </g>
  </g>
  <g id="Grupo_1219203" data-name="Grupo 1219203" transform="translate(74.943 59.801)">
    <g id="Grupo_1219202" data-name="Grupo 1219202" transform="translate(0 0)">
      <g id="Grupo_1219201" data-name="Grupo 1219201">
        <g id="Grupo_1219200" data-name="Grupo 1219200">
          <path id="Trazado_1090265" data-name="Trazado 1090265" d="M320.064,97.958c.159,1.324-1.852,2.649-4.488,2.968a9.726,9.726,0,0,1-1.57.049c0-.012-.012-.037-.012-.049-.319-1.079-.6-2.171-.871-3.238-.012-.049-.025-.086-.037-.135-.074-.307-.135-.6-.208-.9a8.5,8.5,0,0,1,2.134-.515C317.649,95.824,319.905,96.633,320.064,97.958Z" transform="translate(-312.878 -96.073)" fill="#f39385"/>
        </g>
      </g>
    </g>
  </g>
  <path id="Trazado_1090266" data-name="Trazado 1090266" d="M359.759,85.8a24.617,24.617,0,0,1-6.476,3.954,3.164,3.164,0,0,1-1.546.334,2.475,2.475,0,0,1-1.882-1.939,18.676,18.676,0,0,1-.286-2.851c-.444-4.059-3.971-7.164-7.74-8.734s-23.911-1.686-23.312-12.456c6.884-3.282,16.324-5.822,23.951-5.822,12.267,0,14.984,8.331,16.767,12.5S359.276,81.3,359.759,85.8Z" transform="translate(-236.662 -44.826)" fill="#79393a"/>
  <path id="Trazado_1090267" data-name="Trazado 1090267" d="M382.053,116.536c-3.689-.424-12.807-.281-12.807-.281-14.747,28.463-51.638,16.728-51.638,16.728s-3.756,51.056,2.864,59.027c6.236,7.509,19.1,7.832,19.1,7.832s29.418,26.775,42.486,52V116.536Z" transform="translate(-237.105 -31.71)" fill="#d45d3b"/>
  <path id="Trazado_1090268" data-name="Trazado 1090268" d="M377.1,170.948c-5.91,3.691-13.205,2.807-19.325,6.155-2.822,1.544-5.4,3.484-8.138,5.159a30.311,30.311,0,0,1-9.552,3.578c-.46.105-.5.894,0,.97,6.386.972,12.305-4.648,17.385-7.638a29.5,29.5,0,0,1,10.788-3.592c3.451-.553,7.025-1.093,9.708-3.512A.717.717,0,0,0,377.1,170.948Z" transform="translate(-231.857 -19.348)" fill="#79373b"/>
  <path id="Trazado_1090269" data-name="Trazado 1090269" d="M339.788,193.239c-5.6-.659-13.123-2.066-17.254-6.265-4.327-4.4-1.656-12.9-1.161-18.349a70.693,70.693,0,0,0-.065-16.372c-.632-4.431-1.771-10.4-5.178-13.611a.237.237,0,0,0-.392.228c.807,2.967,2.409,5.655,3.211,8.653a44.456,44.456,0,0,1,1.4,9.583c.3,6.945-.727,13.814-1.431,20.7-.51,4.985.207,9.271,4.633,12.156,4.715,3.074,10.728,4.444,16.238,5.067C340.933,195.161,340.918,193.373,339.788,193.239Z" transform="translate(-237.29 -26.652)" fill="#79373b"/>
  <path id="Trazado_1090270" data-name="Trazado 1090270" d="M374.953,118.735c-2.1,11.054-10.889,19.542-21.293,23.188a42.567,42.567,0,0,1-18.171,1.929,52.635,52.635,0,0,1-10.227-2.188,11.152,11.152,0,0,0,.228-4.775c-.18-.779-1.239-.527-1.307.177-.132,1.36-.235,2.664-.5,4.009-.006.029-.011.066-.017.1-2.551-.8-5.1-1.645-7.737-2.382a.361.361,0,0,0-.277.657c5.766,3.386,13.242,4.929,19.833,5.581a44.166,44.166,0,0,0,19.764-2.234c10.38-3.926,19.051-12.544,21.142-23.665C376.57,118.192,375.132,117.789,374.953,118.735Z" transform="translate(-237.346 -31.265)" fill="#79373b"/>
  <path id="Trazado_1090271" data-name="Trazado 1090271" d="M334.7,136.481a6.269,6.269,0,0,0-.666-2.486.558.558,0,0,0-1.007.131,6.269,6.269,0,0,0,.04,2.575c.107.885.218,1.772.358,2.653.147.928,1.771.721,1.656-.224C334.973,138.246,334.839,137.362,334.7,136.481Z" transform="translate(-233.403 -27.748)" fill="#79373b"/>
  <path id="Trazado_1090272" data-name="Trazado 1090272" d="M346.789,134.854a19.308,19.308,0,0,0-1.35-2.573.661.661,0,0,0-1.2.506,17.907,17.907,0,0,0,1.047,2.525c.342.752.551,1.674,1.307,2.09a.59.59,0,0,0,.858-.35A3.427,3.427,0,0,0,346.789,134.854Z" transform="translate(-230.843 -28.144)" fill="#79373b"/>
  <path id="Trazado_1090273" data-name="Trazado 1090273" d="M357.246,130.482c-.6-.672-1.257-1.3-1.889-1.95a7.888,7.888,0,0,0-1.938-1.7.585.585,0,0,0-.793.793,8.021,8.021,0,0,0,1.616,2.026c.613.663,1.212,1.349,1.852,1.987C356.842,132.381,357.943,131.258,357.246,130.482Z" transform="translate(-228.952 -29.328)" fill="#79373b"/>
  <path id="Trazado_1090274" data-name="Trazado 1090274" d="M363,121.876a12.94,12.94,0,0,0-2.055-1.012,3.141,3.141,0,0,0-2.042-.372.481.481,0,0,0-.21.792,3.949,3.949,0,0,0,1.663.972c.64.283,1.244.634,1.874.932A.762.762,0,0,0,363,121.876Z" transform="translate(-227.592 -30.759)" fill="#79373b"/>
</svg>
