<svg xmlns="http://www.w3.org/2000/svg" xmlns:xlink="http://www.w3.org/1999/xlink" width="113" height="113" viewBox="0 0 113 113">
  <defs>
    <filter id="Trazado_982547" x="0" y="0" width="113" height="113" filterUnits="userSpaceOnUse">
      <feOffset dy="3" input="SourceAlpha"/>
      <feGaussianBlur stdDeviation="3" result="blur"/>
      <feFlood flood-opacity="0.161"/>
      <feComposite operator="in" in2="blur"/>
      <feComposite in="SourceGraphic"/>
    </filter>
  </defs>
  <g id="Grupo_1219079" data-name="Grupo 1219079" transform="translate(-586 -7089.844)">
    <g id="Grupo_1217874" data-name="Grupo 1217874" transform="translate(-1.234 -2607)">
      <g id="Grupo_1216306" data-name="Grupo 1216306" transform="translate(596.234 9702.844)">
        <g id="Grupo_1208705" data-name="Grupo 1208705">
          <g id="Grupo_1148633" data-name="Grupo 1148633">
            <g id="Grupo_1148525" data-name="Grupo 1148525">
              <g transform="matrix(1, 0, 0, 1, -9, -6)" filter="url(#Trazado_982547)">
                <g id="Trazado_982547-2" data-name="Trazado 982547" transform="translate(9 6)" fill="#e6d567">
                  <path d="M 47.5 93.5 C 41.28937149047852 93.5 35.26533508300781 92.28397369384766 29.59518623352051 89.88570404052734 C 24.11771965026855 87.56893157958984 19.19813346862793 84.25196075439453 14.97309303283691 80.02691650390625 C 10.74804019927979 75.80186462402344 7.431066513061523 70.88229370117188 5.114293098449707 65.40481567382812 C 2.716026782989502 59.73468017578125 1.5 53.71062850952148 1.5 47.5 C 1.5 41.28937149047852 2.716026782989502 35.26533508300781 5.114293098449707 29.59518623352051 C 7.431066513061523 24.11771965026855 10.74804019927979 19.19813346862793 14.97309303283691 14.97309303283691 C 19.19813346862793 10.74804019927979 24.11771965026855 7.431066513061523 29.59518623352051 5.114293098449707 C 35.26533508300781 2.716026782989502 41.28937149047852 1.5 47.5 1.5 C 53.71062850952148 1.5 59.73468017578125 2.716026782989502 65.40481567382812 5.114293098449707 C 70.88229370117188 7.431066513061523 75.80186462402344 10.74804019927979 80.02691650390625 14.97309303283691 C 84.25196075439453 19.19813346862793 87.56893157958984 24.11771965026855 89.88570404052734 29.59518623352051 C 92.28397369384766 35.26533508300781 93.5 41.28937149047852 93.5 47.5 C 93.5 53.71062850952148 92.28397369384766 59.73468017578125 89.88570404052734 65.40481567382812 C 87.56893157958984 70.88229370117188 84.25196075439453 75.80186462402344 80.02691650390625 80.02691650390625 C 75.80186462402344 84.25196075439453 70.88229370117188 87.56893157958984 65.40481567382812 89.88570404052734 C 59.73468017578125 92.28397369384766 53.71062850952148 93.5 47.5 93.5 Z" stroke="none"/>
                  <path d="M 47.5 3 C 41.49121475219727 3 35.66376876831055 4.176155090332031 30.17950439453125 6.495796203613281 C 24.88084411621094 8.736953735351562 20.12152099609375 11.94598388671875 16.03375244140625 16.03375244140625 C 11.94598388671875 20.12152099609375 8.736953735351562 24.88084411621094 6.495796203613281 30.17950439453125 C 4.176155090332031 35.66376876831055 3 41.49121475219727 3 47.5 C 3 53.50878524780273 4.176155090332031 59.33623123168945 6.495796203613281 64.82049560546875 C 8.736953735351562 70.11915588378906 11.94598388671875 74.87847900390625 16.03375244140625 78.96624755859375 C 20.12152099609375 83.05401611328125 24.88084411621094 86.26304626464844 30.17950439453125 88.50419616699219 C 35.66376876831055 90.82384490966797 41.49121475219727 92 47.5 92 C 53.50878524780273 92 59.33623123168945 90.82384490966797 64.82049560546875 88.50419616699219 C 70.11915588378906 86.26304626464844 74.87847900390625 83.05401611328125 78.96624755859375 78.96624755859375 C 83.05401611328125 74.87847900390625 86.26304626464844 70.11915588378906 88.50419616699219 64.82049560546875 C 90.82384490966797 59.33623123168945 92 53.50878524780273 92 47.5 C 92 41.49121475219727 90.82384490966797 35.66376876831055 88.50419616699219 30.17950439453125 C 86.26304626464844 24.88084411621094 83.05401611328125 20.12152099609375 78.96624755859375 16.03375244140625 C 74.87847900390625 11.94598388671875 70.11915588378906 8.736953735351562 64.82049560546875 6.495796203613281 C 59.33623123168945 4.176155090332031 53.50878524780273 3 47.5 3 M 47.5 0 C 73.7335205078125 0 95 21.2664794921875 95 47.5 C 95 73.7335205078125 73.7335205078125 95 47.5 95 C 21.2664794921875 95 0 73.7335205078125 0 47.5 C 0 21.2664794921875 21.2664794921875 0 47.5 0 Z" stroke="none" fill="#ba9c5a"/>
                </g>
              </g>
            </g>
          </g>
        </g>
      </g>
    </g>
    <g id="delincuente_1_" data-name="delincuente (1)" transform="translate(602.125 7111.093)">
      <g id="Grupo_1219077" data-name="Grupo 1219077" transform="translate(2.27 2.27)">
        <g id="Grupo_1219060" data-name="Grupo 1219060" transform="translate(40.646 60.587)">
          <path id="Trazado_1090148" data-name="Trazado 1090148" d="M35.308,49.967l18.252,6.961a11.908,11.908,0,0,0,4.2.775,11.678,11.678,0,0,0,4.179-.762v2.108a4.976,4.976,0,0,0,.533,2.261L63,62.351a2.055,2.055,0,0,1-1.842,2.972H34V57.7l1.486-1.486a3.588,3.588,0,0,0,0-5.081,3.787,3.787,0,0,0-1.143-.775l.254-.66Z" transform="translate(-34 -49.7)" fill="#aab2bd"/>
        </g>
        <g id="Grupo_1219061" data-name="Grupo 1219061" transform="translate(38.105 40.646)">
          <path id="Trazado_1090149" data-name="Trazado 1090149" d="M39.062,45.673,35.214,44.39a4.277,4.277,0,0,0-1.384-.229l-.521.038v-.013L32,43.3V34l1.283.851a23.512,23.512,0,0,0,3.8,2.083,24.668,24.668,0,0,0,5.081,1.626,25.044,25.044,0,0,0,10.161,0c.749-.152,1.486-.343,2.21-.559A22.884,22.884,0,0,0,57.4,36.934a23.512,23.512,0,0,0,3.8-2.083L62.484,34a17.117,17.117,0,0,1,7.621,14.239v1.905a11.791,11.791,0,0,1-11.8,11.8,11.908,11.908,0,0,1-4.2-.775L35.849,54.209Z" transform="translate(-32 -34)" fill="#aab2bd"/>
        </g>
        <g id="Grupo_1219062" data-name="Grupo 1219062" transform="translate(26.712 68.59)">
          <path id="Trazado_1090150" data-name="Trazado 1090150" d="M36.964,56v7.621H23.03A15.228,15.228,0,0,0,33.8,59.163Z" transform="translate(-23.03 -56)" fill="#ff826e"/>
        </g>
        <g id="Grupo_1219063" data-name="Grupo 1219063" transform="translate(10.161 45.726)">
          <path id="Trazado_1090151" data-name="Trazado 1090151" d="M41.081,52.861l-.254.66a3.657,3.657,0,0,0-1.4-.279A3.6,3.6,0,0,0,36.89,54.3L33.016,58.17a9.191,9.191,0,0,1-12.168.737l-5.728,5.728c-.229-.191-.445-.394-.66-.61A15.255,15.255,0,0,1,16.1,41.048L20.161,38v3.175a4.444,4.444,0,0,0,8.193,2.388l1.5,1.054,5.652,3.988a4.311,4.311,0,0,0,2.718,3.163Z" transform="translate(-10 -38)" fill="#ff826e"/>
        </g>
        <g id="Grupo_1219064" data-name="Grupo 1219064" transform="translate(0 12.702)">
          <path id="Trazado_1090152" data-name="Trazado 1090152" d="M34.3,22.161H21.053l-.33.114a5.065,5.065,0,0,0-3.48,4.814v6.5a14.711,14.711,0,0,0,5.132,11.165l-.051.267-4.065,3.048A15.255,15.255,0,0,0,16.62,71.051c.216.216.432.419.66.61a13.032,13.032,0,0,0,1.689,1.308H9.621l-2.642-.876a7.289,7.289,0,0,1-2.07-12.74l.279-.2A4.743,4.743,0,0,0,6.28,52.722L5.556,51.63a6.063,6.063,0,0,1,1.689-8.409L8.77,42.2a7.6,7.6,0,0,0,3.391-6.338V25.972a13.972,13.972,0,1,1,27.944,0V39.944l-4.369,6.3L28.077,41a8.884,8.884,0,0,0,6.948-8.675V26.747a15.1,15.1,0,0,0-.711-4.585Z" transform="translate(-2 -12)" fill="#fcd770"/>
        </g>
        <g id="Grupo_1219065" data-name="Grupo 1219065" transform="translate(54.618 2.54)">
          <path id="Trazado_1090153" data-name="Trazado 1090153" d="M48.125,4A1.95,1.95,0,0,1,49.75,7.036l-1.6,2.4A14.339,14.339,0,0,0,45,9.081l1.207-4.814c.013-.089.038-.178.051-.267h1.867Z" transform="translate(-45 -4)" fill="#aab2bd"/>
        </g>
        <g id="Grupo_1219066" data-name="Grupo 1219066" transform="translate(46.997 2.54)">
          <path id="Trazado_1090154" data-name="Trazado 1090154" d="M39,5.956A1.957,1.957,0,0,1,40.956,4h1.867c.013.089.038.178.051.267l1.207,4.814a14.339,14.339,0,0,0-3.15.356l-1.6-2.4A1.961,1.961,0,0,1,39,5.956Z" transform="translate(-39 -4)" fill="#aab2bd"/>
        </g>
        <g id="Grupo_1219067" data-name="Grupo 1219067" transform="translate(50.807)">
          <path id="Trazado_1090155" data-name="Trazado 1090155" d="M47.081,4.261a1.967,1.967,0,0,1-.013.279c-.013.089-.038.178-.051.267L45.811,9.621H43.27L42.064,4.807c-.013-.089-.038-.178-.051-.267A1.966,1.966,0,0,1,42,4.261,2.266,2.266,0,0,1,44.261,2h.559a2.266,2.266,0,0,1,2.261,2.261Z" transform="translate(-42 -2)" fill="#aab2bd"/>
        </g>
        <g id="Grupo_1219068" data-name="Grupo 1219068" transform="translate(38.105 35.565)">
          <path id="Trazado_1090156" data-name="Trazado 1090156" d="M61.2,30.851a23.512,23.512,0,0,1-3.8,2.083A22.885,22.885,0,0,1,54.533,34c-.724.216-1.461.406-2.21.559a25.044,25.044,0,0,1-10.161,0,24.668,24.668,0,0,1-5.081-1.626,23.512,23.512,0,0,1-3.8-2.083L32,30v5.081l1.283.851a23.512,23.512,0,0,0,3.8,2.083,24.668,24.668,0,0,0,5.081,1.626,25.044,25.044,0,0,0,10.161,0c.749-.152,1.486-.343,2.21-.559A22.884,22.884,0,0,0,57.4,38.015a23.512,23.512,0,0,0,3.8-2.083l1.283-.851V30Z" transform="translate(-32 -30)" fill="#969faa"/>
        </g>
        <g id="Grupo_1219069" data-name="Grupo 1219069" transform="translate(38.105 7.621)">
          <path id="Trazado_1090157" data-name="Trazado 1090157" d="M42.822,8.356A14.339,14.339,0,0,1,45.972,8h2.54a14.339,14.339,0,0,1,3.15.356A13.966,13.966,0,0,1,62.484,21.972V35.944l-1.283.851a23.512,23.512,0,0,1-3.8,2.083,22.886,22.886,0,0,1-2.871,1.067c-.724.216-1.461.406-2.21.559a25.044,25.044,0,0,1-10.161,0,24.668,24.668,0,0,1-5.081-1.626,23.512,23.512,0,0,1-3.8-2.083L32,35.944V21.972A13.966,13.966,0,0,1,42.822,8.356Z" transform="translate(-32 -8)" fill="#ccd1d9"/>
        </g>
        <g id="Grupo_1219070" data-name="Grupo 1219070" transform="translate(43.186 17.782)">
          <path id="Trazado_1090158" data-name="Trazado 1090158" d="M38.54,16H53.782a2.548,2.548,0,0,1,2.54,2.54v2.236a5.389,5.389,0,0,1-9.2,3.811l-.965-.965-.965.965A5.386,5.386,0,0,1,36,20.776V18.54A2.548,2.548,0,0,1,38.54,16Z" transform="translate(-36 -16)" fill="#e6e9ed"/>
        </g>
        <g id="Grupo_1219071" data-name="Grupo 1219071" transform="translate(20.323 45.46)">
          <path id="Trazado_1090159" data-name="Trazado 1090159" d="M19.143,38.641l7.049,4.979A4.444,4.444,0,0,1,18,41.232V38.057l.051-.267c.356.3.711.584,1.092.851Z" transform="translate(-18 -37.79)" fill="#f0d0b4"/>
        </g>
        <g id="Grupo_1219072" data-name="Grupo 1219072" transform="translate(15.242 22.863)">
          <path id="Trazado_1090160" data-name="Trazado 1090160" d="M31.782,24.585v5.576a8.884,8.884,0,0,1-6.948,8.675L14,31.432v-6.5a5.065,5.065,0,0,1,3.48-4.814l.33-.114H31.071a15.1,15.1,0,0,1,.711,4.585Z" transform="translate(-14 -20)" fill="#f0d0b4"/>
        </g>
        <g id="Grupo_1219073" data-name="Grupo 1219073" transform="translate(15.28 60.968)">
          <path id="Trazado_1090161" data-name="Trazado 1090161" d="M41.936,53.595a3.6,3.6,0,0,1-1.054,2.54L39.4,57.621l-3.163,3.163a15.228,15.228,0,0,1-10.771,4.458H24.153a15.2,15.2,0,0,1-8.434-2.54,13.033,13.033,0,0,1-1.689-1.308l5.728-5.728a9.191,9.191,0,0,0,12.168-.737L35.8,51.054A3.6,3.6,0,0,1,38.341,50a3.657,3.657,0,0,1,1.4.279,3.787,3.787,0,0,1,1.143.775A3.591,3.591,0,0,1,41.936,53.595Z" transform="translate(-14.03 -50)" fill="#f0d0b4"/>
        </g>
        <g id="Grupo_1219074" data-name="Grupo 1219074" transform="translate(35.565 50.807)">
          <path id="Trazado_1090162" data-name="Trazado 1090162" d="M34.369,42a4.277,4.277,0,0,1,1.384.229L39.6,43.512l-3.214,8.536-.711-.267L32.82,50.688A4.311,4.311,0,0,1,30.1,47.525a4.386,4.386,0,0,1-.1-.915v-.241a4.306,4.306,0,0,1,1.283-3.087,5.255,5.255,0,0,1,2.566-1.245Z" transform="translate(-30 -42)" fill="#f0d0b4"/>
        </g>
        <g id="Grupo_1219075" data-name="Grupo 1219075" transform="translate(30.014 46.946)">
          <path id="Trazado_1090163" data-name="Trazado 1090163" d="M33.721,41.958l1.308.889v.013A5.255,5.255,0,0,0,32.464,44.1a4.306,4.306,0,0,0-1.283,3.087v.241a4.386,4.386,0,0,0,.1.915L25.63,44.358l3.722-5.4Z" transform="translate(-25.63 -38.96)" fill="#b27946"/>
        </g>
        <g id="Grupo_1219076" data-name="Grupo 1219076" transform="translate(15.242 34.295)">
          <path id="Trazado_1090164" data-name="Trazado 1090164" d="M32.494,41.651l-3.722,5.4-1.5-1.054-7.049-4.979c-.381-.267-.737-.546-1.092-.851A14.711,14.711,0,0,1,14,29l10.835,7.405Z" transform="translate(-14 -29)" fill="#e6e9ed"/>
        </g>
      </g>
      <g id="Grupo_1219078" data-name="Grupo 1219078" transform="translate(1 1)">
        <ellipse id="Elipse_14394" data-name="Elipse 14394" cx="1.5" cy="1" rx="1.5" ry="1" transform="translate(48.425 23.751)"/>
        <circle id="Elipse_14395" data-name="Elipse 14395" cx="1" cy="1" r="1" transform="translate(58.425 23.751)"/>
        <path id="Trazado_1090165" data-name="Trazado 1090165" d="M41.658,27.7a6.612,6.612,0,0,0,4.709-1.95l.065-.065.064.064a6.659,6.659,0,0,0,11.368-4.709V18.811A3.815,3.815,0,0,0,54.053,15H38.811A3.815,3.815,0,0,0,35,18.811v2.232a6.667,6.667,0,0,0,6.658,6.66ZM37.54,18.811a1.271,1.271,0,0,1,1.27-1.27H54.053a1.271,1.271,0,0,1,1.27,1.27v2.232a4.118,4.118,0,0,1-7.03,2.913L46.432,22.1l-1.862,1.86a4.082,4.082,0,0,1-2.911,1.207,4.123,4.123,0,0,1-4.118-4.119Z" transform="translate(8.186 2.782)"/>
        <path id="Trazado_1090166" data-name="Trazado 1090166" d="M72.13,42.288V23.863A15.255,15.255,0,0,0,62.038,9.536l.659-.989A3.219,3.219,0,0,0,60.019,3.54h-.749A3.527,3.527,0,0,0,55.9,1h-.556a3.527,3.527,0,0,0-3.374,2.54h-.749a3.219,3.219,0,0,0-2.679,5.006l.659.989A15.275,15.275,0,0,0,39.385,21a15.226,15.226,0,0,0-28.223,7.947v9.893a6.337,6.337,0,0,1-2.829,5.284L6.806,45.14A7.333,7.333,0,0,0,4.772,55.31L5.5,56.4a3.458,3.458,0,0,1,.584,1.927,3.487,3.487,0,0,1-1.393,2.782l-.265.2A8.555,8.555,0,0,0,6.848,76.266l2.641.88.8-2.41-2.641-.88a6.013,6.013,0,0,1-1.7-10.517l.265-.2a6.045,6.045,0,0,0,2.407-4.814A5.989,5.989,0,0,0,7.61,54.988L6.886,53.9a4.792,4.792,0,0,1,1.33-6.647l1.527-1.019a8.871,8.871,0,0,0,3.959-7.4V28.944a12.7,12.7,0,0,1,25.4,0V42.518l-3.421,4.941-4.6-3.149a10.241,10.241,0,0,0,5.482-9.016V29.712a16.35,16.35,0,0,0-2.754-9.094L31.7,22.027a13.824,13.824,0,0,1,2.327,7.686v5.582a7.654,7.654,0,0,1-5.472,7.286L18.782,35.9v-5.83a3.805,3.805,0,0,1,2.606-3.615l.337-.112-.8-2.41-.337.112a6.342,6.342,0,0,0-4.343,6.024v6.5a15.978,15.978,0,0,0,4.589,11.166l-3.065,2.3a16.512,16.512,0,0,0,9.907,29.722h42.4a3.326,3.326,0,0,0,2.975-4.813l-.517-1.033a3.822,3.822,0,0,1-.4-1.7V70.925A13.078,13.078,0,0,0,79.751,59.06v-1.9A18.327,18.327,0,0,0,72.13,42.288ZM41.646,40.172a26.572,26.572,0,0,0,2.54,1.41V43.8c-.621-.339-1.233-.7-1.827-1.092l-.714-.475Zm5.081,2.462a26.338,26.338,0,0,0,2.54.767v2.455A23.949,23.949,0,0,1,46.726,45Zm5.081,1.275c.84.122,1.688.189,2.54.23v2.54a23.484,23.484,0,0,1-2.54-.267Zm5.081.23c.852-.041,1.7-.109,2.54-.23v2.5a24.141,24.141,0,0,1-2.54.267Zm5.081-.739a25.986,25.986,0,0,0,2.54-.767V45a23.664,23.664,0,0,1-2.54.852Zm5.081-1.818a26.572,26.572,0,0,0,2.54-1.41v2.064l-.715.476c-.593.4-1.205.753-1.827,1.092V41.582ZM60.7,6.76a.679.679,0,0,1-.114.377L59.441,8.852c-.315-.053-.627-.112-.948-.145l.657-2.627h.869a.68.68,0,0,1,.68.68ZM55.339,3.54H55.9a.993.993,0,0,1,.992.992,1.07,1.07,0,0,1-.028.24L55.9,8.621h-.559l-.962-3.846a1.039,1.039,0,0,1-.029-.243.993.993,0,0,1,.992-.992Zm-4.688,3.6a.68.68,0,0,1,.565-1.057h.869l.657,2.627c-.32.034-.634.091-.949.145ZM41.646,23.863a12.716,12.716,0,0,1,12.7-12.7h2.54a12.716,12.716,0,0,1,12.7,12.7V37.156l-.715.476a23.9,23.9,0,0,1-26.515,0l-.714-.476Zm-2.54,23.118V49.8l-1.324-.906Zm2,13.6a3.118,3.118,0,0,1-2-2.9v-.238a3.1,3.1,0,0,1,4.081-2.942l2.592.864-2.3,6.12Zm-4.383-4.4L34.041,54.3l2.3-3.315,2.671,1.828A5.648,5.648,0,0,0,36.719,56.188Zm-4.754-3.356L24.47,47.543a13.436,13.436,0,0,1-5.411-8.381L34.238,49.549Zm-8.1-2.608,4.992,3.523a3.139,3.139,0,0,1-1.816.6,3.179,3.179,0,0,1-3.175-3.175ZM13.7,63.239a14.041,14.041,0,0,1,5.588-11.178l2.034-1.524v.635a5.7,5.7,0,0,0,8.25,5.116L27.9,58.705l2.089,1.447L32.6,56.387l4.234,2.987a5.693,5.693,0,0,0,2.65,3.243,4.86,4.86,0,0,0-1.052.776l-3.875,3.874a7.931,7.931,0,0,1-11.214,0L19.68,63.611l-1.8,1.8,3.548,3.548-3.884,3.884a13.914,13.914,0,0,1-3.846-9.6ZM28.944,77.211h-1.27a13.881,13.881,0,0,1-8.213-2.693l3.967-3.967a10.452,10.452,0,0,0,12.919-1.487l3.875-3.875a2.323,2.323,0,0,1,3.964,1.644,2.309,2.309,0,0,1-.68,1.642l-4.645,4.645a13.884,13.884,0,0,1-9.881,4.091Zm11.714-2.3.988-.988v3.285H37.763A16.574,16.574,0,0,0,40.657,74.914Zm29.6.127.517,1.033a.775.775,0,0,1,.084.352.785.785,0,0,1-.785.785H44.186V71.386L45.3,70.269a4.732,4.732,0,0,0,1.167-4.922l15.558,5.927a12.924,12.924,0,0,0,7.561.518V72.2a6.412,6.412,0,0,0,.669,2.841Zm6.952-15.983A10.53,10.53,0,0,1,62.933,68.9L45.859,62.4l2.333-6.22,16.512,5.5a5.641,5.641,0,0,0,7.425-5.351v-1.98H69.59v1.98a3.1,3.1,0,0,1-4.081,2.942L43.993,52.1a5.628,5.628,0,0,0-1.787-.291c-.05,0-.1.014-.146.015l-.414-.285V45.273a26.44,26.44,0,0,0,28.639-.447l.53-.353a15.789,15.789,0,0,1,6.4,12.683Z" transform="translate(-1 -1)"/>
        <path id="Trazado_1090167" data-name="Trazado 1090167" d="M18.089,30.17l3.438-3.438-3.438-3.438-1.8,1.8,1.642,1.642-1.642,1.642Z" transform="translate(3.132 5.023)"/>
        <path id="Trazado_1090168" data-name="Trazado 1090168" d="M25.024,23.293l-3.438,3.438,3.438,3.438,1.8-1.8-1.642-1.642,1.642-1.642Z" transform="translate(4.562 5.023)"/>
        <path id="Trazado_1090169" data-name="Trazado 1090169" d="M23.089,16.293l-1.8,1.8.744.744a4.832,4.832,0,0,1,1.424,3.438H26a7.351,7.351,0,0,0-2.168-5.234Z" transform="translate(4.483 3.132)"/>
        <path id="Trazado_1090170" data-name="Trazado 1090170" d="M19.833,17.037l-.744-.744-1.8,1.8.744.744a4.832,4.832,0,0,1,1.424,3.438H22A7.351,7.351,0,0,0,19.833,17.037Z" transform="translate(3.402 3.132)"/>
      </g>
    </g>
  </g>
</svg>
