<svg xmlns="http://www.w3.org/2000/svg" xmlns:xlink="http://www.w3.org/1999/xlink" width="113" height="113" viewBox="0 0 113 113">
  <defs>
    <filter id="Trazado_982547" x="0" y="0" width="113" height="113" filterUnits="userSpaceOnUse">
      <feOffset dy="3" input="SourceAlpha"/>
      <feGaussianBlur stdDeviation="3" result="blur"/>
      <feFlood flood-opacity="0.161"/>
      <feComposite operator="in" in2="blur"/>
      <feComposite in="SourceGraphic"/>
    </filter>
  </defs>
  <g id="Grupo_1219103" data-name="Grupo 1219103" transform="translate(-901 -7089.844)">
    <g id="Grupo_1217906" data-name="Grupo 1217906" transform="translate(-1.234 -2607)">
      <g id="Grupo_1216307" data-name="Grupo 1216307" transform="translate(911.234 9702.844)">
        <g id="Grupo_1208705" data-name="Grupo 1208705">
          <g id="Grupo_1148633" data-name="Grupo 1148633">
            <g id="Grupo_1148525" data-name="Grupo 1148525">
              <g transform="matrix(1, 0, 0, 1, -9, -6)" filter="url(#Trazado_982547)">
                <g id="Trazado_982547-2" data-name="Trazado 982547" transform="translate(9 6)" fill="#e6d567">
                  <path d="M 47.5 93.5 C 41.28937149047852 93.5 35.26533508300781 92.28397369384766 29.59518623352051 89.88570404052734 C 24.11771965026855 87.56893157958984 19.19813346862793 84.25196075439453 14.97309303283691 80.02691650390625 C 10.74804019927979 75.80186462402344 7.431066513061523 70.88229370117188 5.114293098449707 65.40481567382812 C 2.716026782989502 59.73468017578125 1.5 53.71062850952148 1.5 47.5 C 1.5 41.28937149047852 2.716026782989502 35.26533508300781 5.114293098449707 29.59518623352051 C 7.431066513061523 24.11771965026855 10.74804019927979 19.19813346862793 14.97309303283691 14.97309303283691 C 19.19813346862793 10.74804019927979 24.11771965026855 7.431066513061523 29.59518623352051 5.114293098449707 C 35.26533508300781 2.716026782989502 41.28937149047852 1.5 47.5 1.5 C 53.71062850952148 1.5 59.73468017578125 2.716026782989502 65.40481567382812 5.114293098449707 C 70.88229370117188 7.431066513061523 75.80186462402344 10.74804019927979 80.02691650390625 14.97309303283691 C 84.25196075439453 19.19813346862793 87.56893157958984 24.11771965026855 89.88570404052734 29.59518623352051 C 92.28397369384766 35.26533508300781 93.5 41.28937149047852 93.5 47.5 C 93.5 53.71062850952148 92.28397369384766 59.73468017578125 89.88570404052734 65.40481567382812 C 87.56893157958984 70.88229370117188 84.25196075439453 75.80186462402344 80.02691650390625 80.02691650390625 C 75.80186462402344 84.25196075439453 70.88229370117188 87.56893157958984 65.40481567382812 89.88570404052734 C 59.73468017578125 92.28397369384766 53.71062850952148 93.5 47.5 93.5 Z" stroke="none"/>
                  <path d="M 47.5 3 C 41.49121475219727 3 35.66376876831055 4.176155090332031 30.17950439453125 6.495796203613281 C 24.88084411621094 8.736953735351562 20.12152099609375 11.94598388671875 16.03375244140625 16.03375244140625 C 11.94598388671875 20.12152099609375 8.736953735351562 24.88084411621094 6.495796203613281 30.17950439453125 C 4.176155090332031 35.66376876831055 3 41.49121475219727 3 47.5 C 3 53.50878524780273 4.176155090332031 59.33623123168945 6.495796203613281 64.82049560546875 C 8.736953735351562 70.11915588378906 11.94598388671875 74.87847900390625 16.03375244140625 78.96624755859375 C 20.12152099609375 83.05401611328125 24.88084411621094 86.26304626464844 30.17950439453125 88.50419616699219 C 35.66376876831055 90.82384490966797 41.49121475219727 92 47.5 92 C 53.50878524780273 92 59.33623123168945 90.82384490966797 64.82049560546875 88.50419616699219 C 70.11915588378906 86.26304626464844 74.87847900390625 83.05401611328125 78.96624755859375 78.96624755859375 C 83.05401611328125 74.87847900390625 86.26304626464844 70.11915588378906 88.50419616699219 64.82049560546875 C 90.82384490966797 59.33623123168945 92 53.50878524780273 92 47.5 C 92 41.49121475219727 90.82384490966797 35.66376876831055 88.50419616699219 30.17950439453125 C 86.26304626464844 24.88084411621094 83.05401611328125 20.12152099609375 78.96624755859375 16.03375244140625 C 74.87847900390625 11.94598388671875 70.11915588378906 8.736953735351562 64.82049560546875 6.495796203613281 C 59.33623123168945 4.176155090332031 53.50878524780273 3 47.5 3 M 47.5 0 C 73.7335205078125 0 95 21.2664794921875 95 47.5 C 95 73.7335205078125 73.7335205078125 95 47.5 95 C 21.2664794921875 95 0 73.7335205078125 0 47.5 C 0 21.2664794921875 21.2664794921875 0 47.5 0 Z" stroke="none" fill="#ba9c5a"/>
                </g>
              </g>
            </g>
          </g>
        </g>
      </g>
    </g>
    <g id="anti-robo_1_" data-name="anti-robo (1)" transform="translate(920.336 7092.896)">
      <g id="Grupo_1219101" data-name="Grupo 1219101" transform="translate(1.111 15.825)">
        <g id="Grupo_1219100" data-name="Grupo 1219100">
          <g id="Grupo_1219081" data-name="Grupo 1219081" transform="translate(0)">
            <g id="Grupo_1219080" data-name="Grupo 1219080">
              <path id="Trazado_1090171" data-name="Trazado 1090171" d="M42.124,91.461A34.624,34.624,0,1,1,66.606,81.32,34.4,34.4,0,0,1,42.124,91.461Zm0-62.763A28.139,28.139,0,1,0,70.263,56.838,28.171,28.171,0,0,0,42.124,28.7Z" transform="translate(-7.5 -22.214)" fill="#fd5426"/>
            </g>
          </g>
          <g id="Grupo_1219083" data-name="Grupo 1219083" transform="translate(21.432 1.111)">
            <g id="Grupo_1219082" data-name="Grupo 1219082">
              <path id="Trazado_1090172" data-name="Trazado 1090172" d="M189.888,38.746a34.411,34.411,0,0,0-15.734-9.03,34.642,34.642,0,0,1-21.94,65.545,34.634,34.634,0,0,0,37.674-56.514Z" transform="translate(-152.214 -29.716)" fill="#ef4424"/>
            </g>
          </g>
          <g id="Grupo_1219084" data-name="Grupo 1219084" transform="translate(57.443 23.489)">
            <path id="Trazado_1090173" data-name="Trazado 1090173" d="M399.323,182.6l5.7,5.7.932.722a6.409,6.409,0,0,0,4.748-6.189,2.015,2.015,0,0,0-2.015-2.015H395.367l.2.153a5.554,5.554,0,0,1,3.759,1.634Z" transform="translate(-395.367 -180.815)" fill="#ffdfcf"/>
          </g>
          <g id="Grupo_1219085" data-name="Grupo 1219085" transform="translate(26.958 23.489)">
            <path id="Trazado_1090174" data-name="Trazado 1090174" d="M235.583,194.009,224.072,182.5a5.743,5.743,0,0,0-4.061-1.682H189.526v17.994h2.689l1.857,1.76v5.978a5.576,5.576,0,0,0,1.633,3.943l7.1,7.1a2.256,2.256,0,0,0,3.191,0l.252-.252a5.81,5.81,0,0,0,0-8.217l-3.317-3.317a1.481,1.481,0,0,1-.434-1.047v-1a1.481,1.481,0,0,1,1.481-1.481h9.154a1.481,1.481,0,0,1,1.047.434l8.2,8.2a6.408,6.408,0,0,0,9.061,0,2.016,2.016,0,0,0,0-2.85l-2.379-2.379a6.392,6.392,0,0,0,5.058-1.854,2.015,2.015,0,0,0,0-2.85l-2.288-2.288a6.378,6.378,0,0,0,3.751-1.828,2.016,2.016,0,0,0,0-2.85Z" transform="translate(-189.526 -180.815)" fill="#ffdfcf"/>
          </g>
          <g id="Grupo_1219086" data-name="Grupo 1219086" transform="translate(66.596 23.489)">
            <path id="Trazado_1090175" data-name="Trazado 1090175" d="M461.33,180.815h-3.814a2.015,2.015,0,0,1,2.015,2.015,6.392,6.392,0,0,1-2.364,4.968l.5.5.932.722a6.409,6.409,0,0,0,4.748-6.189A2.015,2.015,0,0,0,461.33,180.815Z" transform="translate(-457.167 -180.815)" fill="#ffcebf"/>
          </g>
          <g id="Grupo_1219088" data-name="Grupo 1219088" transform="translate(55.379 23.489)">
            <g id="Grupo_1219087" data-name="Grupo 1219087">
              <path id="Trazado_1090176" data-name="Trazado 1090176" d="M399.065,194.009,387.553,182.5a5.743,5.743,0,0,0-4.061-1.682h-2.064l13.194,13.194a2.015,2.015,0,0,1,0,2.85,6.381,6.381,0,0,1-2.309,1.479,6.407,6.407,0,0,0,6.752-1.479A2.015,2.015,0,0,0,399.065,194.009Z" transform="translate(-381.428 -180.815)" fill="#ffcebf"/>
            </g>
          </g>
          <g id="Grupo_1219089" data-name="Grupo 1219089" transform="translate(0 20.043)">
            <path id="Trazado_1090177" data-name="Trazado 1090177" d="M33.089,182.433H9.018A1.518,1.518,0,0,1,7.5,180.916v-21.85a1.518,1.518,0,0,1,1.518-1.518H33.089a1.518,1.518,0,0,1,1.518,1.518v21.85A1.518,1.518,0,0,1,33.089,182.433Z" transform="translate(-7.5 -157.548)" fill="#838383"/>
          </g>
          <g id="Grupo_1219090" data-name="Grupo 1219090" transform="translate(0 20.043)">
            <path id="Trazado_1090178" data-name="Trazado 1090178" d="M33.089,157.549H28.682v17.444a1.518,1.518,0,0,1-1.518,1.518H7.5v4.406a1.518,1.518,0,0,0,1.518,1.518H33.089a1.518,1.518,0,0,0,1.518-1.518v-21.85A1.518,1.518,0,0,0,33.089,157.549Z" transform="translate(-7.5 -157.549)" fill="#5a5a5a"/>
          </g>
          <g id="Grupo_1219095" data-name="Grupo 1219095" transform="translate(35.484 30.454)">
            <g id="Grupo_1219091" data-name="Grupo 1219091" transform="translate(18.431 0)">
              <path id="Trazado_1090179" data-name="Trazado 1090179" d="M389.18,241.038l-11.512-11.512a5.743,5.743,0,0,0-4.061-1.682h-2.064l13.194,13.194a2.015,2.015,0,0,1,0,2.85,6.383,6.383,0,0,1-2.309,1.479,6.407,6.407,0,0,0,6.752-1.479A2.015,2.015,0,0,0,389.18,241.038Z" transform="translate(-371.543 -227.844)" fill="#ffcebf"/>
            </g>
            <g id="Grupo_1219094" data-name="Grupo 1219094" transform="translate(0 6.067)">
              <g id="Grupo_1219092" data-name="Grupo 1219092" transform="translate(0 8.423)">
                <path id="Trazado_1090180" data-name="Trazado 1090180" d="M251.97,329.214a1.481,1.481,0,0,1-.434-1.047v-1a1.481,1.481,0,0,1,1.481-1.481h-4.443a1.481,1.481,0,0,0-1.481,1.481v1a1.481,1.481,0,0,0,.434,1.047l3.317,3.317a5.81,5.81,0,0,1,.357,7.825l.644.644a2.256,2.256,0,0,0,3.191,0l.252-.252a5.811,5.811,0,0,0,0-8.217Z" transform="translate(-247.093 -325.683)" fill="#ffcebf"/>
              </g>
              <g id="Grupo_1219093" data-name="Grupo 1219093" transform="translate(14.737)">
                <path id="Trazado_1090181" data-name="Trazado 1090181" d="M365.254,283.02l-12.527-12.527a5.743,5.743,0,0,0-4.061-1.682H346.6l14.209,14.209a2.016,2.016,0,0,1,0,2.85,6.38,6.38,0,0,1-2.309,1.479,6.407,6.407,0,0,0,6.752-1.479A2.016,2.016,0,0,0,365.254,283.02Z" transform="translate(-346.602 -268.811)" fill="#ffcebf"/>
              </g>
            </g>
          </g>
          <g id="Grupo_1219097" data-name="Grupo 1219097" transform="translate(12.43 12.43)">
            <g id="Grupo_1219096" data-name="Grupo 1219096">
              <path id="Trazado_1090182" data-name="Trazado 1090182" d="M130.9,106.145,91.431,145.617a28.383,28.383,0,0,0,4.915,4.915l39.472-39.472A28.388,28.388,0,0,0,130.9,106.145Z" transform="translate(-91.431 -106.145)" fill="#ef4424"/>
            </g>
          </g>
          <g id="Grupo_1219098" data-name="Grupo 1219098" transform="translate(4.967 34.333)">
            <path id="Trazado_1090183" data-name="Trazado 1090183" d="M48.445,259.668H41.781a.741.741,0,0,1-.74-.741v-4.147a.741.741,0,0,1,.74-.74h6.664a.741.741,0,0,1,.74.74v4.147A.741.741,0,0,1,48.445,259.668Z" transform="translate(-41.04 -254.04)" fill="#fedf30"/>
          </g>
          <g id="Grupo_1219099" data-name="Grupo 1219099" transform="translate(4.967 34.333)">
            <path id="Trazado_1090184" data-name="Trazado 1090184" d="M48.445,254.04H46.688v2.39a.741.741,0,0,1-.74.741H41.04v1.757a.741.741,0,0,0,.74.741h6.664a.741.741,0,0,0,.74-.741V254.78A.74.74,0,0,0,48.445,254.04Z" transform="translate(-41.04 -254.04)" fill="#fed402"/>
          </g>
        </g>
      </g>
      <g id="Grupo_1219102" data-name="Grupo 1219102" transform="translate(0 14.714)">
        <path id="Trazado_1090185" data-name="Trazado 1090185" d="M74.913,51.722,71.1,47.914A7.531,7.531,0,0,0,75,41.329,3.129,3.129,0,0,0,71.87,38.2H69.32A35.787,35.787,0,0,0,35.734,14.714,35.815,35.815,0,0,0,3.612,34.757H2.628A2.631,2.631,0,0,0,0,37.385v21.85a2.632,2.632,0,0,0,1.815,2.5A35.32,35.32,0,0,0,8.684,73.8a1.111,1.111,0,1,0,1.68-1.454A33.131,33.131,0,0,1,4.208,61.864H8.8A29.239,29.239,0,0,0,49.212,76.4,29.584,29.584,0,0,0,58.6,68.657l1.533,1.533a7.493,7.493,0,0,0,1.7,1.276,34.2,34.2,0,0,1-2.409,2.68,33.516,33.516,0,0,1-45.514,1.743,1.111,1.111,0,0,0-1.449,1.684A35.738,35.738,0,0,0,61,75.716a36.382,36.382,0,0,0,3.046-3.46,7.515,7.515,0,0,0,6.721-2.066,3.127,3.127,0,0,0,0-4.421l-.713-.713a7.5,7.5,0,0,0,3.391-1.949,3.13,3.13,0,0,0,0-4.421l-.931-.931a7.469,7.469,0,0,0,2.4-1.614,3.129,3.129,0,0,0,0-4.42ZM72.774,41.329a5.3,5.3,0,0,1-3.334,4.92l-5.824-5.824H71.87A.906.906,0,0,1,72.774,41.329ZM59.822,38.2H54.466l3.339-3.339A27.132,27.132,0,0,1,59.822,38.2ZM2.628,59.642a.407.407,0,0,1-.407-.407V37.385a.407.407,0,0,1,.407-.407H15.267a1.111,1.111,0,1,0,0-2.221H13.744a27.288,27.288,0,0,1,8.55-7.752A26.975,26.975,0,0,1,35.734,23.42a27.272,27.272,0,0,1,3.622.242,1.111,1.111,0,0,0,.3-2.2,29.256,29.256,0,0,0-28.593,13.3H6.105a33.53,33.53,0,0,1,53.327-8.006A33.2,33.2,0,0,1,66.949,38.2H62.294A29.346,29.346,0,0,0,44.9,22.671a1.111,1.111,0,1,0-.7,2.109,27,27,0,0,1,7.114,3.6L41.495,38.2H29.328v-.817A2.631,2.631,0,0,0,26.7,34.757H20.45a1.111,1.111,0,1,0,0,2.221H26.7a.407.407,0,0,1,.407.407V52.591l-7.051,7.051Zm26.7-19.218h9.945L29.328,50.37ZM17.833,61.864l-4.17,4.17a26.992,26.992,0,0,1-2.423-4.17Zm-2.8,5.944L53.094,29.746a27.166,27.166,0,0,1,3.344,3.343L18.379,71.148a27.148,27.148,0,0,1-3.347-3.34Zm5.334,4.862c-.072-.05-.141-.1-.213-.154L31.5,61.165v3.881a6.644,6.644,0,0,0,1.958,4.729l7.1,7.1c.049.049.1.093.153.139a26.936,26.936,0,0,1-20.348-4.34Zm27.819,1.763q-.735.383-1.493.719a6.933,6.933,0,0,0-1.118-8.321l-3.317-3.317a.372.372,0,0,1-.108-.261v-1a.371.371,0,0,1,.37-.37h9.154a.373.373,0,0,1,.262.108l5.089,5.089A27.357,27.357,0,0,1,48.184,74.434ZM73.342,54.572a5.232,5.232,0,0,1-2.588,1.422l-8.818-8.818a6.809,6.809,0,0,0-4.846-2.007H52.409a1.111,1.111,0,0,0,0,2.222H57.09a4.6,4.6,0,0,1,3.275,1.357L71.877,60.258a.905.905,0,0,1,0,1.279,5.286,5.286,0,0,1-3.792,1.548l-9.842-9.842A6.808,6.808,0,0,0,53.4,51.235H50.251a1.111,1.111,0,0,0,0,2.222H53.4a4.6,4.6,0,0,1,3.275,1.357L69.2,67.34a.9.9,0,0,1,0,1.279,5.3,5.3,0,0,1-7.491,0l-8.2-8.2a2.575,2.575,0,0,0-1.833-.759H42.518a2.6,2.6,0,0,0-2.592,2.592v1a2.574,2.574,0,0,0,.759,1.833L44,68.4a4.705,4.705,0,0,1,0,6.646l-.252.252a1.145,1.145,0,0,1-1.62,0l-7.1-7.1a4.437,4.437,0,0,1-1.308-3.158v-6.1L52.244,40.424h6.311a4.6,4.6,0,0,1,3.275,1.357L73.342,53.292a.905.905,0,0,1,0,1.279Z" transform="translate(0 -14.714)"/>
        <path id="Trazado_1090186" data-name="Trazado 1090186" d="M43.907,252.538v-4.147a1.853,1.853,0,0,0-1.851-1.851H35.391a1.853,1.853,0,0,0-1.851,1.851v4.147a1.853,1.853,0,0,0,1.851,1.851h6.664A1.853,1.853,0,0,0,43.907,252.538Zm-2.221-.37H35.762v-3.406h5.924Z" transform="translate(-28.573 -212.207)"/>
      </g>
    </g>
  </g>
</svg>
