<svg xmlns="http://www.w3.org/2000/svg" xmlns:xlink="http://www.w3.org/1999/xlink" width="113" height="113" viewBox="0 0 113 113">
  <defs>
    <filter id="Trazado_982547" x="0" y="0" width="113" height="113" filterUnits="userSpaceOnUse">
      <feOffset dy="3" input="SourceAlpha"/>
      <feGaussianBlur stdDeviation="3" result="blur"/>
      <feFlood flood-opacity="0.161"/>
      <feComposite operator="in" in2="blur"/>
      <feComposite in="SourceGraphic"/>
    </filter>
  </defs>
  <g id="Grupo_1219118" data-name="Grupo 1219118" transform="translate(-1216 -7089.844)">
    <g id="Grupo_1217927" data-name="Grupo 1217927" transform="translate(-1.234 -2607)">
      <g id="Grupo_1216308" data-name="Grupo 1216308" transform="translate(1226.234 9702.844)">
        <g id="Grupo_1208705" data-name="Grupo 1208705">
          <g id="Grupo_1148633" data-name="Grupo 1148633">
            <g id="Grupo_1148525" data-name="Grupo 1148525">
              <g transform="matrix(1, 0, 0, 1, -9, -6)" filter="url(#Trazado_982547)">
                <g id="Trazado_982547-2" data-name="Trazado 982547" transform="translate(9 6)" fill="#e6d567">
                  <path d="M 47.5 93.5 C 41.28937149047852 93.5 35.26533508300781 92.28397369384766 29.59518623352051 89.88570404052734 C 24.11771965026855 87.56893157958984 19.19813346862793 84.25196075439453 14.97309303283691 80.02691650390625 C 10.74804019927979 75.80186462402344 7.431066513061523 70.88229370117188 5.114293098449707 65.40481567382812 C 2.716026782989502 59.73468017578125 1.5 53.71062850952148 1.5 47.5 C 1.5 41.28937149047852 2.716026782989502 35.26533508300781 5.114293098449707 29.59518623352051 C 7.431066513061523 24.11771965026855 10.74804019927979 19.19813346862793 14.97309303283691 14.97309303283691 C 19.19813346862793 10.74804019927979 24.11771965026855 7.431066513061523 29.59518623352051 5.114293098449707 C 35.26533508300781 2.716026782989502 41.28937149047852 1.5 47.5 1.5 C 53.71062850952148 1.5 59.73468017578125 2.716026782989502 65.40481567382812 5.114293098449707 C 70.88229370117188 7.431066513061523 75.80186462402344 10.74804019927979 80.02691650390625 14.97309303283691 C 84.25196075439453 19.19813346862793 87.56893157958984 24.11771965026855 89.88570404052734 29.59518623352051 C 92.28397369384766 35.26533508300781 93.5 41.28937149047852 93.5 47.5 C 93.5 53.71062850952148 92.28397369384766 59.73468017578125 89.88570404052734 65.40481567382812 C 87.56893157958984 70.88229370117188 84.25196075439453 75.80186462402344 80.02691650390625 80.02691650390625 C 75.80186462402344 84.25196075439453 70.88229370117188 87.56893157958984 65.40481567382812 89.88570404052734 C 59.73468017578125 92.28397369384766 53.71062850952148 93.5 47.5 93.5 Z" stroke="none"/>
                  <path d="M 47.5 3 C 41.49121475219727 3 35.66376876831055 4.176155090332031 30.17950439453125 6.495796203613281 C 24.88084411621094 8.736953735351562 20.12152099609375 11.94598388671875 16.03375244140625 16.03375244140625 C 11.94598388671875 20.12152099609375 8.736953735351562 24.88084411621094 6.495796203613281 30.17950439453125 C 4.176155090332031 35.66376876831055 3 41.49121475219727 3 47.5 C 3 53.50878524780273 4.176155090332031 59.33623123168945 6.495796203613281 64.82049560546875 C 8.736953735351562 70.11915588378906 11.94598388671875 74.87847900390625 16.03375244140625 78.96624755859375 C 20.12152099609375 83.05401611328125 24.88084411621094 86.26304626464844 30.17950439453125 88.50419616699219 C 35.66376876831055 90.82384490966797 41.49121475219727 92 47.5 92 C 53.50878524780273 92 59.33623123168945 90.82384490966797 64.82049560546875 88.50419616699219 C 70.11915588378906 86.26304626464844 74.87847900390625 83.05401611328125 78.96624755859375 78.96624755859375 C 83.05401611328125 74.87847900390625 86.26304626464844 70.11915588378906 88.50419616699219 64.82049560546875 C 90.82384490966797 59.33623123168945 92 53.50878524780273 92 47.5 C 92 41.49121475219727 90.82384490966797 35.66376876831055 88.50419616699219 30.17950439453125 C 86.26304626464844 24.88084411621094 83.05401611328125 20.12152099609375 78.96624755859375 16.03375244140625 C 74.87847900390625 11.94598388671875 70.11915588378906 8.736953735351562 64.82049560546875 6.495796203613281 C 59.33623123168945 4.176155090332031 53.50878524780273 3 47.5 3 M 47.5 0 C 73.7335205078125 0 95 21.2664794921875 95 47.5 C 95 73.7335205078125 73.7335205078125 95 47.5 95 C 21.2664794921875 95 0 73.7335205078125 0 47.5 C 0 21.2664794921875 21.2664794921875 0 47.5 0 Z" stroke="none" fill="#ba9c5a"/>
                </g>
              </g>
            </g>
          </g>
        </g>
      </g>
    </g>
    <g id="soborno" transform="translate(1209.16 7098.647)">
      <g id="Grupo_1219116" data-name="Grupo 1219116" transform="translate(17.149 1.309)">
        <g id="Grupo_1219108" data-name="Grupo 1219108" transform="translate(0 36.425)">
          <g id="Grupo_1219104" data-name="Grupo 1219104" transform="translate(0 0.001)">
            <path id="Trazado_1090187" data-name="Trazado 1090187" d="M67.3,233v17.927a16.053,16.053,0,0,1-2.586,8.737h0a9.94,9.94,0,0,0-1.6,5.408v1.4H41.062v-2.333a4.837,4.837,0,0,0-1.418-3.423L24.7,245.772a4.638,4.638,0,1,1,6.56-6.56l4.2,4.2V223.951a4.174,4.174,0,1,1,8.349,0v-3.576a4.243,4.243,0,0,1,4.21-4.248,4.172,4.172,0,0,1,4.138,4.174v4.313a4.174,4.174,0,1,1,8.349,0V233a3.4,3.4,0,1,1,6.795,0Z" transform="translate(-23.338 -216.126)" fill="#ffddce"/>
          </g>
          <g id="Grupo_1219105" data-name="Grupo 1219105" transform="translate(37.165 13.481)">
            <path id="Trazado_1090188" data-name="Trazado 1090188" d="M236.2,306.578v-9.848a3.4,3.4,0,0,1,4.192-3.3,3.4,3.4,0,0,0-2.6,3.3v8.257A1.59,1.59,0,0,1,236.2,306.578Z" transform="translate(-236.2 -293.333)" fill="#ffcbbe"/>
          </g>
          <g id="Grupo_1219106" data-name="Grupo 1219106" transform="translate(12.118)">
            <path id="Trazado_1090189" data-name="Trazado 1090189" d="M97.914,237.15a4.176,4.176,0,0,0-3.18,4.055v20.429H93.713l-.967-.967V241.2a4.175,4.175,0,0,1,5.168-4.055Z" transform="translate(-92.746 -233.379)" fill="#ffcbbe"/>
            <path id="Trazado_1090190" data-name="Trazado 1090190" d="M140.564,238.713V220.3a4.174,4.174,0,0,1,5.168-4.055,4.176,4.176,0,0,0-3.18,4.055v16.429A1.988,1.988,0,0,1,140.564,238.713Z" transform="translate(-132.215 -216.121)" fill="#ffcbbe"/>
            <path id="Trazado_1090191" data-name="Trazado 1090191" d="M188.382,259.233V245a4.174,4.174,0,0,1,5.168-4.055A4.176,4.176,0,0,0,190.37,245v12.247A1.988,1.988,0,0,1,188.382,259.233Z" transform="translate(-171.684 -236.51)" fill="#ffcbbe"/>
          </g>
          <g id="Grupo_1219107" data-name="Grupo 1219107" transform="translate(0 22.15)">
            <path id="Trazado_1090192" data-name="Trazado 1090192" d="M41.932,363.142a4.837,4.837,0,0,1,1.418,3.423v4.62H41.064v-2.333a4.837,4.837,0,0,0-1.418-3.423L24.7,350.482a4.64,4.64,0,0,1,1.346-7.5,4.644,4.644,0,0,0,.94,5.21Z" transform="translate(-23.34 -342.985)" fill="#ffcbbe"/>
          </g>
        </g>
        <g id="Grupo_1219113" data-name="Grupo 1219113" transform="translate(37.285)">
          <g id="Grupo_1219109" data-name="Grupo 1219109" transform="translate(0 0)">
            <path id="Trazado_1090193" data-name="Trazado 1090193" d="M280.844,40.972V23.044a16.053,16.053,0,0,0-2.586-8.737h0a9.94,9.94,0,0,1-1.6-5.408V7.5H254.609V9.834a4.837,4.837,0,0,1-1.418,3.423L238.244,28.2a4.638,4.638,0,0,0,6.56,6.56l4.2-4.2V50.025a4.174,4.174,0,1,0,8.349,0V53.6a4.243,4.243,0,0,0,4.21,4.248,4.172,4.172,0,0,0,4.138-4.174V49.363a4.174,4.174,0,1,0,8.349,0V40.972a3.4,3.4,0,1,0,6.795,0Z" transform="translate(-236.885 -7.501)" fill="#a55e4d"/>
          </g>
          <g id="Grupo_1219110" data-name="Grupo 1219110" transform="translate(37.165 23.624)">
            <path id="Trazado_1090194" data-name="Trazado 1090194" d="M449.747,142.8v9.848a3.4,3.4,0,0,0,4.192,3.3,3.4,3.4,0,0,1-2.6-3.3v-8.257A1.59,1.59,0,0,0,449.747,142.8Z" transform="translate(-449.747 -142.804)" fill="#904f40"/>
          </g>
          <g id="Grupo_1219111" data-name="Grupo 1219111" transform="translate(12.118 22.096)">
            <path id="Trazado_1090195" data-name="Trazado 1090195" d="M311.461,158.538a4.176,4.176,0,0,1-3.18-4.055V134.054H307.26l-.967.967v19.461a4.175,4.175,0,0,0,5.168,4.055Z" transform="translate(-306.293 -134.054)" fill="#904f40"/>
            <path id="Trazado_1090196" data-name="Trazado 1090196" d="M354.111,166.485V184.9a4.174,4.174,0,0,0,5.168,4.055,4.176,4.176,0,0,1-3.18-4.055V168.473A1.987,1.987,0,0,0,354.111,166.485Z" transform="translate(-345.762 -160.823)" fill="#904f40"/>
            <path id="Trazado_1090197" data-name="Trazado 1090197" d="M401.929,165.737v14.235a4.174,4.174,0,0,0,5.168,4.055,4.176,4.176,0,0,1-3.18-4.055V167.725A1.988,1.988,0,0,0,401.929,165.737Z" transform="translate(-385.231 -160.205)" fill="#904f40"/>
          </g>
          <g id="Grupo_1219112" data-name="Grupo 1219112" transform="translate(0)">
            <path id="Trazado_1090198" data-name="Trazado 1090198" d="M255.479,15.543A4.837,4.837,0,0,0,256.9,12.12V7.5h-2.287V9.833a4.837,4.837,0,0,1-1.418,3.423L238.246,28.2a4.64,4.64,0,0,0,1.346,7.5,4.644,4.644,0,0,1,.94-5.21Z" transform="translate(-236.887 -7.5)" fill="#904f40"/>
          </g>
        </g>
        <g id="Grupo_1219115" data-name="Grupo 1219115" transform="translate(18.686 28.814)">
          <path id="Trazado_1090199" data-name="Trazado 1090199" d="M181.531,175.97v24.186a3.44,3.44,0,0,1-3.44,3.44H133.8a3.44,3.44,0,0,1-3.44-3.44V175.97a3.44,3.44,0,0,1,3.44-3.44h44.288A3.44,3.44,0,0,1,181.531,175.97Z" transform="translate(-130.364 -172.53)" fill="#b3e59f"/>
          <g id="Grupo_1219114" data-name="Grupo 1219114">
            <circle id="Elipse_14396" data-name="Elipse 14396" cx="10.872" cy="10.872" r="10.872" transform="translate(14.711 4.66)" fill="#95d6a4"/>
            <path id="Trazado_1090200" data-name="Trazado 1090200" d="M376.917,294.11v6.4a3.44,3.44,0,0,1-3.44,3.44h-6.4A9.837,9.837,0,0,1,376.917,294.11Z" transform="translate(-325.75 -272.883)" fill="#95d6a4"/>
            <path id="Trazado_1090201" data-name="Trazado 1090201" d="M376.918,175.97v6.4a9.838,9.838,0,0,1-9.837-9.837h6.4A3.44,3.44,0,0,1,376.918,175.97Z" transform="translate(-325.751 -172.531)" fill="#95d6a4"/>
            <path id="Trazado_1090202" data-name="Trazado 1090202" d="M140.2,303.947h-6.4a3.44,3.44,0,0,1-3.44-3.44v-6.4A9.836,9.836,0,0,1,140.2,303.947Z" transform="translate(-130.364 -272.883)" fill="#95d6a4"/>
            <path id="Trazado_1090203" data-name="Trazado 1090203" d="M140.2,172.53a9.837,9.837,0,0,1-9.837,9.837v-6.4a3.44,3.44,0,0,1,3.44-3.44h6.4Z" transform="translate(-130.364 -172.53)" fill="#95d6a4"/>
          </g>
        </g>
      </g>
      <g id="Grupo_1219117" data-name="Grupo 1219117" transform="translate(15.84 0)">
        <path id="Trazado_1090204" data-name="Trazado 1090204" d="M81.856,434.8A1.309,1.309,0,0,0,80,436.656l5.17,5.17a3.508,3.508,0,0,1,1.034,2.5v2.334a1.309,1.309,0,0,0,2.619,0v-2.334a6.109,6.109,0,0,0-1.8-4.348Z" transform="translate(-68.484 -358.572)"/>
        <path id="Trazado_1090205" data-name="Trazado 1090205" d="M458.992,8.828a14.707,14.707,0,0,1,1,1.816,1.309,1.309,0,1,0,2.376-1.1,17.354,17.354,0,0,0-1.183-2.14,8.616,8.616,0,0,1-1.39-4.7v-1.4a1.309,1.309,0,1,0-2.619,0v1.4a11.237,11.237,0,0,0,1.812,6.122Z" transform="translate(-380.123 0)"/>
        <path id="Trazado_1090206" data-name="Trazado 1090206" d="M99.6,14.99a1.309,1.309,0,1,0-2.6.28,14.88,14.88,0,0,1,.085,1.583V34.782a2.087,2.087,0,0,1-4.175,0V24.933a1.309,1.309,0,0,0-2.619,0v3.255c0,.007,0,.013,0,.02V43.173A2.86,2.86,0,0,1,88.312,45.9V33.564a4.757,4.757,0,0,0-3.752-4.643v-.049a1.309,1.309,0,0,0-2.616-.058H76.208a1.308,1.308,0,0,0-2.613,0H67.862v-3.9l.2-.2h2.745a9.758,9.758,0,0,0,9.26-6.659,1.31,1.31,0,1,0-2.483-.833A7.141,7.141,0,0,1,70.807,22.1H67.52a1.309,1.309,0,0,0-.926.384l-5.167,5.167a3.329,3.329,0,1,1-4.708-4.708L71.665,7.993a6.107,6.107,0,0,0,1.8-4.349V1.31a1.309,1.309,0,1,0-2.619,0V3.644a3.505,3.505,0,0,1-1.035,2.5L54.867,21.088a5.948,5.948,0,0,0-.589,7.727h-15a4.754,4.754,0,0,0-4.749,4.749v6.624a5.507,5.507,0,0,0-1.084-.111,5.488,5.488,0,0,0-5.484,5.484v16.3L25.994,59.9a5.948,5.948,0,0,0-8.412,8.411l6.072,6.072a1.31,1.31,0,0,0,1.852-1.852l-6.073-6.072a3.329,3.329,0,1,1,4.708-4.708l5.168,5.168a1.3,1.3,0,0,0,.963.383h3.249A7.142,7.142,0,0,1,40.3,72.172a1.31,1.31,0,0,0,2.483-.834,9.758,9.758,0,0,0-9.26-6.658H30.777l-.2-.2V45.56a2.865,2.865,0,0,1,3.949-2.652V57.749A4.754,4.754,0,0,0,39.275,62.5h13.73v1.964a1.309,1.309,0,1,0,2.619,0V62.5H59.8V72.542a14.7,14.7,0,0,1-2.375,8.024,11.239,11.239,0,0,0-1.812,6.122v1.4a1.309,1.309,0,1,0,2.619,0v-1.4a8.619,8.619,0,0,1,1.39-4.7,17.319,17.319,0,0,0,2.8-9.45V62.5H83.563a4.754,4.754,0,0,0,4.749-4.749V48.583a5.482,5.482,0,0,0,4.6-5.41V39A4.706,4.706,0,0,0,99.7,34.782V16.853a17.51,17.51,0,0,0-.1-1.863ZM46.9,59.879a11.165,11.165,0,0,0-9.758-9.758v-8.93A11.165,11.165,0,0,0,46.9,31.434H75.935a11.165,11.165,0,0,0,9.758,9.758v8.93a11.165,11.165,0,0,0-9.758,9.758ZM85.693,33.564v4.988a8.548,8.548,0,0,1-7.118-7.118h4.988a2.133,2.133,0,0,1,2.13,2.13Zm-20.45-6.029v1.28h-1.28Zm-25.968,3.9h4.987a8.548,8.548,0,0,1-7.117,7.118V33.564A2.132,2.132,0,0,1,39.275,31.434Zm-2.13,26.315V52.762a8.548,8.548,0,0,1,7.117,7.118H39.275a2.133,2.133,0,0,1-2.13-2.13Zm46.418,2.13H78.576a8.548,8.548,0,0,1,7.118-7.118v4.988a2.133,2.133,0,0,1-2.13,2.13Z" transform="translate(-15.84 -0.001)"/>
        <path id="Trazado_1090207" data-name="Trazado 1090207" d="M259.954,225.11a9.284,9.284,0,0,1-2.324-1.072.547.547,0,0,1-.066-.452.785.785,0,0,1,.5-.621,1.621,1.621,0,0,1,1.494.222,1.309,1.309,0,0,0,1.675-2.013,4,4,0,0,0-1.452-.747v-.141a1.309,1.309,0,1,0-2.619,0v.222a3.383,3.383,0,0,0-2.173,2.593,3.047,3.047,0,0,0,1.023,3,11.119,11.119,0,0,0,3.067,1.48.933.933,0,0,1,.7,1.116,1.327,1.327,0,0,1-1.316,1.118,2.442,2.442,0,0,1-1.788-.463,1.309,1.309,0,1,0-1.434,2.192,4.829,4.829,0,0,0,1.921.809v.161a1.309,1.309,0,1,0,2.619,0v-.305a4.008,4.008,0,0,0,2.581-3.078A3.55,3.55,0,0,0,259.954,225.11Z" transform="translate(-212.955 -180.744)"/>
        <path id="Trazado_1090208" data-name="Trazado 1090208" d="M219.3,191.719A12.182,12.182,0,1,0,231.486,203.9,12.2,12.2,0,0,0,219.3,191.719Zm0,21.745a9.563,9.563,0,1,1,9.563-9.563A9.574,9.574,0,0,1,219.3,213.464Z" transform="translate(-173.725 -158.245)"/>
      </g>
    </g>
  </g>
</svg>
