<svg xmlns="http://www.w3.org/2000/svg" xmlns:xlink="http://www.w3.org/1999/xlink" width="110" height="110" viewBox="0 0 110 110">
  <defs>
    <filter id="Trazado_982547" x="0" y="0" width="110" height="110" filterUnits="userSpaceOnUse">
      <feOffset dy="3" input="SourceAlpha"/>
      <feGaussianBlur stdDeviation="3" result="blur"/>
      <feFlood flood-opacity="0.161"/>
      <feComposite operator="in" in2="blur"/>
      <feComposite in="SourceGraphic"/>
    </filter>
  </defs>
  <g id="Grupo_1218624" data-name="Grupo 1218624" transform="translate(-1114 -1352.989)">
    <g id="Grupo_1217624" data-name="Grupo 1217624" transform="translate(1123 1358.989)">
      <g id="Grupo_1211001" data-name="Grupo 1211001" transform="translate(0 0)">
        <g id="Grupo_1200151" data-name="Grupo 1200151">
          <g id="Grupo_1185952" data-name="Grupo 1185952" transform="translate(0 0)">
            <g id="Grupo_1184115" data-name="Grupo 1184115" transform="translate(0 0)">
              <g id="Grupo_1183744" data-name="Grupo 1183744">
                <g id="Grupo_1181546" data-name="Grupo 1181546">
                  <g id="Grupo_1177563" data-name="Grupo 1177563">
                    <g id="Grupo_1173148" data-name="Grupo 1173148">
                      <g id="Grupo_1163803" data-name="Grupo 1163803" transform="translate(0 0)">
                        <g id="Grupo_1163015" data-name="Grupo 1163015" transform="translate(0 0)">
                          <g id="Grupo_1157017" data-name="Grupo 1157017">
                            <g id="Grupo_1155793" data-name="Grupo 1155793">
                              <g id="Grupo_1154704" data-name="Grupo 1154704">
                                <g id="Grupo_1150790" data-name="Grupo 1150790">
                                  <g id="Grupo_1154214" data-name="Grupo 1154214">
                                    <g id="Grupo_1152583" data-name="Grupo 1152583">
                                      <g id="Grupo_1146973" data-name="Grupo 1146973">
                                        <g id="Grupo_1146954" data-name="Grupo 1146954">
                                          <g transform="matrix(1, 0, 0, 1, -9, -6)" filter="url(#Trazado_982547)">
                                            <g id="Trazado_982547-2" data-name="Trazado 982547" transform="translate(9 6)" fill="#f2d944">
                                              <path d="M 46.00000381469727 90.49986267089844 C 39.99188232421875 90.49986267089844 34.16427230834961 89.32350158691406 28.67905807495117 87.00344848632812 C 23.38020324707031 84.76223754882812 18.62104415893555 81.55341339111328 14.53375053405762 77.46613311767578 C 10.44647026062012 73.37885284423828 7.237643718719482 68.61968994140625 4.996417045593262 63.32085037231445 C 2.676363706588745 57.83565139770508 1.500003814697266 52.00805282592773 1.500003814697266 45.99993133544922 C 1.500003814697266 39.99182510375977 2.676363706588745 34.16422653198242 4.996417045593262 28.67901039123535 C 7.237643718719482 23.38017082214355 10.44647026062012 18.62101173400879 14.53375053405762 14.53373146057129 C 18.62104415893555 10.44645118713379 23.38020324707031 7.237624645233154 28.67905807495117 4.996411323547363 C 34.16427230834961 2.676357984542847 39.99188232421875 1.499997973442078 46.00000381469727 1.499997973442078 C 52.00812530517578 1.499997973442078 57.83573532104492 2.676357984542847 63.32094955444336 4.996411323547363 C 68.61980438232422 7.237624645233154 73.37896728515625 10.44645118713379 77.46625518798828 14.53373146057129 C 81.55353546142578 18.62101173400879 84.76236724853516 23.38017082214355 87.00359344482422 28.67901039123535 C 89.32364654541016 34.16422653198242 90.5 39.99182510375977 90.5 45.99993133544922 C 90.5 52.00805282592773 89.32364654541016 57.83565139770508 87.00359344482422 63.32085037231445 C 84.76236724853516 68.61968994140625 81.55353546142578 73.37885284423828 77.46625518798828 77.46613311767578 C 73.37896728515625 81.55341339111328 68.61980438232422 84.76223754882812 63.32094955444336 87.00344848632812 C 57.83573532104492 89.32350158691406 52.00812530517578 90.49986267089844 46.00000381469727 90.49986267089844 Z" stroke="none"/>
                                              <path d="M 46.00000381469727 3 C 40.19371795654297 3 34.56270217895508 4.136505126953125 29.26337432861328 6.377914428710938 C 24.14333343505859 8.54351806640625 19.54441833496094 11.64438629150391 15.59440612792969 15.59439086914062 C 11.64440155029297 19.54440307617188 8.54351806640625 24.14330291748047 6.377914428710938 29.26334381103516 C 4.136505126953125 34.56266021728516 3.000007629394531 40.19366073608398 3.000007629394531 45.99993133544922 C 3.000007629394531 51.80620193481445 4.136505126953125 57.43720245361328 6.377914428710938 62.73651885986328 C 8.54351806640625 67.85655975341797 11.64440155029297 72.45545959472656 15.59440612792969 76.40547180175781 C 19.54441833496094 80.35547637939453 24.14333343505859 83.45634460449219 29.26337432861328 85.6219482421875 C 34.56270217895508 87.86335754394531 40.19371795654297 88.99986267089844 46.00000381469727 88.99986267089844 C 51.80628967285156 88.99986267089844 57.43730545043945 87.86335754394531 62.73661804199219 85.6219482421875 C 67.85667419433594 83.45634460449219 72.45557403564453 80.35547637939453 76.40558624267578 76.40547180175781 C 80.35560607910156 72.45545959472656 83.45647430419922 67.85655975341797 85.62207794189453 62.73651885986328 C 87.86350250244141 57.43720245361328 89 51.80620193481445 89 45.99993133544922 C 89 40.19366073608398 87.86350250244141 34.56266021728516 85.62207794189453 29.26334381103516 C 83.45647430419922 24.14330291748047 80.35560607910156 19.54440307617188 76.40558624267578 15.59439086914062 C 72.45557403564453 11.64438629150391 67.85667419433594 8.54351806640625 62.73661804199219 6.377914428710938 C 57.43730545043945 4.136505126953125 51.80628967285156 3 46.00000381469727 3 M 46.00000381469727 0 C 71.40509033203125 0 92 20.59487152099609 92 45.99993133544922 C 92 71.40499114990234 71.40509033203125 91.99986267089844 46.00000381469727 91.99986267089844 C 20.59490203857422 91.99986267089844 7.62939453125e-06 71.40499114990234 7.62939453125e-06 45.99993133544922 C 7.62939453125e-06 20.59487152099609 20.59490203857422 0 46.00000381469727 0 Z" stroke="none" fill="#ba9c5a"/>
                                            </g>
                                          </g>
                                        </g>
                                      </g>
                                    </g>
                                  </g>
                                </g>
                              </g>
                            </g>
                          </g>
                        </g>
                      </g>
                    </g>
                  </g>
                </g>
              </g>
            </g>
          </g>
        </g>
      </g>
    </g>
    <g id="Layer_7" transform="translate(1124.334 1372.08)">
      <g id="Grupo_1218623" data-name="Grupo 1218623" transform="translate(0 0)">
        <g id="Grupo_1218525" data-name="Grupo 1218525" transform="translate(80.138 22.921)">
          <path id="Trazado_1089568" data-name="Trazado 1089568" d="M230.031,65.686a2.371,2.371,0,0,0-.361.029v4.261c0,.127-.006.253-.014.378a2.377,2.377,0,0,0,.375.033,2.35,2.35,0,0,0,0-4.7Z" transform="translate(-229.656 -65.686)" fill="#f9d0b4"/>
        </g>
        <g id="Grupo_1218526" data-name="Grupo 1218526" transform="translate(66.184 23.366)">
          <path id="Trazado_1089569" data-name="Trazado 1089569" d="M192.377,67.453a9.191,9.191,0,0,1-1.191-.432.717.717,0,0,0-.779.134,2.343,2.343,0,0,0,1.983,4.028c-.008-.125-.014-.251-.014-.378V67.453Z" transform="translate(-189.666 -66.96)" fill="#f9d0b4"/>
        </g>
        <g id="Grupo_1218528" data-name="Grupo 1218528" transform="translate(66.871 14.582)">
          <g id="Grupo_1218527" data-name="Grupo 1218527">
            <path id="Trazado_1089570" data-name="Trazado 1089570" d="M191.69,50.765a.716.716,0,0,1,.779-.134,9.168,9.168,0,0,0,1.191.432c4.424,1.26,7.464-1.775,8.321-2.776a.373.373,0,0,1,.536-.03,4.668,4.668,0,0,0,2.054,1.182.442.442,0,0,1,.346.429v.286a2.371,2.371,0,0,1,.361-.029,2.343,2.343,0,0,1,1.664.691V49.441a7.654,7.654,0,1,0-15.308,0v1.383c.018-.019.036-.04.056-.059Z" transform="translate(-191.634 -41.787)" fill="#fed690"/>
          </g>
        </g>
        <g id="Grupo_1218530" data-name="Grupo 1218530" transform="translate(66.002 26.521)">
          <g id="Grupo_1218529" data-name="Grupo 1218529">
            <path id="Trazado_1089571" data-name="Trazado 1089571" d="M192.052,77.07A2.323,2.323,0,0,1,189.69,76a4.161,4.161,0,0,0,.093,4.255.652.652,0,0,1,.035.661,3.222,3.222,0,0,0,.042,3.3,3.756,3.756,0,0,0,1.752,1.42,8.816,8.816,0,0,0,2.107-1.2l.559-.429a1.418,1.418,0,0,0,.579-1.1V81.559a5.641,5.641,0,0,1-2.806-4.489Z" transform="translate(-189.146 -76.003)" fill="#fed690"/>
          </g>
        </g>
        <g id="Grupo_1218532" data-name="Grupo 1218532" transform="translate(77.334 26.522)">
          <g id="Grupo_1218531" data-name="Grupo 1218531">
            <path id="Trazado_1089572" data-name="Trazado 1089572" d="M226.694,80.259A4.161,4.161,0,0,0,226.787,76a2.323,2.323,0,0,1-2.362,1.067,5.644,5.644,0,0,1-2.805,4.488v1.352a1.418,1.418,0,0,0,.579,1.1l.558.428a8.823,8.823,0,0,0,2.109,1.2,3.755,3.755,0,0,0,1.752-1.42,3.221,3.221,0,0,0,.042-3.3A.654.654,0,0,1,226.694,80.259Z" transform="translate(-221.62 -76.004)" fill="#fed690"/>
          </g>
        </g>
        <g id="Grupo_1218533" data-name="Grupo 1218533" transform="translate(61.982 32.081)">
          <path id="Trazado_1089573" data-name="Trazado 1089573" d="M179.325,103.037a2.005,2.005,0,0,1-1.7,1.981v.026h9.808l.969-6.359a5.521,5.521,0,0,0,3.53,0l.969,6.358h9.194a2.007,2.007,0,0,1,.619.1l-.334-5.759a2.407,2.407,0,0,0-1.816-2.2l-3.3-.831-.045-.012a8.619,8.619,0,0,1-3.1-1.528l-.558-.428a1.42,1.42,0,0,1-.579-1.1V91.935a5.585,5.585,0,0,1-5.621,0v1.347a1.418,1.418,0,0,1-.579,1.1l-.559.429a8.624,8.624,0,0,1-3.123,1.533l-.024.006-3.3.831a2.407,2.407,0,0,0-1.816,2.2l-.1,1.721a2.007,2.007,0,0,1,1.473,1.933Z" transform="translate(-177.624 -91.935)" fill="#5b5d60"/>
        </g>
        <g id="Grupo_1218534" data-name="Grupo 1218534" transform="translate(25.648 41.176)">
          <path id="Trazado_1089574" data-name="Trazado 1089574" d="M109.529,118H75.506a2.006,2.006,0,1,0,0,4.013h34.023a2.006,2.006,0,0,0,0-4.013Z" transform="translate(-73.5 -118)" fill="#c18e6b"/>
        </g>
        <g id="Grupo_1218535" data-name="Grupo 1218535" transform="translate(0.872 73.628)">
          <path id="Trazado_1089575" data-name="Trazado 1089575" d="M88.08,211H4.506a2.006,2.006,0,0,0,0,4.013H88.08a2.006,2.006,0,0,0,0-4.013Z" transform="translate(-2.5 -211)" fill="#c18e6b"/>
        </g>
        <g id="Grupo_1218536" data-name="Grupo 1218536" transform="translate(60.94 45.189)">
          <path id="Trazado_1089576" data-name="Trazado 1089576" d="M200.151,129.5H174.639v4.013h25.512a2.006,2.006,0,0,0,0-4.013Z" transform="translate(-174.639 -129.5)" fill="#c18e6b"/>
        </g>
        <g id="Grupo_1218537" data-name="Grupo 1218537" transform="translate(0.872 45.189)">
          <path id="Trazado_1089577" data-name="Trazado 1089577" d="M30.019,129.5H4.506a2.006,2.006,0,0,0,0,4.013H30.019Z" transform="translate(-2.5 -129.5)" fill="#c18e6b"/>
        </g>
        <g id="Grupo_1218538" data-name="Grupo 1218538" transform="translate(3.838 49.202)">
          <path id="Trazado_1089578" data-name="Trazado 1089578" d="M35.552,141H11v24.426H35.552Z" transform="translate(-11 -141)" fill="#754e34"/>
        </g>
        <g id="Grupo_1218539" data-name="Grupo 1218539" transform="translate(60.94 49.202)">
          <path id="Trazado_1089579" data-name="Trazado 1089579" d="M174.639,141v24.426h24.552V141Z" transform="translate(-174.639 -141)" fill="#754e34"/>
        </g>
        <g id="Grupo_1218541" data-name="Grupo 1218541" transform="translate(28.391 45.189)">
          <g id="Grupo_1218540" data-name="Grupo 1218540">
            <path id="Trazado_1089580" data-name="Trazado 1089580" d="M113.91,129.5H81.361v28.439H113.91Z" transform="translate(-81.361 -129.5)" fill="#754e34"/>
          </g>
        </g>
        <g id="Grupo_1218542" data-name="Grupo 1218542" transform="translate(38.368 14.598)">
          <path id="Trazado_1089581" data-name="Trazado 1089581" d="M121.648,42.192a1.154,1.154,0,0,0-1.551-.1,6.325,6.325,0,0,1-7.7,0,1.153,1.153,0,0,0-1.548.105l0,0a3.257,3.257,0,0,0-.9,2.247v5.286a6.3,6.3,0,1,0,12.6,0V44.439A3.259,3.259,0,0,0,121.648,42.192Z" transform="translate(-109.952 -41.835)" fill="#f9d0b4"/>
        </g>
        <g id="Grupo_1218543" data-name="Grupo 1218543" transform="translate(50.948 17.688)">
          <path id="Trazado_1089582" data-name="Trazado 1089582" d="M146.425,50.69a2.616,2.616,0,0,0-.4.032V55.49c0,.142-.007.283-.016.422a2.628,2.628,0,1,0,.42-5.222Z" transform="translate(-146.005 -50.69)" fill="#f9d0b4"/>
        </g>
        <g id="Grupo_1218544" data-name="Grupo 1218544" transform="translate(35.334 17.688)">
          <path id="Trazado_1089583" data-name="Trazado 1089583" d="M104.291,55.49V50.722a2.629,2.629,0,1,0-.4,5.227,2.645,2.645,0,0,0,.42-.037c-.01-.14-.016-.281-.016-.423Z" transform="translate(-101.257 -50.69)" fill="#f9d0b4"/>
        </g>
        <g id="Grupo_1218545" data-name="Grupo 1218545" transform="translate(31.721 28.072)">
          <path id="Trazado_1089584" data-name="Trazado 1089584" d="M116.793,93.551l-.335-5.772a2.485,2.485,0,0,0-1.875-2.272l-3.427-.862h0c.02,0,.075.019-.007,0-1.348-.342-4.394-1.766-4.4-3.162V80.447a6.248,6.248,0,0,1-5.8,0v1.025c0,.977-.868,1.273-1.263,1.656-2.115,1.623-3.865,1.574-6.571,2.379a2.485,2.485,0,0,0-1.875,2.272L90.9,93.551h10.133l1.036-6.8a6.9,6.9,0,0,0,3.551,0l1.036,6.8Z" transform="translate(-90.903 -80.447)" fill="#5b5d60"/>
        </g>
        <g id="Grupo_1218546" data-name="Grupo 1218546" transform="translate(35.572 7.19)">
          <path id="Trazado_1089585" data-name="Trazado 1089585" d="M104.331,31.1a2.616,2.616,0,0,1,.4.032v-.518a3.256,3.256,0,0,1,.9-2.247l0,0a1.153,1.153,0,0,1,1.548-.105,6.325,6.325,0,0,0,7.7,0,1.154,1.154,0,0,1,1.551.1,3.257,3.257,0,0,1,.9,2.247v.518a2.621,2.621,0,0,1,2.809,1.537V29.3c0-3.56-1.286-4.055-2-4.055a.442.442,0,0,1-.449-.423c-.055-3.976-4.595-4.723-9.117-3.942a7.994,7.994,0,0,0-6.635,7.876v3.887a2.628,2.628,0,0,1,2.392-1.541Z" transform="translate(-101.939 -20.605)" fill="#5b5d60"/>
        </g>
        <g id="Grupo_1218547" data-name="Grupo 1218547" transform="translate(8.992 20.656)">
          <path id="Trazado_1089586" data-name="Trazado 1089586" d="M36.7,59.529a1.079,1.079,0,0,0-1.45-.1,5.912,5.912,0,0,1-7.193,0,1.078,1.078,0,0,0-1.447.1l0,0a3.044,3.044,0,0,0-.841,2.1V66.57a5.887,5.887,0,0,0,11.774,0V61.629a3.046,3.046,0,0,0-.841-2.1Z" transform="translate(-25.77 -59.196)" fill="#f9d0b4"/>
        </g>
        <g id="Grupo_1218548" data-name="Grupo 1218548" transform="translate(20.751 23.544)">
          <path id="Trazado_1089587" data-name="Trazado 1089587" d="M59.861,67.471a2.454,2.454,0,0,0-.378.03v4.457c0,.133-.006.264-.015.395a2.457,2.457,0,1,0,.393-4.881Z" transform="translate(-59.468 -67.471)" fill="#f9d0b4"/>
        </g>
        <g id="Grupo_1218549" data-name="Grupo 1218549" transform="translate(6.157 23.544)">
          <path id="Trazado_1089588" data-name="Trazado 1089588" d="M20.479,71.958V67.5a2.459,2.459,0,1,0,.015,4.852C20.485,72.222,20.479,72.09,20.479,71.958Z" transform="translate(-17.643 -67.471)" fill="#f9d0b4"/>
        </g>
        <g id="Grupo_1218550" data-name="Grupo 1218550" transform="translate(2.798 33.249)">
          <path id="Trazado_1089589" data-name="Trazado 1089589" d="M8.1,107.224h9.42l.922-6.049a6.451,6.451,0,0,0,3.319,0l.922,6.049h9.5l-.007-.128a2,2,0,0,1-.213-3.663l-.075-1.295a2.323,2.323,0,0,0-1.752-2.124l-3.2-.806-.007,0c-1.26-.32-4.107-1.651-4.112-2.956v-.966a5.84,5.84,0,0,1-5.424,0v.958c0,.913-.811,1.19-1.18,1.548-1.977,1.517-3.612,1.471-6.142,2.224a2.323,2.323,0,0,0-1.752,2.124l-.3,5.09c.027,0,.054,0,.081,0Z" transform="translate(-8.017 -95.284)" fill="#5b5d60"/>
        </g>
        <g id="Grupo_1218551" data-name="Grupo 1218551" transform="translate(6.379 13.73)">
          <path id="Trazado_1089590" data-name="Trazado 1089590" d="M20.517,49.161a2.458,2.458,0,0,1,.378.03v-.484a3.044,3.044,0,0,1,.841-2.1l0,0a1.078,1.078,0,0,1,1.447-.1,5.912,5.912,0,0,0,7.193,0,1.079,1.079,0,0,1,1.45.1,3.044,3.044,0,0,1,.841,2.1v.484A2.45,2.45,0,0,1,35.3,50.627V47.475c0-3.328-1.2-3.79-1.869-3.79a.413.413,0,0,1-.42-.4c-.051-3.716-4.295-4.415-8.521-3.685a7.472,7.472,0,0,0-6.2,7.362V50.6A2.457,2.457,0,0,1,20.517,49.161Z" transform="translate(-18.282 -39.347)" fill="#a57453"/>
        </g>
        <g id="Grupo_1218552" data-name="Grupo 1218552" transform="translate(68.895 20.953)">
          <path id="Trazado_1089591" data-name="Trazado 1089591" d="M205.757,60.176c-.857,1-3.9,4.036-8.321,2.776V66.3a5.629,5.629,0,1,0,11.257,0V61.757a.442.442,0,0,0-.346-.429,4.661,4.661,0,0,1-2.054-1.182.373.373,0,0,0-.536.03Z" transform="translate(-197.436 -60.047)" fill="#f9d0b4"/>
        </g>
        <g id="Grupo_1218553" data-name="Grupo 1218553" transform="translate(7.328 52.691)">
          <path id="Trazado_1089592" data-name="Trazado 1089592" d="M21,151.87v15.708a.87.87,0,0,0,.87.87H37.7a.87.87,0,0,0,.87-.87V151.87a.87.87,0,0,0-.87-.87H21.87a.87.87,0,0,0-.87.87Z" transform="translate(-21 -151)" fill="#a57453"/>
        </g>
        <g id="Grupo_1218554" data-name="Grupo 1218554" transform="translate(64.43 52.691)">
          <path id="Trazado_1089593" data-name="Trazado 1089593" d="M184.639,151.87v15.708a.87.87,0,0,0,.87.87h15.834a.87.87,0,0,0,.87-.87V151.87a.87.87,0,0,0-.87-.87H185.509A.87.87,0,0,0,184.639,151.87Z" transform="translate(-184.639 -151)" fill="#a57453"/>
        </g>
        <g id="Grupo_1218555" data-name="Grupo 1218555" transform="translate(35.719 48.678)">
          <path id="Trazado_1089594" data-name="Trazado 1089594" d="M102.361,140.386v19.688a.886.886,0,0,0,.886.886h16.121a.886.886,0,0,0,.886-.886V140.386a.886.886,0,0,0-.886-.886H103.247A.886.886,0,0,0,102.361,140.386Z" transform="translate(-102.361 -139.5)" fill="#a57453"/>
        </g>
        <g id="Grupo_1218556" data-name="Grupo 1218556" transform="translate(28.391 45.189)">
          <path id="Trazado_1089595" data-name="Trazado 1089595" d="M85.139,129.5H81.361v28.439h3.778Z" transform="translate(-81.361 -129.5)" fill="#a57453"/>
        </g>
        <g id="Grupo_1218557" data-name="Grupo 1218557" transform="translate(57.162 45.189)">
          <path id="Trazado_1089596" data-name="Trazado 1089596" d="M163.813,129.5v28.439h3.778V129.5Z" transform="translate(-163.813 -129.5)" fill="#a57453"/>
        </g>
        <g id="Grupo_1218558" data-name="Grupo 1218558" transform="translate(71.79 38.831)">
          <path id="Trazado_1089597" data-name="Trazado 1089597" d="M211.2,117.638l-.969-6.358a5.525,5.525,0,0,1-3.531,0l-.969,6.358Z" transform="translate(-205.731 -111.28)" fill="#dae6f1"/>
        </g>
        <g id="Grupo_1218559" data-name="Grupo 1218559" transform="translate(38.946 28.072)">
          <path id="Trazado_1089598" data-name="Trazado 1089598" d="M123.061,84.062c-1.352-.625-2.828-1.609-2.832-2.58V80.448a6.247,6.247,0,0,1-5.8,0v1.025c0,.977-.868,1.273-1.263,1.656a8.269,8.269,0,0,1-1.555.951,7.088,7.088,0,0,0,11.453-.018Z" transform="translate(-111.608 -80.448)" fill="#f9d0b4"/>
        </g>
        <g id="Grupo_1218560" data-name="Grupo 1218560" transform="translate(41.854 34.372)">
          <path id="Trazado_1089599" data-name="Trazado 1089599" d="M122.754,98.734a7.068,7.068,0,0,1-1.775-.234l-1.037,6.8h5.623l-1.037-6.8a7.047,7.047,0,0,1-1.775.234Z" transform="translate(-119.942 -98.5)" fill="#dae6f1"/>
        </g>
        <g id="Grupo_1218561" data-name="Grupo 1218561" transform="translate(9.533 33.25)">
          <path id="Trazado_1089600" data-name="Trazado 1089600" d="M38.025,98.663c-1.264-.584-2.643-1.5-2.647-2.412v-.966a5.84,5.84,0,0,1-5.424,0v.958c0,.913-.811,1.19-1.18,1.548a7.72,7.72,0,0,1-1.454.889,6.625,6.625,0,0,0,10.705-.017Z" transform="translate(-27.32 -95.285)" fill="#f9d0b4"/>
        </g>
        <g id="Grupo_1218562" data-name="Grupo 1218562" transform="translate(12.298 39.138)">
          <path id="Trazado_1089601" data-name="Trazado 1089601" d="M40.406,118.209l-.922-6.051a6.39,6.39,0,0,1-3.318,0l-.922,6.051Z" transform="translate(-35.244 -112.158)" fill="#dae6f1"/>
        </g>
        <g id="Grupo_1218563" data-name="Grupo 1218563" transform="translate(69.368 32.08)">
          <path id="Trazado_1089602" data-name="Trazado 1089602" d="M209.1,95.592a9.02,9.02,0,0,1-1.209-.782l-.558-.428a1.42,1.42,0,0,1-.579-1.1V91.934a5.585,5.585,0,0,1-5.621,0v1.347a1.418,1.418,0,0,1-.579,1.1l-.559.429a8.993,8.993,0,0,1-1.207.78,5.673,5.673,0,0,0,3.39,3.093h0a5.805,5.805,0,0,0,1.765.291A5.657,5.657,0,0,0,209.1,95.592Z" transform="translate(-198.792 -91.934)" fill="#f9d0b4"/>
        </g>
        <g id="Grupo_1218564" data-name="Grupo 1218564" transform="translate(18.577 1.771)">
          <path id="Trazado_1089603" data-name="Trazado 1089603" d="M57.7,7.23A2.72,2.72,0,0,1,55.532,5.1c0-.035-.1-.035-.1,0A2.72,2.72,0,0,1,53.264,7.23c-.035,0-.035.07,0,.1a2.72,2.72,0,0,1,2.163,2.129c0,.035.1.035.1,0A2.72,2.72,0,0,1,57.7,7.334c.035-.035.035-.1,0-.1Z" transform="translate(-53.238 -5.075)" fill="#70d6f9"/>
        </g>
        <g id="Grupo_1218566" data-name="Grupo 1218566" transform="translate(55.765 0)">
          <path id="Trazado_1089604" data-name="Trazado 1089604" d="M160.926,4.153h.8v.8a1.1,1.1,0,0,0,1.117,1.117,1.118,1.118,0,0,0,1.117-1.082V4.153h.8a1.1,1.1,0,0,0,1.117-1.117A1.118,1.118,0,0,0,164.8,1.919h-.837v-.8A1.1,1.1,0,0,0,162.846,0a1.118,1.118,0,0,0-1.117,1.082v.837h-.8a1.1,1.1,0,0,0-1.117,1.117,1.081,1.081,0,0,0,1.117,1.117Z" transform="translate(-159.808 0)" fill="#87d147"/>
        </g>
        <g id="Grupo_1218567" data-name="Grupo 1218567" transform="translate(69.097 7.345)">
          <circle id="Elipse_14390" data-name="Elipse 14390" cx="1.186" cy="1.186" r="1.186" fill="#f5c84c"/>
        </g>
        <g id="Grupo_1218569" data-name="Grupo 1218569" transform="translate(79.641 22.049)">
          <path id="Trazado_1089606" data-name="Trazado 1089606" d="M229.1,69.631a.872.872,0,1,1,0-1.745,1.477,1.477,0,1,0,0-2.955.872.872,0,0,1,0-1.745,3.222,3.222,0,1,1,0,6.444Z" transform="translate(-228.231 -63.187)"/>
        </g>
        <g id="Grupo_1218570" data-name="Grupo 1218570" transform="translate(65.312 22.493)">
          <path id="Trazado_1089607" data-name="Trazado 1089607" d="M190.389,70.46a3.22,3.22,0,0,1-2.2-5.57,1.585,1.585,0,0,1,1.727-.3,8.318,8.318,0,0,0,1.077.392.872.872,0,1,1-.478,1.678,10.007,10.007,0,0,1-1.2-.43,1.456,1.456,0,0,0-.4,1,1.479,1.479,0,0,0,1.477,1.477.872.872,0,1,1,0,1.745Z" transform="translate(-187.167 -64.46)"/>
        </g>
        <g id="Grupo_1218572" data-name="Grupo 1218572" transform="translate(65.998 13.71)">
          <g id="Grupo_1218571" data-name="Grupo 1218571">
            <path id="Trazado_1089608" data-name="Trazado 1089608" d="M190,49.945a.872.872,0,0,1-.872-.872V47.814a8.526,8.526,0,0,1,17.052,0v1.159a.872.872,0,1,1-1.745,0V47.814a6.782,6.782,0,0,0-13.563,0v1.258A.872.872,0,0,1,190,49.945Z" transform="translate(-189.132 -39.288)"/>
          </g>
        </g>
        <g id="Grupo_1218574" data-name="Grupo 1218574" transform="translate(65.132 25.813)">
          <g id="Grupo_1218573" data-name="Grupo 1218573">
            <path id="Trazado_1089609" data-name="Trazado 1089609" d="M189.83,85.12a.865.865,0,0,1-.37-.083,4.54,4.54,0,0,1-1.962-1.673,4.074,4.074,0,0,1-.136-4.058,4.971,4.971,0,0,1-.166-4.833.872.872,0,1,1,1.579.743,3.262,3.262,0,0,0,.12,3.25,1.528,1.528,0,0,1,.068,1.542,2.356,2.356,0,0,0,.011,2.423,2.792,2.792,0,0,0,1.228,1.025.873.873,0,0,1-.371,1.662Z" transform="translate(-186.651 -73.972)"/>
          </g>
        </g>
        <g id="Grupo_1218576" data-name="Grupo 1218576" transform="translate(79.876 25.778)">
          <g id="Grupo_1218575" data-name="Grupo 1218575">
            <path id="Trazado_1089610" data-name="Trazado 1089610" d="M229.776,85.05a.873.873,0,0,1-.373-1.661,2.787,2.787,0,0,0,1.218-1.021,2.358,2.358,0,0,0,.011-2.424A1.528,1.528,0,0,1,230.7,78.4a3.268,3.268,0,0,0,.106-3.28.872.872,0,0,1,1.573-.753,4.974,4.974,0,0,1-.147,4.873A4.077,4.077,0,0,1,232.1,83.3a4.531,4.531,0,0,1-1.947,1.666A.86.86,0,0,1,229.776,85.05Z" transform="translate(-228.904 -73.873)"/>
          </g>
        </g>
        <g id="Grupo_1218577" data-name="Grupo 1218577" transform="translate(61.352 31.435)">
          <path id="Trazado_1089611" data-name="Trazado 1089611" d="M176.693,100.523h-.051a.872.872,0,0,1-.82-.922l.085-1.473a3.263,3.263,0,0,1,2.474-3l3.3-.831a7.731,7.731,0,0,0,2.829-1.385l.559-.429a.56.56,0,0,0,.237-.412V90.956a.872.872,0,0,1,1.745,0v1.113a2.307,2.307,0,0,1-.919,1.8l-.559.429a9.445,9.445,0,0,1-3.44,1.686l-3.328.838a1.528,1.528,0,0,0-1.158,1.4l-.086,1.475a.872.872,0,0,1-.87.821Z" transform="translate(-175.82 -90.084)"/>
        </g>
        <g id="Grupo_1218578" data-name="Grupo 1218578" transform="translate(76.462 31.434)">
          <path id="Trazado_1089612" data-name="Trazado 1089612" d="M229.714,104.55a.872.872,0,0,1-.87-.822l-.319-5.5a1.529,1.529,0,0,0-1.158-1.4l-3.3-.831-.048-.013A9.431,9.431,0,0,1,220.6,94.3l-.558-.428a2.3,2.3,0,0,1-.919-1.789V90.955a.872.872,0,1,1,1.745,0v1.113a.559.559,0,0,0,.237.417l.558.429a7.7,7.7,0,0,0,2.788,1.375l-.171.857.213-.846,3.3.831a3.265,3.265,0,0,1,2.474,3l.319,5.5a.872.872,0,0,1-.82.921l-.052,0Z" transform="translate(-219.12 -90.083)"/>
        </g>
        <g id="Grupo_1218579" data-name="Grupo 1218579" transform="translate(63.23 36.589)">
          <path id="Trazado_1089613" data-name="Trazado 1089613" d="M184.583,114.032a.872.872,0,0,1-.872-.872v-3.716c0-1.15-1.6-2.6-2.158-3.016a.872.872,0,0,1,1.039-1.4c.293.217,2.864,2.184,2.864,4.418v3.716a.873.873,0,0,1-.872.873Z" transform="translate(-181.201 -104.855)"/>
        </g>
        <g id="Grupo_1218581" data-name="Grupo 1218581" transform="translate(81.564 36.589)">
          <g id="Grupo_1218580" data-name="Grupo 1218580">
            <path id="Trazado_1089614" data-name="Trazado 1089614" d="M234.612,114.032a.872.872,0,0,1-.872-.872v-3.716c0-2.234,2.571-4.2,2.864-4.418a.873.873,0,0,1,1.038,1.4c-.561.418-2.157,1.865-2.157,3.016v3.716a.873.873,0,0,1-.873.872Z" transform="translate(-233.74 -104.855)"/>
          </g>
        </g>
        <g id="Grupo_1218582" data-name="Grupo 1218582" transform="translate(24.775 40.304)">
          <path id="Trazado_1089615" data-name="Trazado 1089615" d="M107.9,121.258H73.879a2.879,2.879,0,0,1,0-5.758H107.9a2.879,2.879,0,0,1,0,5.758Zm-34.023-4.013a1.134,1.134,0,1,0,0,2.268H107.9a1.134,1.134,0,1,0,0-2.268Z" transform="translate(-71 -115.5)"/>
        </g>
        <g id="Grupo_1218583" data-name="Grupo 1218583" transform="translate(0 72.756)">
          <path id="Trazado_1089616" data-name="Trazado 1089616" d="M86.452,214.258H2.879a2.879,2.879,0,1,1,0-5.758H86.452a2.879,2.879,0,1,1,0,5.758ZM2.879,210.245a1.134,1.134,0,1,0,0,2.268H86.452a1.134,1.134,0,0,0,0-2.268Z" transform="translate(0 -208.5)"/>
        </g>
        <g id="Grupo_1218584" data-name="Grupo 1218584" transform="translate(60.339 44.317)">
          <path id="Trazado_1089617" data-name="Trazado 1089617" d="M199.03,132.758H173.789a.872.872,0,0,1,0-1.745H199.03a1.134,1.134,0,0,0,0-2.268H173.884a.872.872,0,0,1,0-1.745H199.03a2.879,2.879,0,0,1,0,5.758Z" transform="translate(-172.917 -127)"/>
        </g>
        <g id="Grupo_1218585" data-name="Grupo 1218585" transform="translate(0 44.317)">
          <path id="Trazado_1089618" data-name="Trazado 1089618" d="M28.025,132.758H2.879a2.879,2.879,0,0,1,0-5.758H28.047a.872.872,0,0,1,0,1.745H2.879a1.134,1.134,0,1,0,0,2.268H28.025a.872.872,0,0,1,0,1.745Z" transform="translate(0 -127)"/>
        </g>
        <g id="Grupo_1218586" data-name="Grupo 1218586" transform="translate(2.966 48.766)">
          <path id="Trazado_1089619" data-name="Trazado 1089619" d="M9.372,165.136a.872.872,0,0,1-.872-.872V140.622a.872.872,0,1,1,1.745,0v23.641A.872.872,0,0,1,9.372,165.136Z" transform="translate(-8.5 -139.75)"/>
        </g>
        <g id="Grupo_1218587" data-name="Grupo 1218587" transform="translate(84.62 48.482)">
          <path id="Trazado_1089620" data-name="Trazado 1089620" d="M243.372,164.563a.872.872,0,0,1-.872-.872V139.809a.872.872,0,0,1,1.745,0v23.881A.872.872,0,0,1,243.372,164.563Z" transform="translate(-242.5 -138.937)"/>
        </g>
        <g id="Grupo_1218588" data-name="Grupo 1218588" transform="translate(37.495 13.725)">
          <path id="Trazado_1089621" data-name="Trazado 1089621" d="M114.622,55.266a7.179,7.179,0,0,1-7.171-7.171V42.809a4.109,4.109,0,0,1,1.132-2.839l.012-.012a2.02,2.02,0,0,1,2.717-.19,5.454,5.454,0,0,0,6.619,0,2.021,2.021,0,0,1,2.721.187,4.111,4.111,0,0,1,1.141,2.85V48.1A7.179,7.179,0,0,1,114.622,55.266Zm-4.76-14.109-.007.007a2.373,2.373,0,0,0-.659,1.645v5.286a5.426,5.426,0,1,0,10.852,0V42.809a2.372,2.372,0,0,0-.659-1.645.283.283,0,0,0-.381-.019,7.2,7.2,0,0,1-8.772,0,.282.282,0,0,0-.374.015Z" transform="translate(-107.451 -39.331)"/>
        </g>
        <g id="Grupo_1218589" data-name="Grupo 1218589" transform="translate(50.496 16.816)">
          <path id="Trazado_1089622" data-name="Trazado 1089622" d="M145.58,55.194a.872.872,0,0,1,0-1.745,1.757,1.757,0,1,0,0-3.515.872.872,0,1,1,0-1.745,3.5,3.5,0,0,1,0,7Z" transform="translate(-144.708 -48.19)"/>
        </g>
        <g id="Grupo_1218590" data-name="Grupo 1218590" transform="translate(34.461 16.816)">
          <path id="Trazado_1089623" data-name="Trazado 1089623" d="M102.258,55.194a3.5,3.5,0,1,1,0-7,.872.872,0,0,1,0,1.745,1.757,1.757,0,1,0,0,3.515.872.872,0,0,1,0,1.745Z" transform="translate(-98.756 -48.19)"/>
        </g>
        <g id="Grupo_1218591" data-name="Grupo 1218591" transform="translate(30.867 27.313)">
          <path id="Trazado_1089624" data-name="Trazado 1089624" d="M89.329,92.688h-.051a.872.872,0,0,1-.82-.921l.316-5.453a3.342,3.342,0,0,1,2.514-3.063c.792-.235,1.513-.4,2.15-.549a9.4,9.4,0,0,0,4.088-1.656,4.08,4.08,0,0,1,.416-.322c.424-.3.538-.417.539-.669v-.91a.872.872,0,0,1,1.745,0v.912a2.505,2.505,0,0,1-1.275,2.091,2.757,2.757,0,0,0-.253.192.968.968,0,0,1-.076.066,11,11,0,0,1-4.792,2c-.647.149-1.315.3-2.061.526l-.036.01a1.606,1.606,0,0,0-1.217,1.475L90.2,91.866a.872.872,0,0,1-.87.822Z" transform="translate(-88.456 -78.271)"/>
        </g>
        <g id="Grupo_1218592" data-name="Grupo 1218592" transform="translate(46.695 27.393)">
          <path id="Trazado_1089625" data-name="Trazado 1089625" d="M144.708,92.764a.872.872,0,0,1-.87-.822l-.312-5.38a1.606,1.606,0,0,0-1.217-1.476l-3.425-.862h0l-.009,0-.016,0c-1.028-.266-5.032-1.773-5.041-4v-.845a.872.872,0,1,1,1.745,0V80.2c0,.595,2.136,1.917,3.742,2.325l.023.006,3.41.858a3.344,3.344,0,0,1,2.533,3.069l.312,5.378a.872.872,0,0,1-.82.921l-.052,0Z" transform="translate(-133.816 -78.5)"/>
        </g>
        <g id="Grupo_1218593" data-name="Grupo 1218593" transform="translate(33.032 32.398)">
          <path id="Trazado_1089626" data-name="Trazado 1089626" d="M98.126,102.284a.872.872,0,0,1-.872-.872V97.553c0-1.207-1.658-2.706-2.239-3.136a.872.872,0,0,1,1.038-1.4c.3.223,2.945,2.247,2.945,4.538v3.859A.872.872,0,0,1,98.126,102.284Z" transform="translate(-94.662 -92.844)"/>
        </g>
        <g id="Grupo_1218595" data-name="Grupo 1218595" transform="translate(51.962 32.398)">
          <g id="Grupo_1218594" data-name="Grupo 1218594">
            <path id="Trazado_1089627" data-name="Trazado 1089627" d="M149.782,102.284a.872.872,0,0,1-.872-.872V97.553c0-2.292,2.644-4.315,2.945-4.538a.872.872,0,0,1,1.038,1.4c-.582.433-2.239,1.937-2.239,3.136v3.859A.872.872,0,0,1,149.782,102.284Z" transform="translate(-148.91 -92.843)"/>
          </g>
        </g>
        <g id="Grupo_1218596" data-name="Grupo 1218596" transform="translate(34.699 6.316)">
          <path id="Trazado_1089628" data-name="Trazado 1089628" d="M118.513,31.75a.872.872,0,0,1-.872-.872V27.668c0-1.963-.432-3.182-1.127-3.182a1.317,1.317,0,0,1-1.322-1.283,2.787,2.787,0,0,0-.995-2.244c-1.3-1.077-3.951-1.394-7.1-.851a7.107,7.107,0,0,0-5.912,7.017v3.661a.872.872,0,0,1-1.745,0V27.125a8.849,8.849,0,0,1,7.359-8.736c2.175-.376,6.173-.716,8.513,1.228a4.482,4.482,0,0,1,1.6,3.159c.965.166,2.469,1.044,2.469,4.893v3.209A.872.872,0,0,1,118.513,31.75Z" transform="translate(-99.439 -18.099)"/>
        </g>
        <g id="Grupo_1218597" data-name="Grupo 1218597" transform="translate(8.12 19.782)">
          <path id="Trazado_1089629" data-name="Trazado 1089629" d="M30.029,71.7a6.767,6.767,0,0,1-6.76-6.76V60a3.9,3.9,0,0,1,1.082-2.7,1.946,1.946,0,0,1,2.618-.185,5.04,5.04,0,0,0,6.117,0,1.945,1.945,0,0,1,2.62.181A3.9,3.9,0,0,1,36.788,60v4.941A6.766,6.766,0,0,1,30.029,71.7ZM25.759,58.437a.2.2,0,0,0-.143.06,2.164,2.164,0,0,0-.6,1.5v4.941a5.015,5.015,0,0,0,10.03,0V60a2.163,2.163,0,0,0-.6-1.5.208.208,0,0,0-.28-.012,6.785,6.785,0,0,1-8.27,0A.219.219,0,0,0,25.759,58.437Z" transform="translate(-23.269 -56.69)"/>
        </g>
        <g id="Grupo_1218598" data-name="Grupo 1218598" transform="translate(20.272 22.672)">
          <path id="Trazado_1089630" data-name="Trazado 1089630" d="M58.965,71.632a.872.872,0,1,1,0-1.745,1.585,1.585,0,1,0,0-3.171.872.872,0,0,1,0-1.745,3.33,3.33,0,1,1,0,6.66Z" transform="translate(-58.093 -64.972)"/>
        </g>
        <g id="Grupo_1218599" data-name="Grupo 1218599" transform="translate(5.284 22.672)">
          <path id="Trazado_1089631" data-name="Trazado 1089631" d="M18.473,71.632a3.33,3.33,0,1,1,0-6.66.872.872,0,0,1,0,1.745,1.585,1.585,0,1,0,0,3.171.872.872,0,1,1,0,1.745Z" transform="translate(-15.143 -64.972)"/>
        </g>
        <g id="Grupo_1218600" data-name="Grupo 1218600" transform="translate(16.719 32.615)">
          <path id="Trazado_1089632" data-name="Trazado 1089632" d="M57.925,102.967a.872.872,0,0,1-.87-.822l-.066-1.14a1.445,1.445,0,0,0-1.094-1.328l-3.2-.806-.022-.006c-.968-.25-4.747-1.675-4.756-3.794v-.731a.872.872,0,0,1,1.745,0v.72c0,.482,1.889,1.721,3.454,2.118l.021.006,3.188.8a3.181,3.181,0,0,1,2.411,2.921l.066,1.138a.872.872,0,0,1-.82.921l-.052,0Z" transform="translate(-47.913 -93.467)"/>
        </g>
        <g id="Grupo_1218601" data-name="Grupo 1218601" transform="translate(1.939 32.554)">
          <path id="Trazado_1089633" data-name="Trazado 1089633" d="M6.43,106.564H6.379a.872.872,0,0,1-.82-.921l.281-4.85A3.181,3.181,0,0,1,8.23,97.876c.742-.22,1.416-.376,2.012-.513a8.751,8.751,0,0,0,3.8-1.536,3.961,3.961,0,0,1,.393-.3c.4-.285.479-.378.48-.579v-.779a.872.872,0,0,1,1.745,0v.781a2.392,2.392,0,0,1-1.216,2,2.546,2.546,0,0,0-.23.174.851.851,0,0,1-.076.066,10.334,10.334,0,0,1-4.5,1.877c-.6.139-1.228.283-1.923.491l-.036.01a1.445,1.445,0,0,0-1.094,1.326L7.3,105.743A.872.872,0,0,1,6.43,106.564Z" transform="translate(-5.557 -93.292)"/>
        </g>
        <g id="Grupo_1218602" data-name="Grupo 1218602" transform="translate(3.949 37.236)">
          <path id="Trazado_1089634" data-name="Trazado 1089634" d="M14.612,115.3a.872.872,0,0,1-.872-.872v-3.258c0-1.1-1.533-2.486-2.07-2.886a.872.872,0,0,1,1.039-1.4c.284.21,2.776,2.117,2.776,4.288v3.258a.872.872,0,0,1-.872.872Z" transform="translate(-11.318 -106.708)"/>
        </g>
        <g id="Grupo_1218604" data-name="Grupo 1218604" transform="translate(21.642 37.236)">
          <g id="Grupo_1218603" data-name="Grupo 1218603">
            <path id="Trazado_1089635" data-name="Trazado 1089635" d="M62.893,115.3a.872.872,0,0,1-.872-.872v-3.258c0-2.17,2.492-4.077,2.776-4.288a.872.872,0,0,1,1.039,1.4c-.537.4-2.07,1.789-2.07,2.886v3.258A.872.872,0,0,1,62.893,115.3Z" transform="translate(-62.021 -106.708)"/>
          </g>
        </g>
        <g id="Grupo_1218605" data-name="Grupo 1218605" transform="translate(5.507 12.857)">
          <path id="Trazado_1089636" data-name="Trazado 1089636" d="M16.654,49.768a.872.872,0,0,1-.872-.872V45.339a8.327,8.327,0,0,1,6.926-8.222c2.043-.353,5.8-.671,8,1.16a4.238,4.238,0,0,1,1.517,2.949c.922.177,2.312,1.038,2.312,4.621v2.917a.872.872,0,1,1-1.745,0V45.847c0-1.772-.392-2.918-1-2.918a1.289,1.289,0,0,1-1.293-1.256,2.554,2.554,0,0,0-.909-2.054c-1.2-1-3.663-1.288-6.592-.783a6.586,6.586,0,0,0-5.478,6.5v3.556A.872.872,0,0,1,16.654,49.768Z" transform="translate(-15.782 -36.846)"/>
        </g>
        <g id="Grupo_1218606" data-name="Grupo 1218606" transform="translate(68.023 20.081)">
          <path id="Trazado_1089637" data-name="Trazado 1089637" d="M201.437,71.178a6.508,6.508,0,0,1-6.5-6.5V61.325a.872.872,0,0,1,1.111-.839c3.934,1.12,6.674-1.634,7.419-2.5a1.234,1.234,0,0,1,.866-.432,1.261,1.261,0,0,1,.919.323,3.886,3.886,0,0,0,1.664.978,1.309,1.309,0,0,1,1.022,1.279v4.547A6.508,6.508,0,0,1,201.437,71.178Zm-4.756-8.771v2.27a4.756,4.756,0,0,0,9.512,0V60.46a5.508,5.508,0,0,1-1.737-.973,9,9,0,0,1-7.775,2.92Z" transform="translate(-194.936 -57.548)"/>
        </g>
        <g id="Grupo_1218607" data-name="Grupo 1218607" transform="translate(6.456 51.819)">
          <path id="Trazado_1089638" data-name="Trazado 1089638" d="M36.076,167.692H20.242A1.744,1.744,0,0,1,18.5,165.95V150.242a1.744,1.744,0,0,1,1.742-1.742H36.076a1.744,1.744,0,0,1,1.742,1.742V165.95A1.744,1.744,0,0,1,36.076,167.692ZM20.245,150.245V165.95l15.831,0,0-15.706Z" transform="translate(-18.5 -148.5)"/>
        </g>
        <g id="Grupo_1218608" data-name="Grupo 1218608" transform="translate(63.557 51.819)">
          <path id="Trazado_1089639" data-name="Trazado 1089639" d="M199.715,167.692H183.881a1.744,1.744,0,0,1-1.742-1.742V150.242a1.744,1.744,0,0,1,1.742-1.742h15.834a1.744,1.744,0,0,1,1.742,1.742V165.95A1.744,1.744,0,0,1,199.715,167.692Zm-15.831-17.447V165.95l15.831,0,0-15.706Z" transform="translate(-182.139 -148.5)"/>
        </g>
        <g id="Grupo_1218609" data-name="Grupo 1218609" transform="translate(34.846 47.806)">
          <path id="Trazado_1089640" data-name="Trazado 1089640" d="M117.74,160.205H101.62a1.761,1.761,0,0,1-1.759-1.759V138.759A1.761,1.761,0,0,1,101.62,137H117.74a1.761,1.761,0,0,1,1.759,1.759v19.688a1.761,1.761,0,0,1-1.759,1.758Zm-16.121-21.46-.014.014v19.688l16.135.014.014-19.7Z" transform="translate(-99.861 -137)"/>
        </g>
        <g id="Grupo_1218610" data-name="Grupo 1218610" transform="translate(31.296 44.767)">
          <path id="Trazado_1089641" data-name="Trazado 1089641" d="M90.559,157.589a.872.872,0,0,1-.872-.872V129.164a.872.872,0,0,1,1.745,0v27.552A.872.872,0,0,1,90.559,157.589Z" transform="translate(-89.687 -128.292)"/>
        </g>
        <g id="Grupo_1218611" data-name="Grupo 1218611" transform="translate(27.519 44.767)">
          <path id="Trazado_1089642" data-name="Trazado 1089642" d="M79.733,157.589a.872.872,0,0,1-.872-.872V129.164a.872.872,0,0,1,1.745,0v27.552A.872.872,0,0,1,79.733,157.589Z" transform="translate(-78.861 -128.292)"/>
        </g>
        <g id="Grupo_1218612" data-name="Grupo 1218612" transform="translate(60.068 44.593)">
          <path id="Trazado_1089643" data-name="Trazado 1089643" d="M173.011,157.467a.872.872,0,0,1-.872-.872v-27.93a.872.872,0,1,1,1.745,0v27.93A.872.872,0,0,1,173.011,157.467Z" transform="translate(-172.139 -127.792)"/>
        </g>
        <g id="Grupo_1218613" data-name="Grupo 1218613" transform="translate(56.29 44.695)">
          <path id="Trazado_1089644" data-name="Trazado 1089644" d="M162.185,157.556a.872.872,0,0,1-.872-.872V128.956a.872.872,0,1,1,1.745,0v27.727A.872.872,0,0,1,162.185,157.556Z" transform="translate(-161.313 -128.084)"/>
        </g>
        <g id="Grupo_1218614" data-name="Grupo 1218614" transform="translate(75.46 38.248)">
          <path id="Trazado_1089645" data-name="Trazado 1089645" d="M218,117.127a.873.873,0,0,1-.862-.741l-.88-5.773a.872.872,0,1,1,1.725-.263l.88,5.773a.872.872,0,0,1-.731.994.851.851,0,0,1-.132.01Z" transform="translate(-216.25 -109.609)"/>
        </g>
        <g id="Grupo_1218615" data-name="Grupo 1218615" transform="translate(70.962 38.316)">
          <path id="Trazado_1089646" data-name="Trazado 1089646" d="M204.234,117.254a.9.9,0,0,1-.132-.01.872.872,0,0,1-.731-.994l.869-5.706a.872.872,0,0,1,1.725.263l-.869,5.706A.873.873,0,0,1,204.234,117.254Z" transform="translate(-203.36 -109.803)"/>
        </g>
        <g id="Grupo_1218616" data-name="Grupo 1218616" transform="translate(38.337 31.078)">
          <path id="Trazado_1089647" data-name="Trazado 1089647" d="M116.192,93.461a7.98,7.98,0,0,1-6.125-2.88.872.872,0,0,1,1.338-1.12,6.21,6.21,0,0,0,9.638-.077.873.873,0,1,1,1.355,1.1A8.077,8.077,0,0,1,116.192,93.461Z" transform="translate(-109.864 -89.061)"/>
        </g>
        <g id="Grupo_1218617" data-name="Grupo 1218617" transform="translate(45.606 33.752)">
          <path id="Trazado_1089648" data-name="Trazado 1089648" d="M132.506,104.628a.873.873,0,0,1-.862-.741l-.938-6.16a.872.872,0,1,1,1.725-.263l.938,6.16a.872.872,0,0,1-.731.994.894.894,0,0,1-.132.01Z" transform="translate(-130.696 -96.724)"/>
        </g>
        <g id="Grupo_1218618" data-name="Grupo 1218618" transform="translate(41.04 33.752)">
          <path id="Trazado_1089649" data-name="Trazado 1089649" d="M118.483,104.637a.9.9,0,0,1-.132-.01.872.872,0,0,1-.731-.994l.94-6.168a.872.872,0,0,1,1.725.263l-.94,6.168A.873.873,0,0,1,118.483,104.637Z" transform="translate(-117.61 -96.724)"/>
        </g>
        <g id="Grupo_1218619" data-name="Grupo 1218619" transform="translate(8.913 35.975)">
          <path id="Trazado_1089650" data-name="Trazado 1089650" d="M31.509,107.349a7.516,7.516,0,0,1-5.762-2.7.872.872,0,1,1,1.336-1.122,5.748,5.748,0,0,0,8.935-.1.872.872,0,0,1,1.361,1.092A7.6,7.6,0,0,1,31.509,107.349Z" transform="translate(-25.543 -103.094)"/>
        </g>
        <g id="Grupo_1218620" data-name="Grupo 1218620" transform="translate(15.728 38.676)">
          <path id="Trazado_1089651" data-name="Trazado 1089651" d="M46.752,117.875a.873.873,0,0,1-.862-.741l-.807-5.3a.872.872,0,0,1,1.725-.263l.807,5.3a.872.872,0,0,1-.731.994.9.9,0,0,1-.132.01Z" transform="translate(-45.073 -110.834)"/>
        </g>
        <g id="Grupo_1218621" data-name="Grupo 1218621" transform="translate(11.477 38.61)">
          <path id="Trazado_1089652" data-name="Trazado 1089652" d="M33.764,117.761a.9.9,0,0,1-.132-.01.872.872,0,0,1-.731-.994l.818-5.37a.872.872,0,0,1,1.725.263l-.818,5.37a.873.873,0,0,1-.862.741Z" transform="translate(-32.891 -110.646)"/>
        </g>
        <g id="Grupo_1218622" data-name="Grupo 1218622" transform="translate(68.605 35.052)">
          <path id="Trazado_1089653" data-name="Trazado 1089653" d="M202.523,105.391a6.689,6.689,0,0,1-2-.32l-.046-.014a6.572,6.572,0,0,1-3.786-3.3.872.872,0,0,1,1.564-.774,4.819,4.819,0,0,0,2.735,2.4l.042.013a4.93,4.93,0,0,0,1.487.245,4.791,4.791,0,0,0,4.283-2.7.872.872,0,1,1,1.571.759A6.545,6.545,0,0,1,202.523,105.391Z" transform="translate(-196.605 -100.451)"/>
        </g>
      </g>
    </g>
  </g>
</svg>
