<svg xmlns="http://www.w3.org/2000/svg" xmlns:xlink="http://www.w3.org/1999/xlink" width="110" height="110" viewBox="0 0 110 110">
  <defs>
    <filter id="Trazado_982547" x="0" y="0" width="110" height="110" filterUnits="userSpaceOnUse">
      <feOffset dy="3" input="SourceAlpha"/>
      <feGaussianBlur stdDeviation="3" result="blur"/>
      <feFlood flood-opacity="0.161"/>
      <feComposite operator="in" in2="blur"/>
      <feComposite in="SourceGraphic"/>
    </filter>
  </defs>
  <g id="Grupo_1218667" data-name="Grupo 1218667" transform="translate(-3611 -1352.989)">
    <g id="Grupo_1217626" data-name="Grupo 1217626" transform="translate(3620 1358.989)">
      <g id="Grupo_1211001" data-name="Grupo 1211001" transform="translate(0 0)">
        <g id="Grupo_1200151" data-name="Grupo 1200151">
          <g id="Grupo_1185952" data-name="Grupo 1185952" transform="translate(0 0)">
            <g id="Grupo_1184115" data-name="Grupo 1184115" transform="translate(0 0)">
              <g id="Grupo_1183744" data-name="Grupo 1183744">
                <g id="Grupo_1181546" data-name="Grupo 1181546">
                  <g id="Grupo_1177563" data-name="Grupo 1177563">
                    <g id="Grupo_1173148" data-name="Grupo 1173148">
                      <g id="Grupo_1163803" data-name="Grupo 1163803" transform="translate(0 0)">
                        <g id="Grupo_1163015" data-name="Grupo 1163015" transform="translate(0 0)">
                          <g id="Grupo_1157017" data-name="Grupo 1157017">
                            <g id="Grupo_1155793" data-name="Grupo 1155793">
                              <g id="Grupo_1154704" data-name="Grupo 1154704">
                                <g id="Grupo_1150790" data-name="Grupo 1150790">
                                  <g id="Grupo_1154214" data-name="Grupo 1154214">
                                    <g id="Grupo_1152583" data-name="Grupo 1152583">
                                      <g id="Grupo_1146973" data-name="Grupo 1146973">
                                        <g id="Grupo_1146954" data-name="Grupo 1146954">
                                          <g transform="matrix(1, 0, 0, 1, -9, -6)" filter="url(#Trazado_982547)">
                                            <g id="Trazado_982547-2" data-name="Trazado 982547" transform="translate(9 6)" fill="#f2d944">
                                              <path d="M 46.00000381469727 90.49986267089844 C 39.99188232421875 90.49986267089844 34.16427230834961 89.32350158691406 28.67905807495117 87.00344848632812 C 23.38020324707031 84.76223754882812 18.62104415893555 81.55341339111328 14.53375053405762 77.46613311767578 C 10.44647026062012 73.37885284423828 7.237643718719482 68.61968994140625 4.996417045593262 63.32085037231445 C 2.676363706588745 57.83565139770508 1.500003814697266 52.00805282592773 1.500003814697266 45.99993133544922 C 1.500003814697266 39.99182510375977 2.676363706588745 34.16422653198242 4.996417045593262 28.67901039123535 C 7.237643718719482 23.38017082214355 10.44647026062012 18.62101173400879 14.53375053405762 14.53373146057129 C 18.62104415893555 10.44645118713379 23.38020324707031 7.237624645233154 28.67905807495117 4.996411323547363 C 34.16427230834961 2.676357984542847 39.99188232421875 1.499997973442078 46.00000381469727 1.499997973442078 C 52.00812530517578 1.499997973442078 57.83573532104492 2.676357984542847 63.32094955444336 4.996411323547363 C 68.61980438232422 7.237624645233154 73.37896728515625 10.44645118713379 77.46625518798828 14.53373146057129 C 81.55353546142578 18.62101173400879 84.76236724853516 23.38017082214355 87.00359344482422 28.67901039123535 C 89.32364654541016 34.16422653198242 90.5 39.99182510375977 90.5 45.99993133544922 C 90.5 52.00805282592773 89.32364654541016 57.83565139770508 87.00359344482422 63.32085037231445 C 84.76236724853516 68.61968994140625 81.55353546142578 73.37885284423828 77.46625518798828 77.46613311767578 C 73.37896728515625 81.55341339111328 68.61980438232422 84.76223754882812 63.32094955444336 87.00344848632812 C 57.83573532104492 89.32350158691406 52.00812530517578 90.49986267089844 46.00000381469727 90.49986267089844 Z" stroke="none"/>
                                              <path d="M 46.00000381469727 3 C 40.19371795654297 3 34.56270217895508 4.136505126953125 29.26337432861328 6.377914428710938 C 24.14333343505859 8.54351806640625 19.54441833496094 11.64438629150391 15.59440612792969 15.59439086914062 C 11.64440155029297 19.54440307617188 8.54351806640625 24.14330291748047 6.377914428710938 29.26334381103516 C 4.136505126953125 34.56266021728516 3.000007629394531 40.19366073608398 3.000007629394531 45.99993133544922 C 3.000007629394531 51.80620193481445 4.136505126953125 57.43720245361328 6.377914428710938 62.73651885986328 C 8.54351806640625 67.85655975341797 11.64440155029297 72.45545959472656 15.59440612792969 76.40547180175781 C 19.54441833496094 80.35547637939453 24.14333343505859 83.45634460449219 29.26337432861328 85.6219482421875 C 34.56270217895508 87.86335754394531 40.19371795654297 88.99986267089844 46.00000381469727 88.99986267089844 C 51.80628967285156 88.99986267089844 57.43730545043945 87.86335754394531 62.73661804199219 85.6219482421875 C 67.85667419433594 83.45634460449219 72.45557403564453 80.35547637939453 76.40558624267578 76.40547180175781 C 80.35560607910156 72.45545959472656 83.45647430419922 67.85655975341797 85.62207794189453 62.73651885986328 C 87.86350250244141 57.43720245361328 89 51.80620193481445 89 45.99993133544922 C 89 40.19366073608398 87.86350250244141 34.56266021728516 85.62207794189453 29.26334381103516 C 83.45647430419922 24.14330291748047 80.35560607910156 19.54440307617188 76.40558624267578 15.59439086914062 C 72.45557403564453 11.64438629150391 67.85667419433594 8.54351806640625 62.73661804199219 6.377914428710938 C 57.43730545043945 4.136505126953125 51.80628967285156 3 46.00000381469727 3 M 46.00000381469727 0 C 71.40509033203125 0 92 20.59487152099609 92 45.99993133544922 C 92 71.40499114990234 71.40509033203125 91.99986267089844 46.00000381469727 91.99986267089844 C 20.59490203857422 91.99986267089844 7.62939453125e-06 71.40499114990234 7.62939453125e-06 45.99993133544922 C 7.62939453125e-06 20.59487152099609 20.59490203857422 0 46.00000381469727 0 Z" stroke="none" fill="#ba9c5a"/>
                                            </g>
                                          </g>
                                        </g>
                                      </g>
                                    </g>
                                  </g>
                                </g>
                              </g>
                            </g>
                          </g>
                        </g>
                      </g>
                    </g>
                  </g>
                </g>
              </g>
            </g>
          </g>
        </g>
      </g>
    </g>
    <g id="anti-robo" transform="translate(3628.956 1356.204)">
      <g id="Grupo_1218666" data-name="Grupo 1218666" transform="translate(0.736 16.487)">
        <g id="Grupo_1218656" data-name="Grupo 1218656" transform="translate(2.651 0)">
          <path id="Trazado_1089688" data-name="Trazado 1089688" d="M56.92,89.094a34.1,34.1,0,1,0-34.1-34.1A34.17,34.17,0,0,0,56.92,89.094Z" transform="translate(-22.816 -20.886)" fill="#ff656f" fill-rule="evenodd"/>
        </g>
        <g id="Grupo_1218657" data-name="Grupo 1218657" transform="translate(2.651 0)">
          <path id="Trazado_1089689" data-name="Trazado 1089689" d="M56.92,20.886c.435,0,.867.013,1.3.03A34.1,34.1,0,0,0,38.809,82.084l-.76,1.315A34.1,34.1,0,0,1,56.92,20.886Z" transform="translate(-22.816 -20.886)" fill="#ff4756" fill-rule="evenodd"/>
        </g>
        <g id="Grupo_1218658" data-name="Grupo 1218658" transform="translate(7.629 4.978)">
          <path id="Trazado_1089690" data-name="Trazado 1089690" d="M85.395,112.59A29.126,29.126,0,1,0,56.269,83.464,29.181,29.181,0,0,0,85.395,112.59Z" transform="translate(-56.269 -54.338)" fill="#e2f0fa" fill-rule="evenodd"/>
        </g>
        <g id="Grupo_1218659" data-name="Grupo 1218659" transform="translate(45.823 41.095)">
          <path id="Trazado_1089691" data-name="Trazado 1089691" d="M334.583,298.974a14.439,14.439,0,1,1-19.725,5.285A14.441,14.441,0,0,1,334.583,298.974Z" transform="translate(-312.924 -297.038)" fill="#fbc02d" fill-rule="evenodd"/>
        </g>
        <g id="Grupo_1218660" data-name="Grupo 1218660" transform="translate(48.157 43.431)">
          <path id="Trazado_1089692" data-name="Trazado 1089692" d="M346.768,314.355a12.108,12.108,0,1,0,4.432,16.54A12.121,12.121,0,0,0,346.768,314.355Z" transform="translate(-328.608 -312.735)" fill="#fac600" fill-rule="evenodd"/>
        </g>
        <g id="Grupo_1218661" data-name="Grupo 1218661" transform="translate(22.619 16.407)">
          <path id="Trazado_1089693" data-name="Trazado 1089693" d="M165.438,131.141c7.228,4.171,15.28,5.8,23.17,9.525,2.989,1.409,3.509,1.447,5.311,4.176a70.078,70.078,0,0,1,6.284,12.1,14.412,14.412,0,0,0-9.444-.581l-1.016-2.434c-1.827-5.862-10.716-7.621-10.558-2.442-.149,3.565,7.514,7.156,9.986,11.258,1.631,2.7,2.515,4.406.209,6.425-2.912,2.553-12.535-5.435-15.831-7.134-4.368-2.25-7.839-4.769-10.037-7.668-1.345-3.326-3.33-6.771-6.515-8.611Z" transform="translate(-156.997 -131.141)" fill="#ffbfa8" fill-rule="evenodd"/>
        </g>
        <g id="Grupo_1218662" data-name="Grupo 1218662" transform="translate(28.187 19.849)">
          <path id="Trazado_1089694" data-name="Trazado 1089694" d="M204.609,154.265c1.708.67,3.437,1.285,5.183,1.9l-11.895,20.6a19.27,19.27,0,0,1-2.54-2.715q-.429-1.063-.948-2.122Z" transform="translate(-194.409 -154.265)" fill="#fcac8f" fill-rule="evenodd"/>
        </g>
        <g id="Grupo_1218663" data-name="Grupo 1218663" transform="translate(0 2.37)">
          <path id="Trazado_1089695" data-name="Trazado 1089695" d="M16.045,36.809,37.136,48.985,26.087,68.121,5,55.944Z" transform="translate(-5 -36.809)" fill="#4f5965" fill-rule="evenodd"/>
        </g>
        <g id="Grupo_1218664" data-name="Grupo 1218664" transform="translate(9.068 2.37)">
          <path id="Trazado_1089696" data-name="Trazado 1089696" d="M67.914,36.809,89,48.985l-1.981,3.424L65.937,40.237Z" transform="translate(-65.937 -36.809)" fill="#444d59" fill-rule="evenodd"/>
        </g>
        <g id="Grupo_1218665" data-name="Grupo 1218665" transform="translate(17.402 3.296)">
          <path id="Trazado_1089697" data-name="Trazado 1089697" d="M126.648,104.647l34-58.884a34.387,34.387,0,0,0-4.709-2.728l-34,58.888A33.432,33.432,0,0,0,126.648,104.647Z" transform="translate(-121.939 -43.035)" fill="#ff656f" fill-rule="evenodd"/>
        </g>
      </g>
      <path id="Trazado_1089698" data-name="Trazado 1089698" d="M46.754,81.771A32.52,32.52,0,0,1,37.5,83.11a32.42,32.42,0,0,1-17.8-5.307l-.057-.039-.019-.013A32.536,32.536,0,0,1,6.051,42.344L8.34,43.666h0A29.98,29.98,0,0,0,20.153,75.044a1.19,1.19,0,0,0,1.719-.375L50.527,25.037a1.19,1.19,0,0,0-.533-1.676,30,30,0,0,0-26.813.915h0l-2.54-1.467h0A32.508,32.508,0,0,1,70,50.6c0,.792-.029,1.587-.085,2.364a1.19,1.19,0,0,0,1.1,1.273c.029,0,.059,0,.088,0a1.19,1.19,0,0,0,1.185-1.1c.061-.834.092-1.688.092-2.537A34.922,34.922,0,0,0,52.774,19.239a34.894,34.894,0,0,0-34.459,2.227l-5.621-3.247A1.19,1.19,0,0,0,11.5,20.28L16.05,22.9,6.321,39.753l-.353-.2-.024-.014c-.023-.014-.046-.027-.071-.04l-.011-.006L1.775,37.13a1.189,1.189,0,1,0-1.189,2.06l3.333,1.924h0A34.914,34.914,0,0,0,18.3,79.731l.058.04.021.014a34.951,34.951,0,0,0,29.056,4.268,1.19,1.19,0,1,0-.677-2.281Zm-23.6-54.759,2.985,1.723h0L16.418,45.581l-2.987-1.723Zm9.157,7.716A62.24,62.24,0,0,0,40.179,38.2L30.668,54.676a17.788,17.788,0,0,0-5.544-7.5Zm-4.111-4.8,3.1,1.791L21.579,48.561l-3.1-1.79Zm-7.722,42.4A27.6,27.6,0,0,1,10.5,44.913L17.573,49l3.846,2.22.017.008a1.212,1.212,0,0,0,.109.054l.049.019q.044.017.089.03l.046.013a1.179,1.179,0,0,0,.125.024l.009,0a1.2,1.2,0,0,0,.14.009h.041l.073,0,.039,0c.025,0,.051-.006.076-.011h.01l.016,0c.037-.008.074-.017.11-.029l.023-.006.021-.008.047-.018.053-.023.049-.024.048-.026.049-.029.043-.03.048-.035.038-.032c.016-.014.032-.027.047-.042l.031-.031c.017-.017.033-.034.049-.052l.017-.022a1.191,1.191,0,0,0,.114-.163l.879-1.523c1.943,1.482,3.567,3.869,4.939,7.259a1.163,1.163,0,0,0,.159.277c.083.107.163.211.243.311ZM37.5,23.016A27.364,27.364,0,0,1,47.8,25L41.385,36.113A61.84,61.84,0,0,1,33.5,32.667l.193-.335.264-.457c.013-.022.023-.045.035-.067l.014-.028c.01-.022.019-.045.028-.068s.01-.023.014-.035.014-.044.021-.066.007-.025.011-.037.012-.051.017-.077c0,0,0-.008,0-.013s0,0,0-.007c.006-.033.01-.067.012-.1,0,0,0-.008,0-.012s0-.007,0-.01c0-.022,0-.044,0-.066s0-.036,0-.053,0-.033,0-.05,0-.042-.007-.063,0-.03-.006-.045-.008-.04-.013-.06-.006-.029-.009-.044a1.189,1.189,0,0,0-.3-.522l0,0-.006-.005q-.04-.04-.083-.076l-.025-.02c-.028-.022-.058-.043-.089-.063l-.007-.005-.021-.013-.022-.014-1.18-.681-1.275-.736-5.438-3.14h0A27.623,27.623,0,0,1,37.5,23.016ZM18.11,24.1,21.1,25.82,11.372,42.668l-2.99-1.725ZM75.653,67.779a15.354,15.354,0,0,0-7.2-9.386c-.43-.249-.871-.472-1.318-.677A68.368,68.368,0,0,0,61,46.006c-1.717-2.612-2.442-3.022-4.938-4.182-.244-.113-.506-.235-.793-.371-2.222-1.049-4.458-1.93-6.473-2.676l5.711-9.891A27.669,27.669,0,0,1,65.084,50.6a1.19,1.19,0,1,0,2.379,0A30.052,30.052,0,0,0,54.84,26.164a1.189,1.189,0,0,0-1.72.375L24.465,76.171A1.19,1.19,0,0,0,25,77.847a29.719,29.719,0,0,0,12.5,2.724,30.053,30.053,0,0,0,6.778-.773,1.19,1.19,0,0,0-.538-2.318,27.667,27.667,0,0,1-6.24.712,27.366,27.366,0,0,1-10.3-1.988l21-36.378-.6,1.046c2.061.756,4.381,1.658,6.665,2.735.29.137.558.26.805.375,2.2,1.022,2.536,1.179,3.952,3.333A63.021,63.021,0,0,1,64.1,56.691a15.353,15.353,0,0,0-4.637-.315,15.894,15.894,0,0,0-1.865.269l-.589-1.418a9.007,9.007,0,0,0-3.948-4.884,8.233,8.233,0,0,0-5.4-1.259,3.872,3.872,0,0,0-3.393,4.134c-.077,2.591,2.564,4.777,5.362,7.091a22.045,22.045,0,0,1,4.68,4.652c1.668,2.772,1.909,3.552.438,4.844-.192.168-1.051.606-4.025-.844a61.655,61.655,0,0,1-6.708-4.1c-1.443-.97-2.691-1.807-3.574-2.263A43.472,43.472,0,0,1,36.4,60.254l-1.19,2.063a46.154,46.154,0,0,0,4.131,2.391C40.1,65.1,41.3,65.9,42.68,66.831c.89.6,1.874,1.259,2.89,1.906a15.456,15.456,0,1,0,30.083-.958ZM51.889,59.1l-.749-.622c-2.137-1.768-4.56-3.772-4.5-5.2a.833.833,0,0,0,0-.086,1.515,1.515,0,0,1,1.411-1.757,6.726,6.726,0,0,1,6.7,4.563c.012.034.024.068.037.1l.506,1.216A15.446,15.446,0,0,0,51.889,59.1ZM72.047,78.318a13.077,13.077,0,0,1-24.291-8.246c.647.374,1.293.722,1.918,1.027a10.67,10.67,0,0,0,4.347,1.287,3.356,3.356,0,0,0,2.289-.793c3.116-2.735,1.478-5.457.031-7.862a14.585,14.585,0,0,0-2.6-3.015,13.078,13.078,0,0,1,18.3,17.6Z" transform="translate(0 0)"/>
    </g>
  </g>
</svg>
