<svg xmlns="http://www.w3.org/2000/svg" xmlns:xlink="http://www.w3.org/1999/xlink" width="110" height="110" viewBox="0 0 110 110">
  <defs>
    <filter id="Trazado_982547" x="0" y="0" width="110" height="110" filterUnits="userSpaceOnUse">
      <feOffset dy="3" input="SourceAlpha"/>
      <feGaussianBlur stdDeviation="3" result="blur"/>
      <feFlood flood-opacity="0.161"/>
      <feComposite operator="in" in2="blur"/>
      <feComposite in="SourceGraphic"/>
    </filter>
  </defs>
  <g id="Grupo_1218669" data-name="Grupo 1218669" transform="translate(-3296 -1755.989)">
    <g id="Grupo_1217627" data-name="Grupo 1217627" transform="translate(3305 1761.989)">
      <g id="Grupo_1211001" data-name="Grupo 1211001" transform="translate(0 0)">
        <g id="Grupo_1200151" data-name="Grupo 1200151">
          <g id="Grupo_1185952" data-name="Grupo 1185952" transform="translate(0 0)">
            <g id="Grupo_1184115" data-name="Grupo 1184115" transform="translate(0 0)">
              <g id="Grupo_1183744" data-name="Grupo 1183744">
                <g id="Grupo_1181546" data-name="Grupo 1181546">
                  <g id="Grupo_1177563" data-name="Grupo 1177563">
                    <g id="Grupo_1173148" data-name="Grupo 1173148">
                      <g id="Grupo_1163803" data-name="Grupo 1163803" transform="translate(0 0)">
                        <g id="Grupo_1163015" data-name="Grupo 1163015" transform="translate(0 0)">
                          <g id="Grupo_1157017" data-name="Grupo 1157017">
                            <g id="Grupo_1155793" data-name="Grupo 1155793">
                              <g id="Grupo_1154704" data-name="Grupo 1154704">
                                <g id="Grupo_1150790" data-name="Grupo 1150790">
                                  <g id="Grupo_1154214" data-name="Grupo 1154214">
                                    <g id="Grupo_1152583" data-name="Grupo 1152583">
                                      <g id="Grupo_1146973" data-name="Grupo 1146973">
                                        <g id="Grupo_1146954" data-name="Grupo 1146954">
                                          <g transform="matrix(1, 0, 0, 1, -9, -6)" filter="url(#Trazado_982547)">
                                            <g id="Trazado_982547-2" data-name="Trazado 982547" transform="translate(9 6)" fill="#f2d944">
                                              <path d="M 46.00000381469727 90.49986267089844 C 39.99188232421875 90.49986267089844 34.16427230834961 89.32350158691406 28.67905807495117 87.00344848632812 C 23.38020324707031 84.76223754882812 18.62104415893555 81.55341339111328 14.53375053405762 77.46613311767578 C 10.44647026062012 73.37885284423828 7.237643718719482 68.61968994140625 4.996417045593262 63.32085037231445 C 2.676363706588745 57.83565139770508 1.500003814697266 52.00805282592773 1.500003814697266 45.99993133544922 C 1.500003814697266 39.99182510375977 2.676363706588745 34.16422653198242 4.996417045593262 28.67901039123535 C 7.237643718719482 23.38017082214355 10.44647026062012 18.62101173400879 14.53375053405762 14.53373146057129 C 18.62104415893555 10.44645118713379 23.38020324707031 7.237624645233154 28.67905807495117 4.996411323547363 C 34.16427230834961 2.676357984542847 39.99188232421875 1.499997973442078 46.00000381469727 1.499997973442078 C 52.00812530517578 1.499997973442078 57.83573532104492 2.676357984542847 63.32094955444336 4.996411323547363 C 68.61980438232422 7.237624645233154 73.37896728515625 10.44645118713379 77.46625518798828 14.53373146057129 C 81.55353546142578 18.62101173400879 84.76236724853516 23.38017082214355 87.00359344482422 28.67901039123535 C 89.32364654541016 34.16422653198242 90.5 39.99182510375977 90.5 45.99993133544922 C 90.5 52.00805282592773 89.32364654541016 57.83565139770508 87.00359344482422 63.32085037231445 C 84.76236724853516 68.61968994140625 81.55353546142578 73.37885284423828 77.46625518798828 77.46613311767578 C 73.37896728515625 81.55341339111328 68.61980438232422 84.76223754882812 63.32094955444336 87.00344848632812 C 57.83573532104492 89.32350158691406 52.00812530517578 90.49986267089844 46.00000381469727 90.49986267089844 Z" stroke="none"/>
                                              <path d="M 46.00000381469727 3 C 40.19371795654297 3 34.56270217895508 4.136505126953125 29.26337432861328 6.377914428710938 C 24.14333343505859 8.54351806640625 19.54441833496094 11.64438629150391 15.59440612792969 15.59439086914062 C 11.64440155029297 19.54440307617188 8.54351806640625 24.14330291748047 6.377914428710938 29.26334381103516 C 4.136505126953125 34.56266021728516 3.000007629394531 40.19366073608398 3.000007629394531 45.99993133544922 C 3.000007629394531 51.80620193481445 4.136505126953125 57.43720245361328 6.377914428710938 62.73651885986328 C 8.54351806640625 67.85655975341797 11.64440155029297 72.45545959472656 15.59440612792969 76.40547180175781 C 19.54441833496094 80.35547637939453 24.14333343505859 83.45634460449219 29.26337432861328 85.6219482421875 C 34.56270217895508 87.86335754394531 40.19371795654297 88.99986267089844 46.00000381469727 88.99986267089844 C 51.80628967285156 88.99986267089844 57.43730545043945 87.86335754394531 62.73661804199219 85.6219482421875 C 67.85667419433594 83.45634460449219 72.45557403564453 80.35547637939453 76.40558624267578 76.40547180175781 C 80.35560607910156 72.45545959472656 83.45647430419922 67.85655975341797 85.62207794189453 62.73651885986328 C 87.86350250244141 57.43720245361328 89 51.80620193481445 89 45.99993133544922 C 89 40.19366073608398 87.86350250244141 34.56266021728516 85.62207794189453 29.26334381103516 C 83.45647430419922 24.14330291748047 80.35560607910156 19.54440307617188 76.40558624267578 15.59439086914062 C 72.45557403564453 11.64438629150391 67.85667419433594 8.54351806640625 62.73661804199219 6.377914428710938 C 57.43730545043945 4.136505126953125 51.80628967285156 3 46.00000381469727 3 M 46.00000381469727 0 C 71.40509033203125 0 92 20.59487152099609 92 45.99993133544922 C 92 71.40499114990234 71.40509033203125 91.99986267089844 46.00000381469727 91.99986267089844 C 20.59490203857422 91.99986267089844 7.62939453125e-06 71.40499114990234 7.62939453125e-06 45.99993133544922 C 7.62939453125e-06 20.59487152099609 20.59490203857422 0 46.00000381469727 0 Z" stroke="none" fill="#ba9c5a"/>
                                            </g>
                                          </g>
                                        </g>
                                      </g>
                                    </g>
                                  </g>
                                </g>
                              </g>
                            </g>
                          </g>
                        </g>
                      </g>
                    </g>
                  </g>
                </g>
              </g>
            </g>
          </g>
        </g>
      </g>
    </g>
    <g id="martillo" transform="translate(3311.15 1779.15)">
      <path id="Trazado_1089699" data-name="Trazado 1089699" d="M36,45.7V41H54.8v4.7" transform="translate(6.125 7)" fill="#77787c"/>
      <path id="Trazado_1089700" data-name="Trazado 1089700" d="M40.35,43.35h14.1V41H38A2.35,2.35,0,0,0,40.35,43.35Z" transform="translate(6.475 7)" fill="#9a9b9f"/>
      <path id="Trazado_1089701" data-name="Trazado 1089701" d="M65.45,46.925,68.975,34H72.5V53.975H2v-7.05Z" transform="translate(0.175 5.775)" fill="#955a21"/>
      <path id="Trazado_1089702" data-name="Trazado 1089702" d="M65.45,46.925H2V50.45H72.5V34H68.975Z" transform="translate(0.175 5.775)" fill="#ab692a"/>
      <path id="Trazado_1089703" data-name="Trazado 1089703" d="M24.328,23.927,32.755,15.5l4.7,4.7-9.169,9.169Z" transform="translate(4.082 2.538)" fill="#ab692a"/>
      <path id="Trazado_1089704" data-name="Trazado 1089704" d="M24.328,23.927,32.755,15.5l4.7,4.7-9.169,9.169Z" transform="translate(4.082 2.538)" fill="#955a21"/>
      <path id="Trazado_1089705" data-name="Trazado 1089705" d="M27.3,28.006l8.876-9.089L32.755,15.5l-8.427,8.427Z" transform="translate(4.082 2.538)" fill="#ab692a"/>
      <path id="Trazado_1089706" data-name="Trazado 1089706" d="M0,0H11.631V13.294H0Z" transform="translate(34.483 15.69) rotate(-45)" fill="#e98e4a"/>
      <path id="Trazado_1089707" data-name="Trazado 1089707" d="M0,0H8.308V13.294H0Z" transform="translate(34.482 15.69) rotate(-45)" fill="#dc8039"/>
      <g id="Grupo_1218668" data-name="Grupo 1218668" transform="translate(5.7 2.175)">
        <path id="Trazado_1089708" data-name="Trazado 1089708" d="M36.73,24.02,47.02,13.73a2.493,2.493,0,0,1,3.525,3.525L40.255,27.545A2.493,2.493,0,0,1,36.73,24.02Z" transform="translate(0.425 -0.075)" fill="#ab692a"/>
        <path id="Trazado_1089709" data-name="Trazado 1089709" d="M25.73,13.02,36.02,2.73a2.493,2.493,0,0,1,3.525,3.525L29.255,16.545A2.493,2.493,0,0,1,25.73,13.02Z" transform="translate(-1.5 -2)" fill="#ab692a"/>
        <path id="Trazado_1089710" data-name="Trazado 1089710" d="M5,51H68.45V65.1H5Z" transform="translate(-5 6.575)" fill="#ab692a"/>
        <path id="Trazado_1089711" data-name="Trazado 1089711" d="M25.73,13.02,36.02,2.73a2.493,2.493,0,0,1,3.525,3.525L29.255,16.545A2.493,2.493,0,0,1,25.73,13.02Z" transform="translate(-1.5 -2)" fill="#ab692a"/>
      </g>
      <path id="Trazado_1089712" data-name="Trazado 1089712" d="M37,41.7V37H53.45v4.7" transform="translate(6.3 6.3)" fill="#50bae3"/>
      <path id="Trazado_1089713" data-name="Trazado 1089713" d="M39,41h2.35v4.7H39Z" transform="translate(6.65 7)" fill="#5a5b5d"/>
      <path id="Trazado_1089714" data-name="Trazado 1089714" d="M43,41h2.35v4.7H43Z" transform="translate(7.35 7)" fill="#5a5b5d"/>
      <path id="Trazado_1089715" data-name="Trazado 1089715" d="M47,41h2.35v4.7H47Z" transform="translate(8.05 7)" fill="#5a5b5d"/>
      <path id="Trazado_1089716" data-name="Trazado 1089716" d="M10,64.05V57H61.7v7.05" transform="translate(1.575 9.8)" fill="#955a21"/>
      <path id="Trazado_1089717" data-name="Trazado 1089717" d="M2,24H9.05V45.15H2Z" transform="translate(0.175 4.025)" fill="#3177a6"/>
      <path id="Trazado_1089718" data-name="Trazado 1089718" d="M5,38.1a3.525,3.525,0,0,0,3.525,3.525V24H5Z" transform="translate(0.7 4.025)" fill="#4197cd"/>
      <path id="Trazado_1089719" data-name="Trazado 1089719" d="M8,42.15A32.862,32.862,0,0,0,20.2,44.5H30.325a2.35,2.35,0,1,0,0-4.7H31.5a2.35,2.35,0,1,0,0-4.7h1.175a2.35,2.35,0,0,0,0-4.7H33.85a2.35,2.35,0,0,0,0-4.7H31.5A4.7,4.7,0,0,0,26.8,21H22.183a14.385,14.385,0,0,0-10.172,4.213A5.673,5.673,0,0,1,8,26.875" transform="translate(1.225 3.5)" fill="#deb2ae"/>
      <path id="Trazado_1089720" data-name="Trazado 1089720" d="M30.325,39.8H31.5a2.35,2.35,0,1,0,0-4.7h1.175a2.35,2.35,0,0,0,0-4.7H33.85a2.35,2.35,0,0,0,0-4.7H31.5A4.7,4.7,0,0,0,26.8,21H22.183a14.385,14.385,0,0,0-10.172,4.213A5.673,5.673,0,0,1,8,26.875V39.8a32.862,32.862,0,0,0,12.2,2.35H32.675A2.35,2.35,0,0,0,30.325,39.8Z" transform="translate(1.225 3.5)" fill="#fbe2d9"/>
      <path id="Trazado_1089721" data-name="Trazado 1089721" d="M31.925,25.175h-2.35A4.673,4.673,0,0,0,29.409,24H19v2.35H33.95a2.343,2.343,0,0,0-2.025-1.175Z" transform="translate(3.15 4.025)" fill="#deb2ae"/>
      <path id="Trazado_1089722" data-name="Trazado 1089722" d="M22,30.35H32.25a2.343,2.343,0,0,0-2.025-1.175H31.4A2.343,2.343,0,0,0,33.425,28H22Z" transform="translate(3.675 4.725)" fill="#deb2ae"/>
      <path id="Trazado_1089723" data-name="Trazado 1089723" d="M22,34.35h9.075a2.343,2.343,0,0,0-2.025-1.175h1.175A2.343,2.343,0,0,0,32.25,32H22Z" transform="translate(3.675 5.425)" fill="#deb2ae"/>
      <path id="Trazado_1089724" data-name="Trazado 1089724" d="M22,38.35h7.9a2.343,2.343,0,0,0-2.025-1.175H29.05A2.343,2.343,0,0,0,31.075,36H22Z" transform="translate(3.675 6.125)" fill="#deb2ae"/>
      <path id="Trazado_1089725" data-name="Trazado 1089725" d="M48.737,13a2.489,2.489,0,0,0-1.763.73L36.684,24.02a2.468,2.468,0,0,0-.422.587,2.479,2.479,0,0,0,3.947.588L50.5,14.9a2.492,2.492,0,0,0,.422-.588A2.482,2.482,0,0,0,48.737,13Z" transform="translate(6.171 2.1)" fill="#955a21"/>
      <path id="Trazado_1089726" data-name="Trazado 1089726" d="M37.737,2a2.489,2.489,0,0,0-1.763.73L25.684,13.02a2.467,2.467,0,0,0-.422.587,2.479,2.479,0,0,0,3.947.588L39.5,3.9a2.492,2.492,0,0,0,.422-.588A2.482,2.482,0,0,0,37.737,2Z" transform="translate(4.246 0.175)" fill="#955a21"/>
      <path id="Trazado_1089727" data-name="Trazado 1089727" d="M37,39H53.45v2.35H37Z" transform="translate(6.3 6.65)" fill="#4197cd"/>
      <path id="Trazado_1089728" data-name="Trazado 1089728" d="M72.675,33H69.15a1.175,1.175,0,0,0-1.134.866L64.727,45.925H62.1V42.4a1.175,1.175,0,0,0-1.175-1.175V37.7a1.175,1.175,0,0,0-1.175-1.175H43.3A1.175,1.175,0,0,0,42.125,37.7v3.525A1.175,1.175,0,0,0,40.95,42.4v3.525H2.175A1.175,1.175,0,0,0,1,47.1v7.05a1.175,1.175,0,0,0,1.175,1.175h2.35V68.25h2.35V55.325h61.1V68.25h2.35V55.325h2.35A1.175,1.175,0,0,0,73.85,54.15V34.175A1.175,1.175,0,0,0,72.675,33ZM57.4,45.925v-2.35h2.35v2.35Zm-7.05-2.35v2.35H48v-2.35Zm2.35,0h2.35v2.35H52.7Zm-8.225-4.7h14.1v2.35h-14.1Zm-1.175,4.7h2.35v2.35H43.3Zm28.2,9.4H3.35v-4.7H65.625a1.175,1.175,0,0,0,1.134-.866L70.048,35.35H71.5Z" transform="translate(0 5.6)"/>
      <path id="Trazado_1089729" data-name="Trazado 1089729" d="M63.05,64.225v-7.05A1.175,1.175,0,0,0,61.875,56h-51.7A1.175,1.175,0,0,0,9,57.175v7.05h2.35V58.35H60.7v5.875Z" transform="translate(1.4 9.625)"/>
      <path id="Trazado_1089730" data-name="Trazado 1089730" d="M2.175,50.35h7.05A1.175,1.175,0,0,0,10.4,49.175V47.337a33.872,33.872,0,0,0,11.027,1.838H31.55a3.525,3.525,0,0,0,3.071-5.255,3.525,3.525,0,0,0,1.175-4.7,3.525,3.525,0,0,0,1.175-4.7,3.506,3.506,0,0,0,.217-5.773L41.536,24.4l.689.689-.2.2a3.667,3.667,0,0,0,5.186,5.186L57.5,20.187A3.667,3.667,0,1,0,52.313,15l-.2.2-7.737-7.74.2-.2A3.667,3.667,0,1,0,39.39,2.074L29.1,12.365a3.667,3.667,0,0,0,5.186,5.186l.2-.2.689.689-5.535,5.535a5.832,5.832,0,0,0-1.616-.248H23.408a15.455,15.455,0,0,0-11,4.558A4.465,4.465,0,0,1,10.4,29.026v-1A1.175,1.175,0,0,0,9.225,26.85H2.175A1.175,1.175,0,0,0,1,28.025v21.15A1.175,1.175,0,0,0,2.175,50.35ZM54.908,16.275a1.317,1.317,0,0,1,.932,2.249L45.549,28.815a1.318,1.318,0,0,1-1.864-1.864L53.976,16.66A1.312,1.312,0,0,1,54.908,16.275Zm-23.216,0a1.317,1.317,0,0,1-.932-2.249L41.051,3.735A1.318,1.318,0,0,1,42.915,5.6L32.624,15.89a1.312,1.312,0,0,1-.932.385Zm11.02-7.151,7.739,7.739-6.564,6.564-7.739-7.739ZM36.838,19.7l3.039,3.039-5.288,5.288h-.806a5.86,5.86,0,0,0-1.967-3.3Zm-22.77,9.845a13.122,13.122,0,0,1,9.341-3.869h4.617a3.525,3.525,0,0,1,3.309,2.35H22.15v2.35H35.075a1.175,1.175,0,1,1,0,2.35h-9.4v2.35H33.9a1.175,1.175,0,1,1,0,2.35H25.675v2.35h7.05a1.175,1.175,0,0,1,0,2.35h-7.05v2.35H31.55a1.175,1.175,0,1,1,0,2.35H21.427A31.539,31.539,0,0,1,10.4,44.834V31.444a6.8,6.8,0,0,0,3.667-1.9ZM3.35,29.2h4.7V48H3.35Z" transform="translate(0 0)"/>
    </g>
  </g>
</svg>
