<svg xmlns="http://www.w3.org/2000/svg" xmlns:xlink="http://www.w3.org/1999/xlink" width="400" height="251" viewBox="0 0 400 251">
  <defs>
    <clipPath id="clip-path">
      <rect id="Rectángulo_420687" data-name="Rectángulo 420687" width="400" height="251" transform="translate(1020 274)" fill="#fff" stroke="#707070" stroke-width="1"/>
    </clipPath>
  </defs>
  <g id="Enmascarar_grupo_1098924" data-name="Enmascarar grupo 1098924" transform="translate(-1020 -274)" clip-path="url(#clip-path)">
    <g id="Grupo_1218522" data-name="Grupo 1218522" transform="translate(-3.137)">
      <rect id="Rectángulo_420686" data-name="Rectángulo 420686" width="165" height="250" transform="translate(1212 275)" fill="#1172b3"/>
      <g id="Grupo_1218473" data-name="Grupo 1218473" transform="translate(1041.334 36.248)">
        <g id="Grupo_1218438" data-name="Grupo 1218438" transform="translate(61.985 282.624)">
          <path id="Trazado_1088944" data-name="Trazado 1088944" d="M267.531,381.73a105.38,105.38,0,1,0-192.2,59.746H248.985a104.9,104.9,0,0,0,18.56-59.746Z" transform="translate(-49.969 -270.895)" fill="#cee2ef" opacity="0.73"/>
          <g id="Grupo_1218437" data-name="Grupo 1218437" opacity="0.7">
            <path id="Trazado_1088945" data-name="Trazado 1088945" d="M69.34,397.755H66.945a.72.72,0,0,1-.6-.312c-.453-.666-.907-1.332-1.346-2a.715.715,0,1,1,1.19-.793c.368.553.737,1.105,1.119,1.658h2.012a.723.723,0,0,1,0,1.445Z" transform="translate(-46.586 -221.72)" fill="#fff"/>
            <path id="Trazado_1088946" data-name="Trazado 1088946" d="M240.831,397.175H236a.723.723,0,0,1,0-1.445h4.831a.723.723,0,0,1,0,1.445Zm-9.662,0h-4.831a.723.723,0,0,1,0-1.445h4.831a.723.723,0,0,1,0,1.445Zm-9.677,0H216.66a.723.723,0,0,1,0-1.445h4.831a.723.723,0,0,1,0,1.445Zm-9.662,0H207a.723.723,0,0,1,0-1.445h4.831a.723.723,0,0,1,0,1.445Zm-9.662,0h-4.831a.723.723,0,0,1,0-1.445h4.831a.723.723,0,0,1,0,1.445Zm-9.677,0h-4.831a.723.723,0,0,1,0-1.445h4.831a.723.723,0,0,1,0,1.445Zm-9.662,0H178a.723.723,0,0,1,0-1.445h4.831a.723.723,0,0,1,0,1.445Zm-9.662,0h-4.831a.723.723,0,0,1,0-1.445h4.831a.723.723,0,0,1,0,1.445Zm-9.677,0h-4.831a.723.723,0,0,1,0-1.445h4.831a.723.723,0,0,1,0,1.445Zm-9.662,0h-4.831a.723.723,0,0,1,0-1.445h4.831a.723.723,0,0,1,0,1.445Zm-9.662,0h-4.831a.723.723,0,0,1,0-1.445h4.831a.723.723,0,0,1,0,1.445Zm-9.677,0h-4.831a.723.723,0,0,1,0-1.445h4.831a.723.723,0,0,1,0,1.445Zm-9.662,0h-4.831a.723.723,0,1,1,0-1.445h4.831a.723.723,0,0,1,0,1.445Zm-9.662,0h-4.831a.723.723,0,1,1,0-1.445h4.831a.723.723,0,0,1,0,1.445Zm-9.677,0h-4.831a.723.723,0,1,1,0-1.445h4.831a.723.723,0,0,1,0,1.445Zm-9.662,0H90.992a.723.723,0,0,1,0-1.445h4.831a.723.723,0,0,1,0,1.445Zm-9.662,0H81.329a.723.723,0,0,1,0-1.445H86.16a.723.723,0,1,1,0,1.445Zm-9.677,0H71.653a.723.723,0,0,1,0-1.445h4.831a.723.723,0,1,1,0,1.445Z" transform="translate(-44.068 -221.14)" fill="#fff"/>
            <path id="Trazado_1088947" data-name="Trazado 1088947" d="M196.867,397.757h-2.394a.723.723,0,0,1,0-1.445h2.012c.383-.553.751-1.105,1.119-1.658a.715.715,0,1,1,1.19.793c-.439.666-.893,1.332-1.346,2a.7.7,0,0,1-.6.312Z" transform="translate(7.122 -221.722)" fill="#fff"/>
            <path id="Trazado_1088948" data-name="Trazado 1088948" d="M259.826,442.542a.686.686,0,0,1-.368-.1.713.713,0,0,1-.241-.992c.808-1.346,1.587-2.72,2.338-4.095a.72.72,0,1,1,1.261.694c-.751,1.4-1.558,2.791-2.366,4.151a.724.724,0,0,1-.623.354Zm-191.436-.128a.742.742,0,0,1-.623-.354c-.808-1.36-1.615-2.763-2.366-4.151a.72.72,0,1,1,1.261-.694c.737,1.374,1.53,2.749,2.338,4.109a.7.7,0,0,1-.255.978.687.687,0,0,1-.368.1ZM264.346,434.2a.828.828,0,0,1-.312-.071.713.713,0,0,1-.326-.963c.694-1.417,1.36-2.848,1.983-4.279a.72.72,0,1,1,1.318.581c-.638,1.445-1.3,2.9-2,4.335a.72.72,0,0,1-.652.4Zm-200.475-.142a.709.709,0,0,1-.652-.411c-.694-1.431-1.374-2.89-2-4.35a.72.72,0,1,1,1.318-.581c.623,1.431,1.289,2.876,1.969,4.293a.729.729,0,0,1-.326.963.829.829,0,0,1-.312.071ZM268.143,425.5a.8.8,0,0,1-.255-.042.722.722,0,0,1-.411-.935c.567-1.473,1.105-2.961,1.6-4.435a.725.725,0,0,1,.907-.453.713.713,0,0,1,.453.907c-.51,1.5-1.048,3-1.629,4.491a.717.717,0,0,1-.666.453Zm-208.055-.156a.7.7,0,0,1-.666-.453c-.567-1.488-1.119-2.989-1.615-4.491a.717.717,0,1,1,1.36-.453c.5,1.488,1.034,2.975,1.6,4.435a.733.733,0,0,1-.411.935.8.8,0,0,1-.255.043ZM271.175,416.5a.689.689,0,0,1-.2-.028.733.733,0,0,1-.5-.893c.439-1.5.85-3.046,1.218-4.562a.715.715,0,1,1,1.388.34c-.368,1.53-.793,3.089-1.233,4.619a.727.727,0,0,1-.694.524Zm-214.1-.156a.722.722,0,0,1-.694-.524c-.439-1.516-.85-3.074-1.233-4.619a.708.708,0,0,1,.524-.864.719.719,0,0,1,.864.524c.368,1.53.779,3.06,1.218,4.562a.722.722,0,0,1-.5.893.955.955,0,0,1-.2.028Zm216.371-9.067H273.3a.736.736,0,0,1-.567-.85c.312-1.53.581-3.089.822-4.647a.712.712,0,0,1,.822-.6.7.7,0,0,1,.6.822c-.241,1.573-.524,3.145-.836,4.7a.726.726,0,0,1-.708.581Zm-218.624-.17a.726.726,0,0,1-.708-.581c-.312-1.544-.581-3.131-.822-4.7A.717.717,0,1,1,54.7,401.6c.241,1.558.51,3.117.822,4.647a.732.732,0,0,1-.567.85h-.142ZM274.887,397.9H274.8a.718.718,0,0,1-.638-.793c.17-1.558.312-3.131.425-4.7a.725.725,0,0,1,.765-.666.715.715,0,0,1,.666.765c-.113,1.587-.255,3.188-.425,4.76A.718.718,0,0,1,274.887,397.9Zm-221.5-.17a.718.718,0,0,1-.708-.638c-.17-1.573-.312-3.174-.425-4.76a.717.717,0,1,1,1.431-.1c.1,1.558.241,3.145.425,4.7a.718.718,0,0,1-.638.793Zm222.166-9.294h-.014a.705.705,0,0,1-.694-.737c.028-1.006.042-2.026.042-3.046v-1.672a.714.714,0,0,1,.708-.723.7.7,0,0,1,.723.708v1.686c0,1.034,0,2.054-.043,3.089A.711.711,0,0,1,275.553,388.435Zm-222.817-.184a.73.73,0,0,1-.723-.694c-.028-.963-.042-1.927-.042-2.9,0-.623,0-1.261.014-1.884a.714.714,0,0,1,.723-.708h0a.726.726,0,0,1,.708.737c0,.623-.014,1.233-.014,1.856,0,.963,0,1.913.043,2.862a.723.723,0,0,1-.694.737Zm222.676-9.308a.727.727,0,0,1-.723-.68c-.085-1.573-.212-3.145-.368-4.7a.706.706,0,0,1,.638-.779.716.716,0,0,1,.779.638c.156,1.573.283,3.174.368,4.76a.705.705,0,0,1-.68.751h-.043Zm-222.52-.2h-.042a.736.736,0,0,1-.68-.765c.1-1.587.227-3.188.383-4.76a.712.712,0,0,1,1.417.142c-.156,1.558-.283,3.145-.368,4.7a.727.727,0,0,1-.723.68Zm221.571-9.252a.705.705,0,0,1-.708-.609c-.227-1.544-.482-3.117-.765-4.661a.713.713,0,0,1,.581-.836.72.72,0,0,1,.836.581c.3,1.558.553,3.145.779,4.718a.708.708,0,0,1-.609.808h-.1Zm-220.607-.184h-.1a.716.716,0,0,1-.609-.808c.227-1.573.5-3.159.779-4.718a.71.71,0,0,1,.836-.567.7.7,0,0,1,.567.836c-.283,1.544-.553,3.1-.779,4.647a.716.716,0,0,1-.708.609Zm218.879-9.152a.712.712,0,0,1-.694-.553c-.354-1.53-.737-3.06-1.162-4.576a.713.713,0,1,1,1.374-.383c.425,1.53.822,3.089,1.176,4.633a.735.735,0,0,1-.538.864c-.057,0-.113.014-.156.014Zm-217.122-.184a.965.965,0,0,1-.17-.014.728.728,0,0,1-.538-.864c.354-1.544.751-3.1,1.19-4.633a.713.713,0,1,1,1.374.382c-.425,1.5-.808,3.046-1.162,4.576a.712.712,0,0,1-.694.553ZM270.2,351.018a.728.728,0,0,1-.68-.5c-.482-1.488-1.006-2.989-1.558-4.463a.717.717,0,0,1,1.346-.5c.553,1.488,1.091,3.018,1.573,4.52a.715.715,0,0,1-.468.907.587.587,0,0,1-.227.028Zm-212.036-.184a.458.458,0,0,1-.227-.042.727.727,0,0,1-.468-.907c.5-1.5,1.02-3.032,1.573-4.505a.717.717,0,0,1,1.346.5c-.553,1.459-1.077,2.961-1.558,4.449a.728.728,0,0,1-.68.5Zm208.72-8.742a.726.726,0,0,1-.666-.439c-.609-1.445-1.261-2.89-1.927-4.321a.713.713,0,0,1,1.289-.609c.68,1.445,1.332,2.9,1.955,4.364a.708.708,0,0,1-.383.935.634.634,0,0,1-.283.057Zm-205.405-.142a.675.675,0,0,1-.283-.057.712.712,0,0,1-.383-.935c.609-1.459,1.275-2.919,1.955-4.35a.726.726,0,0,1,.963-.34.714.714,0,0,1,.34.949c-.666,1.417-1.318,2.862-1.927,4.293A.726.726,0,0,1,61.477,341.951Zm201.339-8.458a.728.728,0,0,1-.638-.383c-.737-1.388-1.5-2.777-2.3-4.137a.714.714,0,1,1,1.233-.723c.793,1.374,1.587,2.777,2.324,4.18a.706.706,0,0,1-.3.963.755.755,0,0,1-.34.085Zm-197.273-.1a.755.755,0,0,1-.34-.085.71.71,0,0,1-.3-.963c.737-1.4,1.516-2.805,2.324-4.165a.714.714,0,0,1,1.233.723c-.793,1.346-1.558,2.734-2.281,4.123a.728.728,0,0,1-.638.383Zm192.484-8.1a.723.723,0,0,1-.609-.326c-.85-1.318-1.728-2.635-2.635-3.924a.721.721,0,0,1,1.176-.836c.907,1.289,1.813,2.635,2.664,3.967a.724.724,0,0,1-.213.992.751.751,0,0,1-.383.113ZM70.317,325.2a.751.751,0,0,1-.383-.113.714.714,0,0,1-.213-.992c.85-1.332,1.743-2.664,2.664-3.953a.721.721,0,1,1,1.176.836q-1.36,1.934-2.635,3.91a.723.723,0,0,1-.609.326Zm182.241-7.693a.718.718,0,0,1-.567-.283c-.949-1.247-1.955-2.479-2.961-3.684a.714.714,0,0,1,1.091-.921c1.02,1.218,2.026,2.465,2.989,3.726a.72.72,0,0,1-.128,1.006.708.708,0,0,1-.439.142Zm-176.786-.057a.708.708,0,0,1-.439-.142.72.72,0,0,1-.128-1.006c.963-1.261,1.969-2.508,2.989-3.726a.714.714,0,1,1,1.091.921c-1.006,1.2-2,2.437-2.947,3.669A.718.718,0,0,1,75.772,317.455Zm170.68-7.226a.741.741,0,0,1-.524-.227c-1.063-1.162-2.154-2.309-3.259-3.414a.721.721,0,0,1,1.02-1.02c1.119,1.119,2.224,2.281,3.3,3.457a.732.732,0,0,1-.042,1.02.71.71,0,0,1-.482.184Zm-164.574-.043A.71.71,0,0,1,81.4,310a.719.719,0,0,1-.042-1.02c1.077-1.176,2.182-2.338,3.3-3.457a.721.721,0,0,1,1.02,1.02c-1.105,1.105-2.2,2.253-3.259,3.414a.709.709,0,0,1-.524.227ZM239.765,303.5a.685.685,0,0,1-.482-.184c-1.148-1.063-2.338-2.111-3.528-3.131a.714.714,0,1,1,.921-1.091c1.2,1.02,2.409,2.083,3.57,3.159a.719.719,0,0,1,.043,1.02.71.71,0,0,1-.524.227ZM88.58,303.457a.688.688,0,0,1-.524-.227.719.719,0,0,1,.042-1.02c1.162-1.077,2.366-2.139,3.584-3.174a.714.714,0,1,1,.921,1.091c-1.2,1.02-2.38,2.068-3.528,3.131a.71.71,0,0,1-.482.184Zm143.945-6.092a.644.644,0,0,1-.439-.156c-1.233-.963-2.508-1.913-3.783-2.819a.721.721,0,1,1,.836-1.176c1.289.921,2.579,1.87,3.825,2.848a.722.722,0,0,1-.439,1.289Zm-136.705-.043a.722.722,0,0,1-.439-1.289c1.261-.978,2.55-1.941,3.839-2.848a.721.721,0,1,1,.836,1.176c-1.275.907-2.55,1.856-3.783,2.819a.723.723,0,0,1-.439.156ZM224.8,291.867a.845.845,0,0,1-.4-.113c-1.3-.85-2.649-1.686-4.009-2.479a.714.714,0,1,1,.723-1.233c1.374.808,2.734,1.658,4.052,2.522a.716.716,0,0,1-.4,1.318Zm-121.234-.057a.723.723,0,0,1-.609-.326.714.714,0,0,1,.213-.992c1.332-.864,2.692-1.714,4.066-2.522a.714.714,0,1,1,.723,1.233c-1.36.793-2.706,1.629-4.009,2.479a.679.679,0,0,1-.4.113Zm113.073-4.775a.755.755,0,0,1-.34-.085c-1.374-.737-2.791-1.459-4.194-2.139a.722.722,0,1,1,.623-1.3c1.431.68,2.862,1.417,4.25,2.153a.723.723,0,0,1-.34,1.36Zm-104.9-.057a.723.723,0,0,1-.34-1.36c1.4-.751,2.834-1.473,4.265-2.168a.722.722,0,0,1,.623,1.3c-1.417.68-2.834,1.4-4.222,2.139a.754.754,0,0,1-.34.085Zm96.37-4.052a.675.675,0,0,1-.283-.057c-1.431-.623-2.9-1.2-4.364-1.771a.713.713,0,0,1,.51-1.332c1.473.567,2.961,1.162,4.42,1.785a.723.723,0,0,1-.283,1.388Zm-87.784-.057a.741.741,0,0,1-.666-.439.712.712,0,0,1,.383-.949c1.459-.623,2.961-1.233,4.449-1.785a.711.711,0,1,1,.5,1.332c-1.473.553-2.947,1.148-4.378,1.771a.676.676,0,0,1-.283.057Zm78.915-3.315a.432.432,0,0,1-.227-.042c-1.488-.5-3-.963-4.505-1.388a.722.722,0,0,1-.5-.893.733.733,0,0,1,.893-.5c1.516.439,3.06.907,4.562,1.4a.708.708,0,0,1,.453.907.728.728,0,0,1-.68.5Zm-70.017-.057a.709.709,0,0,1-.68-.5A.719.719,0,0,1,129,278.1c1.5-.5,3.032-.963,4.576-1.4a.722.722,0,0,1,.893.5.7.7,0,0,1-.5.878c-1.516.425-3.032.893-4.505,1.374a.642.642,0,0,1-.227.043Zm60.893-2.536a.969.969,0,0,1-.17-.014c-1.516-.368-3.074-.694-4.6-.992a.721.721,0,0,1-.567-.836.71.71,0,0,1,.836-.567c1.558.3,3.131.638,4.675,1.006a.717.717,0,0,1-.156,1.417Zm-51.755-.042a.717.717,0,0,1-.156-1.417c1.544-.368,3.117-.708,4.675-1.006a.714.714,0,1,1,.269,1.4c-1.544.3-3.089.623-4.619.992-.057,0-.113.014-.17.014Zm42.433-1.757h-.113c-1.544-.227-3.117-.439-4.675-.6a.72.72,0,0,1,.156-1.431c1.587.17,3.174.368,4.746.609a.719.719,0,0,1-.1,1.431Zm-33.11-.028a.716.716,0,0,1-.708-.609.729.729,0,0,1,.609-.822c1.573-.227,3.159-.439,4.746-.6a.72.72,0,0,1,.156,1.431c-1.558.156-3.131.368-4.675.6h-.1Zm23.674-.978h-.042c-1.558-.1-3.145-.17-4.718-.2a.726.726,0,0,1-.708-.737.708.708,0,0,1,.737-.708c1.587.028,3.2.1,4.775.2a.716.716,0,0,1-.057,1.431Zm-14.239-.014a.727.727,0,0,1-.723-.68.715.715,0,0,1,.666-.765c1.587-.1,3.188-.17,4.775-.2a.756.756,0,0,1,.737.708.735.735,0,0,1-.708.737c-1.573.028-3.145.1-4.718.2h-.042Z" transform="translate(-51.97 -272.5)" fill="#fff"/>
          </g>
        </g>
        <g id="Grupo_1218472" data-name="Grupo 1218472" transform="translate(27.94 248.209)">
          <g id="Grupo_1218468" data-name="Grupo 1218468" transform="translate(9.648)">
            <g id="Grupo_1218441" data-name="Grupo 1218441" transform="translate(4.835 59.184)">
              <g id="Grupo_1218439" data-name="Grupo 1218439" transform="translate(0.788 0.773)" opacity="0.7">
                <path id="Trazado_1088949" data-name="Trazado 1088949" d="M58.843,316.091a4.184,4.184,0,0,1-2.338,2.253c-.014.028-.042.043-.071.071a.354.354,0,0,0,.042.283h0a.376.376,0,0,1,.085.071c.128.085.255.17.383.241a.179.179,0,0,1,.085.014h.184a5.923,5.923,0,0,0,1.36-.411,6.188,6.188,0,0,0,1.516-1.19,7.334,7.334,0,0,0,1.984-3.485L60,312.96a8.808,8.808,0,0,1-1.19,3.117Z" transform="translate(-31.341 -281.18)" fill="gray" opacity="0.33"/>
                <path id="Trazado_1088950" data-name="Trazado 1088950" d="M88.761,315.324c1.658-.368,2.749-.751,2.579-2.465-1.332-.411-3.188,0-4.35.071a7.675,7.675,0,0,1-3.372-.5h0a3.144,3.144,0,0,0-1.516-4.123L63.259,299.4a3.139,3.139,0,0,0-3.6.666,3.177,3.177,0,0,0-.553.793l.028-.057a2.9,2.9,0,0,1,.468-.68h0l-2.692-1.275h0l-9.648-4.562.3-.623a.514.514,0,0,0-.241-.68l-5.1-2.409a.527.527,0,0,0-.68.241l-2.777,5.88a.527.527,0,0,0,.241.68l5.1,2.409a.527.527,0,0,0,.68-.241l.113-.227,8.5,4.009h0l3.726,1.757-3.443,7.282a3.138,3.138,0,0,0,1.5,4.165l1.913.907c1.048,2.38-2.012,4.7-1.629,7.254.482,3.174,5.582,4.945,8.146,5.993a11.377,11.377,0,0,0,4.59.949h.028a5.16,5.16,0,0,1,.765-.1,2.685,2.685,0,0,1,2.635,1.091,4.423,4.423,0,0,1-.028,2.805l-.085.184a23.638,23.638,0,0,0-1.6,3.825c-2.012,5.639-1.332,12.184,4.123,15.287,5.171,2.961,11.221.453,13.459-5.6,2.139-5.724,2.394-7.792,1.034-15.542-.609-3.485-1.856-6.333-.085-14.012a8.169,8.169,0,0,1-3.854-2.04c.765-1.445,2.465-1.842,4.18-2.238ZM82.8,314.219a6,6,0,0,0,.184.723,5.379,5.379,0,0,1-.184-.723Zm.708,11.108a.675.675,0,0,0-.071.028h-.028c.028-.014.071-.028.1-.043h0ZM85.9,329.86c.028.17.057.354.085.524a.241.241,0,0,0-.014-.1c-.028-.142-.042-.283-.071-.425Zm-.241-2.579v.014Zm-2.876-1.658h0a.2.2,0,0,0,.057-.028h-.014a.07.07,0,0,0-.042.014Zm.255-10.442a5.841,5.841,0,0,0,.6,1.19A5.841,5.841,0,0,1,83.037,315.183ZM81,326.134c-.085.014-.184.043-.269.057a7.877,7.877,0,0,1-1.048.113,7.887,7.887,0,0,0,1.048-.113C80.813,326.177,80.912,326.148,81,326.134Zm-12.439-6.616,4.69,2.224-14.579-6.886,9.889,4.675Zm5.681,14.508a19.4,19.4,0,0,1-.864,2.068A19.4,19.4,0,0,0,74.239,334.026Zm.581-5.072c-.028-.2-.071-.411-.113-.623.042.213.085.425.113.623a8.977,8.977,0,0,1,.071,1.743A10.133,10.133,0,0,0,74.82,328.954Zm-.312-1.417a1.208,1.208,0,0,1,.227-.241A1.819,1.819,0,0,0,74.508,327.537ZM60.6,304.911l-.283.6-1.927,4.066-.921,1.927,3.117-6.6Zm10.569,23.136a4.252,4.252,0,0,1-2.352,2.153,7.866,7.866,0,0,1-4.973-.51c-2.21-.878-6.645-2.366-6.928-5.327-.213-2.125,1.941-4.151,1.856-6.106l11.249,5.313A10.685,10.685,0,0,1,72,326.347c-.312.609-.553,1.261-.85,1.714Zm1.6,9.266a15.884,15.884,0,0,0-.907,2.1A15.885,15.885,0,0,1,72.766,337.313Zm-1.02,2.564v0c-1.615,6.744-.553,11.079,3.23,13.219.071.043.142.071.2.1-.071-.042-.142-.071-.2-.1C71.193,350.942,70.145,346.621,71.746,339.877ZM81.1,353.606a6.65,6.65,0,0,1-3.471.425,6.616,6.616,0,0,0,3.471-.425,7.963,7.963,0,0,0,3.7-3.2A7.9,7.9,0,0,1,81.1,353.606Zm5.582-19.679c.142.779.255,1.488.354,2.153-.1-.68-.227-1.388-.354-2.153-.1-.538-.2-1.048-.312-1.573-.128-.6-.255-1.2-.368-1.842V330.5c.113.652.241,1.275.368,1.87.113.524.213,1.034.312,1.573Zm-1.913-9.337s-.042.028-.071.043c-.128.085-.255.17-.383.241.156-.1.3-.184.439-.283h0Z" transform="translate(-38.719 -290.529)" fill="gray" opacity="0.33"/>
              </g>
              <g id="Grupo_1218440" data-name="Grupo 1218440">
                <path id="Trazado_1088951" data-name="Trazado 1088951" d="M82.628,346.072c2.139-5.724,2.394-7.792,1.034-15.542-.609-3.485-1.856-6.333-.085-14.012a8.227,8.227,0,0,1-3.854-2.04,5.952,5.952,0,0,1-1.785-3.329l.85-1.785a3.144,3.144,0,0,0-1.516-4.123l-18.843-8.912a3.139,3.139,0,0,0-3.6.666,3.035,3.035,0,0,0-.567.822l-5.426,11.476a3.138,3.138,0,0,0,1.5,4.165l1.913.907c1.048,2.38-2.012,4.7-1.629,7.254.482,3.174,5.582,4.945,8.146,5.993a11.378,11.378,0,0,0,4.59.949h.028a5.152,5.152,0,0,1,.765-.1,2.684,2.684,0,0,1,2.635,1.091,4.423,4.423,0,0,1-.028,2.805l-.085.184a23.638,23.638,0,0,0-1.6,3.825c-2.012,5.639-1.332,12.184,4.123,15.287,5.171,2.961,11.221.453,13.459-5.6Zm-16.336-21.1a4.252,4.252,0,0,1-2.352,2.154,7.867,7.867,0,0,1-4.973-.51c-2.21-.878-6.645-2.366-6.928-5.327-.213-2.125,1.941-4.151,1.856-6.121l11.249,5.313a10.686,10.686,0,0,1,1.983,2.777c-.312.609-.553,1.261-.85,1.714Zm5.426-7.509a2.511,2.511,0,0,1-3.344,1.19L53.8,311.771a2.505,2.505,0,0,1-1.2-3.329l3.754-7.934a2.486,2.486,0,0,1,2.054-1.417,2.588,2.588,0,0,1,1.275.241l14.579,6.886a2.505,2.505,0,0,1,1.2,3.329L71.7,317.481Zm4.505,33.068a6.846,6.846,0,0,1-5.554-.2c-.184-.085-.383-.184-.581-.3-3.783-2.154-4.831-6.475-3.23-13.219v-.085a12.384,12.384,0,0,1,1.091-2.593c.128-.255.255-.5.368-.765a21.137,21.137,0,0,0,1.034-2.409,10.549,10.549,0,0,0,.581-5.086,8.464,8.464,0,0,0-.312-1.417c1.02-1.431,4.973-1.063,6.234-1.332.213-.042.425-.085.652-.142.17-.042.354-.085.538-.142.1-.043.2-.057.3-.1.17-.057.354-.113.524-.184.142-.043.255-.1.4-.156.113-.043.227-.1.354-.156a6.925,6.925,0,0,0,1.261-.723c.482-.014.949.043.935.623h0c0,.283-.028.553-.028.808v1.346c0,.17.014.34.014.5s.014.3.028.453a30.268,30.268,0,0,0,.652,4.024c.113.524.213,1.034.312,1.573,1.318,7.523,1.048,9.223-.935,14.55a8.51,8.51,0,0,1-4.633,5.115Z" transform="translate(-33.838 -287.463)" fill="#878787"/>
                <path id="Trazado_1088952" data-name="Trazado 1088952" d="M61.551,313.4l-2.069-.978a8.547,8.547,0,0,1-1.19,3.117,4.184,4.184,0,0,1-2.338,2.253c-.014.028-.043.043-.071.071a.354.354,0,0,0,.043.283h0a.376.376,0,0,1,.085.071c.128.085.255.17.383.241a.179.179,0,0,1,.085.014h.184a5.923,5.923,0,0,0,1.36-.411,6.188,6.188,0,0,0,1.516-1.19,7.334,7.334,0,0,0,1.983-3.485Z" transform="translate(-30.783 -280.631)" fill="#6f6f6f"/>
                <path id="Trazado_1088953" data-name="Trazado 1088953" d="M71.044,343.033a6.846,6.846,0,0,1-5.554-.2,4.319,4.319,0,0,1-.567-.3c-3.783-2.154-4.831-6.475-3.23-13.219v-.085a13.2,13.2,0,0,1,1.091-2.593c.128-.241.255-.5.368-.765a21.14,21.14,0,0,0,1.034-2.409,10.55,10.55,0,0,0,.581-5.086,8.518,8.518,0,0,0-.326-1.417c1.02-1.431,4.973-1.063,6.234-1.332.213-.042.425-.085.652-.142.184-.043.354-.085.553-.142a2.443,2.443,0,0,0,.3-.1c.184-.057.354-.113.524-.184a3.305,3.305,0,0,0,.4-.156c.113-.043.227-.1.354-.156a6.928,6.928,0,0,0,1.261-.723c.482-.028.949.042.921.623h0c-.014.283-.028.538-.028.808v1.346c0,.17.014.326.028.5a2.438,2.438,0,0,0,.028.453,30.655,30.655,0,0,0,.652,4.024c.113.524.227,1.034.312,1.573,1.318,7.523,1.247,10.045-.935,14.55-1.133,2.352-2.564,4.279-4.647,5.115Z" transform="translate(-28.657 -279.962)" fill="#ffb463"/>
                <path id="Trazado_1088954" data-name="Trazado 1088954" d="M59.071,299.585a2.9,2.9,0,0,0-.468.68l-2.026,4.293-12.227-5.78-.113.227a.5.5,0,0,1-.68.241l-5.1-2.409a.5.5,0,0,1-.241-.68l2.777-5.88a.5.5,0,0,1,.68-.241l5.1,2.409a.506.506,0,0,1,.241.68l-.3.623,12.34,5.837Z" transform="translate(-38.163 -289.983)" fill="#767676"/>
                <path id="Trazado_1088955" data-name="Trazado 1088955" d="M74.281,308.187l-3.754,7.934a2.511,2.511,0,0,1-3.344,1.19l-4.69-2.224a1.584,1.584,0,0,0,.482-.581,1.938,1.938,0,0,0-1.133-2.494L51.6,307.167s-.128-.057-.2-.085l.921-1.927,10.286,4.86a2.253,2.253,0,0,0,2.989-1.077,2.2,2.2,0,0,0,.085-1.714,3.4,3.4,0,0,0-.184-.4,2.233,2.233,0,0,0-.963-.878l-10.286-4.86.85-1.8a1.573,1.573,0,0,0,.184.1l10.243,4.845a1.97,1.97,0,0,0,2.678-.793,1.641,1.641,0,0,0,.156-.822l4.718,2.224a2.505,2.505,0,0,1,1.2,3.329Z" transform="translate(-32.646 -286.104)" fill="#d6d6d6"/>
                <path id="Trazado_1088956" data-name="Trazado 1088956" d="M75.245,308.33c-1.714.4-3.414.779-4.179,2.238a5.906,5.906,0,0,1-1.785-3.344l.836-1.785a7.676,7.676,0,0,0,3.372.5c1.162-.057,3.018-.482,4.35-.071.17,1.714-.921,2.1-2.579,2.465Z" transform="translate(-25.194 -283.541)" fill="#6f6f6f"/>
                <path id="Trazado_1088957" data-name="Trazado 1088957" d="M67.115,303.9a1.982,1.982,0,0,1-2.678.793l-10.243-4.845a1.3,1.3,0,0,1-.184-.1l.071-.142a2.486,2.486,0,0,1,2.054-1.417,2.588,2.588,0,0,1,1.275.241l9.861,4.661a1.67,1.67,0,0,1-.156.822Z" transform="translate(-31.558 -286.564)" fill="#b3b3b3"/>
                <path id="Trazado_1088958" data-name="Trazado 1088958" d="M65.335,308.409a2.253,2.253,0,0,1-2.989,1.077l-10.286-4.86,1.927-4.066,10.286,4.86a2.157,2.157,0,0,1,.963.878,3.389,3.389,0,0,1,.184.4A2.193,2.193,0,0,1,65.335,308.409Z" transform="translate(-32.371 -285.575)" fill="#b3b3b3"/>
                <path id="Trazado_1088959" data-name="Trazado 1088959" d="M63.045,312.214a1.584,1.584,0,0,1-.482.581l-9.889-4.675a2.505,2.505,0,0,1-1.2-3.329c.071.028.128.057.2.085l10.243,4.845a1.955,1.955,0,0,1,1.133,2.494Z" transform="translate(-32.715 -283.811)" fill="#b3b3b3"/>
                <path id="Trazado_1088960" data-name="Trazado 1088960" d="M54.746,297.121a2.767,2.767,0,0,0-.5.751l-1.984,4.222-3.726-1.757a22.88,22.88,0,0,0,3.528-4.477l2.692,1.275Z" transform="translate(-33.838 -287.533)" fill="#4a4a4a" opacity="0.33"/>
              </g>
            </g>
            <g id="Grupo_1218454" data-name="Grupo 1218454" transform="translate(78.858 92.815)">
              <path id="Trazado_1088961" data-name="Trazado 1088961" d="M205.343,424.982v-7.835h-.028l-1.969-.694-.893-.312h0l-5.1-1.813-.255-.085-.723-.255V314.26H99.948v99.713l-.708.255-.255.085-2.2.779-5.809,2.04v44.09H205.357V456.93h0V446.276h0V435.622h0v-10.64h0Z" transform="translate(-90.172 -313.495)" fill="gray" opacity="0.7"/>
              <g id="Grupo_1218453" data-name="Grupo 1218453">
                <g id="Grupo_1218447" data-name="Grupo 1218447" transform="translate(8.982)">
                  <rect id="Rectángulo_420589" data-name="Rectángulo 420589" width="96.426" height="138.901" fill="#fff"/>
                  <rect id="Rectángulo_420590" data-name="Rectángulo 420590" width="65.88" height="3.669" transform="translate(7.438 9.96)" fill="gray"/>
                  <rect id="Rectángulo_420591" data-name="Rectángulo 420591" width="81.649" height="1.828" transform="translate(7.381 21.223)" fill="gray"/>
                  <rect id="Rectángulo_420592" data-name="Rectángulo 420592" width="81.649" height="1.828" transform="translate(7.381 41.469)" fill="gray"/>
                  <rect id="Rectángulo_420593" data-name="Rectángulo 420593" width="81.649" height="1.828" transform="translate(7.381 62.508)" fill="gray"/>
                  <rect id="Rectángulo_420594" data-name="Rectángulo 420594" width="81.649" height="1.828" transform="translate(7.381 83.094)" fill="gray"/>
                  <rect id="Rectángulo_420595" data-name="Rectángulo 420595" width="81.649" height="1.828" transform="translate(7.381 103.921)" fill="gray"/>
                  <rect id="Rectángulo_420596" data-name="Rectángulo 420596" width="64.974" height="3.669" transform="translate(24.114 30.659)" fill="gray"/>
                  <rect id="Rectángulo_420597" data-name="Rectángulo 420597" width="65.88" height="3.669" transform="translate(7.438 51.373)" fill="gray"/>
                  <rect id="Rectángulo_420598" data-name="Rectángulo 420598" width="64.974" height="3.669" transform="translate(24.114 72.072)" fill="gray"/>
                  <rect id="Rectángulo_420599" data-name="Rectángulo 420599" width="65.88" height="3.669" transform="translate(7.438 92.771)" fill="gray"/>
                  <rect id="Rectángulo_420600" data-name="Rectángulo 420600" width="81.649" height="3.669" transform="translate(7.438 113.484)" fill="gray"/>
                  <g id="Grupo_1218442" data-name="Grupo 1218442" transform="translate(76.591 6.177)">
                    <path id="Trazado_1088962" data-name="Trazado 1088962" d="M153.445,318.1a2.429,2.429,0,0,1,1.884.822,2.759,2.759,0,0,1,.723,1.927v6.276a2.73,2.73,0,0,1-.751,1.941,2.472,2.472,0,0,1-1.87.793,2.429,2.429,0,0,1-1.884-.822,2.735,2.735,0,0,1-.723-1.927v-.241h1.8v.283a1.089,1.089,0,0,0,.227.708.859.859,0,0,0,1.275,0,1.064,1.064,0,0,0,.227-.708v-2.309a1.878,1.878,0,0,1-1.318.538,1.984,1.984,0,0,1-1.714-.793,3.255,3.255,0,0,1-.51-1.941v-1.969h0a2.759,2.759,0,0,1,.453-1.431,2.565,2.565,0,0,1,1.133-.949,2.429,2.429,0,0,1,1.02-.2Zm.907,2.777a1.063,1.063,0,0,0-.227-.708.739.739,0,0,0-.638-.283.758.758,0,0,0-.638.283,1.089,1.089,0,0,0-.227.708V323a1.1,1.1,0,0,0,.368.836.7.7,0,0,0,.482.156.777.777,0,0,0,.822-.694,1.705,1.705,0,0,0,.042-.326v-2.1Z" transform="translate(-150.81 -318.072)" fill="gray"/>
                    <path id="Trazado_1088963" data-name="Trazado 1088963" d="M161.071,327.133a2.609,2.609,0,0,1-.808,1.941,2.771,2.771,0,0,1-3.9-.014,2.631,2.631,0,0,1-.808-1.941v-6.276a2.757,2.757,0,0,1,2.749-2.763,2.733,2.733,0,0,1,2.734,2.749V327.1Zm-1.8-6.3a.975.975,0,0,0-.3-.708.992.992,0,0,0-1.417,0,1.02,1.02,0,0,0-.283.708v6.291a1.02,1.02,0,0,0,.283.708.992.992,0,0,0,1.417,0,.975.975,0,0,0,.3-.708Z" transform="translate(-148.83 -318.08)" fill="gray"/>
                  </g>
                  <g id="Grupo_1218443" data-name="Grupo 1218443" transform="translate(76.62 46.881)">
                    <path id="Trazado_1088964" data-name="Trazado 1088964" d="M156.455,355.855a2.609,2.609,0,0,1-.808,1.941,2.7,2.7,0,0,1-1.941.793h-.142a2.609,2.609,0,0,1-1.941-.808,2.641,2.641,0,0,1-.793-1.941v-1.048a2.677,2.677,0,0,1,.708-1.842,2.453,2.453,0,0,1,.708-.553,2.406,2.406,0,0,1-1.077-1.19,2.657,2.657,0,0,1-.2-1.077v-.623a2.685,2.685,0,0,1,.666-1.856,2.466,2.466,0,0,1,1.941-.822h.142a2.5,2.5,0,0,1,1.955.822,2.71,2.71,0,0,1,.666,1.856v.623a2.576,2.576,0,0,1-.638,1.785,2.153,2.153,0,0,1-.638.5,2.854,2.854,0,0,1,1.19,1.318,2.534,2.534,0,0,1,.227,1.091v1.048Zm-1.686-5.88c0-.793-.255-1.275-.737-1.488a1.1,1.1,0,0,0-.4-.071,1.15,1.15,0,0,0-.737.241,1.179,1.179,0,0,0-.326.524,2.66,2.66,0,0,0-.071.793,2.153,2.153,0,0,0,.241,1.077.965.965,0,0,0,.893.439.981.981,0,0,0,.907-.467,1.921,1.921,0,0,0,.227-1.048Zm-.057,5.058a1.634,1.634,0,0,0-.468-1.374.973.973,0,0,0-.609-.17.94.94,0,0,0-.935.581,2.528,2.528,0,0,0-.142.949v.553a1.206,1.206,0,0,0,.354.921,1.032,1.032,0,0,0,1.714-.383,1.219,1.219,0,0,0,.1-.538v-.553Z" transform="translate(-150.83 -346.802)" fill="gray"/>
                    <path id="Trazado_1088965" data-name="Trazado 1088965" d="M161.341,355.863a2.609,2.609,0,0,1-.808,1.941,2.771,2.771,0,0,1-3.9-.014,2.631,2.631,0,0,1-.808-1.941v-6.276a2.757,2.757,0,0,1,2.749-2.763,2.631,2.631,0,0,1,1.941.808,2.7,2.7,0,0,1,.793,1.941v6.276Zm-1.8-6.319a.975.975,0,0,0-.3-.708.952.952,0,0,0-.708-.3.9.9,0,0,0-.694.3.961.961,0,0,0-.283.708v6.291a1.02,1.02,0,0,0,.283.708.944.944,0,0,0,.694.3.975.975,0,0,0,.708-.3.952.952,0,0,0,.3-.708Z" transform="translate(-148.746 -346.81)" fill="gray"/>
                  </g>
                  <g id="Grupo_1218444" data-name="Grupo 1218444" transform="translate(8.047 26.494)">
                    <path id="Trazado_1088966" data-name="Trazado 1088966" d="M108.055,341.445a2.609,2.609,0,0,1-.808,1.941,2.7,2.7,0,0,1-1.941.793h-.142a2.609,2.609,0,0,1-1.941-.808,2.641,2.641,0,0,1-.793-1.941v-1.048a2.677,2.677,0,0,1,.708-1.842,2.454,2.454,0,0,1,.708-.553,2.407,2.407,0,0,1-1.077-1.19,2.657,2.657,0,0,1-.2-1.077V335.1a2.685,2.685,0,0,1,.666-1.856,2.446,2.446,0,0,1,1.941-.822h.142a2.5,2.5,0,0,1,1.955.822,2.71,2.71,0,0,1,.666,1.856v.623a2.576,2.576,0,0,1-.638,1.785,2.35,2.35,0,0,1-.638.5,2.854,2.854,0,0,1,1.19,1.318,2.534,2.534,0,0,1,.227,1.091v1.048Zm-1.672-5.88c0-.793-.255-1.275-.751-1.488a1.1,1.1,0,0,0-.4-.071,1.15,1.15,0,0,0-.737.241,1.215,1.215,0,0,0-.326.51,2.616,2.616,0,0,0-.085.793,2.153,2.153,0,0,0,.241,1.077,1.134,1.134,0,0,0,1.813-.028,1.921,1.921,0,0,0,.227-1.048Zm-.057,5.058a1.634,1.634,0,0,0-.468-1.374.974.974,0,0,0-.609-.17.928.928,0,0,0-.935.581,2.529,2.529,0,0,0-.142.949v.553a1.228,1.228,0,0,0,.354.921,1.032,1.032,0,0,0,1.714-.383,1.219,1.219,0,0,0,.1-.538v-.553Z" transform="translate(-102.43 -332.42)" fill="gray"/>
                    <path id="Trazado_1088967" data-name="Trazado 1088967" d="M109.318,334.248v2.465a1.623,1.623,0,0,1,.723-.567,1.469,1.469,0,0,1,.581-.1,1.915,1.915,0,0,1,1.686.793,3.417,3.417,0,0,1,.468,1.941v2.479a2.874,2.874,0,0,1-.808,2.1,2.606,2.606,0,0,1-1.941.793,2.389,2.389,0,0,1-1.884-.822,2.759,2.759,0,0,1-.723-1.927v-.269l1.658-.128.042.4a1.04,1.04,0,0,0,.553.921.772.772,0,0,0,.312.071q1.063,0,1.063-1.105V338.47a1.1,1.1,0,0,0-.368-.836.742.742,0,0,0-.5-.156.725.725,0,0,0-.68.354,1.244,1.244,0,0,0-.184.666v.312H107.59V332.52h5.072v1.743h-3.344Z" transform="translate(-100.35 -332.378)" fill="gray"/>
                  </g>
                  <g id="Grupo_1218445" data-name="Grupo 1218445" transform="translate(8.033 67.807)">
                    <path id="Trazado_1088968" data-name="Trazado 1088968" d="M107.634,361.58v1.743l-2.437,9.762h-1.7l2.437-9.762H102.42V361.58Z" transform="translate(-102.42 -361.58)" fill="gray"/>
                    <path id="Trazado_1088969" data-name="Trazado 1088969" d="M108.853,363.318v2.465a1.623,1.623,0,0,1,.723-.567,1.469,1.469,0,0,1,.581-.1,1.915,1.915,0,0,1,1.686.793,3.417,3.417,0,0,1,.468,1.941v2.479a2.874,2.874,0,0,1-.808,2.1,2.606,2.606,0,0,1-1.941.793,2.438,2.438,0,0,1-1.9-.822,2.759,2.759,0,0,1-.723-1.927V370.2l1.658-.128.043.4a1.025,1.025,0,0,0,.567.921.772.772,0,0,0,.312.071q1.063,0,1.063-1.105V367.54a1.1,1.1,0,0,0-.368-.836.741.741,0,0,0-.5-.156.725.725,0,0,0-.68.354,1.244,1.244,0,0,0-.184.666v.312h-1.728V361.59H112.2v1.743h-3.344Z" transform="translate(-100.536 -361.576)" fill="gray"/>
                  </g>
                  <g id="Grupo_1218446" data-name="Grupo 1218446" transform="translate(76.605 88.407)">
                    <path id="Trazado_1088970" data-name="Trazado 1088970" d="M156.034,376.23v1.743l-2.437,9.762h-1.7l2.437-9.762H150.82V376.23Z" transform="translate(-150.82 -376.074)" fill="gray"/>
                    <path id="Trazado_1088971" data-name="Trazado 1088971" d="M160.841,385.173a2.609,2.609,0,0,1-.808,1.941,2.771,2.771,0,0,1-3.9-.014,2.632,2.632,0,0,1-.808-1.941v-6.276a2.757,2.757,0,0,1,2.749-2.763,2.733,2.733,0,0,1,2.734,2.749v6.276Zm-1.8-6.319a.975.975,0,0,0-.3-.708.992.992,0,0,0-1.417,0,1.02,1.02,0,0,0-.283.708v6.29a1.02,1.02,0,0,0,.283.708,1.006,1.006,0,0,0,1.714-.708Z" transform="translate(-148.94 -376.12)" fill="gray"/>
                  </g>
                </g>
                <g id="Grupo_1218452" data-name="Grupo 1218452" transform="translate(0 5.88)">
                  <path id="Trazado_1088972" data-name="Trazado 1088972" d="M204.783,390v44.09H90.42V390l4.916-1.658.1-.028S90.378,390.046,90.42,390l8.26-2.9,25.658-9.507.028-.028,5.61,4.109H130l.694.524.241.17.411.312h.043l1.573,1.148,5.738,4.208h.028l1.771-2.366,2.649-3.485.312-.382v-.043l.978-1.247.978-1.289,1.247-1.672,1.289,1.672,1.247,1.672,1.006,1.289v.028l.694.907,3.514,4.633.213.269.142-.1,7.1-5.157.765-.553,1.19-.907,5.214-3.754,35.717,12.439Z" transform="translate(-90.406 -292.996)" fill="#fff"/>
                  <rect id="Rectángulo_420601" data-name="Rectángulo 420601" width="33.861" height="18.56" transform="translate(39.585 65.98)" fill="#fbbc94"/>
                  <path id="Trazado_1088973" data-name="Trazado 1088973" d="M112.64,358a3.6,3.6,0,0,1-2.536-.538c-2.253-1.346-4.222-4.874-4.888-9.28-.893-6.007.949-11.32,4.151-11.9a2.227,2.227,0,0,1,.864-.014,1.533,1.533,0,0,1,.51.071,4.456,4.456,0,0,1,2.012,1.105c1.884,1.643,3.443,4.817,4.024,8.656.921,6.007-.949,11.32-4.137,11.9Z" transform="translate(-84.333 -310.216)" fill="#fbbc94"/>
                  <g id="Grupo_1218448" data-name="Grupo 1218448" transform="translate(39.585 88.662)" opacity="0.14">
                    <path id="Trazado_1088974" data-name="Trazado 1088974" d="M118.435,380.521l-.071-.057-.014-.014h.014Z" transform="translate(-118.35 -380.45)" fill="#4d4d4d"/>
                  </g>
                  <g id="Grupo_1218449" data-name="Grupo 1218449" transform="translate(0 84.554)">
                    <path id="Trazado_1088975" data-name="Trazado 1088975" d="M131.284,382.622l-11.7,4.562L92.209,397.838h-1.8V390h.043a.049.049,0,0,1,.028-.014l.283-.1.368-.128,7.3-2.579.255-.085,25.658-9.507.042-.043,5.6,4.109h.042l.694.524.241.17.34.255Z" transform="translate(-90.41 -377.55)" fill="#ccc"/>
                    <rect id="Rectángulo_420602" data-name="Rectángulo 420602" width="56.275" height="10.654" transform="translate(0.014 30.928)" fill="#878787"/>
                    <rect id="Rectángulo_420603" data-name="Rectángulo 420603" width="56.275" height="4.293" transform="translate(0.014 52.237)" fill="#878787"/>
                    <path id="Trazado_1088976" data-name="Trazado 1088976" d="M146.155,384.34v10.668H91.68l27.372-10.668H137l1.176.864h.042l.638-.864Z" transform="translate(-89.881 -374.72)" fill="#878787"/>
                  </g>
                  <g id="Grupo_1218450" data-name="Grupo 1218450" transform="translate(58.116 84.554)">
                    <path id="Trazado_1088977" data-name="Trazado 1088977" d="M141.51,382.084l12.822,5.086L181.7,397.824h1.8v-7.835h-.042a.049.049,0,0,0-.028-.014l-.283-.1-.368-.128-7.3-2.579-.255-.085-27.471-9.535h0l-4.789,3.471h0l-1.459,1.063h0Z" transform="translate(-127.229 -377.55)" fill="#ccc"/>
                    <rect id="Rectángulo_420604" data-name="Rectángulo 420604" width="56.275" height="10.654" transform="translate(0 30.928)" fill="#878787"/>
                    <rect id="Rectángulo_420605" data-name="Rectángulo 420605" width="56.275" height="4.293" transform="translate(0 52.237)" fill="#878787"/>
                    <path id="Trazado_1088978" data-name="Trazado 1088978" d="M131.43,384.34v10.668h54.475L158.533,384.34h-27.1Z" transform="translate(-131.43 -374.72)" fill="#878787"/>
                  </g>
                  <path id="Trazado_1088979" data-name="Trazado 1088979" d="M159.1,348.172c-.751,4.987-3.174,8.883-5.809,9.705a3.151,3.151,0,0,1-1.615.128c-3.188-.581-5.058-5.894-4.137-11.9.553-3.641,1.983-6.7,3.754-8.387a5.32,5.32,0,0,1,2.012-1.3,3.369,3.369,0,0,1,1.672-.128.268.268,0,0,1,.113.028c3.131.666,4.916,5.922,4.024,11.859Z" transform="translate(-66.697 -310.216)" fill="#fbbc94"/>
                  <rect id="Rectángulo_420606" data-name="Rectángulo 420606" width="7.452" height="56.53" transform="translate(52.548 84.554)" fill="#ccc"/>
                  <path id="Trazado_1088980" data-name="Trazado 1088980" d="M136.721,379.97l-3.542,4.661-4.435,5.837-8-5.837-.708-.524L114.407,380l-.057-.028,4.009-8.26h1.672Z" transform="translate(-80.432 -295.43)" fill="#fff"/>
                  <path id="Trazado_1088981" data-name="Trazado 1088981" d="M152.5,379.97l-5.214,3.8-1.176.864-8,5.837-4.42-5.837-3.542-4.661,16.7-8.26h1.643Z" transform="translate(-73.851 -295.43)" fill="#fff"/>
                  <path id="Trazado_1088982" data-name="Trazado 1088982" d="M132.992,391.436a2.2,2.2,0,1,1-2.2-2.2A2.2,2.2,0,0,1,132.992,391.436Z" transform="translate(-74.493 -288.124)" fill="#fff"/>
                  <path id="Trazado_1088983" data-name="Trazado 1088983" d="M132.992,403.036a2.2,2.2,0,1,1-2.2-2.2A2.2,2.2,0,0,1,132.992,403.036Z" transform="translate(-74.493 -283.289)" fill="#fff"/>
                  <circle id="Elipse_14386" data-name="Elipse 14386" cx="2.196" cy="2.196" r="2.196" transform="translate(54.107 133.971)" fill="#fff"/>
                  <path id="Trazado_1088984" data-name="Trazado 1088984" d="M170.347,354.791a50.1,50.1,0,0,1-1.119,10.739c-3.584,17.228-15.655,29.894-29.979,29.894s-26.593-12.879-30.078-30.305a52.219,52.219,0,0,1-1.02-10.328,51,51,0,0,1,.921-9.747c2.068-15.967,14.21-27.174,30.518-27.174s28.917,11.207,30.574,28.86a15.532,15.532,0,0,1-.1,2.564,53.8,53.8,0,0,1,.283,5.483Z" transform="translate(-83.016 -317.87)" fill="#fbcbad"/>
                  <g id="Grupo_1218451" data-name="Grupo 1218451" transform="translate(39.004 66.447)" opacity="0.68">
                    <path id="Trazado_1088985" data-name="Trazado 1088985" d="M117.94,364.77l16.251,17.582,1.02.51h4.6l10.7,5.143h.014l.368-.269.028.028-.34.241,16.661,2.607,16.024,2.536,3.2.482,3.939.68h0L183.58,391.9l-26-9-.184.128a.044.044,0,0,0-.014-.028l.156-.113.042-.043-4.009-8.246h-1.19v-9.62a30.92,30.92,0,0,1-17.894,5.795c-5.951,0-11.674-2.791-16.548-6.007Z" transform="translate(-117.94 -364.77)" fill="#9fa1ac"/>
                  </g>
                  <path id="Trazado_1088986" data-name="Trazado 1088986" d="M168.644,357.595a3.655,3.655,0,0,0-.425-1.629c-.17-.354.128-1.3.128-1.714v-.028a6.774,6.774,0,0,1,.2-1.615h0a3.53,3.53,0,0,0-.113-1.913c-.014-.042-.482-.638-.51-.694-.553-.2-.482-.439-1.148-.283a5.2,5.2,0,0,0-1.941.751l-.014.014H164.8c-1.431.921-2.352,2.9-3.259,4.548-1.629,2.734-3.811,7.3-8.033,6.021-2.352-.921-3.641-4.009-6.191-5.1-1.643-.737-3.641-.737-5.483-.921-3.457-.184-9.662-.921-12.949.723-2.38,1.275-2.182,4.378-5.455,4.76a6.285,6.285,0,0,1-3.329-.723h0a7.158,7.158,0,0,1-2.139-1.658c-2.04-1.743-3.074-4.378-4.094-6.914h0c-.255-.666-.51-1.332-.765-1.969-2.3.425-3.3,1.516-3.669,2.933h0a6.809,6.809,0,0,0-.128,2.168v.043c.128,2.054.779,4.392.822,6.461,2,3.3,2.38,8.217,5.469,10.782.723-3.1,2.734.893,3.457,2,.142.241.312.453.453.694h0a19.262,19.262,0,0,0,2.607,3.287l.057.043h0a10.753,10.753,0,0,0,2.706,1.983c1.615.907,3.471.737,5.1,1.459,2.182,1.091,4.732,2.734,6.758,4.009,0-.368.184-.737.184-1.275,3.287-.368,3.457,3.1,6.942.354a43.956,43.956,0,0,1,4.845-3.429c.482-.269.992-.524,1.544-.765.623-.3,1.658-.708,2.834-1.261.907-.425,1.913-.893,2.89-1.417,0-.014.028-.028.042-.028h.014c3.287-1.813,6.333-4.194,5.157-6.772,3.1-3.669,5.469-5.483,6.914-10.413a11.849,11.849,0,0,0,.567-2.536Zm-24.227,14.154c-1.7-.6-2.876-3.726-5.115-3.514-1.8.156-1.629,2.706-2.607,3.811a1.047,1.047,0,0,1-.524.283,2.755,2.755,0,0,1-1.275,0,9.651,9.651,0,0,1-2.9-1.105c-2.2-1.459-4.364-5.058-1.7-7.367a7.7,7.7,0,0,1,4.137-1.5c2.564-1.091,3.655-1.063,6.574-.453,1.7.5,3.684.042,5.143.893,1.587.737,3.5,3.117,3.372,5.086-.128,1.686-3.287,4.746-5.115,3.868Z" transform="translate(-82.546 -304.791)" fill="#876756"/>
                  <path id="Trazado_1088987" data-name="Trazado 1088987" d="M132.92,339.263c1.983,5.03,6.73,1.644,8.8.538a17.953,17.953,0,0,1,9.733-2.607c-2.692-1.148-8-.411-10.909,1.119a10.754,10.754,0,0,1-7.622.949Z" transform="translate(-72.693 -310.049)" fill="#876756"/>
                  <path id="Trazado_1088988" data-name="Trazado 1088988" d="M133.052,339.263c-1.983,5.03-6.73,1.644-8.8.538a17.953,17.953,0,0,0-9.733-2.607c2.692-1.148,8-.411,10.909,1.119a10.763,10.763,0,0,0,7.622.949Z" transform="translate(-80.361 -310.049)" fill="#876756"/>
                  <path id="Trazado_1088989" data-name="Trazado 1088989" d="M156.924,340.5a3.9,3.9,0,0,0-2.324-1.629.267.267,0,0,0-.113-.028,3.068,3.068,0,0,0-1.473.071c.156.893.269,1.8.354,2.734a15.472,15.472,0,0,1-.1,2.564c.057.524.1,1.048.142,1.587a10.042,10.042,0,0,0-2.848.538,9.73,9.73,0,0,1-1.658-3.457,13.936,13.936,0,0,1-.368-4.222c.113-2.791,1.686-5.242,2.182-7.934.042-.212.071-.425.1-.623a7.806,7.806,0,0,1,4.534,4.151,16.222,16.222,0,0,1,1.587,6.248Z" transform="translate(-66.193 -312.773)" fill="#876756"/>
                  <path id="Trazado_1088990" data-name="Trazado 1088990" d="M106.354,340.5a3.9,3.9,0,0,1,2.324-1.629.267.267,0,0,1,.113-.028,3.068,3.068,0,0,1,1.473.071c-.156.893-.269,1.8-.354,2.734a14.079,14.079,0,0,0,.113,2.564c-.057.524-.113,1.048-.142,1.587a10.042,10.042,0,0,1,2.848.538,9.73,9.73,0,0,0,1.658-3.457,13.515,13.515,0,0,0,.354-4.222c-.1-2.791-1.686-5.242-2.182-7.934-.042-.212-.071-.425-.1-.623a7.806,7.806,0,0,0-4.534,4.151,16.222,16.222,0,0,0-1.587,6.248Z" transform="translate(-83.771 -312.773)" fill="#876756"/>
                </g>
                <path id="Trazado_1088991" data-name="Trazado 1088991" d="M174.2,350.9v58.187l-.751-.269-1.176-.411-5.993-2.083-1.8-.623-1.983-.68-1.714-.6-2.2-.751h0l-1.558-.538-9.577-3.329-.213.142h0l.156-.128.042-.028-2.664-5.5-.893-1.828-.439-.935h-1.2v-3.754h0a18.167,18.167,0,0,0,3.84-2.664c1.176-1.133,1.828-2.366,1.473-3.655A2.154,2.154,0,0,0,147.4,381c2.352-2.763,4.265-4.491,5.71-7.3a18.592,18.592,0,0,0,.793-1.828c.142-.411.283-.822.425-1.289a11.849,11.849,0,0,0,.567-2.536,3.862,3.862,0,0,0-.411-1.629,1.326,1.326,0,0,1-.043-.553h0c.043-.425.17-.893.17-1.162v-.028c.142-.538.269-1.105.383-1.658a1.935,1.935,0,0,0,.411-.1c1.658-.51,3.259-2.267,4.378-4.746a18.652,18.652,0,0,0,1.431-4.959c.028-.184.057-.368.071-.538a16.382,16.382,0,0,0,.142-1.828,13.874,13.874,0,0,0-1.431-7.141,5.631,5.631,0,0,0-.666-.978,2.07,2.07,0,0,1,.227.269,14.35,14.35,0,0,0-.425-2.947,17.086,17.086,0,0,0-1.162-3.315,7.85,7.85,0,0,0-4.534-4.151,3.013,3.013,0,0,1-.1.623.321.321,0,0,0-.014.057,8.793,8.793,0,0,0-.368-.836c-.269-.623-.567-1.247-.878-1.828a29.3,29.3,0,0,0-4.59-6.418l6.418,6.418,1.828,1.828L174.2,350.91Z" transform="translate(-68.808 -309.356)" fill="#b0b0b6"/>
              </g>
            </g>
            <g id="Grupo_1218458" data-name="Grupo 1218458" transform="translate(210.973 64.338)">
              <path id="Trazado_1088992" data-name="Trazado 1088992" d="M228.078,314.557c-2.437-5.2-4.548-9.677-.368-15.811l.567-.836-5.511-3.131-.638.638h0a7.86,7.86,0,0,1-5.554,2.409c-.156,0-.3,0-.482-.014a1.556,1.556,0,0,1-.354-.028,5.27,5.27,0,0,1-4.321-3.089l-.255-.524h-6.73l-.255.524a5.271,5.271,0,0,1-4.335,3.089,2.811,2.811,0,0,1-.312.028h-.057a7.844,7.844,0,0,1-6.035-2.409l-.6-.623-5.525,3.131.567.836c4.18,6.121,2.069,10.612-.368,15.8-1.629,3.471-3.315,7.07-3.315,11.476,0,.425,0,.822.014,1.233a34.542,34.542,0,0,0,.425,4.576c1.8,7.977,8.671,11.958,14.72,15.471,3.159,1.828,6.135,3.556,7.707,5.554l.723.921.723-.921c1.573-2,4.548-3.726,7.693-5.554,5.993-3.485,12.779-7.424,14.678-15.23l.057-.113V331.8a34.541,34.541,0,0,0,.425-4.718v-1.063c0-4.406-1.686-8-3.315-11.476Z" transform="translate(-183.435 -293.391)" fill="gray" opacity="0.7"/>
              <g id="Grupo_1218457" data-name="Grupo 1218457">
                <path id="Trazado_1088993" data-name="Trazado 1088993" d="M196.489,297.649a8.835,8.835,0,0,1-6.829-2.749h.028a8.947,8.947,0,0,0,6.786,2.749Z" transform="translate(-181.159 -293.087)" fill="#78440f"/>
                <path id="Trazado_1088994" data-name="Trazado 1088994" d="M207.324,297.873a6.242,6.242,0,0,1-5.044-3.613h.071A6.267,6.267,0,0,0,207.324,297.873Z" transform="translate(-175.9 -293.353)" fill="#78440f"/>
                <path id="Trazado_1088995" data-name="Trazado 1088995" d="M228.447,324.942V326a34.5,34.5,0,0,1-.383,4.335l-.042.085v.128c-1.7,7.041-8.118,10.768-13.8,14.055-2.89,1.686-5.653,3.287-7.495,5.185-1.842-1.9-4.6-3.5-7.509-5.185-5.724-3.329-12.227-7.084-13.842-14.21a31.4,31.4,0,0,1-.383-4.279c0-.383-.014-.765-.014-1.176,0-4,1.6-7.4,3.145-10.683,2.352-5.015,4.789-10.2.765-16.789l2.564-1.459a9.73,9.73,0,0,0,7.041,2.564h.028c.156,0,.34-.028.482-.043a7.091,7.091,0,0,0,5.5-3.613h4.463a7.124,7.124,0,0,0,5.483,3.613c.156.014.326.043.5.043h.028a9.692,9.692,0,0,0,7.041-2.564l2.564,1.459c-4.024,6.588-1.587,11.773.765,16.789,1.544,3.287,3.145,6.687,3.145,10.683Z" transform="translate(-183.11 -293.078)" fill="#edac24"/>
                <path id="Trazado_1088996" data-name="Trazado 1088996" d="M227.538,314.007c-2.437-5.2-4.548-9.677-.368-15.811l.567-.836-5.511-3.131-.638.638h0a7.86,7.86,0,0,1-5.554,2.409c-.156,0-.3,0-.482-.014a1.556,1.556,0,0,1-.354-.028,5.3,5.3,0,0,1-4.321-3.089l-.255-.524h-6.73l-.255.524a5.241,5.241,0,0,1-4.335,3.089,2.811,2.811,0,0,1-.312.028h-.057a7.844,7.844,0,0,1-6.036-2.409l-.6-.623-5.525,3.131.567.836c4.18,6.121,2.069,10.612-.368,15.8-1.629,3.471-3.315,7.07-3.315,11.476,0,.425,0,.822.014,1.233a34.541,34.541,0,0,0,.425,4.576c1.8,7.977,8.671,11.958,14.72,15.471,3.159,1.828,6.135,3.556,7.707,5.554l.723.921.723-.921c1.573-2,4.548-3.726,7.693-5.554,5.993-3.485,12.779-7.424,14.678-15.23l.057-.113v-.156a34.538,34.538,0,0,0,.425-4.718v-1.063c0-4.406-1.686-8-3.315-11.476Zm1.445,12.539a34.5,34.5,0,0,1-.383,4.335l-.043.085v.128c-1.7,7.041-8.118,10.768-13.8,14.055-2.89,1.686-5.653,3.287-7.495,5.185-1.842-1.9-4.6-3.5-7.509-5.185-5.724-3.329-12.227-7.084-13.842-14.21a31.4,31.4,0,0,1-.383-4.279c0-.383-.014-.765-.014-1.176,0-4,1.6-7.4,3.145-10.683,2.352-5.015,4.789-10.2.765-16.789l2.564-1.459a9.73,9.73,0,0,0,7.041,2.564h.028c.156,0,.34-.028.482-.043a7.091,7.091,0,0,0,5.5-3.613H209.5a7.124,7.124,0,0,0,5.483,3.613c.156.014.326.043.5.043h.028a9.692,9.692,0,0,0,7.041-2.564l2.564,1.459c-4.024,6.588-1.587,11.773.765,16.789,1.544,3.287,3.145,6.687,3.145,10.683v1.063Z" transform="translate(-183.66 -293.62)" fill="#ffc445"/>
                <path id="Trazado_1088997" data-name="Trazado 1088997" d="M217.438,321.911v1.006c-.113-3.8-1.643-7.07-3.131-10.229-1.544-3.287-3.117-6.645-2.89-10.427.184,3.188,1.544,6.106,2.89,8.954,1.544,3.287,3.145,6.687,3.145,10.683Z" transform="translate(-172.101 -290.019)" fill="#e8e8e8" opacity="0.74"/>
                <path id="Trazado_1088998" data-name="Trazado 1088998" d="M188.111,312.688c-1.473,3.145-3,6.39-3.131,10.158v-.935c0-4,1.6-7.4,3.145-10.683,1.332-2.862,2.706-5.78,2.89-8.968.227,3.783-1.346,7.141-2.89,10.427Z" transform="translate(-183.11 -290.019)" fill="#e8e8e8" opacity="0.74"/>
                <path id="Trazado_1088999" data-name="Trazado 1088999" d="M223.4,297.46c-.227.383-.439.751-.623,1.105l-1.941-1.105a9.692,9.692,0,0,1-7.041,2.564h-.028c-.17,0-.34-.028-.5-.042a7.089,7.089,0,0,1-5.483-3.613h-4.463a7.125,7.125,0,0,1-5.5,3.613,4.693,4.693,0,0,1-.482.042h-.028a9.73,9.73,0,0,1-7.041-2.564l-1.941,1.105c-.184-.368-.4-.737-.623-1.105L190.274,296a9.73,9.73,0,0,0,7.041,2.564h.028c.156,0,.34-.028.482-.043a7.091,7.091,0,0,0,5.5-3.613h4.463a7.124,7.124,0,0,0,5.483,3.613c.156.014.326.043.5.043h.028A9.692,9.692,0,0,0,220.834,296Z" transform="translate(-181.972 -293.082)" fill="#e8e8e8" opacity="0.74"/>
                <g id="Grupo_1218455" data-name="Grupo 1218455" transform="translate(10.158 10.059)">
                  <path id="Trazado_1089000" data-name="Trazado 1089000" d="M190.844,302.1c.808-.213,1.218-.312,2.04-.482,1.2-.269,2.267-.028,2.479,1.176.2,1.176-.652,1.856-1.771,2.1-.3.057-.439.1-.737.17.156.666.227,1.006.383,1.672-.453.1-.68.156-1.148.269-.5-1.955-.751-2.947-1.261-4.9Zm2.479,1.913c.666-.142.935-.482.836-1.006s-.5-.638-1.162-.5c-.269.057-.411.1-.694.156.142.6.212.893.34,1.488.269-.057.411-.1.68-.156Z" transform="translate(-190.83 -300.387)" fill="#ffcb5e"/>
                  <path id="Trazado_1089001" data-name="Trazado 1089001" d="M194.623,303.819a2.481,2.481,0,1,1,4.916-.553,2.476,2.476,0,1,1-4.916.538Zm3.655-.453c-.085-1.006-.623-1.573-1.388-1.488s-1.162.751-1.02,1.757.666,1.587,1.388,1.516S198.363,304.385,198.278,303.365Z" transform="translate(-189.267 -300.659)" fill="#ffcb5e"/>
                  <path id="Trazado_1089002" data-name="Trazado 1089002" d="M198.73,300.762c.51-.028.765-.028,1.289-.042.028,1.658.043,2.479.071,4.137.836-.014,1.247,0,2.083,0,0,.383,0,.581-.028.978-1.289-.028-1.927-.028-3.2.028Z" transform="translate(-187.537 -300.72)" fill="#ffcb5e"/>
                  <path id="Trazado_1089003" data-name="Trazado 1089003" d="M201.993,300.74c.51.014.779.028,1.289.057-.128,2.04-.2,3.074-.34,5.115-.468-.028-.694-.042-1.162-.057.085-2.054.128-3.074.213-5.115Z" transform="translate(-186.266 -300.712)" fill="#ffcb5e"/>
                  <path id="Trazado_1089004" data-name="Trazado 1089004" d="M206.381,301a2.386,2.386,0,0,1,1.558.907c-.326.241-.482.354-.808.609a1.355,1.355,0,0,0-.878-.524c-.779-.1-1.459.453-1.573,1.473-.113,1.048.312,1.714,1.091,1.813a1.331,1.331,0,0,0,1.063-.312c.213.312.326.482.538.793a2.249,2.249,0,0,1-1.743.5,2.479,2.479,0,0,1-2.2-2.89,2.51,2.51,0,0,1,2.947-2.394Z" transform="translate(-185.582 -300.628)" fill="#ffcb5e"/>
                  <path id="Trazado_1089005" data-name="Trazado 1089005" d="M207.625,301.34c1.417.255,2.111.411,3.514.765-.1.383-.142.567-.241.949-.878-.227-1.318-.326-2.2-.51-.085.411-.128.609-.212,1.02.737.156,1.105.241,1.828.425-.1.382-.142.567-.241.949-.723-.17-1.077-.255-1.8-.411-.1.467-.142.694-.241,1.162.864.184,1.289.283,2.139.5-.1.383-.142.567-.241.949-1.289-.34-1.941-.482-3.244-.723.383-2.026.567-3.046.935-5.072Z" transform="translate(-184.22 -300.462)" fill="#ffcb5e"/>
                </g>
                <g id="Grupo_1218456" data-name="Grupo 1218456" transform="translate(9.606 17.78)">
                  <path id="Trazado_1089006" data-name="Trazado 1089006" d="M218.436,329.249a1.558,1.558,0,0,1-3.117,0h-6.758l-3.344,5.78a1.557,1.557,0,1,1-2.338,1.346,1.526,1.526,0,0,1,.779-1.346l-3.344-5.78h-6.758A1.558,1.558,0,1,1,192,327.691a1.462,1.462,0,0,1,.779.213l3.386-5.851-3.386-5.851a1.6,1.6,0,0,1-.779.212,1.558,1.558,0,1,1,1.558-1.558h6.758l3.344-5.78A1.557,1.557,0,1,1,206,307.728a1.542,1.542,0,0,1-.779,1.346l3.344,5.78h6.758a1.558,1.558,0,1,1,1.558,1.558,1.462,1.462,0,0,1-.779-.212l-3.386,5.851L216.1,327.9a1.6,1.6,0,0,1,.779-.213A1.563,1.563,0,0,1,218.436,329.249Z" transform="translate(-190.44 -306.17)" fill="#ffcb5e"/>
                  <path id="Trazado_1089007" data-name="Trazado 1089007" d="M208.828,319.3a6.574,6.574,0,1,1-6.574-6.574A6.579,6.579,0,0,1,208.828,319.3Z" transform="translate(-188.256 -303.436)" fill="#f5ae1f"/>
                </g>
              </g>
            </g>
            <g id="Grupo_1218461" data-name="Grupo 1218461" transform="translate(81.878)">
              <path id="Trazado_1089008" data-name="Trazado 1089008" d="M194.384,276.553a24.177,24.177,0,0,0-21.28-9.025l1.587,2s.028.043.042.071c-.014-.014-.028-.042-.042-.057l-6.248-7.835a1.462,1.462,0,0,0-2.054-.227l-4.6,3.669a8.74,8.74,0,0,0-1.573-2.763,8.491,8.491,0,0,0-4.038-2.692,7.892,7.892,0,0,0-4.095-5.667,8.506,8.506,0,0,0-4.406-1.119c-1.02-2.451-3.854-4.18-7.155-4.137a7.777,7.777,0,0,0-6.574,3.429,8.4,8.4,0,0,0-4.449,1.9,8.023,8.023,0,0,0-3.046,5.738,8.9,8.9,0,0,0-1.941,1.36,8.088,8.088,0,0,0-2.692,5.483l-7.282-2.21a1.465,1.465,0,0,0-1.813.978l-2.168,7.141a24.223,24.223,0,0,0-2.182,45.776h0a2.927,2.927,0,0,0,.482.212c.468.184.949.34,1.431.5a24.244,24.244,0,0,0,25.573-38.82l-.694,2.253,2.848-9.407a1.454,1.454,0,0,0-.978-1.814l-3.924-1.19a8.111,8.111,0,0,0,2.508-5.313,8.7,8.7,0,0,0,1.728-1.105,8.511,8.511,0,0,0,2.154-2.607,11.226,11.226,0,0,0,1.2.071,8.471,8.471,0,0,0,1.714-.2A8.284,8.284,0,0,0,146,264.794a8.981,8.981,0,0,0,2.734.992,8.46,8.46,0,0,0,1.969,4.534,9.011,9.011,0,0,0,2.182,1.87l-4.9,3.91a1.474,1.474,0,0,0-.227,2.054l4.661,5.837a24.224,24.224,0,0,0,36.44,27.8c-.028,0-.042.014-.071.028a2.342,2.342,0,0,0,.51-.312c.425-.283.822-.581,1.218-.893a24.251,24.251,0,0,0,3.854-34.074Zm-50.168-19.877a4.1,4.1,0,0,1,1.983-1.743,4.492,4.492,0,0,1-2.479,3.84A3.891,3.891,0,0,1,144.215,256.676Zm-5.738,2.536a4.672,4.672,0,0,1-3.414-4.18,4.082,4.082,0,0,1,.156-1.105,4.124,4.124,0,0,1,2.536,1.417A4.3,4.3,0,0,1,138.477,259.212Zm-25.842,18.206-1.842-.553a1.429,1.429,0,0,1-.482-.255,1.428,1.428,0,0,0,.482.255Zm-5.752,38.848a2.306,2.306,0,0,1-.043-.439A1.494,1.494,0,0,0,106.883,316.266Zm.694,1.459a1.061,1.061,0,0,1-.1-.113C107.506,317.654,107.549,317.683,107.577,317.725Zm-.241-.3s-.071-.113-.1-.17C107.266,317.314,107.308,317.371,107.336,317.428Zm-.2-.354-.085-.213Zm-.156-.383c-.028-.085-.043-.184-.071-.269A1.887,1.887,0,0,0,106.982,316.691Zm28.052-15.443a18.522,18.522,0,0,1-23.065,12.34c-.283-.085-.581-.17-.864-.283h-.028l-.68-.255a18.506,18.506,0,0,1,3.3-35.306h0a18.323,18.323,0,0,1,8.982.439A18.541,18.541,0,0,1,130.4,282.8h0a18.513,18.513,0,0,1,4.619,18.447Zm-3.174-32.118a4.916,4.916,0,0,1-.524.425l-7.736-2.338a5.846,5.846,0,0,1,1.983-4.86,6.1,6.1,0,0,1,1.048-.779,5.284,5.284,0,0,0,1.02,2.054,6.055,6.055,0,0,0,6.177,1.8,6.184,6.184,0,0,1-1.984,3.712Zm-3.5-8.3a4.454,4.454,0,0,1,4.463,1.133,4.024,4.024,0,0,1,.935,1.785,4.53,4.53,0,0,1-4.633-1.346,4,4,0,0,1-.779-1.573Zm8,1.629a6.216,6.216,0,0,1-.893.609,5.227,5.227,0,0,0-1.261-2.394,6.02,6.02,0,0,0-5.936-1.53,6.053,6.053,0,0,1,2.238-3.825,6.438,6.438,0,0,1,2.749-1.332,4.6,4.6,0,0,0-.1,1.091,6.312,6.312,0,0,0,4.69,5.653,6.431,6.431,0,0,1-1.5,1.743Zm4.335-2.89c-.184,0-.368,0-.553-.014a5.829,5.829,0,0,0-.935-5.4A5.465,5.465,0,0,0,136.1,252.3a5.983,5.983,0,0,1,4.463-1.955,5.638,5.638,0,0,1,5.228,2.862,5.544,5.544,0,0,0-3.244,2.536,5.457,5.457,0,0,0-.581,3.684A6.139,6.139,0,0,1,140.7,259.566Zm3.372.864a6.183,6.183,0,0,0,4.024-5.6,1.917,1.917,0,0,0-.028-.283,6.3,6.3,0,0,1,3.244.836,5.97,5.97,0,0,1,3.018,4,5.331,5.331,0,0,0-5.54,4.775,6.585,6.585,0,0,1-2-.737,6.155,6.155,0,0,1-2.72-3Zm10.229.737a4.121,4.121,0,0,1-.383.978,4.293,4.293,0,0,1-3.329,2.083,4.067,4.067,0,0,1,1.3-2.139A3.938,3.938,0,0,1,154.3,261.167Zm-2.352,8.147a6.319,6.319,0,0,1-1.473-3.4,5.928,5.928,0,0,0,5.1-2.848,5.072,5.072,0,0,0,.581-1.643,6.418,6.418,0,0,1,2.848,1.955,6.266,6.266,0,0,1,1.388,2.862L154.3,271.1a6.383,6.383,0,0,1-2.366-1.771Zm4.123,16.931a1.445,1.445,0,0,1-1.077.312,1.462,1.462,0,0,0,1.077-.312l2.04-1.629-2.026,1.629ZM186.69,312a1.893,1.893,0,0,1-.255-.1C186.52,311.93,186.605,311.973,186.69,312Zm-.4-.17a2.706,2.706,0,0,1-.383-.227C186.039,311.69,186.166,311.76,186.294,311.831Zm1.02.283h0Zm-.439-.071c.071.014.142.028.227.042A1.561,1.561,0,0,1,186.875,312.044Zm1.275.014a.189.189,0,0,0,.071-.014A.128.128,0,0,0,188.15,312.058Zm-.411.057a.965.965,0,0,0,.17-.014C187.852,312.1,187.8,312.115,187.739,312.115Zm-.779-5.979c-.241.184-.482.383-.708.553h-.028c-.2.142-.4.269-.6.425A18.5,18.5,0,0,1,158.44,284.36h0a18.516,18.516,0,0,1,13.644-10.9l.368-.283-.354.283a18.5,18.5,0,0,1,14.862,32.671Z" transform="translate(-92.321 -247.976)" fill="gray" opacity="0.7"/>
              <g id="Grupo_1218460" data-name="Grupo 1218460">
                <g id="Grupo_1218459" data-name="Grupo 1218459" transform="translate(28.729)">
                  <path id="Trazado_1089009" data-name="Trazado 1089009" d="M115.527,257.652c-3.032,2.805-3.6,7.112-1.289,9.62s6.659,2.281,9.691-.51,3.6-7.112,1.289-9.62-6.659-2.281-9.691.524Zm7.325,7.934c-2.267,2.083-5.5,2.267-7.226.383s-1.3-5.086.963-7.169,5.5-2.267,7.226-.383S125.118,263.5,122.851,265.586Z" transform="translate(-112.819 -245.211)" fill="#7a7a7a"/>
                  <path id="Trazado_1089010" data-name="Trazado 1089010" d="M119.151,252.539c-3.188,2.607-4.024,6.886-1.856,9.535s6.517,2.678,9.7.071,4.024-6.886,1.856-9.535S122.338,249.933,119.151,252.539Zm6.843,8.373c-2.38,1.955-5.61,1.927-7.226-.043s-.992-5.157,1.388-7.1,5.61-1.927,7.24.043.992,5.143-1.388,7.1Z" transform="translate(-111.456 -247.211)" fill="#7a7a7a"/>
                  <path id="Trazado_1089011" data-name="Trazado 1089011" d="M128.2,248.21c-4.123.057-7.424,2.89-7.381,6.3s3.443,6.149,7.566,6.078,7.424-2.89,7.381-6.3-3.443-6.149-7.566-6.078Zm.17,10.81c-3.074.043-5.6-1.983-5.639-4.534s2.423-4.647,5.5-4.7,5.6,1.983,5.639,4.534S131.446,258.964,128.372,259.02Z" transform="translate(-109.484 -248.209)" fill="#7a7a7a"/>
                  <path id="Trazado_1089012" data-name="Trazado 1089012" d="M137.2,252.252c-3.6-2.026-7.877-1.247-9.549,1.743s-.128,7.041,3.471,9.067,7.877,1.247,9.549-1.743.127-7.041-3.471-9.067Zm-5.3,9.422c-2.678-1.5-3.839-4.534-2.593-6.758s4.435-2.805,7.112-1.289,3.839,4.534,2.593,6.744-4.435,2.805-7.112,1.289Z" transform="translate(-106.919 -246.994)" fill="#7a7a7a"/>
                  <path id="Trazado_1089013" data-name="Trazado 1089013" d="M143.3,258.7c-2.664-3.159-6.928-3.925-9.549-1.728s-2.593,6.546.071,9.7,6.928,3.924,9.549,1.728S145.965,261.856,143.3,258.7Zm-8.274,6.956c-1.983-2.352-2-5.6-.057-7.226s5.143-1.063,7.112,1.289,2,5.6.057,7.226S137.011,268.005,135.028,265.653Z" transform="translate(-104.905 -245.08)" fill="#7a7a7a"/>
                </g>
                <path id="Trazado_1089014" data-name="Trazado 1089014" d="M132.562,267.956l-2.9,9.592a1.465,1.465,0,0,1-1.813.978l-2.89-.878a18.535,18.535,0,0,0-16.7-5.058l-2.9-.878a1.465,1.465,0,0,1-.978-1.813l2.9-9.592a1.465,1.465,0,0,1,1.813-.978l22.5,6.815A1.465,1.465,0,0,1,132.562,267.956Z" transform="translate(-87.637 -243.6)" fill="#888"/>
                <path id="Trazado_1089015" data-name="Trazado 1089015" d="M99.057,282.948a18.486,18.486,0,0,1,14.083-12.779l-2.89-.864a1.472,1.472,0,0,1-.978-1.813l.751-2.451a24.223,24.223,0,0,0-2.182,45.776,2.881,2.881,0,0,1,1.346-5.426,2.6,2.6,0,0,1,.666.085,18.529,18.529,0,0,1-10.782-22.527Zm8.77,27.868a2.925,2.925,0,0,0,.482.212A4.951,4.951,0,0,1,107.826,310.816Z" transform="translate(-92.541 -241.194)" fill="#4d4d4d"/>
                <path id="Trazado_1089016" data-name="Trazado 1089016" d="M135.931,293.08A24.252,24.252,0,0,1,105.7,309.26c-.482-.156-.963-.3-1.431-.5a2.877,2.877,0,0,1,.85-5.625,2.6,2.6,0,0,1,.666.085c.227.071.453.17.68.255h.028c.283.1.567.184.864.283A18.5,18.5,0,0,0,125.8,272.976l2.89.878a1.449,1.449,0,0,0,1.813-.978l.751-2.437a24.2,24.2,0,0,1,4.661,22.64Z" transform="translate(-88.499 -238.944)" fill="#6f6f6f"/>
                <path id="Trazado_1089017" data-name="Trazado 1089017" d="M122.928,267.951a2.294,2.294,0,0,1-1.842,1.6l-.6,1.983a1.006,1.006,0,0,1-1.247.666.989.989,0,0,1-.666-1.247l.609-1.983a2.185,2.185,0,0,1-.468-.609,2.246,2.246,0,0,1-.17-1.743,2.295,2.295,0,0,1,4.392,1.332Z" transform="translate(-81.744 -241.215)" fill="#6f6f6f"/>
                <path id="Trazado_1089018" data-name="Trazado 1089018" d="M106.6,296.043a1.736,1.736,0,1,1-1.728-1.743A1.738,1.738,0,0,1,106.6,296.043Z" transform="translate(-88.128 -228.999)" fill="#515151"/>
                <path id="Trazado_1089019" data-name="Trazado 1089019" d="M151.9,257.509l6.248,7.835a1.458,1.458,0,0,1-.227,2.04l-2.366,1.884a18.516,18.516,0,0,0-13.644,10.9l-2.366,1.884a1.477,1.477,0,0,1-2.054-.227l-6.248-7.835a1.477,1.477,0,0,1,.227-2.054l18.39-14.65a1.477,1.477,0,0,1,2.054.227Z" transform="translate(-76.543 -244.559)" fill="#888"/>
                <path id="Trazado_1089020" data-name="Trazado 1089020" d="M143.317,292.283a18.5,18.5,0,0,1-2.522-18.843l-2.366,1.884a1.475,1.475,0,0,1-2.054-.227l-1.6-2a24.224,24.224,0,0,0,36.44,27.8,2.881,2.881,0,0,1-3.7-4.194,2.517,2.517,0,0,1,.453-.5A18.534,18.534,0,0,1,143.3,292.3Zm27.925,8.6a2.331,2.331,0,0,0,.439-.283C171.539,300.7,171.383,300.784,171.241,300.883Z" transform="translate(-75.455 -237.835)" fill="#4d4d4d"/>
                <path id="Trazado_1089021" data-name="Trazado 1089021" d="M170.6,270.518a24.252,24.252,0,0,1-3.854,34.074,14.9,14.9,0,0,1-1.218.893,2.885,2.885,0,0,1-4.151-3.91,2.518,2.518,0,0,1,.453-.5l.6-.425h.028a8.663,8.663,0,0,0,.708-.553A18.5,18.5,0,0,0,148.3,267.43l2.366-1.884a1.461,1.461,0,0,0,.227-2.054l-1.587-2a24.177,24.177,0,0,1,21.28,9.025Z" transform="translate(-69.302 -242.72)" fill="#6f6f6f"/>
                <path id="Trazado_1089022" data-name="Trazado 1089022" d="M146.809,260.735a2.292,2.292,0,0,1,.269,2.423l1.3,1.629a1.007,1.007,0,0,1-.156,1.4.993.993,0,0,1-1.4-.156l-1.289-1.629a2.321,2.321,0,0,1-.765.043,2.216,2.216,0,0,1-1.53-.85,2.289,2.289,0,0,1,.354-3.23,2.255,2.255,0,0,1,1.686-.482A2.3,2.3,0,0,1,146.809,260.735Z" transform="translate(-71.623 -243.35)" fill="#6f6f6f"/>
                <path id="Trazado_1089023" data-name="Trazado 1089023" d="M160.73,289.912a1.731,1.731,0,1,1-2.409.439A1.718,1.718,0,0,1,160.73,289.912Z" transform="translate(-65.255 -230.958)" fill="#515151"/>
              </g>
            </g>
            <g id="Grupo_1218465" data-name="Grupo 1218465" transform="translate(204.314 151.399)">
              <path id="Trazado_1089024" data-name="Trazado 1089024" d="M239.217,431.418c-.694-8.316-1.842-19.736-3.032-21.918-1.8-3.287-13.049-6.6-17.738-7.849l-2.9-1.828-.085.071a22.1,22.1,0,0,1-.227-4.562h0v-.156a16.145,16.145,0,0,0,4.8-5.823,24.833,24.833,0,0,0,1.828-5.37c.992.581,2.607.808,2.352-1.2-.368-2.933,1.558-5.823.737-7.948a.934.934,0,0,0-.482-.6c0-1.318-.014-2.564-.057-3.74,2.734-2.012,4.491-3.528,3.57-4.675-.992-1.218-5.922-5.7-5.44-7.041.241-.652-2.635-1.275-5.738-1.813a32.459,32.459,0,0,0-7.509-1.346,31.048,31.048,0,0,0-7.906,1.488c-2.763.5-5.129,1.077-4.916,1.658.5,1.346-4.449,5.809-5.44,7.041-.864,1.077.652,2.508,3.145,4.35-.057,1.346-.071,2.791-.071,4.335a1.278,1.278,0,0,0-.156.312c-.822,2.111,1.105,5,.737,7.948-.255,1.983,1.318,1.785,2.309,1.233a33.518,33.518,0,0,0,1.813,5.341,15.686,15.686,0,0,0,4.874,5.908,21.14,21.14,0,0,1-.227,4.647l-.085-.071-2.324,1.615c-4.066,1.063-16.6,4.576-18.517,8.061-1.2,2.182-2.338,13.6-3.032,21.918h59.689Z" transform="translate(-178.735 -354.841)" fill="gray" opacity="0.7"/>
              <g id="Grupo_1218464" data-name="Grupo 1218464">
                <path id="Trazado_1089025" data-name="Trazado 1089025" d="M209.712,382.26H197.938a22.484,22.484,0,0,1-6.758,18.673l12.085,14.593H204.4l12.085-14.593a22.493,22.493,0,0,1-6.758-18.673Z" transform="translate(-173.867 -343.738)" fill="#fbcbad"/>
                <path id="Trazado_1089026" data-name="Trazado 1089026" d="M208.169,382.26H196.4a21.792,21.792,0,0,1-1.516,10.867c4.916-1.913,8.827-5.965,13.162-9.677a9.866,9.866,0,0,1,.128-1.19Z" transform="translate(-172.325 -343.738)" fill="#fbbc94"/>
                <path id="Trazado_1089027" data-name="Trazado 1089027" d="M235.631,395.567c-2.3-4.165-19.792-8.387-19.792-8.387v.071l-.227-.071a19.712,19.712,0,0,1,.042,2.054c-.071-.255-.156-.51-.227-.751l-6.461,3.57-6.574-3.57c-.113.439-.255.893-.411,1.346a20.2,20.2,0,0,1,.028-2.635l-.227.071v-.071s-17.5,4.208-19.792,8.387c-1.2,2.182-2.338,13.6-3.032,21.918h59.689c-.694-8.316-1.842-19.736-3.032-21.918Zm-26.777,17.908h.241c-.071.184-.113.3-.113.3S208.925,413.66,208.854,413.475Z" transform="translate(-178.96 -341.687)" fill="#6b6b6b"/>
                <path id="Trazado_1089028" data-name="Trazado 1089028" d="M212.483,356.614a30.179,30.179,0,0,0-8.019-1.544,30.179,30.179,0,0,0-8.019,1.544c-7.07,3.074-7.155,9.039-7.155,18.347h30.362c0-9.294-.085-15.273-7.155-18.347Z" transform="translate(-174.655 -355.07)" fill="#3c3c3c"/>
                <path id="Trazado_1089029" data-name="Trazado 1089029" d="M201.224,395.944l-2.975,21.337h7.608l-2.791-21.238s6.376-5.143,5.511-8.373l-6.461,3.57-6.574-3.57c-.864,3.216,5.7,8.274,5.7,8.274Z" transform="translate(-172.081 -341.483)" fill="#2b2b2b"/>
                <path id="Trazado_1089030" data-name="Trazado 1089030" d="M220.23,372.6c-.453-1.176-1.247-.567-1.87.213.184-9.1-4.619-13.7-4.619-13.7H195.719s-4.831,4.6-4.675,13.644c-.609-.737-1.374-1.275-1.813-.142-.822,2.111,1.105,5,.737,7.948-.255,1.983,1.318,1.785,2.309,1.233a33.518,33.518,0,0,0,1.813,5.341c1.884,4.378,7.3,8.373,10.612,8.373s8.642-4.024,10.612-8.373a24.833,24.833,0,0,0,1.828-5.37c.992.581,2.607.808,2.352-1.2-.368-2.933,1.558-5.823.737-7.948Z" transform="translate(-174.765 -353.386)" fill="#fbcbad"/>
                <path id="Trazado_1089031" data-name="Trazado 1089031" d="M193.57,381.012c-.652-5.61-1.2-18.73,7.2-22.385L198.2,357.38S190.694,358.9,190,370.5l2.012,12.241h.014a1.545,1.545,0,0,0,1.544-1.728Z" transform="translate(-174.359 -354.107)" fill="#3c3c3c"/>
                <path id="Trazado_1089032" data-name="Trazado 1089032" d="M211.285,382.72h.085l2-12.17c-.694-11.6-8.2-13.119-8.2-13.119l-2.564,1.247c8.387,3.655,7.849,16.761,7.2,22.371a1.5,1.5,0,0,0,1.488,1.672Z" transform="translate(-169.107 -354.086)" fill="#3c3c3c"/>
                <g id="Grupo_1218462" data-name="Grupo 1218462" transform="translate(11.3 0.113)">
                  <path id="Trazado_1089033" data-name="Trazado 1089033" d="M224.132,365.237c-.992-1.218-5.922-5.7-5.44-7.041s-12.255-2.593-12.978-3.046H205.6c-.723.453-13.474,1.7-12.978,3.046s-4.449,5.809-5.44,7.041,1.119,2.89,4.194,5.129c2.692,1.941,11.915,1.048,14.267.779,2.352.269,11.575,1.162,14.267-.779,3.089-2.238,5.185-3.91,4.194-5.129Z" transform="translate(-186.935 -355.15)" fill="#6b6b6b"/>
                  <path id="Trazado_1089034" data-name="Trazado 1089034" d="M216.164,364.542c0-2.139-5.469-3.882-12.227-3.882s-12.227,1.743-12.227,3.882-4.888,7.041,12.227,3.882C221.052,371.583,216.164,366.681,216.164,364.542Z" transform="translate(-185.215 -352.854)" fill="#424242"/>
                  <path id="Trazado_1089035" data-name="Trazado 1089035" d="M215.974,367.217c0,2.139-5.469,3.882-12.227,3.882s-12.227-1.743-12.227-3.882,5.469-2.607,12.227-2.607S215.974,365.078,215.974,367.217Z" transform="translate(-185.025 -351.207)" fill="#6b6b6b"/>
                  <path id="Trazado_1089036" data-name="Trazado 1089036" d="M202.939,357.6a1.126,1.126,0,0,0-1.289-.878,3.883,3.883,0,0,1-.68.057,3.775,3.775,0,0,1-.68-.057,1.136,1.136,0,0,0-1.289.893,9.922,9.922,0,0,1-.609,1.913.8.8,0,0,0,.368,1.034,6.606,6.606,0,0,1,1.459.935,1.127,1.127,0,0,0,1.5.043,5.345,5.345,0,0,1,1.2-.822,1.2,1.2,0,0,0,.553-1.459,10.661,10.661,0,0,1-.5-1.643Z" transform="translate(-182.191 -354.5)" fill="#f4b73d"/>
                </g>
                <g id="Grupo_1218463" data-name="Grupo 1218463" transform="translate(43.127 61.715)">
                  <path id="Trazado_1089037" data-name="Trazado 1089037" d="M214.472,401.166a2.536,2.536,0,1,1-2.536-2.536A2.521,2.521,0,0,1,214.472,401.166Z" transform="translate(-209.4 -398.63)" fill="#f4b73d"/>
                  <path id="Trazado_1089038" data-name="Trazado 1089038" d="M213.565,400.958a1.828,1.828,0,1,1-1.828-1.828A1.832,1.832,0,0,1,213.565,400.958Z" transform="translate(-209.187 -398.422)" fill="#ef8c28"/>
                  <path id="Trazado_1089039" data-name="Trazado 1089039" d="M211.554,399.55l.368.765.836.113-.609.581.142.836-.737-.4-.751.4.142-.836-.6-.581.822-.113Z" transform="translate(-209.004 -398.247)" fill="#f4b73d"/>
                </g>
                <path id="Trazado_1089040" data-name="Trazado 1089040" d="M217.533,370.731H215c-.609-1.785-2.734-1.615-4.8-1.5a5.711,5.711,0,0,0-4.095,1.5h-3.91a5.617,5.617,0,0,0-4.094-1.5c-2.069-.1-4.208-.283-4.817,1.5H190.6l.2,1.233h2.324a6.542,6.542,0,0,0,.085.992c.34,2.224,1.573,4.08,4.279,4.08,2.168,0,5.511-1.828,5.511-4.08a3.725,3.725,0,0,0-.142-.992h2.593a3.725,3.725,0,0,0-.142.992c0,2.253,3.4,4.08,5.511,4.08,2.706,0,3.939-1.856,4.279-4.08a9.079,9.079,0,0,0,.085-.992h2.168l.213-1.233Z" transform="translate(-174.109 -349.196)" fill="#2b2b2b"/>
                <path id="Trazado_1089041" data-name="Trazado 1089041" d="M200.15,391.838l3.542,4.8,5.653-8.373-3.174-2Z" transform="translate(-170.128 -342.066)" fill="#454545"/>
                <path id="Trazado_1089042" data-name="Trazado 1089042" d="M202.884,391.838l-3.528,4.8-5.766-8.161,3.174-2.21Z" transform="translate(-172.862 -342.066)" fill="#454545"/>
              </g>
            </g>
            <g id="Grupo_1218467" data-name="Grupo 1218467" transform="translate(0 157.958)">
              <path id="Trazado_1089043" data-name="Trazado 1089043" d="M35.29,360.25v71.873h65.5V421.4H100.7V370.975h.085V360.25H35.29Zm52.8,50.438a17.584,17.584,0,0,0-8.43-2.834V395.981a12.414,12.414,0,0,0,.68-7.24,12.03,12.03,0,0,0-.68-2.239V370.975h8.43v39.712ZM77.538,383.046a12.241,12.241,0,0,0-6.73-4,14.033,14.033,0,0,0-1.7-.241v-7.835h8.43v12.071Zm-15.7,19V407.8h-3.3v-8.515A12.655,12.655,0,0,0,61.841,402.045Zm15.7,5.766H74.351v-5.752a12.713,12.713,0,0,0,3.188-2.635v8.387ZM66.983,378.824a12.458,12.458,0,0,0-8.43,4.392V370.975h8.43Zm-10.569,7.991c-.043.128-.1.255-.142.368a.085.085,0,0,1-.014.057c-.1.269-.17.553-.241.822-.014.057-.028.128-.043.184-.071.3-.142.6-.2.907v.071c-.043.283-.085.567-.113.85,0,.085-.014.156-.014.241-.028.312-.043.623-.043.949a12.373,12.373,0,0,0,.822,4.42v12.17a17.659,17.659,0,0,0-8.43,2.9V370.975h8.43v15.84Zm-18.985-15.84h8.43V412.43a17.687,17.687,0,0,0-5.3,8.968H37.429ZM98.578,421.4H95.645a17.747,17.747,0,0,0-5.412-9.067V370.975h8.345Z" transform="translate(-34.525 -359.471)" fill="gray" opacity="0.7"/>
              <g id="Grupo_1218466" data-name="Grupo 1218466">
                <path id="Trazado_1089044" data-name="Trazado 1089044" d="M94.172,419.52a17.71,17.71,0,0,0-17.724-17.71H72.4v-5.752a12.5,12.5,0,1,0-12.51,0v5.752H55.834A17.719,17.719,0,0,0,38.11,419.52Z" transform="translate(-33.35 -354.249)" fill="#454545"/>
                <path id="Trazado_1089045" data-name="Trazado 1089045" d="M71.934,401.7H67.882v-5.795c4.392-2.55,6.687-7.2,5.908-12.921-1.02-7.438-6.687-8.614-11.093-9.847a12.449,12.449,0,0,0-2.791,22.768v5.752H55.854A17.719,17.719,0,0,0,38.13,419.37H87.264c0-9.79-5.525-17.667-15.315-17.667Z" transform="translate(-33.341 -354.098)" fill="#6b6b6b"/>
                <rect id="Rectángulo_420607" data-name="Rectángulo 420607" width="2.125" height="51.656" transform="translate(0 10.725)" fill="#fff"/>
                <rect id="Rectángulo_420608" data-name="Rectángulo 420608" width="2.125" height="51.656" transform="translate(10.555 10.725)" fill="#fff"/>
                <rect id="Rectángulo_420609" data-name="Rectángulo 420609" width="2.125" height="51.656" transform="translate(21.11 10.725)" fill="#fff"/>
                <rect id="Rectángulo_420610" data-name="Rectángulo 420610" width="2.125" height="51.656" transform="translate(31.679 10.725)" fill="#fff"/>
                <rect id="Rectángulo_420611" data-name="Rectángulo 420611" width="2.125" height="51.656" transform="translate(42.234 10.725)" fill="#fff"/>
                <rect id="Rectángulo_420612" data-name="Rectángulo 420612" width="2.125" height="51.656" transform="translate(52.804 10.725)" fill="#fff"/>
                <rect id="Rectángulo_420613" data-name="Rectángulo 420613" width="2.125" height="51.656" transform="translate(63.274 10.725)" fill="#fff"/>
                <rect id="Rectángulo_420614" data-name="Rectángulo 420614" width="65.498" height="8.359" transform="translate(0 2.38)" fill="#876756"/>
                <rect id="Rectángulo_420615" data-name="Rectángulo 420615" width="65.498" height="8.359" fill="#b08b6d"/>
                <rect id="Rectángulo_420616" data-name="Rectángulo 420616" width="65.498" height="8.359" transform="translate(0 63.529)" fill="#876756"/>
                <rect id="Rectángulo_420617" data-name="Rectángulo 420617" width="65.498" height="8.359" transform="translate(0 61.148)" fill="#b08b6d"/>
              </g>
            </g>
          </g>
          <g id="Grupo_1218471" data-name="Grupo 1218471" transform="translate(0 23.188)">
            <g id="Grupo_1218469" data-name="Grupo 1218469" transform="translate(259.42 88.63)" opacity="0.65">
              <rect id="Rectángulo_420618" data-name="Rectángulo 420618" width="2.451" height="24.043" transform="translate(21.22 16.121) rotate(-30.96)" fill="#e5f0f6"/>
              <path id="Trazado_1089046" data-name="Trazado 1089046" d="M1.034,0H4.42A1.04,1.04,0,0,1,5.455,1.034v.085A1.04,1.04,0,0,1,4.42,2.154H1.034A1.04,1.04,0,0,1,0,1.119V1.034A1.04,1.04,0,0,1,1.034,0Z" transform="matrix(0.857, -0.515, 0.515, 0.857, 32.689, 38.136)" fill="#e5f0f6"/>
              <path id="Trazado_1089047" data-name="Trazado 1089047" d="M1.034,0H4.42A1.04,1.04,0,0,1,5.455,1.034v.085A1.031,1.031,0,0,1,4.42,2.154H1.034A1.04,1.04,0,0,1,0,1.119V1.034A1.04,1.04,0,0,1,1.034,0Z" transform="matrix(0.857, -0.515, 0.515, 0.857, 18.334, 14.178)" fill="#e5f0f6"/>
              <rect id="Rectángulo_420619" data-name="Rectángulo 420619" width="12.624" height="7.056" transform="translate(10.95 8.901) rotate(-30.96)" fill="#e5f0f6"/>
              <path id="Trazado_1089048" data-name="Trazado 1089048" d="M230.851,334.893a1.131,1.131,0,0,0,1.558.382h.014a1.151,1.151,0,0,0,.383-1.573l-3.613-6.021a1.131,1.131,0,0,0-1.558-.383h-.014a1.151,1.151,0,0,0-.383,1.573Z" transform="translate(-204.365 -327.133)" fill="#e5f0f6"/>
              <path id="Trazado_1089049" data-name="Trazado 1089049" d="M220.3,341.223a1.131,1.131,0,0,0,1.558.383h.014a1.151,1.151,0,0,0,.383-1.573l-3.613-6.021a1.131,1.131,0,0,0-1.558-.383h-.014a1.151,1.151,0,0,0-.383,1.573Z" transform="translate(-208.762 -324.495)" fill="#e5f0f6"/>
              <path id="Trazado_1089050" data-name="Trazado 1089050" d="M213.27,350.313h12.723c0-.723-1.091-1.3-2.423-1.3h-7.863c-1.346,0-2.423.581-2.423,1.289Z" transform="translate(-210.118 -318.015)" fill="#e5f0f6"/>
              <path id="Trazado_1089051" data-name="Trazado 1089051" d="M226.625,350.334H213.505c-.708,0-1.275.793-1.275,1.771h0l15.67.014h0c0-.992-.567-1.8-1.275-1.8Z" transform="translate(-210.551 -317.469)" fill="#e5f0f6"/>
              <rect id="Rectángulo_420620" data-name="Rectángulo 420620" width="15.67" height="1.133" transform="translate(1.679 35.217)" fill="#e5f0f6"/>
              <path id="Trazado_1089052" data-name="Trazado 1089052" d="M217.3,342.1v4.236a.638.638,0,1,0,1.275,0V342.1a.638.638,0,1,0-1.275,0Z" transform="translate(-208.438 -321.162)" fill="#e5f0f6"/>
              <path id="Trazado_1089053" data-name="Trazado 1089053" d="M224.76,344.116l-3,3a.633.633,0,0,0,0,.907.646.646,0,0,0,.907,0l3-3a.641.641,0,0,0-.907-.907Z" transform="translate(-206.66 -320.135)" fill="#e5f0f6"/>
              <path id="Trazado_1089054" data-name="Trazado 1089054" d="M215.147,348.327a.633.633,0,0,0,0-.907l-3-3a.641.641,0,0,0-.907.907l3,3A.633.633,0,0,0,215.147,348.327Z" transform="translate(-211.045 -320.01)" fill="#e5f0f6"/>
            </g>
            <g id="Grupo_1218470" data-name="Grupo 1218470" transform="translate(0 88.625)" opacity="0.65">
              <path id="Trazado_1089055" data-name="Trazado 1089055" d="M27.94,360.9H31.3V328.98H27.94V360.9Zm.581-28.832H30.8v1.6H28.521Zm0,2.621H30.8v1.6H28.521Zm0,19.4H30.8v1.6H28.521Zm0,2.607H30.8v1.6H28.521Z" transform="translate(-27.94 -326.359)" fill="#ba9c5a"/>
              <path id="Trazado_1089056" data-name="Trazado 1089056" d="M34.49,357.5l2.692-1.814L39.86,357.5v-5.27H34.49Z" transform="translate(-25.21 -316.669)" fill="#ba9c5a"/>
              <rect id="Rectángulo_420621" data-name="Rectángulo 420621" width="5.37" height="1.544" transform="translate(9.28)" fill="#ba9c5a"/>
              <path id="Trazado_1089057" data-name="Trazado 1089057" d="M30.86,328.98V360.9H56.985V328.98H30.86ZM55.6,357.5a1.7,1.7,0,0,0-1.7,1.7H33.878a1.7,1.7,0,0,0-1.7-1.7V332.182a1.7,1.7,0,0,0,1.7-1.7H53.9a1.7,1.7,0,0,0,1.7,1.7Z" transform="translate(-26.723 -326.359)" fill="#ba9c5a"/>
              <path id="Trazado_1089058" data-name="Trazado 1089058" d="M48.892,333.42H36.084A2.194,2.194,0,0,1,34.2,335.3v5.086a2.194,2.194,0,0,1,1.884,1.884H48.892a2.194,2.194,0,0,1,1.884-1.884V335.3A2.194,2.194,0,0,1,48.892,333.42ZM39.4,339.625H36.963v-3.91h.893v3.174h1.558v.737Zm2.89,0-.3-1.006H40.873l-.283,1.006h-.921l1.19-3.91h1.162l1.218,3.91Zm4.817,0h-.963l-.326-1.686c-.071-.4-.142-.765-.184-1.2h0c-.071.439-.128.808-.227,1.2l-.368,1.686h-.963l-.935-3.91h.949l.3,1.615c.085.468.17.963.227,1.36h0c.071-.425.156-.893.255-1.374l.326-1.6h.935l.312,1.643c.085.453.156.878.213,1.318h0c.057-.439.142-.893.227-1.36l.326-1.6H48.1l-1.006,3.91Z" transform="translate(-25.331 -324.508)" fill="#ba9c5a"/>
              <path id="Trazado_1089059" data-name="Trazado 1089059" d="M39.411,335.51h0c-.057.227-.113.524-.184.751L39,337.1h.864l-.241-.836c-.071-.227-.142-.524-.2-.751Z" transform="translate(-23.33 -323.637)" fill="#ba9c5a"/>
              <path id="Trazado_1089060" data-name="Trazado 1089060" d="M52.759,330.6H33.845a1.614,1.614,0,0,1-1.615,1.615V356.13a1.614,1.614,0,0,1,1.615,1.615H52.759a1.614,1.614,0,0,1,1.615-1.615V332.215A1.614,1.614,0,0,1,52.759,330.6Zm-.581,11.518h-.283a1.614,1.614,0,0,0-1.615,1.615v.283H36.353v-.283a1.614,1.614,0,0,0-1.615-1.615h-.283v-6.206h.283a1.614,1.614,0,0,0,1.615-1.615v-.283H50.28v.283a1.614,1.614,0,0,0,1.615,1.615h.283Z" transform="translate(-26.152 -325.684)" fill="#ba9c5a"/>
            </g>
            <path id="Trazado_1089061" data-name="Trazado 1089061" d="M227.483,296.785,212.2,281.5a.7.7,0,0,0-1.006,0l-.737.737-1.7-1.7a9.633,9.633,0,0,0-.411-13.19,9.772,9.772,0,0,0-13.629,0,9.443,9.443,0,0,0-1.828,2.564h0c-2.38,0-4.661.5-6.234,2.437a7.089,7.089,0,0,0-1.2,6.007,12.287,12.287,0,0,0,3.783,6.347c1.714,1.658,3.769,3.117,6.22,3.2.666.028.652-1.006,0-1.02-2.111-.071-3.882-1.374-5.37-2.777a11.8,11.8,0,0,1-3.485-5.341,6.411,6.411,0,0,1,.68-5.54c1.247-1.728,3.174-2.21,5.171-2.267a9.933,9.933,0,0,0-.411,1.544h-.057a4.5,4.5,0,0,0-4.038,2.819,6.356,6.356,0,0,0,1.119,5.582,11.508,11.508,0,0,0,4.364,4.165,6.766,6.766,0,0,0,5.355-.085c1.473-.68.878-1.7-.113-1.091a5.76,5.76,0,0,1-4.562.354,9.236,9.236,0,0,1-3.754-3.287,6.418,6.418,0,0,1-1.615-4.562,3.358,3.358,0,0,1,3.174-2.848,10.443,10.443,0,0,0,0,1.332,3,3,0,0,0-.978.666c-1.19,1.218-.694,2.919,0,4.265.312.581,1.19.071.878-.51-.524-.992-1.034-2.38.057-3.2a1.179,1.179,0,0,1,.17-.113,9.424,9.424,0,0,0,.737,2.267,2.935,2.935,0,0,0,1.247,2.734,1.968,1.968,0,0,0,.963.283,9.45,9.45,0,0,0,1.19.949,3.288,3.288,0,0,1-2.55-.623c-.553-.368-1.063.51-.51.878a4.175,4.175,0,0,0,4.165.368,9.633,9.633,0,0,0,10.626-1.417l1.7,1.7-.737.737a.7.7,0,0,0,0,1.006l4.477,4.477h-2.182v3.57h-3.57v-3.57h-3.57v3.57h-3.57v-3.57h-3.57v3.57h-3.57v-3.57h-3.57v3.57h-3.57v-3.57H182.6v3.57h-3.57v-3.57H177.4v6.347h40.917v-1.388l5.851,5.851a.7.7,0,0,0,1.006,0l2.324-2.324a.7.7,0,0,0,0-1.006Zm-30.05-15.117a8.39,8.39,0,0,1-1.615-1.148c.283-1.162-.907-2.224-1.643-3.046a.751.751,0,0,0-.652-.269,7.024,7.024,0,0,1-.383-1.318,1.742,1.742,0,0,1,.354.071,5.754,5.754,0,0,1,2.38,1.771c1.048,1.119,2.026,2.55,1.573,3.939Zm6.191.779a7.011,7.011,0,0,0-.156-2.012,12.685,12.685,0,0,0-6.631-8.189c-.963-.524-1.828.949-.864,1.473,2.947,1.6,6.347,5.54,5.993,8.968a8.3,8.3,0,0,1-2.947-.354,5.647,5.647,0,0,0,.212-.779c.383-1.9-.779-3.514-2-4.845-1.133-1.247-2.55-2.494-4.293-2.55a8.4,8.4,0,0,1,.17-1.686.918.918,0,0,0,.354-1.233,8.064,8.064,0,0,1,.779-1.615,18.413,18.413,0,0,1,8.968,5.355,12.93,12.93,0,0,1,3.131,6.22,8.4,8.4,0,0,1-2.72,1.233Zm4.236-2.522h0a14.37,14.37,0,0,0-1.9-4.222,19.478,19.478,0,0,0-10.541-7.551c.014-.028.042-.043.057-.071a8.421,8.421,0,0,1,2.409-1.686,27.536,27.536,0,0,1,8.132,5.724c.765.793,1.969-.411,1.2-1.2a28.206,28.206,0,0,0-6.985-5.242h0a8.57,8.57,0,0,1,7.622,14.253Zm6.886,12.949v-2.182l2.182,2.182Z" transform="translate(34.352 -264.576)" fill="#e5f0f6" opacity="0.65"/>
            <path id="Trazado_1089062" data-name="Trazado 1089062" d="M99.35,284.817a6.4,6.4,0,0,0-2.706-3.216v-1.02h0a2.079,2.079,0,0,0,1.813-2.054v-9.9a.751.751,0,0,0-1.5,0v5.242a2.361,2.361,0,0,0-.553-.071h-.028v-6.3a.751.751,0,0,0-1.5,0v6.3h-.581v-7.254a.756.756,0,0,0-.751-.751h-.071a.754.754,0,0,0-.68.751v7.254H92.21v-6.5a.756.756,0,0,0-.751-.751h0a.756.756,0,0,0-.751.751v6.5a3.2,3.2,0,0,0-.468.028v-3.429a.859.859,0,0,0-.864-.864h-.907v9.011a2.054,2.054,0,0,0,1.813,2.04h0v.864a6.411,6.411,0,0,0-1.9,1.53,6.731,6.731,0,0,0-1.332,2.564c-.028,0-.043.014-.071.028l-2.239.864a1.184,1.184,0,0,0-.68.652,1.225,1.225,0,0,0-.028.949l.723,1.884a1.863,1.863,0,0,0-1.148-.3,1.933,1.933,0,0,0-1.8,2.054l.142,2.2a1.909,1.909,0,0,0-1.119,1.148l-.765,2.182a1.878,1.878,0,0,0-.949.227l-2.437,1.318s-.1.071-.156.113a1.861,1.861,0,0,0-1.2-.425H73.352v-2.777a1.934,1.934,0,0,0-1.388-1.842v-2.437a1.925,1.925,0,0,0-3.018-1.587l.383-1.006a1.379,1.379,0,0,0,.085-.482,1.21,1.21,0,0,0-.793-1.105l-2.239-.864a.668.668,0,0,1-.071-.028,6.466,6.466,0,0,0-1.87-3.145,6.263,6.263,0,0,0-1.346-.949v-1.4h0a2.079,2.079,0,0,0,1.813-2.054v-9.011H64a.859.859,0,0,0-.864.864v3.429c-.1,0-.184-.028-.283-.028h-.17v-6.5a.751.751,0,0,0-1.5,0v6.5H60.6v-7.254a.634.634,0,0,0-.057-.283.255.255,0,0,0-.071-.1l-.085-.128a.783.783,0,0,0-.128-.1.6.6,0,0,0-.1-.071.749.749,0,0,0-.17-.043c-.028,0-.057-.028-.085-.028h-.071a.756.756,0,0,0-.751.751v7.254H58.5v-6.3a.751.751,0,0,0-1.5,0v6.3h-.028a2.268,2.268,0,0,0-.553.071v-5.242a.751.751,0,1,0-1.5,0v9.9a2.044,2.044,0,0,0,1.813,2.04h0v1.573a6.35,6.35,0,0,0-2.706,3.216,6.435,6.435,0,0,0,.128,4.945,6.354,6.354,0,0,0,2.579,2.9v2.635h6.347v-2.494a4.088,4.088,0,0,0,.538-.312c.028,0,.042.014.071.028l2.239.864a1.249,1.249,0,0,0,1.6-.708l.581-1.516v2.2a1.934,1.934,0,0,0,1.388,1.842v2.437a1.944,1.944,0,0,0,1.133,1.757c0,.057-.014.113-.014.17a1.929,1.929,0,0,0,1.927,1.927h2.777a2.006,2.006,0,0,0,1.077-.326,1.907,1.907,0,0,0,2.111.184l2.437-1.318a1.878,1.878,0,0,0,.666-.623,1.939,1.939,0,0,0,1.927-1.275l.921-2.621s.028-.1.042-.142a1.934,1.934,0,0,0,1.332-1.955l-.113-1.743.1.269a1.185,1.185,0,0,0,.652.68,1.292,1.292,0,0,0,.949.028l2.239-.864a.668.668,0,0,0,.071-.028c.17.113.354.213.538.312v3.443h6.347V292.68a6.442,6.442,0,0,0,2.706-7.849Zm-32.43,8.359a.532.532,0,0,1-.283.3.552.552,0,0,1-.425,0l-2.239-.864s-.071-.043-.128-.071l-.2-.142-.2.142a2.5,2.5,0,0,1-.326.2v-1.346a4.629,4.629,0,0,0,1.6-4.151,6.524,6.524,0,0,0-.2-.878,4.709,4.709,0,0,0-.368-.822,4.856,4.856,0,0,0-1.034-1.247,4.552,4.552,0,0,0-1.36-.808,4.67,4.67,0,0,0-4.987,1.077,4.522,4.522,0,0,0-1.034,1.6,4.657,4.657,0,0,0,.1,3.57,4.419,4.419,0,0,0,.949,1.374v1.431a5.782,5.782,0,0,1-2.069-6.786A5.638,5.638,0,0,1,56.79,283.1a5.863,5.863,0,0,1,.963-.553,5.72,5.72,0,0,1,2.352-.51,5.869,5.869,0,0,1,2.069.383,4.713,4.713,0,0,1,.963.482,5.722,5.722,0,0,1,2.593,3.669l.057.241.241.028a1.189,1.189,0,0,1,.142.028l2.239.864a.577.577,0,0,1,.354.5.383.383,0,0,1-.042.213l-1.8,4.675Zm2.635,2.21a1.408,1.408,0,0,1-.878-1.289V291.32a1.388,1.388,0,0,1,2.777,0v2.352a1.907,1.907,0,0,0-1.9,1.714Zm1.9-1.176a1.374,1.374,0,0,1-1.36,1.275A1.374,1.374,0,0,1,71.454,294.211Zm-1.374,4.165v-2.352a1.907,1.907,0,0,0,1.9-1.714,1.408,1.408,0,0,1,.878,1.289v2.777h-.269a1.933,1.933,0,0,0-1.785,1.218,1.407,1.407,0,0,1-.723-1.218Zm2.664.538a1.4,1.4,0,0,1-1.275.85.58.58,0,0,1-.156-.014,1.387,1.387,0,0,1,1.275-.836Zm3.2,2.394s.085.128.128.184a1.332,1.332,0,0,1-.708.2H72.587A1.391,1.391,0,0,1,71.2,300.3v-.028c.085,0,.17.028.269.028a1.934,1.934,0,0,0,1.842-1.388h2.054a1.393,1.393,0,0,1,.793.255,1.929,1.929,0,0,0-.213,2.139Zm.524-.184a.387.387,0,0,1-.057-.071,1.4,1.4,0,0,1,.113-1.5,1.319,1.319,0,0,1,.213.737,1.447,1.447,0,0,1-.283.836Zm4.265-.836L78.3,301.606a1.418,1.418,0,0,1-1.459-.085,1.954,1.954,0,0,0,.453-1.218,1.869,1.869,0,0,0-.354-1.105.2.2,0,0,0,.043-.028l2.437-1.318a1.41,1.41,0,0,1,.51-.156,1.928,1.928,0,0,0,1.148,2.338,1.58,1.58,0,0,1-.34.269Zm.638-.737s-.043,0-.057-.014a1.39,1.39,0,0,1-.85-1.771v-.028a1.366,1.366,0,0,1,.907,1.813Zm1.7-.864a1.4,1.4,0,0,1-1.148.921,1.893,1.893,0,0,0-.156-1.459,1.977,1.977,0,0,0-1.119-.921l.737-2.083a1.317,1.317,0,0,1,.652-.751h0a1.934,1.934,0,0,0,1.927,1.8l-.878,2.494Zm.963-3.032a1.373,1.373,0,0,1-1.473-1.289v-.128a1.375,1.375,0,0,1,1.5,1.431h-.028Zm.567-.17a1.934,1.934,0,0,0-1.289-1.7,1.767,1.767,0,0,0-.808-.1l-.142-2.1a1.384,1.384,0,1,1,2.763-.184l.184,2.763a1.375,1.375,0,0,1-.723,1.3Zm13.984-6.021a5.69,5.69,0,0,1-1.955,2.366V290.4a5.171,5.171,0,0,0,.949-1.374,4.656,4.656,0,0,0,.1-3.57,4.522,4.522,0,0,0-.694-1.218,3.063,3.063,0,0,0-.354-.383,4.668,4.668,0,0,0-6.347-.269,4.572,4.572,0,0,0-1.233,1.643,4.656,4.656,0,0,0-.1,3.57,4.574,4.574,0,0,0,1.332,1.87v1.36c-.113-.071-.227-.128-.326-.2l-.2-.142-.2.142a.813.813,0,0,1-.128.071l-2.239.864a.626.626,0,0,1-.425,0,.53.53,0,0,1-.283-.3l-1.8-4.675a.626.626,0,0,1,0-.425.53.53,0,0,1,.3-.283l2.239-.864a.577.577,0,0,1,.142-.028l.241-.028.057-.241a5.739,5.739,0,0,1,1.233-2.494,5.168,5.168,0,0,1,1.374-1.162,7.725,7.725,0,0,1,.963-.5,5.771,5.771,0,0,1,7.452,3.315,5.726,5.726,0,0,1-.113,4.406Z" transform="translate(-17.248 -264.07)" fill="#ba9c5a" opacity="0.65"/>
          </g>
        </g>
      </g>
    </g>
  </g>
</svg>
