<svg xmlns="http://www.w3.org/2000/svg" xmlns:xlink="http://www.w3.org/1999/xlink" width="110" height="110" viewBox="0 0 110 110">
  <defs>
    <filter id="Trazado_982547" x="0" y="0" width="110" height="110" filterUnits="userSpaceOnUse">
      <feOffset dy="3" input="SourceAlpha"/>
      <feGaussianBlur stdDeviation="3" result="blur"/>
      <feFlood flood-opacity="0.161"/>
      <feComposite operator="in" in2="blur"/>
      <feComposite in="SourceGraphic"/>
    </filter>
  </defs>
  <g id="Grupo_1218748" data-name="Grupo 1218748" transform="translate(-3611 -2158.989)">
    <g id="Grupo_1217630" data-name="Grupo 1217630" transform="translate(3620 2164.989)">
      <g id="Grupo_1211001" data-name="Grupo 1211001" transform="translate(0 0)">
        <g id="Grupo_1200151" data-name="Grupo 1200151">
          <g id="Grupo_1185952" data-name="Grupo 1185952" transform="translate(0 0)">
            <g id="Grupo_1184115" data-name="Grupo 1184115" transform="translate(0 0)">
              <g id="Grupo_1183744" data-name="Grupo 1183744">
                <g id="Grupo_1181546" data-name="Grupo 1181546">
                  <g id="Grupo_1177563" data-name="Grupo 1177563">
                    <g id="Grupo_1173148" data-name="Grupo 1173148">
                      <g id="Grupo_1163803" data-name="Grupo 1163803" transform="translate(0 0)">
                        <g id="Grupo_1163015" data-name="Grupo 1163015" transform="translate(0 0)">
                          <g id="Grupo_1157017" data-name="Grupo 1157017">
                            <g id="Grupo_1155793" data-name="Grupo 1155793">
                              <g id="Grupo_1154704" data-name="Grupo 1154704">
                                <g id="Grupo_1150790" data-name="Grupo 1150790">
                                  <g id="Grupo_1154214" data-name="Grupo 1154214">
                                    <g id="Grupo_1152583" data-name="Grupo 1152583">
                                      <g id="Grupo_1146973" data-name="Grupo 1146973">
                                        <g id="Grupo_1146954" data-name="Grupo 1146954">
                                          <g transform="matrix(1, 0, 0, 1, -9, -6)" filter="url(#Trazado_982547)">
                                            <g id="Trazado_982547-2" data-name="Trazado 982547" transform="translate(9 6)" fill="#f2d944">
                                              <path d="M 46.00000381469727 90.49986267089844 C 39.99188232421875 90.49986267089844 34.16427230834961 89.32350158691406 28.67905807495117 87.00344848632812 C 23.38020324707031 84.76223754882812 18.62104415893555 81.55341339111328 14.53375053405762 77.46613311767578 C 10.44647026062012 73.37885284423828 7.237643718719482 68.61968994140625 4.996417045593262 63.32085037231445 C 2.676363706588745 57.83565139770508 1.500003814697266 52.00805282592773 1.500003814697266 45.99993133544922 C 1.500003814697266 39.99182510375977 2.676363706588745 34.16422653198242 4.996417045593262 28.67901039123535 C 7.237643718719482 23.38017082214355 10.44647026062012 18.62101173400879 14.53375053405762 14.53373146057129 C 18.62104415893555 10.44645118713379 23.38020324707031 7.237624645233154 28.67905807495117 4.996411323547363 C 34.16427230834961 2.676357984542847 39.99188232421875 1.499997973442078 46.00000381469727 1.499997973442078 C 52.00812530517578 1.499997973442078 57.83573532104492 2.676357984542847 63.32094955444336 4.996411323547363 C 68.61980438232422 7.237624645233154 73.37896728515625 10.44645118713379 77.46625518798828 14.53373146057129 C 81.55353546142578 18.62101173400879 84.76236724853516 23.38017082214355 87.00359344482422 28.67901039123535 C 89.32364654541016 34.16422653198242 90.5 39.99182510375977 90.5 45.99993133544922 C 90.5 52.00805282592773 89.32364654541016 57.83565139770508 87.00359344482422 63.32085037231445 C 84.76236724853516 68.61968994140625 81.55353546142578 73.37885284423828 77.46625518798828 77.46613311767578 C 73.37896728515625 81.55341339111328 68.61980438232422 84.76223754882812 63.32094955444336 87.00344848632812 C 57.83573532104492 89.32350158691406 52.00812530517578 90.49986267089844 46.00000381469727 90.49986267089844 Z" stroke="none"/>
                                              <path d="M 46.00000381469727 3 C 40.19371795654297 3 34.56270217895508 4.136505126953125 29.26337432861328 6.377914428710938 C 24.14333343505859 8.54351806640625 19.54441833496094 11.64438629150391 15.59440612792969 15.59439086914062 C 11.64440155029297 19.54440307617188 8.54351806640625 24.14330291748047 6.377914428710938 29.26334381103516 C 4.136505126953125 34.56266021728516 3.000007629394531 40.19366073608398 3.000007629394531 45.99993133544922 C 3.000007629394531 51.80620193481445 4.136505126953125 57.43720245361328 6.377914428710938 62.73651885986328 C 8.54351806640625 67.85655975341797 11.64440155029297 72.45545959472656 15.59440612792969 76.40547180175781 C 19.54441833496094 80.35547637939453 24.14333343505859 83.45634460449219 29.26337432861328 85.6219482421875 C 34.56270217895508 87.86335754394531 40.19371795654297 88.99986267089844 46.00000381469727 88.99986267089844 C 51.80628967285156 88.99986267089844 57.43730545043945 87.86335754394531 62.73661804199219 85.6219482421875 C 67.85667419433594 83.45634460449219 72.45557403564453 80.35547637939453 76.40558624267578 76.40547180175781 C 80.35560607910156 72.45545959472656 83.45647430419922 67.85655975341797 85.62207794189453 62.73651885986328 C 87.86350250244141 57.43720245361328 89 51.80620193481445 89 45.99993133544922 C 89 40.19366073608398 87.86350250244141 34.56266021728516 85.62207794189453 29.26334381103516 C 83.45647430419922 24.14330291748047 80.35560607910156 19.54440307617188 76.40558624267578 15.59439086914062 C 72.45557403564453 11.64438629150391 67.85667419433594 8.54351806640625 62.73661804199219 6.377914428710938 C 57.43730545043945 4.136505126953125 51.80628967285156 3 46.00000381469727 3 M 46.00000381469727 0 C 71.40509033203125 0 92 20.59487152099609 92 45.99993133544922 C 92 71.40499114990234 71.40509033203125 91.99986267089844 46.00000381469727 91.99986267089844 C 20.59490203857422 91.99986267089844 7.62939453125e-06 71.40499114990234 7.62939453125e-06 45.99993133544922 C 7.62939453125e-06 20.59487152099609 20.59490203857422 0 46.00000381469727 0 Z" stroke="none" fill="#ba9c5a"/>
                                            </g>
                                          </g>
                                        </g>
                                      </g>
                                    </g>
                                  </g>
                                </g>
                              </g>
                            </g>
                          </g>
                        </g>
                      </g>
                    </g>
                  </g>
                </g>
              </g>
            </g>
          </g>
        </g>
      </g>
    </g>
    <g id="tribunal-de-justicia_2_" data-name="tribunal-de-justicia (2)" transform="translate(3628.758 2183.505)">
      <g id="Grupo_1218747" data-name="Grupo 1218747" transform="translate(1.185 1.185)">
        <g id="Grupo_1218727" data-name="Grupo 1218727" transform="translate(23.704 4.741)">
          <path id="Trazado_1089804" data-name="Trazado 1089804" d="M44.7,12.111v4.741a2.377,2.377,0,0,0-2.37-2.37h-2.37v-.9a3.839,3.839,0,0,0-3.84-3.84,3.884,3.884,0,0,0-1.707.4l-1.564.782-1.564-.782a3.884,3.884,0,0,0-1.707-.4,3.844,3.844,0,0,0-3.84,3.84v.9H23.37A2.388,2.388,0,0,0,21,16.852V12.111A7.117,7.117,0,0,1,28.111,5h9.482A7.117,7.117,0,0,1,44.7,12.111Z" transform="translate(-21 -5)" fill="#b27946"/>
        </g>
        <g id="Grupo_1218728" data-name="Grupo 1218728" transform="translate(30.816 0)">
          <path id="Trazado_1089805" data-name="Trazado 1089805" d="M36.482,5.741H27a4.741,4.741,0,1,1,9.482,0Z" transform="translate(-27 -1)" fill="#b27946"/>
        </g>
        <g id="Grupo_1218729" data-name="Grupo 1218729" transform="translate(0 30.816)">
          <path id="Trazado_1089806" data-name="Trazado 1089806" d="M15.223,28.185v2.37a1.189,1.189,0,0,1-1.185,1.185H2.185A1.189,1.189,0,0,1,1,30.556v-2.37A1.189,1.189,0,0,1,2.185,27H14.037A1.189,1.189,0,0,1,15.223,28.185Z" transform="translate(-1 -27)" fill="#cf9e76"/>
        </g>
        <g id="Grupo_1218730" data-name="Grupo 1218730" transform="translate(4.741)">
          <path id="Trazado_1089807" data-name="Trazado 1089807" d="M9.741,2.185v29.63H5V2.185A1.189,1.189,0,0,1,6.185,1h2.37A1.189,1.189,0,0,1,9.741,2.185Z" transform="translate(-5 -1)" fill="#dfb28b"/>
        </g>
        <g id="Grupo_1218731" data-name="Grupo 1218731" transform="translate(4.741 35.556)">
          <path id="Trazado_1089808" data-name="Trazado 1089808" d="M9.741,40.482v3.556a1.189,1.189,0,0,1-1.185,1.185H6.185A1.189,1.189,0,0,1,5,44.037V31H9.741Z" transform="translate(-5 -31)" fill="#b27946"/>
        </g>
        <g id="Grupo_1218732" data-name="Grupo 1218732" transform="translate(34.822 47.563)">
          <path id="Trazado_1089809" data-name="Trazado 1089809" d="M36.768,41.13l3.283,9.031L30.38,44.78Z" transform="translate(-30.38 -41.13)" fill="#aab2bd"/>
        </g>
        <g id="Grupo_1218733" data-name="Grupo 1218733" transform="translate(26.928 45.038)">
          <path id="Trazado_1089810" data-name="Trazado 1089810" d="M37.089,39,38,41.525l-6.388,3.65L23.72,49.691,27.608,39Z" transform="translate(-23.72 -39)" fill="#ccd1d9"/>
        </g>
        <g id="Grupo_1218734" data-name="Grupo 1218734" transform="translate(21.334 51.213)">
          <path id="Trazado_1089811" data-name="Trazado 1089811" d="M40.334,64.11H19l5.594-15.384,7.894-4.516,9.671,5.381L47.445,64.11Z" transform="translate(-19 -44.21)" fill="#e6e9ed"/>
        </g>
        <g id="Grupo_1218735" data-name="Grupo 1218735" transform="translate(28.445 35.556)">
          <path id="Trazado_1089812" data-name="Trazado 1089812" d="M39.151,33.335a2.979,2.979,0,0,1-.142,1.754l-2.157,5.393H27.37l-2.157-5.393a.929.929,0,0,1-.059-.166A2.771,2.771,0,0,1,25,33.987,2.989,2.989,0,0,1,27.987,31h8.249a2.954,2.954,0,0,1,2.11.877A2.92,2.92,0,0,1,39.151,33.335Z" transform="translate(-25 -31)" fill="#e6e9ed"/>
        </g>
        <g id="Grupo_1218736" data-name="Grupo 1218736" transform="translate(61.631 40.297)">
          <path id="Trazado_1089813" data-name="Trazado 1089813" d="M53,35h9.482A4.741,4.741,0,1,1,53,35Z" transform="translate(-53 -35)" fill="#fcd770"/>
        </g>
        <g id="Grupo_1218737" data-name="Grupo 1218737" transform="translate(47.409 40.297)">
          <path id="Trazado_1089814" data-name="Trazado 1089814" d="M41,35h9.482A4.741,4.741,0,1,1,41,35Z" transform="translate(-41 -35)" fill="#fcd770"/>
        </g>
        <g id="Grupo_1218738" data-name="Grupo 1218738" transform="translate(56.89 4.741)">
          <path id="Trazado_1089815" data-name="Trazado 1089815" d="M53.741,14.482v1.185a1.189,1.189,0,0,1-1.185,1.185h-2.37A1.189,1.189,0,0,1,49,15.667V6.185A1.189,1.189,0,0,1,50.185,5h2.37a1.189,1.189,0,0,1,1.185,1.185v8.3Z" transform="translate(-49 -5)" fill="#969faa"/>
        </g>
        <g id="Grupo_1218739" data-name="Grupo 1218739" transform="translate(61.631 7.111)">
          <path id="Trazado_1089816" data-name="Trazado 1089816" d="M57.741,9.37v4.741a2.377,2.377,0,0,1-2.37,2.37A2.388,2.388,0,0,1,53,14.111V9.37A2.377,2.377,0,0,1,55.37,7a2.388,2.388,0,0,1,2.37,2.37Z" transform="translate(-53 -7)" fill="#f0d0b4"/>
        </g>
        <g id="Grupo_1218740" data-name="Grupo 1218740" transform="translate(39.112 9.482)">
          <path id="Trazado_1089817" data-name="Trazado 1089817" d="M54.149,25.593v4.741H47.037L44.454,35.5a17.479,17.479,0,0,1-6.969,1.908,2.92,2.92,0,0,0-.806-1.458,2.954,2.954,0,0,0-2.11-.877H34l1.185-4.741A11.856,11.856,0,0,0,47.037,18.482V11.37A2.377,2.377,0,0,1,49.408,9h2.37v5.926a1.189,1.189,0,0,0,1.185,1.185h1.185v4.741a2.37,2.37,0,0,0,0,4.741Z" transform="translate(-34 -9)" fill="#f0d0b4"/>
        </g>
        <g id="Grupo_1218741" data-name="Grupo 1218741" transform="translate(9.482 30.816)">
          <path id="Trazado_1089818" data-name="Trazado 1089818" d="M30.334,27l1.185,4.741H30.95a2.989,2.989,0,0,0-2.987,2.987,2.771,2.771,0,0,0,.154.936l-14.021,5a9.4,9.4,0,0,1-3.188.557H9V31.741h3.556l2.37,2.37,9.031-5.416A11.82,11.82,0,0,1,30.061,27Z" transform="translate(-9 -27)" fill="#f0d0b4"/>
        </g>
        <g id="Grupo_1218742" data-name="Grupo 1218742" transform="translate(42.668 14.223)">
          <path id="Trazado_1089819" data-name="Trazado 1089819" d="M39.37,13a2.377,2.377,0,0,1,2.37,2.37,2.388,2.388,0,0,1-2.37,2.37H37V13Z" transform="translate(-37 -13)" fill="#f0d0b4"/>
        </g>
        <g id="Grupo_1218743" data-name="Grupo 1218743" transform="translate(28.445 18.963)">
          <path id="Trazado_1089820" data-name="Trazado 1089820" d="M39.223,17v2.228A6.255,6.255,0,0,1,34.482,25.3v3.556h2.37l-1.185,4.741H28.556L27.37,28.852h2.37V25.3A6.261,6.261,0,0,1,25,19.228V17Z" transform="translate(-25 -17)" fill="#f0d0b4"/>
        </g>
        <g id="Grupo_1218744" data-name="Grupo 1218744" transform="translate(23.704 14.223)">
          <path id="Trazado_1089821" data-name="Trazado 1089821" d="M25.741,13v4.741H23.37A2.377,2.377,0,0,1,21,15.37,2.388,2.388,0,0,1,23.37,13Z" transform="translate(-21 -13)" fill="#f0d0b4"/>
        </g>
        <g id="Grupo_1218745" data-name="Grupo 1218745" transform="translate(28.445 9.482)">
          <path id="Trazado_1089822" data-name="Trazado 1089822" d="M32.111,10.185,33.676,9.4A3.884,3.884,0,0,1,35.382,9a3.839,3.839,0,0,1,3.84,3.84v.9H25v-.9A3.844,3.844,0,0,1,28.84,9a3.884,3.884,0,0,1,1.707.4Z" transform="translate(-25 -9)" fill="#f0d0b4"/>
        </g>
        <g id="Grupo_1218746" data-name="Grupo 1218746" transform="translate(28.445 14.223)">
          <path id="Trazado_1089823" data-name="Trazado 1089823" d="M25,13H39.223v4.741H25Z" transform="translate(-25 -13)" fill="#75b1f2"/>
        </g>
      </g>
      <path id="Trazado_1089824" data-name="Trazado 1089824" d="M68.29,30.816H61.631V28.227A3.551,3.551,0,0,0,64,24.89h-2.37A1.185,1.185,0,1,1,60.446,23.7h1.185V18.963a2.35,2.35,0,0,0,1.569-.608,3.554,3.554,0,0,0,5.542-2.948V10.667a3.56,3.56,0,0,0-3.556-3.556A3.516,3.516,0,0,0,64,7.329V7.111a2.373,2.373,0,0,0-2.37-2.37h-2.37a2.373,2.373,0,0,0-2.37,2.37v2.37H55.705a3.56,3.56,0,0,0-3.556,3.556v7.111A10.679,10.679,0,0,1,41.483,30.816H40.3V29.309a7.432,7.432,0,0,0,4.741-6.937V21.334h1.185a3.56,3.56,0,0,0,3.556-3.556V13.037a8.3,8.3,0,0,0-7.223-8.219,5.918,5.918,0,0,0-11.629,0A8.3,8.3,0,0,0,23.7,13.037v4.741a3.56,3.56,0,0,0,3.556,3.556h1.185v1.039a7.434,7.434,0,0,0,4.741,6.937v1.505H31.728a13.033,13.033,0,0,0-6.707,1.858L16.778,37.62l-.657-.657a2.36,2.36,0,0,0,.472-1.407v-2.37a2.373,2.373,0,0,0-2.37-2.37h-2.37V2.37A2.373,2.373,0,0,0,9.482,0H7.111a2.373,2.373,0,0,0-2.37,2.37V30.816H2.37A2.373,2.373,0,0,0,0,33.186v2.37a2.373,2.373,0,0,0,2.37,2.37h2.37V49.779a2.373,2.373,0,0,0,2.37,2.37h2.37a2.373,2.373,0,0,0,2.37-2.37v-2.37h.728a10.649,10.649,0,0,0,3.586-.621L29.1,42.169l1.631,4.076-9.9,27.239H52.656l-9.9-27.24,1.99-4.976A4.1,4.1,0,0,0,45,40.131a18.717,18.717,0,0,0,3.3-.706L47.409,41.2v.28a5.926,5.926,0,0,0,11.852,0V41.2l-4.008-8.017H65.64L61.631,41.2v.28a5.926,5.926,0,0,0,11.852,0V41.2Zm-3.1-21.334a1.186,1.186,0,0,1,1.185,1.185v4.741a1.185,1.185,0,1,1-2.37,0V10.667A1.186,1.186,0,0,1,65.187,9.482Zm-5.926-2.37h2.37v8.3s0,.007,0,.009v1.176H59.261ZM42.54,40.39l-1.86,4.648H32.8l-1.86-4.646a1.8,1.8,0,0,1,1.669-2.465h8.26A1.8,1.8,0,0,1,42.54,40.39Zm3.684-21.426H45.038v-2.37h1.185a1.185,1.185,0,0,1,0,2.37Zm-3.556-2.37v2.37H30.816v-2.37Zm-11.824-2.37a2.644,2.644,0,0,1,2.622-2.37,2.672,2.672,0,0,1,1.185.28l2.091,1.045,2.091-1.045a2.638,2.638,0,0,1,3.807,2.091Zm5.9-11.852a3.551,3.551,0,0,1,3.338,2.37H33.405A3.548,3.548,0,0,1,36.742,2.37ZM32,7.111h9.482a5.933,5.933,0,0,1,5.926,5.926v1.4a3.516,3.516,0,0,0-1.185-.218H45.01a5,5,0,0,0-7.238-4.211l-1.03.516-1.03-.516a5,5,0,0,0-7.238,4.211H27.26a3.516,3.516,0,0,0-1.185.218v-1.4A5.933,5.933,0,0,1,32,7.111ZM27.26,18.963a1.185,1.185,0,1,1,0-2.37h1.185v2.37Zm3.556,3.41V21.334H42.668v1.039A5.067,5.067,0,0,1,38.825,27.3l-.9.224v5.667h2.039l-.593,2.37H34.111l-.593-2.37h2.039V27.52l-.9-.224A5.067,5.067,0,0,1,30.816,22.373Zm-23.7-20h2.37V30.816H7.111ZM2.37,33.186H14.223v2.37H2.37ZM7.111,49.779V37.927h2.37V49.779ZM28.445,39.724c0,.053.013.1.015.158L15.37,44.556a8.283,8.283,0,0,1-2.79.482h-.728V37.927h1.88L16.409,40.6l9.831-5.9a10.644,10.644,0,0,1,4.846-1.477l.609,2.436A4.172,4.172,0,0,0,28.445,39.724Zm4.385,7.685h7.822l.293.8L30.334,54.278Zm8.937,3.065L43.486,55.2l-5.064-2.814ZM44.8,71.113l-2.164-9.739-2.315.514,2.05,9.225H37.927V59.261h-2.37V71.113H31.108l2.05-9.225-2.315-.514L28.68,71.113H24.212L29.08,57.724l6.936-3.963L44.722,58.6l4.55,12.516Zm8.531-26.075A3.549,3.549,0,0,1,50,42.668h6.673a3.549,3.549,0,0,1-3.336,2.37ZM56.158,40.3H50.512l2.823-5.646ZM52.6,30.816l-2.726,5.452a16.407,16.407,0,0,1-5.33,1.532,4.162,4.162,0,0,0-2.758-2.135l.632-2.527a13.044,13.044,0,0,0,12.1-12.99V13.037a1.186,1.186,0,0,1,1.185-1.185H56.89v4.741a2.373,2.373,0,0,0,2.37,2.37v2.573a3.546,3.546,0,0,0,0,6.691v2.589Zm14.955,3.835L70.381,40.3H64.734Zm0,10.387a3.549,3.549,0,0,1-3.336-2.37h6.673A3.549,3.549,0,0,1,67.557,45.038Z"/>
    </g>
  </g>
</svg>
