<svg xmlns="http://www.w3.org/2000/svg" xmlns:xlink="http://www.w3.org/1999/xlink" width="113" height="113" viewBox="0 0 113 113">
  <defs>
    <filter id="Trazado_982547" x="0" y="0" width="113" height="113" filterUnits="userSpaceOnUse">
      <feOffset dy="3" input="SourceAlpha"/>
      <feGaussianBlur stdDeviation="3" result="blur"/>
      <feFlood flood-opacity="0.161"/>
      <feComposite operator="in" in2="blur"/>
      <feComposite in="SourceGraphic"/>
    </filter>
  </defs>
  <g id="Grupo_1219059" data-name="Grupo 1219059" transform="translate(-272 -7089.844)">
    <g id="Grupo_1217866" data-name="Grupo 1217866" transform="translate(-0.234 -2607)">
      <g id="Grupo_1216305" data-name="Grupo 1216305" transform="translate(281.234 9702.844)">
        <g id="Grupo_1208705" data-name="Grupo 1208705">
          <g id="Grupo_1148633" data-name="Grupo 1148633">
            <g id="Grupo_1148525" data-name="Grupo 1148525">
              <g transform="matrix(1, 0, 0, 1, -9, -6)" filter="url(#Trazado_982547)">
                <g id="Trazado_982547-2" data-name="Trazado 982547" transform="translate(9 6)" fill="#e6d567">
                  <path d="M 47.5 93.5 C 41.28937149047852 93.5 35.26533508300781 92.28397369384766 29.59518623352051 89.88570404052734 C 24.11771965026855 87.56893157958984 19.19813346862793 84.25196075439453 14.97309303283691 80.02691650390625 C 10.74804019927979 75.80186462402344 7.431066513061523 70.88229370117188 5.114293098449707 65.40481567382812 C 2.716026782989502 59.73468017578125 1.5 53.71062850952148 1.5 47.5 C 1.5 41.28937149047852 2.716026782989502 35.26533508300781 5.114293098449707 29.59518623352051 C 7.431066513061523 24.11771965026855 10.74804019927979 19.19813346862793 14.97309303283691 14.97309303283691 C 19.19813346862793 10.74804019927979 24.11771965026855 7.431066513061523 29.59518623352051 5.114293098449707 C 35.26533508300781 2.716026782989502 41.28937149047852 1.5 47.5 1.5 C 53.71062850952148 1.5 59.73468017578125 2.716026782989502 65.40481567382812 5.114293098449707 C 70.88229370117188 7.431066513061523 75.80186462402344 10.74804019927979 80.02691650390625 14.97309303283691 C 84.25196075439453 19.19813346862793 87.56893157958984 24.11771965026855 89.88570404052734 29.59518623352051 C 92.28397369384766 35.26533508300781 93.5 41.28937149047852 93.5 47.5 C 93.5 53.71062850952148 92.28397369384766 59.73468017578125 89.88570404052734 65.40481567382812 C 87.56893157958984 70.88229370117188 84.25196075439453 75.80186462402344 80.02691650390625 80.02691650390625 C 75.80186462402344 84.25196075439453 70.88229370117188 87.56893157958984 65.40481567382812 89.88570404052734 C 59.73468017578125 92.28397369384766 53.71062850952148 93.5 47.5 93.5 Z" stroke="none"/>
                  <path d="M 47.5 3 C 41.49121475219727 3 35.66376876831055 4.176155090332031 30.17950439453125 6.495796203613281 C 24.88084411621094 8.736953735351562 20.12152099609375 11.94598388671875 16.03375244140625 16.03375244140625 C 11.94598388671875 20.12152099609375 8.736953735351562 24.88084411621094 6.495796203613281 30.17950439453125 C 4.176155090332031 35.66376876831055 3 41.49121475219727 3 47.5 C 3 53.50878524780273 4.176155090332031 59.33623123168945 6.495796203613281 64.82049560546875 C 8.736953735351562 70.11915588378906 11.94598388671875 74.87847900390625 16.03375244140625 78.96624755859375 C 20.12152099609375 83.05401611328125 24.88084411621094 86.26304626464844 30.17950439453125 88.50419616699219 C 35.66376876831055 90.82384490966797 41.49121475219727 92 47.5 92 C 53.50878524780273 92 59.33623123168945 90.82384490966797 64.82049560546875 88.50419616699219 C 70.11915588378906 86.26304626464844 74.87847900390625 83.05401611328125 78.96624755859375 78.96624755859375 C 83.05401611328125 74.87847900390625 86.26304626464844 70.11915588378906 88.50419616699219 64.82049560546875 C 90.82384490966797 59.33623123168945 92 53.50878524780273 92 47.5 C 92 41.49121475219727 90.82384490966797 35.66376876831055 88.50419616699219 30.17950439453125 C 86.26304626464844 24.88084411621094 83.05401611328125 20.12152099609375 78.96624755859375 16.03375244140625 C 74.87847900390625 11.94598388671875 70.11915588378906 8.736953735351562 64.82049560546875 6.495796203613281 C 59.33623123168945 4.176155090332031 53.50878524780273 3 47.5 3 M 47.5 0 C 73.7335205078125 0 95 21.2664794921875 95 47.5 C 95 73.7335205078125 73.7335205078125 95 47.5 95 C 21.2664794921875 95 0 73.7335205078125 0 47.5 C 0 21.2664794921875 21.2664794921875 0 47.5 0 Z" stroke="none" fill="#ba9c5a"/>
                </g>
              </g>
            </g>
          </g>
        </g>
      </g>
    </g>
    <g id="robo" transform="translate(277.434 7117.07)">
      <g id="Grupo_1219057" data-name="Grupo 1219057" transform="translate(17.647 1.081)">
        <g id="Grupo_1219051" data-name="Grupo 1219051" transform="translate(21.484)">
          <path id="Trazado_1090117" data-name="Trazado 1090117" d="M216.921,74.471a1.184,1.184,0,0,1-.786-1.121V38.532A14.323,14.323,0,0,0,201.812,24.21V19.435a7.161,7.161,0,0,0,7.161-7.161V8.694A1.194,1.194,0,0,0,207.78,7.5H181.522a1.194,1.194,0,0,0-1.193,1.193v3.581a7.161,7.161,0,0,0,7.161,7.161V24.21a14.323,14.323,0,0,0-14.322,14.323v13.85l23.871,26.73h19.029a2.431,2.431,0,0,0,2.452-2.272,2.388,2.388,0,0,0-1.6-2.37Z" transform="translate(-173.167 -7.5)" fill="#d78683"/>
          <path id="Trazado_1090118" data-name="Trazado 1090118" d="M367.389,74.471a1.184,1.184,0,0,1-.786-1.121V38.532A14.323,14.323,0,0,0,352.28,24.21V19.435a7.161,7.161,0,0,0,7.161-7.161V8.694A1.194,1.194,0,0,0,358.248,7.5h-3.314a1.194,1.194,0,0,1,1.194,1.193v3.581a7.161,7.161,0,0,1-7.161,7.161V24.21a14.323,14.323,0,0,1,14.323,14.323V73.35a1.184,1.184,0,0,0,.786,1.121,2.388,2.388,0,0,1,1.6,2.37,2.431,2.431,0,0,1-2.452,2.272h3.314a2.431,2.431,0,0,0,2.452-2.272A2.388,2.388,0,0,0,367.389,74.471Z" transform="translate(-323.635 -7.5)" fill="#af5f5c"/>
          <path id="Trazado_1090119" data-name="Trazado 1090119" d="M272.709,95.107a2.387,2.387,0,0,0,0-4.774H258.386a2.387,2.387,0,0,0,0,4.774Z" transform="translate(-244.064 -78.398)" fill="#ffdfcf"/>
          <path id="Trazado_1090120" data-name="Trazado 1090120" d="M352.28,90.333h-3.314a2.387,2.387,0,1,1,0,4.774h3.314a2.387,2.387,0,0,0,0-4.774Z" transform="translate(-323.635 -78.398)" fill="#f8c4bc"/>
        </g>
        <g id="Grupo_1219054" data-name="Grupo 1219054" transform="translate(0 2.387)">
          <path id="Trazado_1090121" data-name="Trazado 1090121" d="M103.809,33.615,116.19,36l12.381-2.387c-1.8-5.563-6.665-9.548-12.381-9.548S105.611,28.053,103.809,33.615Z" transform="translate(-92.319 -24.067)" fill="#607882"/>
          <path id="Trazado_1090122" data-name="Trazado 1090122" d="M189.137,34.22l3.134-.6c-1.8-5.563-6.665-9.548-12.381-9.548a12.157,12.157,0,0,0-1.657.113,13.522,13.522,0,0,1,10.9,10.039Z" transform="translate(-156.019 -24.067)" fill="#495959"/>
          <path id="Trazado_1090123" data-name="Trazado 1090123" d="M124.875,95.108a15.474,15.474,0,0,0-.748-4.774H99.365a15.474,15.474,0,0,0-.748,4.774v.916h26.258Z" transform="translate(-87.875 -80.786)" fill="#fff5f5"/>
          <path id="Trazado_1090124" data-name="Trazado 1090124" d="M256.707,96.024v-.916a15.473,15.473,0,0,0-.748-4.774h-3.316a15.466,15.466,0,0,1,.75,4.774v.916Z" transform="translate(-219.708 -80.786)" fill="#e6ecf2"/>
          <path id="Trazado_1090125" data-name="Trazado 1090125" d="M71.808,354.75l-1.657-3.977,1.657-3.98v-7.954H62.46l-.2,0H33.615a9.548,9.548,0,0,0-9.413,7.956l1.205,5.424-1.34,2.533v5.57a2.387,2.387,0,0,0,2.387,2.387H69.422a2.387,2.387,0,0,0,2.387-2.387Z" transform="translate(-24.067 -293.481)" fill="#fff5f5"/>
          <path id="Trazado_1090126" data-name="Trazado 1090126" d="M321.53,354.762l-1.657-3.977,1.657-3.98V338.85h-3.314v21.481a2.387,2.387,0,0,1-2.387,2.387h3.314a2.387,2.387,0,0,0,2.387-2.387Z" transform="translate(-273.789 -293.493)" fill="#e6ecf2"/>
          <path id="Trazado_1090127" data-name="Trazado 1090127" d="M71.808,402.011v-7.957H24.2a9.6,9.6,0,0,0-.135,1.591v6.366Z" transform="translate(-24.067 -340.743)" fill="#607882"/>
          <path id="Trazado_1090128" data-name="Trazado 1090128" d="M335.711,397.218v-3.163H332.4v7.957h3.314Z" transform="translate(-287.97 -340.744)" fill="#495959"/>
          <path id="Trazado_1090129" data-name="Trazado 1090129" d="M140.033,284.992v15.715h14.323V284.995Z" transform="translate(-123.323 -247.395)" fill="#ffdfcf"/>
          <path id="Trazado_1090130" data-name="Trazado 1090130" d="M216.433,285.01h3.314v15.712h-3.314Z" transform="translate(-188.715 -247.411)" fill="#f8c4bc"/>
          <path id="Trazado_1090131" data-name="Trazado 1090131" d="M104.8,156.6a2.387,2.387,0,0,1,2.387,2.387v4.774a2.387,2.387,0,0,1-2.387,2.387H76.153a2.387,2.387,0,0,1-2.387-2.387v-4.774a2.387,2.387,0,0,1,2.387-2.387Z" transform="translate(-66.605 -137.503)" fill="#ffdfcf"/>
          <path id="Trazado_1090132" data-name="Trazado 1090132" d="M269.446,156.6h-3.314a2.387,2.387,0,0,1,2.387,2.387v4.774a2.387,2.387,0,0,1-2.387,2.387h3.314a2.387,2.387,0,0,0,2.387-2.387v-4.774A2.387,2.387,0,0,0,269.446,156.6Z" transform="translate(-231.253 -137.503)" fill="#f8c4bc"/>
          <path id="Trazado_1090133" data-name="Trazado 1090133" d="M123.805,204.013H126a11.916,11.916,0,0,0,4.775-9.549l-11.935-4.782L106.9,194.464a11.934,11.934,0,0,0,15.786,11.3Z" transform="translate(-94.965 -165.819)" fill="#ffdfcf"/>
          <path id="Trazado_1090134" data-name="Trazado 1090134" d="M188.512,213.653v1.328A11.936,11.936,0,0,1,178.234,226.8a11.925,11.925,0,0,0,13.592-11.818Z" transform="translate(-156.02 -186.336)" fill="#f8c4bc"/>
          <path id="Trazado_1090135" data-name="Trazado 1090135" d="M106.9,324.654l4.774-2.388v2.387a7.161,7.161,0,0,0,14.322,0v-2.387l4.774,2.388h0a11.936,11.936,0,0,1-23.871,0Z" transform="translate(-94.963 -279.299)" fill="#607882"/>
          <path id="Trazado_1090136" data-name="Trazado 1090136" d="M130.771,161.013h-8.56a2.387,2.387,0,0,1-1.688-.7,2.387,2.387,0,0,0-3.376,0h0a2.387,2.387,0,0,1-1.688.7H106.9V150.6h23.871Z" transform="translate(-94.965 -132.368)" fill="#607882"/>
          <g id="Grupo_1219052" data-name="Grupo 1219052" transform="translate(15.5 18.232)">
            <path id="Trazado_1090137" data-name="Trazado 1090137" d="M137.64,151.471l-.683,2.722a2.692,2.692,0,0,1-5.3-.637l-.014-2.957h6Z" transform="translate(-131.641 -150.599)" fill="#fff5f5"/>
            <path id="Trazado_1090138" data-name="Trazado 1090138" d="M212.285,153.557a2.692,2.692,0,0,1-5.3.637l-.683-2.722V150.6h6Z" transform="translate(-195.542 -150.6)" fill="#fff5f5"/>
          </g>
          <path id="Trazado_1090139" data-name="Trazado 1090139" d="M252.881,150.6h-3.314v10.413h3.314Z" transform="translate(-217.075 -132.367)" fill="#495959"/>
          <path id="Trazado_1090140" data-name="Trazado 1090140" d="M111.928,128.242H83.2a1.153,1.153,0,0,1-1.153-1.153v-1.316a2.305,2.305,0,0,1,2.305-2.305h26.421a2.305,2.305,0,0,1,2.305,2.305v1.316A1.153,1.153,0,0,1,111.928,128.242Z" transform="translate(-73.694 -109.145)" fill="#607882"/>
          <path id="Trazado_1090141" data-name="Trazado 1090141" d="M272.567,338.833h0Z" transform="translate(-236.761 -293.478)" fill="#607882"/>
          <g id="Grupo_1219053" data-name="Grupo 1219053" transform="translate(22.214 14.323)">
            <path id="Trazado_1090142" data-name="Trazado 1090142" d="M188.511,328.991a11.936,11.936,0,0,1-10.278,11.818,11.925,11.925,0,0,0,13.592-11.818l-3.314-1.657v1.657Z" transform="translate(-178.233 -297.959)" fill="#495959"/>
            <path id="Trazado_1090143" data-name="Trazado 1090143" d="M261.729,123.467h-3.314a2.305,2.305,0,0,1,2.305,2.305v1.316a1.153,1.153,0,0,1-1.153,1.153h3.314a1.153,1.153,0,0,0,1.153-1.153v-1.316A2.305,2.305,0,0,0,261.729,123.467Z" transform="translate(-246.862 -123.467)" fill="#495959"/>
          </g>
        </g>
        <g id="Grupo_1219056" data-name="Grupo 1219056" transform="translate(38.193 31.032)">
          <circle id="Elipse_14392" data-name="Elipse 14392" cx="14.323" cy="14.323" r="14.323" transform="translate(0)" fill="#ffe14d"/>
          <g id="Grupo_1219055" data-name="Grupo 1219055" transform="translate(4.774)">
            <circle id="Elipse_14393" data-name="Elipse 14393" cx="9.548" cy="9.548" r="9.548" transform="translate(0 4.774)" fill="#fabe2c"/>
            <path id="Trazado_1090144" data-name="Trazado 1090144" d="M378.69,222.867a14.471,14.471,0,0,0-1.657.1,14.323,14.323,0,0,1,0,28.453,14.471,14.471,0,0,0,1.657.1,14.323,14.323,0,0,0,0-28.645Z" transform="translate(-369.142 -222.867)" fill="#fabe2c"/>
          </g>
        </g>
      </g>
      <g id="Grupo_1219058" data-name="Grupo 1219058" transform="translate(16.566 0)">
        <path id="Trazado_1090145" data-name="Trazado 1090145" d="M83.24,67.031a.105.105,0,0,1-.062-.1V54.663a15.372,15.372,0,0,0,0-16.455V32.113a15.429,15.429,0,0,0-12.335-15.1,3.456,3.456,0,0,0-.136-3.461,8.254,8.254,0,0,0,5.309-7.7V2.274A2.276,2.276,0,0,0,73.743,0H59.555a1.081,1.081,0,1,0,0,2.161H73.743a.113.113,0,0,1,.113.113V5.855a6.087,6.087,0,0,1-6.08,6.081H65.153a5.826,5.826,0,0,0,1.316-3.694,1.081,1.081,0,1,0-2.161,0,3.694,3.694,0,1,1-7.387,0,1.081,1.081,0,0,0-2.161,0,5.827,5.827,0,0,0,1.316,3.694H54.66a15.009,15.009,0,0,0-7.287-8.179V2.274a.113.113,0,0,1,.113-.113h7.027a1.081,1.081,0,1,0,0-2.161H47.485a2.277,2.277,0,0,0-2.274,2.274v.642a13.152,13.152,0,0,0-3.694-.529C35.362,2.387,30.11,6.652,28.14,12.6a1.071,1.071,0,0,0-.05.154,16.432,16.432,0,0,0-.754,4.1A3.392,3.392,0,0,0,24.921,20.1v1.316a2.218,2.218,0,0,0,.151.8,3.463,3.463,0,0,0-1.345,2.739v4.774A3.472,3.472,0,0,0,27.2,33.193h1.352a13,13,0,0,0,4.729,8.986v3.588l-3.949,1.975H27.195A10.641,10.641,0,0,0,16.566,58.37V70.306a3.471,3.471,0,0,0,3.468,3.468h4.64a1.081,1.081,0,0,0,0-2.161H20.034a1.308,1.308,0,0,1-1.306-1.306V65.817h45.58v4.489A1.308,1.308,0,0,1,63,71.613H29.717a1.081,1.081,0,0,0,0,2.161H82.031a3.5,3.5,0,0,0,3.531-3.3,3.447,3.447,0,0,0-2.322-3.441ZM70.163,59.677A13.242,13.242,0,1,1,83.4,46.435,13.257,13.257,0,0,1,70.163,59.677ZM54.488,49.9h.665a15.348,15.348,0,0,0,2.711,5.8h-5.3A12.926,12.926,0,0,0,54.488,49.9ZM81.017,32.113v3.4A15.4,15.4,0,0,0,54.759,46.435c0,.44.02.876.056,1.307H53.708L49.76,45.767V42.179a13,13,0,0,0,4.729-8.986H55.84a3.472,3.472,0,0,0,3.468-3.468V24.951a3.463,3.463,0,0,0-1.344-2.739,2.219,2.219,0,0,0,.151-.8V20.1a3.366,3.366,0,0,0-.23-1.225h9.891A13.257,13.257,0,0,1,81.017,32.113ZM30.663,23.645h1.41l.007,1.019a3.773,3.773,0,0,0,7.432.893l.479-1.912H43.06l.48,1.912a3.773,3.773,0,0,0,7.432-.893l.007-1.019h1.395v7.387H44.894a1.3,1.3,0,0,1-.924-.383,3.472,3.472,0,0,0-4.9,0,1.3,1.3,0,0,1-.924.383H30.663Zm3.572,0h3.528l-.348,1.386a1.611,1.611,0,0,1-3.174-.381Zm11.053,0h3.528l-.007,1a1.611,1.611,0,0,1-3.174.381Zm11.858,1.306v4.774a1.308,1.308,0,0,1-1.306,1.306H54.534V23.645h1.309a1.308,1.308,0,0,1,1.3,1.306ZM29.947,14.1H53.089a14.331,14.331,0,0,1,.437,2.613H29.51a14.31,14.31,0,0,1,.437-2.613ZM69.082,15.4a1.308,1.308,0,0,1-1.306,1.306H55.692a16.545,16.545,0,0,0-.378-2.613H67.776A1.308,1.308,0,0,1,69.082,15.4ZM41.518,4.549a12.015,12.015,0,0,1,10.8,7.387H30.713A12.015,12.015,0,0,1,41.518,4.549ZM27.154,21.484a.072.072,0,0,1-.072-.072V20.1a1.226,1.226,0,0,1,1.225-1.225H54.728A1.226,1.226,0,0,1,55.953,20.1v1.316a.072.072,0,0,1-.072.072H27.154Zm-1.266,8.242V24.951a1.308,1.308,0,0,1,1.3-1.306H28.5v7.387H27.2a1.308,1.308,0,0,1-1.306-1.306Zm4.828,3.468h7.425a3.446,3.446,0,0,0,2.452-1.016,1.308,1.308,0,0,1,1.847,0,3.445,3.445,0,0,0,2.452,1.016h7.425a10.855,10.855,0,0,1-21.6,0Zm10.8,11.935A12.935,12.935,0,0,0,47.6,43.618v2.817s0,0,0,0v2.384a6.08,6.08,0,1,1-12.161,0v-5.2a12.936,12.936,0,0,0,6.081,1.51Zm0,11.936a8.251,8.251,0,0,0,8.242-8.242v-.639l2.591,1.3a10.853,10.853,0,0,1-21.666,0l2.591-1.3v.638a8.251,8.251,0,0,0,8.242,8.242ZM27.195,49.9h1.352a12.927,12.927,0,0,0,1.924,5.8H19.162A8.48,8.48,0,0,1,27.195,49.9ZM18.728,63.656V58.37c0-.171.007-.341.017-.511H32.16a12.994,12.994,0,0,0,18.715,0h8.967a15.438,15.438,0,0,0,4.465,2.821v2.974ZM83.4,70.371a1.357,1.357,0,0,1-1.372,1.242H66.213a3.449,3.449,0,0,0,.256-1.306V61.39a15.387,15.387,0,0,0,14.548-4.037v8.5H77.324a1.081,1.081,0,0,0,0,2.161h3.967a2.248,2.248,0,0,0,1.238,1.061,1.3,1.3,0,0,1,.874,1.3Z" transform="translate(-16.566 0)"/>
        <path id="Trazado_1090146" data-name="Trazado 1090146" d="M367.935,276.7a1.308,1.308,0,0,1,1.306,1.306,1.081,1.081,0,1,0,2.161,0,3.473,3.473,0,0,0-2.387-3.294v-.286a1.081,1.081,0,0,0-2.161,0v.286a3.467,3.467,0,0,0,1.081,6.762,1.306,1.306,0,1,1-1.306,1.306,1.081,1.081,0,0,0-2.161,0,3.473,3.473,0,0,0,2.387,3.294v.286a1.081,1.081,0,0,0,2.161,0v-.286a3.467,3.467,0,0,0-1.081-6.762,1.306,1.306,0,0,1,0-2.613Z" transform="translate(-314.338 -233.963)"/>
        <path id="Trazado_1090147" data-name="Trazado 1090147" d="M325.4,248.5a10.629,10.629,0,1,0,10.629,10.629A10.641,10.641,0,0,0,325.4,248.5Zm0,19.1a8.468,8.468,0,1,1,8.468-8.468A8.477,8.477,0,0,1,325.4,267.6Z" transform="translate(-271.798 -212.694)"/>
      </g>
    </g>
  </g>
</svg>
