<svg xmlns="http://www.w3.org/2000/svg" xmlns:xlink="http://www.w3.org/1999/xlink" width="400" height="423" viewBox="0 0 400 423">
  <defs>
    <clipPath id="clip-path">
      <rect id="Rectángulo_420908" data-name="Rectángulo 420908" width="400" height="423" transform="translate(1058.032 1123.49)" fill="#fff" stroke="#707070" stroke-width="1"/>
    </clipPath>
  </defs>
  <g id="Grupo_1219305" data-name="Grupo 1219305" transform="translate(-180 -8007)">
    <rect id="Rectángulo_420877" data-name="Rectángulo 420877" width="239" height="423" transform="translate(256 8007)" fill="#1172b3"/>
    <g id="Enmascarar_grupo_1098928" data-name="Enmascarar grupo 1098928" transform="translate(-878.032 6883.51)" clip-path="url(#clip-path)">
      <g id="POST_2" transform="translate(1063.516 1122.589)">
        <g id="Grupo_1219295" data-name="Grupo 1219295" transform="translate(0.063 0)">
          <g id="Grupo_1219291" data-name="Grupo 1219291">
            <path id="Trazado_1090408" data-name="Trazado 1090408" d="M-546.48,102.84V123.7a5.819,5.819,0,0,0,5.824,5.824h50.282a5.819,5.819,0,0,0,5.824-5.824V102.84H-546.48Z" transform="translate(576.507 -54.783)" fill="#bacbd1"/>
            <rect id="Rectángulo_420879" data-name="Rectángulo 420879" width="61.929" height="10.464" transform="translate(30.027 57.526)" fill="#9bacb2"/>
            <rect id="Rectángulo_420880" data-name="Rectángulo 420880" width="64.855" height="19.478" transform="translate(30.027 31.656)" fill="#9bacb2"/>
            <rect id="Rectángulo_420881" data-name="Rectángulo 420881" width="64.855" height="6.638" transform="translate(30.027 38.086)" fill="#bacbd1"/>
            <g id="Grupo_1219289" data-name="Grupo 1219289" transform="translate(13.636 31.665)">
              <circle id="Elipse_14398" data-name="Elipse 14398" cx="16.391" cy="16.391" r="16.391" fill="#9bacb2"/>
              <circle id="Elipse_14399" data-name="Elipse 14399" cx="9.971" cy="9.971" r="9.971" transform="translate(2.288 16.392) rotate(-45)" fill="#bacbd1"/>
              <path id="Trazado_1090409" data-name="Trazado 1090409" d="M-542.467,102.6a4.251,4.251,0,0,1-4.252,4.252,4.251,4.251,0,0,1-4.252-4.252,4.251,4.251,0,0,1,4.252-4.252A4.251,4.251,0,0,1-542.467,102.6Z" transform="translate(563.11 -86.21)" fill="#9bacb2"/>
            </g>
            <g id="Grupo_1219290" data-name="Grupo 1219290" transform="translate(75.565 31.665)">
              <circle id="Elipse_14400" data-name="Elipse 14400" cx="16.391" cy="16.391" r="16.391" fill="#9bacb2"/>
              <circle id="Elipse_14401" data-name="Elipse 14401" cx="9.971" cy="9.971" r="9.971" transform="translate(2.293 16.397) rotate(-45)" fill="#bacbd1"/>
              <path id="Trazado_1090410" data-name="Trazado 1090410" d="M-477.057,102.6a4.251,4.251,0,0,1-4.252,4.252,4.251,4.251,0,0,1-4.252-4.252,4.251,4.251,0,0,1,4.252-4.252A4.251,4.251,0,0,1-477.057,102.6Z" transform="translate(497.709 -86.21)" fill="#9bacb2"/>
            </g>
            <rect id="Rectángulo_420882" data-name="Rectángulo 420882" width="50.282" height="287.062" transform="translate(35.851 74.741)" fill="#bacbd1"/>
            <rect id="Rectángulo_420883" data-name="Rectángulo 420883" width="32.527" height="287.062" transform="translate(44.733 74.741)" fill="#9bacb2"/>
            <rect id="Rectángulo_420884" data-name="Rectángulo 420884" width="11.155" height="287.062" transform="translate(55.414 74.741)" fill="#bacbd1"/>
            <rect id="Rectángulo_420885" data-name="Rectángulo 420885" width="69.95" height="14.403" transform="translate(26.022 361.794)" fill="#9bacb2"/>
            <path id="Trazado_1090411" data-name="Trazado 1090411" d="M-481.039,449.08h-70.224a7.193,7.193,0,0,0-7.2,7.2,7.193,7.193,0,0,0,7.2,7.2h70.224a7.193,7.193,0,0,0,7.2-7.2A7.193,7.193,0,0,0-481.039,449.08Z" transform="translate(577.143 -73.158)" fill="#bacbd1"/>
            <rect id="Rectángulo_420886" data-name="Rectángulo 420886" width="70.092" height="6.496" transform="translate(25.946 390.325)" fill="#9bacb2"/>
            <path id="Trazado_1090412" data-name="Trazado 1090412" d="M-481.668,471.15h-70.111a17.466,17.466,0,0,0-17.461,17.461h105.034A17.46,17.46,0,0,0-481.668,471.15Z" transform="translate(577.715 -74.329)" fill="#bacbd1"/>
            <rect id="Rectángulo_420887" data-name="Rectángulo 420887" width="121.984" height="9.858" transform="translate(0 414.283)" fill="#9bacb2"/>
            <rect id="Rectángulo_420888" data-name="Rectángulo 420888" width="61.929" height="9.914" transform="translate(30.027 21.742)" fill="#bacbd1"/>
            <rect id="Rectángulo_420889" data-name="Rectángulo 420889" width="72.819" height="5.795" transform="translate(24.582 15.946)" fill="#9bacb2"/>
            <path id="Trazado_1090413" data-name="Trazado 1090413" d="M-547.309,68.036s-8.276-8.7-14.8-9.782V52.09h47.223V68.036h-32.432Z" transform="translate(577.337 -52.09)" fill="#bacbd1"/>
            <path id="Trazado_1090414" data-name="Trazado 1090414" d="M-479.807,68.036s8.276-8.7,14.8-9.782V52.09H-512.23V68.036H-479.8Z" transform="translate(574.69 -52.09)" fill="#bacbd1"/>
            <rect id="Rectángulo_420890" data-name="Rectángulo 420890" width="94.447" height="6.165" transform="translate(15.227 0)" fill="#9bacb2"/>
            <rect id="Rectángulo_420891" data-name="Rectángulo 420891" width="51.788" height="5" transform="translate(34.279 74.741)" fill="#9bacb2"/>
          </g>
          <g id="Grupo_1219294" data-name="Grupo 1219294" transform="translate(273.609)">
            <path id="Trazado_1090415" data-name="Trazado 1090415" d="M-195.3,102.84V123.7a5.819,5.819,0,0,0,5.824,5.824h50.282a5.819,5.819,0,0,0,5.824-5.824V102.84H-195.3Z" transform="translate(225.327 -54.783)" fill="#bacbd1"/>
            <rect id="Rectángulo_420892" data-name="Rectángulo 420892" width="61.929" height="10.464" transform="translate(30.027 57.526)" fill="#9bacb2"/>
            <rect id="Rectángulo_420893" data-name="Rectángulo 420893" width="64.855" height="19.478" transform="translate(30.027 31.656)" fill="#9bacb2"/>
            <rect id="Rectángulo_420894" data-name="Rectángulo 420894" width="64.855" height="6.638" transform="translate(30.027 38.086)" fill="#bacbd1"/>
            <g id="Grupo_1219292" data-name="Grupo 1219292" transform="translate(13.636 31.665)">
              <circle id="Elipse_14402" data-name="Elipse 14402" cx="16.391" cy="16.391" r="16.391" fill="#9bacb2"/>
              <circle id="Elipse_14403" data-name="Elipse 14403" cx="9.971" cy="9.971" r="9.971" transform="translate(4.404 23.797) rotate(-76.72)" fill="#bacbd1"/>
              <path id="Trazado_1090416" data-name="Trazado 1090416" d="M-191.287,102.6a4.251,4.251,0,0,1-4.252,4.252,4.251,4.251,0,0,1-4.252-4.252,4.251,4.251,0,0,1,4.252-4.252A4.251,4.251,0,0,1-191.287,102.6Z" transform="translate(211.93 -86.21)" fill="#9bacb2"/>
            </g>
            <g id="Grupo_1219293" data-name="Grupo 1219293" transform="translate(75.565 31.665)">
              <circle id="Elipse_14404" data-name="Elipse 14404" cx="16.391" cy="16.391" r="16.391" fill="#9bacb2"/>
              <circle id="Elipse_14405" data-name="Elipse 14405" cx="9.971" cy="9.971" r="9.971" transform="translate(4.407 23.805) rotate(-76.72)" fill="#bacbd1"/>
              <path id="Trazado_1090417" data-name="Trazado 1090417" d="M-125.887,102.6a4.251,4.251,0,0,1-4.252,4.252,4.251,4.251,0,0,1-4.252-4.252,4.251,4.251,0,0,1,4.252-4.252,4.251,4.251,0,0,1,4.252,4.252Z" transform="translate(146.53 -86.21)" fill="#9bacb2"/>
            </g>
            <rect id="Rectángulo_420895" data-name="Rectángulo 420895" width="50.282" height="287.062" transform="translate(35.851 74.741)" fill="#bacbd1"/>
            <rect id="Rectángulo_420896" data-name="Rectángulo 420896" width="32.527" height="287.062" transform="translate(44.724 74.741)" fill="#9bacb2"/>
            <rect id="Rectángulo_420897" data-name="Rectángulo 420897" width="11.155" height="287.062" transform="translate(55.414 74.741)" fill="#bacbd1"/>
            <rect id="Rectángulo_420898" data-name="Rectángulo 420898" width="69.95" height="14.403" transform="translate(26.012 361.794)" fill="#9bacb2"/>
            <path id="Trazado_1090418" data-name="Trazado 1090418" d="M-129.859,449.08h-70.224a7.193,7.193,0,0,0-7.2,7.2,7.193,7.193,0,0,0,7.2,7.2h70.224a7.193,7.193,0,0,0,7.2-7.2,7.193,7.193,0,0,0-7.2-7.2Z" transform="translate(225.963 -73.158)" fill="#bacbd1"/>
            <rect id="Rectángulo_420899" data-name="Rectángulo 420899" width="70.092" height="6.496" transform="translate(25.946 390.325)" fill="#9bacb2"/>
            <path id="Trazado_1090419" data-name="Trazado 1090419" d="M-130.488,471.15H-200.6a17.467,17.467,0,0,0-17.461,17.461h105.034A17.467,17.467,0,0,0-130.488,471.15Z" transform="translate(226.535 -74.329)" fill="#bacbd1"/>
            <rect id="Rectángulo_420900" data-name="Rectángulo 420900" width="121.984" height="9.858" transform="translate(0 414.283)" fill="#9bacb2"/>
            <rect id="Rectángulo_420901" data-name="Rectángulo 420901" width="61.929" height="9.914" transform="translate(30.027 21.742)" fill="#bacbd1"/>
            <rect id="Rectángulo_420902" data-name="Rectángulo 420902" width="72.819" height="5.795" transform="translate(24.582 15.946)" fill="#9bacb2"/>
            <path id="Trazado_1090420" data-name="Trazado 1090420" d="M-196.129,68.036s-8.276-8.7-14.8-9.782V52.09h47.223V68.036h-32.432Z" transform="translate(226.157 -52.09)" fill="#bacbd1"/>
            <path id="Trazado_1090421" data-name="Trazado 1090421" d="M-128.627,68.036s8.276-8.7,14.8-9.782V52.09H-161.05V68.036h32.432Z" transform="translate(223.51 -52.09)" fill="#bacbd1"/>
            <rect id="Rectángulo_420903" data-name="Rectángulo 420903" width="94.447" height="6.165" transform="translate(15.227 0)" fill="#9bacb2"/>
            <rect id="Rectángulo_420904" data-name="Rectángulo 420904" width="51.788" height="5" transform="translate(34.279 74.741)" fill="#9bacb2"/>
          </g>
        </g>
        <g id="Grupo_1219304" data-name="Grupo 1219304" transform="translate(20.518 94.144)">
          <path id="Trazado_1090422" data-name="Trazado 1090422" d="M-317.327,468.571h-44.2L-350.7,232.16h22.537Z" transform="translate(516.77 -155.79)" fill="#405c6f"/>
          <path id="Trazado_1090423" data-name="Trazado 1090423" d="M-329.806,468.571H-347.57l5.17-236.411h7.414Z" transform="translate(516.029 -155.79)" fill="#527689"/>
          <g id="Grupo_1219300" data-name="Grupo 1219300" transform="translate(0 51.964)">
            <g id="Grupo_1219297" data-name="Grupo 1219297">
              <path id="Trazado_1090424" data-name="Trazado 1090424" d="M-356.328,218.094s-23.077-22.688-57.952-4.9c-31.968,16.316-55.14,8.267-55.14,8.267s17.85,26.571,55.14,12.253,60.386,12.67,60.386,12.67Z" transform="translate(522.495 -206.387)" fill="#bc763f"/>
              <path id="Trazado_1090425" data-name="Trazado 1090425" d="M-515.131,355.16l-.9-.313,46.485-131.188L-423.2,354.848l-.89.313L-469.545,226.5Z" transform="translate(524.969 -207.303)" fill="#d4884d"/>
              <path id="Trazado_1090426" data-name="Trazado 1090426" d="M-486.442,354.97l-.938-.142,19.317-133.158L-448.8,354.827l-.937.142-18.323-126.69Z" transform="translate(523.449 -207.198)" fill="#d4884d"/>
              <g id="Grupo_1219296" data-name="Grupo 1219296" transform="translate(0 138.132)">
                <path id="Trazado_1090427" data-name="Trazado 1090427" d="M-419.493,363.51-438.006,384.3a21.8,21.8,0,0,1-1.61,1.629,24.322,24.322,0,0,1-16.571,6.524h-27.13A24.333,24.333,0,0,1-501.5,384.3L-520.01,363.51h100.517Z" transform="translate(525.18 -352.857)" fill="#bc763f"/>
                <path id="Trazado_1090428" data-name="Trazado 1090428" d="M-439.625,385.934a24.322,24.322,0,0,1-16.571,6.524h-27.13a24.333,24.333,0,0,1-18.181-8.153L-520.02,363.52H-500.9c3.835,8.276,11.032,16.107,18.105,19.63,4.053,2.027,8.608,2.784,13.1,3.362,9.924,1.269,20.435,1.648,30.084-.568Z" transform="translate(525.181 -352.858)" fill="#ac6c3a"/>
                <rect id="Rectángulo_420905" data-name="Rectángulo 420905" width="110.838" height="12.803" fill="#d4884d"/>
              </g>
              <circle id="Elipse_14406" data-name="Elipse 14406" cx="12.528" cy="12.528" r="12.528" transform="translate(42.896 5.249)" fill="#405c6f"/>
              <path id="Trazado_1090429" data-name="Trazado 1090429" d="M-462,224.866a5.246,5.246,0,0,1-5.246,5.246,5.246,5.246,0,0,1-5.246-5.246,5.246,5.246,0,0,1,5.246-5.246A5.246,5.246,0,0,1-462,224.866Z" transform="translate(522.658 -207.089)" fill="#d4884d"/>
            </g>
            <g id="Grupo_1219299" data-name="Grupo 1219299" transform="translate(186.081)">
              <path id="Trazado_1090430" data-name="Trazado 1090430" d="M-326.526,218.094s23.077-22.688,57.952-4.9c31.968,16.316,55.14,8.267,55.14,8.267s-17.85,26.571-55.14,12.253-60.386,12.67-60.386,12.67l2.434-28.294Z" transform="translate(328.96 -206.387)" fill="#bc763f"/>
              <path id="Trazado_1090431" data-name="Trazado 1090431" d="M-257.63,355.16l-.89-.313,46.475-131.188,46.352,131.188-.9.313L-212.045,226.5Z" transform="translate(325.222 -207.303)" fill="#d4884d"/>
              <path id="Trazado_1090432" data-name="Trazado 1090432" d="M-228.943,354.97l-.937-.142,19.317-133.158L-191.3,354.827l-.937.142-18.323-126.69Z" transform="translate(323.702 -207.198)" fill="#d4884d"/>
              <g id="Grupo_1219298" data-name="Grupo 1219298" transform="translate(57.763 138.132)">
                <path id="Trazado_1090433" data-name="Trazado 1090433" d="M-161.993,363.51-180.506,384.3a21.809,21.809,0,0,1-1.61,1.629,24.322,24.322,0,0,1-16.571,6.524h-27.13A24.333,24.333,0,0,1-244,384.3L-262.51,363.51h100.526Z" transform="translate(267.671 -352.857)" fill="#bc763f"/>
                <path id="Trazado_1090434" data-name="Trazado 1090434" d="M-182.126,385.934a24.322,24.322,0,0,1-16.571,6.524h-27.13a24.333,24.333,0,0,1-18.181-8.153L-262.52,363.52H-243.4c3.835,8.276,11.032,16.107,18.105,19.63,4.053,2.027,8.608,2.784,13.1,3.362,9.924,1.269,20.435,1.648,30.084-.568Z" transform="translate(267.671 -352.858)" fill="#ac6c3a"/>
                <rect id="Rectángulo_420906" data-name="Rectángulo 420906" width="110.838" height="12.803" fill="#d4884d"/>
              </g>
              <circle id="Elipse_14407" data-name="Elipse 14407" cx="12.528" cy="12.528" r="12.528" transform="translate(100.649 5.249)" fill="#405c6f"/>
              <path id="Trazado_1090435" data-name="Trazado 1090435" d="M-214.97,224.866a5.246,5.246,0,0,0,5.246,5.246,5.246,5.246,0,0,0,5.246-5.246,5.246,5.246,0,0,0-5.246-5.246A5.246,5.246,0,0,0-214.97,224.866Z" transform="translate(322.911 -207.089)" fill="#d4884d"/>
            </g>
          </g>
          <g id="Grupo_1219301" data-name="Grupo 1219301" transform="translate(165.289)">
            <circle id="Elipse_14408" data-name="Elipse 14408" cx="9.223" cy="9.223" r="9.223" transform="translate(0 40.771) rotate(-22.5)" fill="#bc763f"/>
            <path id="Trazado_1090436" data-name="Trazado 1090436" d="M-338.707,191.821a18.86,18.86,0,0,0-9.223-9.053l9.223-31.258Z" transform="translate(350.76 -151.51)" fill="#bc763f"/>
            <path id="Trazado_1090437" data-name="Trazado 1090437" d="M-338.19,191.821a18.86,18.86,0,0,1,9.223-9.053l-9.223-31.258Z" transform="translate(350.243 -151.51)" fill="#d4884d"/>
          </g>
          <g id="Grupo_1219302" data-name="Grupo 1219302" transform="translate(153.185 43.663)">
            <path id="Trazado_1090438" data-name="Trazado 1090438" d="M-319.857,197.62h-39.364A4.482,4.482,0,0,0-363.7,202.1v41.438a8.69,8.69,0,0,0,4.6,7.67l15.473,8.248a8.693,8.693,0,0,0,8.182,0l15.473-8.248a8.7,8.7,0,0,0,4.6-7.67V202.1a4.482,4.482,0,0,0-4.479-4.479Z" transform="translate(363.7 -197.62)" fill="#d4884d"/>
            <path id="Trazado_1090439" data-name="Trazado 1090439" d="M-324.848,206.65H-353.5a3.257,3.257,0,0,0-3.257,3.257v30.16a6.327,6.327,0,0,0,3.352,5.587l11.259,6a6.32,6.32,0,0,0,5.956,0l11.259-6a6.327,6.327,0,0,0,3.352-5.587v-30.16a3.257,3.257,0,0,0-3.257-3.257Z" transform="translate(363.332 -198.099)" fill="#bc763f"/>
          </g>
          <circle id="Elipse_14409" data-name="Elipse 14409" cx="8.882" cy="8.882" r="8.882" transform="translate(168.459 66.209)" fill="#d4884d"/>
          <g id="Grupo_1219303" data-name="Grupo 1219303" transform="translate(96.057 261.912)">
            <path id="Trazado_1090440" data-name="Trazado 1090440" d="M-276.416,482.091v7.178H-407.31v-7.178a5.87,5.87,0,0,1,5.871-5.871h119.152a5.87,5.87,0,0,1,5.871,5.871Z" transform="translate(423.143 -430.654)" fill="#d4884d"/>
            <path id="Trazado_1090441" data-name="Trazado 1090441" d="M-291.844,466.019v8.522H-390.05v-8.522a21.6,21.6,0,0,1,21.6-21.609h55.017a21.6,21.6,0,0,1,21.6,21.609Z" transform="translate(422.227 -428.965)" fill="#bc763f"/>
            <rect id="Rectángulo_420907" data-name="Rectángulo 420907" width="55.926" height="15.426" transform="translate(53.322 0.019)" fill="#d4884d"/>
            <path id="Trazado_1090442" data-name="Trazado 1090442" d="M-261.461,499.4H-424.03a10.756,10.756,0,0,1,10.757-10.757h141.045a10.688,10.688,0,0,1,7.6,3.153,10.744,10.744,0,0,1,3.153,7.6Z" transform="translate(424.03 -431.313)" fill="#bc763f"/>
            <path id="Trazado_1090443" data-name="Trazado 1090443" d="M-351.628,428.119v15.719s-14.819,1.25-12.992,29.819c0,0-6.771.994-6.089,11.751h-.142a8.244,8.244,0,0,0-4.3,1.288c-2.026,1.335-3.92,4.024-3.674,9.469H-424.03a10.756,10.756,0,0,1,10.757-10.757h5.076v-5.88a5.87,5.87,0,0,1,5.871-5.871h10.473v-8.522a21.6,21.6,0,0,1,21.6-21.609h-.454V428.1h19.081Z" transform="translate(424.03 -428.1)" fill="#a26231" opacity="0.3"/>
          </g>
        </g>
      </g>
    </g>
  </g>
</svg>
