<svg xmlns="http://www.w3.org/2000/svg" xmlns:xlink="http://www.w3.org/1999/xlink" width="400" height="258" viewBox="0 0 400 258">
  <defs>
    <clipPath id="clip-path">
      <rect id="Rectángulo_420346" data-name="Rectángulo 420346" width="400" height="258" transform="translate(996.309 842.489)" fill="#fff" stroke="#707070" stroke-width="1" opacity="0.91"/>
    </clipPath>
  </defs>
  <g id="Enmascarar_grupo_1098920" data-name="Enmascarar grupo 1098920" transform="translate(-996.309 -842.489)" clip-path="url(#clip-path)">
    <g id="Grupo_1218186" data-name="Grupo 1218186" transform="translate(1020 844.221)">
      <rect id="Rectángulo_420345" data-name="Rectángulo 420345" width="400" height="209" rx="32" transform="translate(-23.691 86.268)" fill="#9ec6e0"/>
      <g id="Grupo_1218185" data-name="Grupo 1218185" transform="translate(16.124 0)">
        <g id="plant" transform="translate(49.262 34.065)">
          <g id="Grupo_1218117" data-name="Grupo 1218117" transform="translate(0 0)">
            <path id="Trazado_1088143" data-name="Trazado 1088143" d="M2639.453,1095.3s2.68-10.2,16.537-8.132q-.549-.782-1.1-1.576c-1.385-2.006-2.8-4.121-4.211-6.319-1.839,1.606-9.492,7.179-20.452.006,0,0,9.493-9.5,19.344-1.747-2.057-3.265-4.1-6.7-6.058-10.267-1.529.98-13.292,8-21.326-2.691,0,0,13.654-7.313,20.031.286-1.7-3.219-3.313-6.527-4.787-9.887-1.868.814-13.759,5.343-23.674-6.406,0,0,15.024-7.024,22.851,4.486a109.393,109.393,0,0,1-4.011-11.129c-2.527.254-18.113,1.229-20.838-12.942a20.123,20.123,0,0,1,20.307,11.074,78.568,78.568,0,0,1-1.718-7.712c-1.789-2.437-10.441-15.378.478-24.221,0,0,11.725,18,.317,24.366a78.99,78.99,0,0,0,1.809,7.919c1.392-15.309,15.065-17.165,15.065-17.165,2.377,14.141-12.222,17.707-14.769,18.219a109.8,109.8,0,0,0,4.517,12.385c.592-14.925,17.11-14.612,17.11-14.612-3.166,14.463-14.862,15.217-16.84,15.24,1.678,3.846,3.547,7.623,5.518,11.281-1.2-11.024,15.938-12.955,15.938-12.955.153,12.674-12.748,13.984-15.307,14.12,2.329,4.244,4.786,8.309,7.237,12.113.191-13.505,15.653-12.2,15.653-12.2-2.849,12.849-13.979,12.556-15.487,12.456,1.318,2.039,2.634,4.006,3.926,5.877q.65.942,1.3,1.865c7.613-11,17.686-5.994,17.686-5.994-4.26,10.6-14.25,7.815-17.162,6.734,1.884,2.657,3.762,5.2,5.6,7.607,7.208-8.451,16.441-1.027,16.441-1.027-7.178,5.946-13.287,3.459-15.655,2.054a280.8,280.8,0,0,0,18.385,21.642.373.373,0,0,1-.007.531.387.387,0,0,1-.544-.02,282.564,282.564,0,0,1-18.931-22.345c.067,1.688-.231,9.321-10.9,11.549,0,0-1.094-11.5,10.649-11.875-1.941-2.545-3.931-5.243-5.925-8.066C2655.544,1090.243,2651.187,1099.6,2639.453,1095.3Z" transform="translate(-2609.407 -1008.125)" fill="#cfcfcf"/>
            <path id="Trazado_1088144" data-name="Trazado 1088144" d="M2645.4,1737.731s-2.032-6.984,6.9-10.672q-.6-.268-1.208-.543c-1.53-.7-3.116-1.446-4.731-2.245-.519,1.6-3.07,7.612-12.1,7.254,0,0,2.249-8.982,10.823-7.892-2.374-1.2-4.8-2.51-7.223-3.926-.557,1.122-5.026,9.444-13.569,5.969,0,0,5.484-9.167,11.95-6.932-2.147-1.3-4.274-2.686-6.336-4.152-.816,1.144-6.244,8.039-16.275,4.6,0,0,6.4-9.481,15.107-5.448a75.519,75.519,0,0,1-6.318-5.161c-1.405,1.046-10.279,7.148-16.914-.268a13.877,13.877,0,0,1,15.938-.649,54.144,54.144,0,0,1-3.75-3.953c-1.922-.807-11.628-5.394-8.3-14.5,0,0,13.315,6.487,8.826,14.3a54.317,54.317,0,0,0,3.877,4.043,12.628,12.628,0,0,1,2.826-15.495c6.419,7.522-.952,14.807-2.277,16.013a75.779,75.779,0,0,0,7.063,5.725c-4.94-9.038,4.941-14.709,4.941-14.709,3.255,9.677-3.4,14.27-4.558,14.985,2.356,1.68,4.8,3.252,7.263,4.716-4.617-6.1,4.834-13.313,4.834-13.313,4.584,7.443-2.583,12.792-4.048,13.779,2.882,1.685,5.777,3.218,8.575,4.6-4.674-8.056,4.935-12.765,4.935-12.765,2.871,8.61-3.817,12.383-4.744,12.858,1.5.739,2.979,1.436,4.406,2.085q.719.326,1.432.642c.6-9.207,8.335-9.815,8.335-9.815,1.24,7.783-5.658,9.674-7.763,10.068,2.056.9,4.068,1.742,6.007,2.516,1.268-7.555,9.361-6.436,9.361-6.436-2.138,6.062-6.633,6.756-8.532,6.765a193.753,193.753,0,0,0,18.547,6.283.257.257,0,0,1,.185.316.268.268,0,0,1-.329.181,195,195,0,0,1-19.12-6.506c.638.974,3.168,5.6-2.352,10.7,0,0-4.723-6.413,2.089-10.8-2.05-.817-4.184-1.708-6.364-2.671C2653.12,1729.033,2653.862,1736.114,2645.4,1737.731Z" transform="translate(-2605.505 -1626.788)" fill="#e3e3e3"/>
          </g>
          <g id="Grupo_1218118" data-name="Grupo 1218118" transform="translate(153.584 14.516)">
            <path id="Trazado_1088145" data-name="Trazado 1088145" d="M1008.645,1895.664c1.364-.858,2.807-1.734,4.312-2.606-1.174-.585-5.674-3.275-2.989-9.027,0,0,5,1.879,3.34,8.825q.417-.24.84-.479c1.069-.6,2.194-1.215,3.361-1.823-.725-1.02-3.176-5.2.915-10.407,0,0,4.343,5.306.021,9.925,1.728-.88,3.541-1.744,5.414-2.557-.426-.832-3.417-7.169,2.308-10.715,0,0,3.059,7.317-1.042,10.177,1.692-.7,3.425-1.356,5.178-1.936a10.254,10.254,0,0,1,4.279-11.722s2.852,8-3.277,11.4a54.07,54.07,0,0,1,5.767-1.478c-.014-1.3.2-9.279,7.432-9.949a10.2,10.2,0,0,1-6.453,9.77,38.939,38.939,0,0,1,3.931-.481c1.3-.787,8.188-4.535,12.138,1.467,0,0-9.56,5.056-12.246-1.07a38.959,38.959,0,0,0-4.057.52,9.448,9.448,0,0,1,7.941,8.533c-7.205.495-8.341-7.114-8.483-8.436a54.248,54.248,0,0,0-6.42,1.672c7.465,1.056,6.568,9.445,6.568,9.445-7.119-2.342-6.972-8.332-6.9-9.339-2.006.66-3.986,1.419-5.911,2.237,5.588-.052,5.788,8.764,5.788,8.764-6.37-.563-6.448-7.193-6.4-8.5-2.235.97-4.386,2.015-6.406,3.07,6.771.78,5.421,8.581,5.421,8.581a7.6,7.6,0,0,1-5.558-8.509c-1.083.568-2.129,1.138-3.127,1.7q-.5.282-.992.566c5.185,4.43,2.213,9.3,2.213,9.3-5.134-2.7-3.283-7.648-2.61-9.074-1.418.824-2.78,1.652-4.071,2.464,3.92,4.095-.222,8.418-.222,8.418-2.664-3.954-1.14-6.937-.328-8.07a139.568,139.568,0,0,0-11.69,8.262.186.186,0,0,1-.266-.03.2.2,0,0,1,.035-.276,140.418,140.418,0,0,1,12.067-8.5c-.851-.051-4.669-.589-5.309-6.129C1003.159,1889.647,1008.982,1889.67,1008.645,1895.664Z" transform="translate(-986.812 -1808.502)" fill="#e3e3e3"/>
            <path id="Trazado_1088146" data-name="Trazado 1088146" d="M1023.656,1239.9c.95-2.8,1.993-5.723,3.129-8.709-2.35.525-11.882,1.9-14.716-9.406,0,0,9.3-3.114,14.982,8.711q.317-.825.644-1.656c.825-2.1,1.721-4.273,2.679-6.491-2.215-.614-10.545-3.728-10.749-15.895,0,0,12.335,2.533,11.525,14.123,1.444-3.254,3.028-6.587,4.756-9.915-1.57-.693-13.173-6.262-9.12-17.947,0,0,12.835,6.888,10.3,15.715,1.6-2.961,3.313-5.9,5.14-8.756-1.611-1.038-11.364-7.973-7.477-21.664,0,0,13.33,8.1,8.532,20.046a99.417,99.417,0,0,1,6.509-8.786c-1.524-1.835-10.467-13.453-.928-22.788a18.725,18.725,0,0,1,2.116,21.4,71.527,71.527,0,0,1,5.046-5.239c.947-2.631,6.419-15.948,19-11.966,0,0-7.771,18.279-18.7,12.657a71.69,71.69,0,0,0-5.181,5.44,17.353,17.353,0,0,1,21.2,2.967c-9.7,9.05-20.128-.481-21.862-2.2a99.78,99.78,0,0,0-7.215,9.819c11.865-7.141,20.3,5.857,20.3,5.857-12.859,4.906-19.588-3.8-20.645-5.327-2.1,3.264-4.038,6.64-5.834,10.035,7.905-6.546,18.4,5.789,18.4,5.789-9.731,6.575-17.523-2.786-18.972-4.706-2.062,3.971-3.918,7.952-5.575,11.795,10.556-6.73,17.666,5.954,17.666,5.954-11.443,4.33-17.064-4.47-17.778-5.692-.886,2.063-1.718,4.088-2.488,6.045q-.387.982-.759,1.956c12.522.31,13.929,10.7,13.929,10.7-10.45,2.09-13.538-7.1-14.23-9.911-1.067,2.818-2.05,5.574-2.95,8.227,10.33,1.3,9.433,12.256,9.433,12.256-8.376-2.551-9.658-8.569-9.814-11.124a256.385,256.385,0,0,0-7.1,25.315.342.342,0,0,1-.414.265.366.366,0,0,1-.27-.433,258.07,258.07,0,0,1,7.353-26.1c-1.273.913-7.338,4.567-14.665-2.588C1008.868,1237.674,1017.194,1230.964,1023.656,1239.9Z" transform="translate(-1008.869 -1166.482)" fill="#cfcfcf"/>
          </g>
        </g>
        <g id="judge" transform="translate(68.031 23.14)">
          <path id="Trazado_1088147" data-name="Trazado 1088147" d="M1440.348,1071.889h99.081a23.2,23.2,0,0,0,23.2-23.2V912.148a23.2,23.2,0,0,0-23.2-23.2h-99.082a23.2,23.2,0,0,0-23.2,23.2v136.537A23.2,23.2,0,0,0,1440.348,1071.889Z" transform="translate(-1399.087 -888.944)" fill="#d49853"/>
          <g id="Grupo_1218133" data-name="Grupo 1218133" transform="translate(57.329 9.919)">
            <path id="Trazado_1088148" data-name="Trazado 1088148" d="M1949.442,1003.561a28.639,28.639,0,0,1,8.208,17.513c2.741,24.775-17.518,31.29-25.9,30.438-4.448-.452-9.72-2.525-12.088-6.58-2.415-4.137-.32-9.206-4.283-12.867-3.437-3.176-8.518-1.931-9.717-7.3a15.753,15.753,0,0,1-.115-5.039c.6-5.816,2.17-11.658,6.7-15.56a29.064,29.064,0,0,1,12.579-6.045C1933.795,996.088,1942.526,996.978,1949.442,1003.561Z" transform="translate(-1896.442 -997.156)" fill="#312a2a"/>
            <g id="Grupo_1218121" data-name="Grupo 1218121" transform="translate(0 0.712)">
              <g id="Grupo_1218119" data-name="Grupo 1218119" transform="translate(60.357 22.932)">
                <path id="Trazado_1088149" data-name="Trazado 1088149" d="M1813.876,1294.942a.516.516,0,0,0,.076-.006,9.023,9.023,0,0,0,5.4-3.07,11.627,11.627,0,0,0,2.721-5.693c.613-3.62-.3-7.752-2.641-11.95-.553-.991-1.167-1.967-1.761-2.911a27.377,27.377,0,0,1-3.376-6.622,23.152,23.152,0,0,1-.362-9.047.5.5,0,0,0-1-.113,24.055,24.055,0,0,0,.4,9.445,28.127,28.127,0,0,0,3.49,6.874c.587.933,1.194,1.9,1.734,2.865,1.554,2.786,3.253,7.006,2.528,11.29-.59,3.485-3.279,7.33-7.275,7.935a.5.5,0,0,0,.075,1Z" transform="translate(-1812.65 -1255.083)" fill="#1a292f"/>
              </g>
              <path id="Trazado_1088150" data-name="Trazado 1088150" d="M1894.291,1010.451a24.674,24.674,0,0,1,7.89,18.505c-.049,3.674-.823,7.318-.681,11,.15,3.9,1.64,7.564,2.787,11.262a36.641,36.641,0,0,1,1.743,7.384,12.3,12.3,0,0,1-1.363,7.353c-4.362,7.453-15.858,4.114-22.636,3.4a171.775,171.775,0,0,0-17.645-1.254c-9.276-.021-19.192-1.714-22.9-11.5a16.808,16.808,0,0,1,1.408-14.7c2.641-4.182,7.063-6.932,10.028-10.891,2.5-3.338,3.847-7.372,5.263-11.294s3-7.909,5.851-10.956c4.153-4.442,8.406-3.676,13.745-3.824C1883.9,1004.761,1889.638,1006.274,1894.291,1010.451Z" transform="translate(-1838.684 -1004.918)" fill="#312a2a"/>
              <g id="Grupo_1218120" data-name="Grupo 1218120" transform="translate(0 14.419)">
                <path id="Trazado_1088151" data-name="Trazado 1088151" d="M2346.071,1200.939a.5.5,0,0,0,.263-.935,11.957,11.957,0,0,1-3.663-16.938,20.777,20.777,0,0,1,3.74-3.929c1.006-.864,2.069-1.731,3.1-2.569,4.753-3.876,9.668-7.884,11.724-13.682a.5.5,0,0,0-.95-.337c-1.962,5.532-6.766,9.449-11.412,13.238-1.033.842-2.1,1.714-3.116,2.585a21.673,21.673,0,0,0-3.916,4.127,12.966,12.966,0,0,0,3.972,18.367A.5.5,0,0,0,2346.071,1200.939Z" transform="translate(-2339.603 -1162.213)" fill="#1a292f"/>
              </g>
            </g>
            <path id="Trazado_1088152" data-name="Trazado 1088152" d="M1952.384,1329.505l.446-33.444-22.4,9.888-.247,25.106a4.554,4.554,0,0,1-2.525,4.032l-10.925,5.435s19.534,23.871,50.881-2.637c-3.934-1.2-8.977-2.915-12.169-4.016A4.55,4.55,0,0,1,1952.384,1329.505Z" transform="translate(-1907.196 -1268.662)" fill="#e0997a"/>
            <path id="Trazado_1088153" data-name="Trazado 1088153" d="M2101.332,1393.008l.137-10.243c-1.235-.867-2.829-1.145-3.513-2.789l-18.859,7.432q-.079,8.315-.159,16.631a24.068,24.068,0,0,0,22.394-11.031Z" transform="translate(-2055.916 -1344.884)" fill="#c7795e"/>
            <g id="Grupo_1218131" data-name="Grupo 1218131" transform="translate(9.821 4.801)">
              <g id="Grupo_1218130" data-name="Grupo 1218130">
                <g id="Grupo_1218122" data-name="Grupo 1218122" transform="translate(0 24.066)">
                  <path id="Trazado_1088154" data-name="Trazado 1088154" d="M2371.185,1315.455s-4.7-5.98-8.331-2.063a5.789,5.789,0,0,0-1.513,4.009c.043,3.128,1.657,8.161,9.45,8.193C2370.729,1325.937,2371.185,1315.455,2371.185,1315.455Z" transform="translate(-2361.34 -1312.061)" fill="#c7795e"/>
                </g>
                <path id="Trazado_1088155" data-name="Trazado 1088155" d="M2084.043,1075.753c-.553,14.1-8.908,24.354-18.651,24.829-14.653.714-17.2-12.119-16.648-26.215s8.9-25.212,18.651-24.829S2084.6,1061.657,2084.043,1075.753Z" transform="translate(-2045.565 -1049.528)" fill="#e0997a"/>
                <path id="Trazado_1088156" data-name="Trazado 1088156" d="M2199.4,1314.541c-.1.945.219,1.751.706,1.8s.961-.675,1.058-1.62-.219-1.752-.706-1.8S2199.5,1313.6,2199.4,1314.541Z" transform="translate(-2176.491 -1288.774)" fill="#312a2a"/>
                <path id="Trazado_1088157" data-name="Trazado 1088157" d="M2365.432,1322.941c-.1.945.219,1.752.706,1.8s.961-.675,1.058-1.62-.219-1.752-.706-1.8S2365.529,1322,2365.432,1322.941Z" transform="translate(-2357.742 -1296.404)" fill="#312a2a"/>
                <g id="Grupo_1218123" data-name="Grupo 1218123" transform="translate(19.763 20.522)">
                  <path id="Trazado_1088158" data-name="Trazado 1088158" d="M2176.469,1275.174a.53.53,0,0,0,.063,0l6.066-.758a.5.5,0,1,0-.125-1l-6.066.758a.5.5,0,0,0,.062,1Z" transform="translate(-2175.965 -1273.407)" fill="#1a292f"/>
                </g>
                <g id="Grupo_1218124" data-name="Grupo 1218124" transform="translate(6.29 20.756)">
                  <path id="Trazado_1088159" data-name="Trazado 1088159" d="M2343.354,1278.235a.5.5,0,0,0,.132-.991l-4.669-1.273a.5.5,0,1,0-.265.973l4.67,1.273A.487.487,0,0,0,2343.354,1278.235Z" transform="translate(-2338.18 -1275.953)" fill="#1a292f"/>
                </g>
                <g id="Grupo_1218125" data-name="Grupo 1218125" transform="translate(12.845 23.454)">
                  <path id="Trazado_1088160" data-name="Trazado 1088160" d="M2273.814,1317.775a10.9,10.9,0,0,0,2-.214.5.5,0,0,0-.188-.991c-2.4.456-3.213.03-3.48-.265a.88.88,0,0,1-.18-.749c2.018-5.794,1.41-9.592,1.383-9.751a.5.5,0,0,0-.994.167h0a20.825,20.825,0,0,1-1.347,9.27c0,.008-.006.016-.008.025a1.873,1.873,0,0,0,.4,1.716A3.139,3.139,0,0,0,2273.814,1317.775Z" transform="translate(-2270.943 -1305.385)" fill="#1a292f"/>
                </g>
                <g id="Grupo_1218129" data-name="Grupo 1218129" transform="translate(34.995 24.358)">
                  <path id="Trazado_1088161" data-name="Trazado 1088161" d="M1968.338,1317.554s5.794-4.927,8.575-.366a5.79,5.79,0,0,1,.687,4.23c-.664,3.057-3.246,7.669-10.89,6.152C1966.7,1327.919,1968.338,1317.554,1968.338,1317.554Z" transform="translate(-1966.71 -1315.251)" fill="#e0997a"/>
                  <g id="Grupo_1218128" data-name="Grupo 1218128" transform="translate(1.894 3.936)">
                    <g id="Grupo_1218126" data-name="Grupo 1218126">
                      <path id="Trazado_1088162" data-name="Trazado 1088162" d="M1986.882,1363.484a.5.5,0,0,0,.438-.253,8.025,8.025,0,0,1,5.923-4.04.5.5,0,0,0-.077-1.005,9.04,9.04,0,0,0-6.72,4.542.5.5,0,0,0,.437.756Z" transform="translate(-1986.378 -1358.184)" fill="#1a292f"/>
                    </g>
                    <g id="Grupo_1218127" data-name="Grupo 1218127" transform="translate(2.615 1.649)">
                      <path id="Trazado_1088163" data-name="Trazado 1088163" d="M2011.474,1378.867a.5.5,0,0,0,.365-.852l-1.6-1.682a.5.5,0,1,0-.731.694l1.6,1.683A.5.5,0,0,0,2011.474,1378.867Z" transform="translate(-2009.371 -1376.177)" fill="#1a292f"/>
                    </g>
                  </g>
                </g>
              </g>
            </g>
            <path id="Trazado_1088164" data-name="Trazado 1088164" d="M2037.933,1053.308c-.859-2.091-.614-6.217-.275-8.451a35.616,35.616,0,0,1,2.032-8.313,13.927,13.927,0,0,1,5.247-6.613,19.263,19.263,0,0,1,7.109-2.268,31.275,31.275,0,0,1,9.919-.432,13.186,13.186,0,0,1,8.545,4.653,15.19,15.19,0,0,1,1.909,3.513c2.388,5.844,2.251,12.918.808,19.063-1.338-.153-15.417-6.206-21.734-20.134C2038.924,1036.165,2038.62,1051.641,2037.933,1053.308Z" transform="translate(-2024.906 -1024.26)" fill="#312a2a"/>
            <g id="Grupo_1218132" data-name="Grupo 1218132" transform="translate(22.165 45.087)">
              <path id="Trazado_1088165" data-name="Trazado 1088165" d="M2234.059,1490.7a18.586,18.586,0,0,0,5.012-.7.5.5,0,1,0-.271-.971,17.328,17.328,0,0,1-6.42.578,16.877,16.877,0,0,1-1.88-.3.5.5,0,1,0-.214.986,17.884,17.884,0,0,0,1.993.316C2232.87,1490.666,2233.464,1490.7,2234.059,1490.7Z" transform="translate(-2229.889 -1489.008)" fill="#1a292f"/>
            </g>
          </g>
          <g id="Grupo_1218148" data-name="Grupo 1218148" transform="translate(0 70.281)">
            <path id="Trazado_1088166" data-name="Trazado 1088166" d="M1346.428,1762.713s-.417-14.391-6.466-22.943-7.3-15.852-7.3-15.852,4.172-13.974,2.086-17.52-21.9-28.783-21.9-28.783a237.959,237.959,0,0,0-29.489-13.51c-6.376-2.41-12.507-4.413-18.316-6.084a87.023,87.023,0,0,1-19.737,2.532c-4.9.017-6.806-.506-6.825-.875-.016-.325,1.436-.439,1.631-1.2.2-.778-1.02-1.819-2.637-2.836-7.184,2.271-13.155,4.466-17.623,6.206-8.486,3.3-13.923,5.448-20.545,9.31a99.449,99.449,0,0,0-12.947,9c-3.721,6.057-6.964,11.606-9.734,16.5,0,0-8.223,14.531-10.4,25.8a11.075,11.075,0,0,0-.275,3.583c.262,2.529,1.495,3.531.275,6.428-1.669,3.963-8.969,14.183-6.466,19.4,0,0,.269,5.1,7.926,10.845C1185.12,1775.8,1329.879,1764.085,1346.428,1762.713Z" transform="translate(-1159.24 -1655.643)" fill="#1d2e36"/>
            <g id="Grupo_1218134" data-name="Grupo 1218134" transform="translate(100.72 30.126)">
              <path id="Trazado_1088167" data-name="Trazado 1088167" d="M1643.113,2044.029a.318.318,0,0,0,.184-.058.321.321,0,0,0,.079-.447c-.01-.014-1-1.421-2.38-3.081a2.711,2.711,0,0,1-.034-3.15l18.319-7.328-.173-.317a12.991,12.991,0,0,1-1.5-3.646c.437-.487,4.353-2.134,6.959-3.229,4.2-1.764,5.448-2.329,5.658-2.679.423-.705,10.805-31.836,11.988-35.384a.321.321,0,1,0-.609-.2c-3.161,9.482-11.421,34.168-11.924,35.245a49.889,49.889,0,0,1-5.362,2.429c-5.948,2.5-7.252,3.153-7.339,3.673-.13.778.923,2.888,1.394,3.781l-17.831,7.133-.055.076a3.336,3.336,0,0,0,.015,4.008c1.365,1.638,2.338,3.024,2.348,3.038A.32.32,0,0,0,1643.113,2044.029Zm14.477-18h0Z" transform="translate(-1639.814 -1984.29)" fill="#d8f8e8"/>
            </g>
            <g id="Grupo_1218137" data-name="Grupo 1218137" transform="translate(83.443 48.134)">
              <g id="Grupo_1218135" data-name="Grupo 1218135" transform="translate(5.391)">
                <path id="Trazado_1088168" data-name="Trazado 1088168" d="M2214.808,2217.117h.01a.321.321,0,0,0,.311-.331l-1.079-35.733a.321.321,0,0,0-.321-.311h-.01a.321.321,0,0,0-.311.331l1.079,35.733A.32.32,0,0,0,2214.808,2217.117Z" transform="translate(-2213.408 -2180.741)" fill="#d8f8e8"/>
              </g>
              <g id="Grupo_1218136" data-name="Grupo 1218136" transform="translate(0 5.34)">
                <path id="Trazado_1088169" data-name="Trazado 1088169" d="M2255.962,2269.465a.321.321,0,0,0,.319-.293l2.6-29.83a.321.321,0,1,0-.639-.055l-2.6,29.83a.321.321,0,0,0,.292.347Z" transform="translate(-2255.64 -2238.992)" fill="#d8f8e8"/>
              </g>
            </g>
            <g id="Grupo_1218138" data-name="Grupo 1218138" transform="translate(35.792 34.946)">
              <path id="Trazado_1088170" data-name="Trazado 1088170" d="M2475.168,2091.372a.316.316,0,0,0,.177-.054c.061-.04,1.5-1.031,2.631-4.62.979-3.1-1.543-4.607-3.768-5.937-.518-.31-1.008-.6-1.454-.912-2.293-1.587-10.795-5.9-11.893-6.459l-15.621-36.325a.321.321,0,1,0-.589.253l15.713,36.539.1.053c.1.048,9.556,4.829,11.921,6.467.464.321.986.633,1.49.935,2.217,1.326,4.311,2.579,3.485,5.194-1.054,3.339-2.364,4.272-2.377,4.281a.321.321,0,0,0,.181.586Z" transform="translate(-2444.625 -2036.87)" fill="#d8f8e8"/>
            </g>
            <g id="Grupo_1218139" data-name="Grupo 1218139" transform="translate(31.249 28.179)">
              <path id="Trazado_1088171" data-name="Trazado 1088171" d="M2820.623,1989.564l.042,0a.321.321,0,0,0,.277-.359l-3.338-25.873a.321.321,0,1,0-.636.082l3.337,25.873A.322.322,0,0,0,2820.623,1989.564Z" transform="translate(-2816.965 -1963.049)" fill="#d8f8e8"/>
            </g>
            <g id="Grupo_1218140" data-name="Grupo 1218140" transform="translate(148.055 28.179)">
              <path id="Trazado_1088172" data-name="Trazado 1088172" d="M1556.041,1989.563h.029a.321.321,0,0,0,.29-.349L1554,1963.34a.321.321,0,0,0-.639.058l2.364,25.873A.321.321,0,0,0,1556.041,1989.563Z" transform="translate(-1553.356 -1963.048)" fill="#d8f8e8"/>
            </g>
            <path id="Trazado_1088173" data-name="Trazado 1088173" d="M2003.372,2672.175l-7.416-12.885h-3.43l-26.605,12.885Z" transform="translate(-1890.13 -2567.288)" fill="#e0997a"/>
            <path id="Trazado_1088174" data-name="Trazado 1088174" d="M2056.23,2664.729s-8.9-10.846-10.012-12.052-1.972-1.483-4.277-1.575-12.038.556-15.283.741c-4.65.266-6.729.349-8.25.278-.563-.026-3.708-.186-3.708-.186h0c-1.314,3.107-4.524,5.814-4.264,9.178a10.621,10.621,0,0,0,.974,3.662Z" transform="translate(-1947.068 -2559.842)" fill="#e0997a"/>
            <g id="Grupo_1218141" data-name="Grupo 1218141" transform="translate(93.09 90.522)">
              <path id="Trazado_1088175" data-name="Trazado 1088175" d="M2022.831,2658.017a.5.5,0,0,0,.392-.82l-10.2-12.654a.484.484,0,0,0-.066-.068c-.065-.055-1.6-1.326-5.313-1.326h-.206a.5.5,0,1,0,.012,1.008c3.164-.042,4.608.906,4.824,1.064l10.16,12.608A.5.5,0,0,0,2022.831,2658.017Z" transform="translate(-2006.943 -2643.148)" fill="#1a292f"/>
            </g>
            <g id="Grupo_1218142" data-name="Grupo 1218142" transform="translate(96.839 93.49)">
              <path id="Trazado_1088176" data-name="Trazado 1088176" d="M2051.692,2687.058a.5.5,0,0,0,.395-.817l-8.343-10.522a.5.5,0,1,0-.79.626l8.343,10.521A.5.5,0,0,0,2051.692,2687.058Z" transform="translate(-2042.844 -2675.528)" fill="#1a292f"/>
            </g>
            <g id="Grupo_1218143" data-name="Grupo 1218143" transform="translate(93.09 94.927)">
              <path id="Trazado_1088177" data-name="Trazado 1088177" d="M2089.882,2701.3a.5.5,0,0,0,.366-.851l-8.616-9.084a.5.5,0,1,0-.731.694l8.616,9.085A.5.5,0,0,0,2089.882,2701.3Z" transform="translate(-2080.761 -2691.203)" fill="#1a292f"/>
            </g>
            <g id="Grupo_1218144" data-name="Grupo 1218144" transform="translate(88.032 96.596)">
              <path id="Trazado_1088178" data-name="Trazado 1088178" d="M2143.167,2717.831a.5.5,0,0,0,.325-.89l-8.807-7.416a.5.5,0,0,0-.649.771l8.807,7.416A.5.5,0,0,0,2143.167,2717.831Z" transform="translate(-2133.857 -2709.406)" fill="#1a292f"/>
            </g>
            <g id="Grupo_1218145" data-name="Grupo 1218145" transform="translate(73.755 101.276)">
              <path id="Trazado_1088179" data-name="Trazado 1088179" d="M2198.581,2764.58h.032a26.291,26.291,0,0,0,2.985-.379,19.482,19.482,0,0,0,3.192-1.261,16.523,16.523,0,0,1,3.925-1.464c.871.031,4.663,1.665,6.85,2.688a.5.5,0,0,0,.427-.914c-.6-.28-5.88-2.733-7.241-2.782-.792-.028-2.247.6-4.374,1.552a20.482,20.482,0,0,1-2.97,1.191,26.009,26.009,0,0,1-2.855.362.5.5,0,0,0,.03,1.007Z" transform="translate(-2198.078 -2760.465)" fill="#1a292f"/>
            </g>
            <path id="Trazado_1088180" data-name="Trazado 1088180" d="M1909.753,2631.749s-1.854-5.655-4.264-7.973a41.207,41.207,0,0,0-7.323-4.913l6.211-4.079s8.251,4.264,10.475,9.456,2.41,7.509,2.41,7.509Z" transform="translate(-1797.809 -2526.862)" fill="#fff"/>
            <path id="Trazado_1088181" data-name="Trazado 1088181" d="M2453.84,2630.589a13.4,13.4,0,0,0-3.522-1.344,13.717,13.717,0,0,0-6.675.186c-.686.794-4.889,5.7-6.118,9.085a4.86,4.86,0,0,0-.324,2.178,4.977,4.977,0,0,0,1.854,3.384c1.324.907,2.417.318,7.423.48.7.022,1.283.054,1.662.076a10.44,10.44,0,0,1-.417-4.311c.485-4.057,3.436-7.051,5.282-8.925C2453.35,2631.047,2453.645,2630.769,2453.84,2630.589Z" transform="translate(-2383.797 -2539.7)" fill="#fff"/>
            <g id="Grupo_1218146" data-name="Grupo 1218146" transform="translate(13.128 71.379)">
              <path id="Trazado_1088182" data-name="Trazado 1088182" d="M2641.463,2445.558h0c6.092,0,10.609-1.165,13.426-3.461,6.51-5.308,16.623-7.128,16.725-7.146a.321.321,0,0,0-.111-.632c-.1.018-10.38,1.868-17.019,7.281-3.36,2.74-8.93,3.316-13.01,3.317h-.01a51.161,51.161,0,0,1-8.178-.672.321.321,0,1,0-.115.631A51.843,51.843,0,0,0,2641.463,2445.558Z" transform="translate(-2632.906 -2434.314)" fill="#d8f8e8"/>
            </g>
            <g id="Grupo_1218147" data-name="Grupo 1218147" transform="translate(119.41 74.687)">
              <path id="Trazado_1088183" data-name="Trazado 1088183" d="M1560.847,2478.621a.321.321,0,0,0,0-.642,31.562,31.562,0,0,1-15.685-4.3,25.627,25.627,0,0,0-4.958-2.251,25.264,25.264,0,0,0-12.842-.387.321.321,0,0,0,.13.628,24.634,24.634,0,0,1,12.518.37,25.068,25.068,0,0,1,4.842,2.2,32.2,32.2,0,0,0,15.985,4.375Z" transform="translate(-1527.111 -2470.408)" fill="#d8f8e8"/>
            </g>
          </g>
          <g id="Grupo_1218154" data-name="Grupo 1218154" transform="translate(75.863 69.05)">
            <path id="Trazado_1088184" data-name="Trazado 1088184" d="M2060.249,1646.945a37.846,37.846,0,0,1-5.23,4.17c-9.836,6.416-17.33,3.092-22.072-1.186a27.947,27.947,0,0,1-3.988-4.5l.472-1.053a3.665,3.665,0,0,1,3.947-2.115h0c11.525,9.227,19.177,3.554,22.115.406l1.066,0a3.693,3.693,0,0,1,3.724,4.027C2060.276,1646.771,2060.264,1646.857,2060.249,1646.945Z" transform="translate(-2028.707 -1642.205)" fill="#fff"/>
            <g id="Grupo_1218153" data-name="Grupo 1218153" transform="translate(0 5.973)">
              <path id="Trazado_1088185" data-name="Trazado 1088185" d="M2196.77,1740.811l-3.506-.876c-3.187-.8-4.406-6.177-2.547-11.244l5.656-15.417c1.463-3.988,4.356-6.437,6.865-5.811h0c2.508.627,3.91,4.148,3.326,8.356l-2.258,16.266C2203.562,1737.432,2199.956,1741.608,2196.77,1740.811Z" transform="translate(-2189.841 -1707.367)" fill="#fff"/>
              <path id="Trazado_1088186" data-name="Trazado 1088186" d="M2056.286,1745.62l3.582-.476c3.256-.433,5.072-5.643,3.793-10.887l-3.889-15.955c-1.007-4.127-3.606-6.885-6.169-6.544h0c-2.563.341-4.351,3.683-4.244,7.93l.418,16.416C2049.915,1741.5,2053.03,1746.053,2056.286,1745.62Z" transform="translate(-2034.343 -1711.33)" fill="#fff"/>
              <g id="Grupo_1218149" data-name="Grupo 1218149" transform="translate(22.267 9.558)">
                <path id="Trazado_1088187" data-name="Trazado 1088187" d="M2073.416,1835.419a.524.524,0,0,0,.1-.01.5.5,0,0,0,.391-.6l-4.729-22.77a.5.5,0,0,0-.987.2l4.729,22.77A.5.5,0,0,0,2073.416,1835.419Z" transform="translate(-2068.183 -1811.641)" fill="#1a292f"/>
              </g>
              <g id="Grupo_1218150" data-name="Grupo 1218150" transform="translate(20.367 17.599)">
                <path id="Trazado_1088188" data-name="Trazado 1088188" d="M2115.662,1916.349a.479.479,0,0,0,.08-.006.5.5,0,0,0,.419-.577l-2.557-15.989a.5.5,0,0,0-1,.159l2.557,15.989A.5.5,0,0,0,2115.662,1916.349Z" transform="translate(-2112.602 -1899.351)" fill="#1a292f"/>
              </g>
              <g id="Grupo_1218151" data-name="Grupo 1218151" transform="translate(14.779 2.344)">
                <path id="Trazado_1088189" data-name="Trazado 1088189" d="M2192.167,1749.91a.5.5,0,0,0,.5-.476l.9-15.958a.5.5,0,1,0-1.007-.057l-.9,15.958a.5.5,0,0,0,.475.532Z" transform="translate(-2191.662 -1732.943)" fill="#1a292f"/>
              </g>
              <g id="Grupo_1218152" data-name="Grupo 1218152" transform="translate(0.59 10.955)">
                <path id="Trazado_1088190" data-name="Trazado 1088190" d="M2288.6,1847.136a.5.5,0,0,0,.5-.446c.188-.771,3.812-11.831,6.226-19.148a.5.5,0,1,0-.958-.316c-.016.048-1.6,4.84-3.149,9.585-.912,2.787-1.636,5.012-2.152,6.614-.307.952-.542,1.692-.7,2.2-.084.271-.15.485-.193.633-.08.273-.128.437-.006.637A.5.5,0,0,0,2288.6,1847.136Zm.432-.765Zm0,0h0Z" transform="translate(-2288.094 -1826.879)" fill="#1a292f"/>
              </g>
            </g>
          </g>
          <g id="Grupo_1218155" data-name="Grupo 1218155" transform="translate(34.404 9.477)">
            <path id="Trazado_1088191" data-name="Trazado 1088191" d="M2815.464,1071.521a.5.5,0,0,0,.5-.5V992.833a.5.5,0,0,0-1.009,0v78.184A.5.5,0,0,0,2815.464,1071.521Z" transform="translate(-2814.96 -992.329)" fill="#965f20"/>
          </g>
          <g id="Grupo_1218156" data-name="Grupo 1218156" transform="translate(145.232 9.415)">
            <path id="Trazado_1088192" data-name="Trazado 1088192" d="M1606.444,1070.42a.5.5,0,0,0,.5-.5V992.16a.5.5,0,0,0-1.008,0v77.755A.5.5,0,0,0,1606.444,1070.42Z" transform="translate(-1605.94 -991.656)" fill="#965f20"/>
          </g>
        </g>
        <g id="flags" transform="translate(15.129)">
          <path id="Trazado_1088193" data-name="Trazado 1088193" d="M799.3,680.295l2.887,7.193c-.473.943-.944,1.958-1.4,3.044-.572,1.363-1.047,2.668-1.444,3.893q-.931-2.384-2-4.856-.506-1.17-1.021-2.3Z" transform="translate(-528.825 -676.281)" fill="#d49853"/>
          <g id="Grupo_1218165" data-name="Grupo 1218165" transform="translate(0 11.285)">
            <g id="Grupo_1218160" data-name="Grupo 1218160" transform="translate(254.382 5.061)">
              <g id="Flag">
                <g id="Grupo_1218158" data-name="Grupo 1218158">
                  <path id="Trazado_1088194" data-name="Trazado 1088194" d="M520.465,1618.4s5.972,20.064,17.961,29.544,16.319,31.739,16.319,31.739,13.573-46.717,4.567-76.023a37.9,37.9,0,0,0-4.672-9.773c-13.133-19.847-16.214-48.992-16.214-48.992C527.228,1569.97,517.1,1594.931,520.465,1618.4Z" transform="translate(-518.073 -1477.968)" fill="#7a342d"/>
                  <g id="Grupo_1218157" data-name="Grupo 1218157" transform="translate(14.563 12.24)">
                    <path id="Trazado_1088195" data-name="Trazado 1088195" d="M815.044,1189.766l2.658,0c-.059-80.019-.059-161.239,0-241.4l-2.658,0C814.985,1028.525,814.985,1109.747,815.044,1189.766Z" transform="translate(-815 -948.358)" fill="#422a0e"/>
                  </g>
                  <path id="Trazado_1088196" data-name="Trazado 1088196" d="M675.882,814.827s8.215,17.313,4.663,40.672,10.88,49.191,10.88,49.191-23.758,14.84-29.087,50.565C652.568,927.774,675.882,814.827,675.882,814.827Z" transform="translate(-659.946 -814.827)" fill="#b35148"/>
                </g>
              </g>
              <g id="Grupo_1218159" data-name="Grupo 1218159" transform="translate(2.48 90.5)">
                <path id="Trazado_1088197" data-name="Trazado 1088197" d="M671.5,1850.274a.229.229,0,0,0,.226-.194,76.262,76.262,0,0,1,10.068-27.794,74.158,74.158,0,0,1,17.35-19.786.229.229,0,1,0-.286-.358,74.609,74.609,0,0,0-17.457,19.907,76.718,76.718,0,0,0-10.128,27.96.229.229,0,0,0,.191.261A.211.211,0,0,0,671.5,1850.274Z" transform="translate(-671.271 -1802.092)" fill="#252525"/>
              </g>
            </g>
            <g id="Grupo_1218164" data-name="Grupo 1218164">
              <g id="Flag_1_">
                <g id="Grupo_1218162" data-name="Grupo 1218162">
                  <path id="Trazado_1088198" data-name="Trazado 1088198" d="M3252.394,1571.871a74.567,74.567,0,0,0,16.358,21.472c3.366,3.042,5.431,4.33,7.527,6.047,6.229,5.1,13.45,14.567,16.974,33.772,9.013-39.733,4.379-62.529-2.012-76.191-1-2.134-1.643-5.251-4.672-9.879-13.133-20.062-16.214-49.522-16.214-49.522C3259.157,1522.922,3249.026,1548.152,3252.394,1571.871Z" transform="translate(-3250.002 -1429.924)" fill="#7a342d"/>
                  <g id="Grupo_1218161" data-name="Grupo 1218161" transform="translate(14.563 12.374)">
                    <path id="Trazado_1088199" data-name="Trazado 1088199" d="M3590.094,1138.617l2.658,0c-.059-80.884-.059-162.983,0-244.015l-2.658,0C3590.035,975.631,3590.035,1057.732,3590.094,1138.617Z" transform="translate(-3590.05 -894.598)" fill="#422a0e"/>
                  </g>
                  <path id="Trazado_1088200" data-name="Trazado 1088200" d="M3450.933,759.614s8.215,17.5,4.663,41.112,10.88,49.723,10.88,49.723-23.758,15-29.087,51.112C3427.619,873.783,3450.933,759.614,3450.933,759.614Z" transform="translate(-3434.996 -759.614)" fill="#b35148"/>
                </g>
              </g>
              <g id="Grupo_1218163" data-name="Grupo 1218163" transform="translate(2.481 91.481)">
                <path id="Trazado_1088201" data-name="Trazado 1088201" d="M3446.545,1806.28a.229.229,0,0,0,.226-.194,77.622,77.622,0,0,1,10.068-28.1,74.714,74.714,0,0,1,17.351-20,.229.229,0,1,0-.287-.357,75.168,75.168,0,0,0-17.457,20.122,78.076,78.076,0,0,0-10.128,28.261.229.229,0,0,0,.192.261Z" transform="translate(-3446.315 -1757.582)" fill="#252525"/>
              </g>
            </g>
          </g>
          <circle id="Elipse_14361" data-name="Elipse 14361" cx="1.903" cy="1.903" r="1.903" transform="translate(270.517 19.829) rotate(-135)" fill="#694217"/>
          <path id="Trazado_1088202" data-name="Trazado 1088202" d="M3575.788,636.508l2.888,7.193c-.473.943-.945,1.958-1.4,3.044-.571,1.363-1.047,2.668-1.443,3.893q-.932-2.384-2-4.856-.506-1.17-1.021-2.3Z" transform="translate(-3559.83 -636.508)" fill="#d49853"/>
          <circle id="Elipse_14362" data-name="Elipse 14362" cx="1.903" cy="1.903" r="1.903" transform="translate(16.005 15.817) rotate(-135)" fill="#694217"/>
        </g>
        <g id="table" transform="translate(0 163.263)">
          <path id="Trazado_1088203" data-name="Trazado 1088203" d="M1015.311,2805.815h219.766v-13.133l-219.768.948Q1015.311,2799.724,1015.311,2805.815Z" transform="translate(-966.664 -2758.294)" fill="#ab6d27"/>
          <rect id="Rectángulo_420337" data-name="Rectángulo 420337" width="207.146" height="68.433" transform="translate(54.957 47.521)" fill="#d49853"/>
          <g id="Grupo_1218166" data-name="Grupo 1218166" transform="translate(69.714 54.114)">
            <path id="Trazado_1088204" data-name="Trazado 1088204" d="M1245.13,3027.42h177.632v-19.547H1245.13Zm176.624-1.008H1246.138v-17.53h175.616Z" transform="translate(-1245.13 -3007.873)" fill="#965f20"/>
          </g>
          <g id="Grupo_1218167" data-name="Grupo 1218167" transform="translate(85.448 89.351)">
            <path id="Trazado_1088205" data-name="Trazado 1088205" d="M1416.78,3418.8h146.163V3411.5h-.5c-10.921,0-19.806-8.4-19.806-18.728v-.5H1437.09v.5c0,10.326-8.885,18.728-19.806,18.728h-.5v7.306Zm145.154-1.009H1417.788V3412.5a21.238,21.238,0,0,0,14.2-5.766,19.122,19.122,0,0,0,6.1-13.461h103.54a19.122,19.122,0,0,0,6.1,13.461,21.237,21.237,0,0,0,14.2,5.766v5.295Z" transform="translate(-1416.78 -3392.265)" fill="#965f20"/>
          </g>
          <g id="Grupo_1218173" data-name="Grupo 1218173" transform="translate(0 57.505)">
            <g id="Grupo_1218170" data-name="Grupo 1218170" transform="translate(254.245 0.001)">
              <rect id="Rectángulo_420338" data-name="Rectángulo 420338" width="53.329" height="55.341" transform="translate(4.743 3.108)" fill="#ab6d27"/>
              <rect id="Rectángulo_420339" data-name="Rectángulo 420339" width="61.807" height="13.842" transform="translate(0.504)" fill="#694217"/>
              <g id="Grupo_1218168" data-name="Grupo 1218168" transform="translate(12.614 22.427)">
                <path id="Trazado_1088206" data-name="Trazado 1088206" d="M622.233,3325.545h37.586v-36.014H622.233v36.014Zm36.578-1.008H623.242v-34h35.569Z" transform="translate(-622.233 -3289.531)" fill="#5c3a13"/>
              </g>
              <g id="Grupo_1218169" data-name="Grupo 1218169" transform="translate(0 4.468)">
                <path id="Trazado_1088207" data-name="Trazado 1088207" d="M485.124,3103.488h61.807a.5.5,0,0,0,.5-.5v-8.87a.5.5,0,0,0-1.008,0v8.366h-61.3a.5.5,0,0,0,0,1.009Z" transform="translate(-484.62 -3093.61)" fill="#1a292f"/>
              </g>
            </g>
            <rect id="Rectángulo_420340" data-name="Rectángulo 420340" width="53.329" height="55.341" transform="translate(4.743 3.108)" fill="#ab6d27"/>
            <rect id="Rectángulo_420341" data-name="Rectángulo 420341" width="61.807" height="13.842" transform="translate(0.504)" fill="#694217"/>
            <g id="Grupo_1218171" data-name="Grupo 1218171" transform="translate(12.615 22.429)">
              <path id="Trazado_1088208" data-name="Trazado 1088208" d="M3395.79,3325.492h37.585v-35.955H3395.79v35.955Zm36.577-1.009H3396.8v-33.938h35.569Z" transform="translate(-3395.79 -3289.537)" fill="#5c3a13"/>
            </g>
            <g id="Grupo_1218172" data-name="Grupo 1218172" transform="translate(0 4.469)">
              <path id="Trazado_1088209" data-name="Trazado 1088209" d="M3258.684,3103.488h61.807a.5.5,0,0,0,0-1.009h-61.3v-8.366a.5.5,0,0,0-1.009,0v8.87A.5.5,0,0,0,3258.684,3103.488Z" transform="translate(-3258.18 -3093.61)" fill="#1a292f"/>
            </g>
          </g>
          <g id="Hummer" transform="translate(184.391 0)">
            <g id="Grupo_1218174" data-name="Grupo 1218174" transform="translate(0 15.665)">
              <path id="Trazado_1088210" data-name="Trazado 1088210" d="M1479.9,2589.063l1.61-.636,1.083,2.945-1.615.62s-1.83.6-1.447,1.644l-1.773-4.819C1478.14,2589.857,1479.9,2589.063,1479.9,2589.063Z" transform="translate(-1440.962 -2588.427)" fill="#82531d"/>
              <path id="Trazado_1088211" data-name="Trazado 1088211" d="M1512.944,2597.827l-1.774-4.819.867-.338,1.774,4.82Z" transform="translate(-1475.243 -2592.281)" fill="#cf9855"/>
              <path id="Trazado_1088212" data-name="Trazado 1088212" d="M1532.162,2634.909c4.281-1.788,20.406-8.96,22.17-9.647a4.407,4.407,0,0,1,2.832-.316l.776,2.108a3.649,3.649,0,0,0-2.928.054c-1.764.687-17.78,8.156-22.046,9.984s-11.652,3.139-11.652,3.139l-.679-1.847A93.268,93.268,0,0,0,1532.162,2634.909Z" transform="translate(-1520.239 -2621.507)" fill="#82531d"/>
              <path id="Trazado_1088213" data-name="Trazado 1088213" d="M1539.849,2605.844c4.374-1.536,21.182-6.85,22.947-7.538a3.791,3.791,0,0,0,2.229-1.954l1,2.712a4.407,4.407,0,0,0-2.831.316c-1.764.687-17.889,7.859-22.17,9.647a93.123,93.123,0,0,1-11.528,3.475l-.4-1.073S1535.475,2607.38,1539.849,2605.844Z" transform="translate(-1529.097 -2595.626)" fill="#a6753c"/>
              <path id="Trazado_1088214" data-name="Trazado 1088214" d="M1832.241,2712.084l2.207,6a.087.087,0,0,0,.113.052l.962-.375a.091.091,0,0,0,.051-.116l-2.207-6a.087.087,0,0,0-.113-.052l-.962.375A.092.092,0,0,0,1832.241,2712.084Z" transform="translate(-1826.442 -2700.298)" fill="#cf9855"/>
              <path id="Trazado_1088215" data-name="Trazado 1088215" d="M1668.478,2652.445l1.88,5.111a.086.086,0,0,0,.113.052l.92-.358a.091.091,0,0,0,.051-.115l-1.88-5.111a.086.086,0,0,0-.113-.052l-.92.358A.09.09,0,0,0,1668.478,2652.445Z" transform="translate(-1647.3 -2646.141)" fill="#cf9855"/>
            </g>
            <path id="Trazado_1088216" data-name="Trazado 1088216" d="M1440.549,2561.606l2.075,5.64a.183.183,0,0,0,.238.11l4.34-1.69-2.205-5.994-4.34,1.69A.193.193,0,0,0,1440.549,2561.606Z" transform="translate(-1402.16 -2546.642)" fill="#82531d"/>
            <g id="Grupo_1218175" data-name="Grupo 1218175" transform="translate(38.408)">
              <path id="Trazado_1088217" data-name="Trazado 1088217" d="M1363.456,2460.072l.7-1.212,4.557-1.78,2.191-.856,1.363-.532,1.308.426c-.806,1.5.727,1.744,1.406,1.782l-3.527,1.374-.111.043-2.1.819-.111.043-5.555,2.164C1364.066,2461.835,1365,2460.631,1363.456,2460.072Z" transform="translate(-1361.285 -2452.194)" fill="#82531d"/>
              <path id="Trazado_1088218" data-name="Trazado 1088218" d="M1312.308,2620.485l5.555-2.163.111-.043,2.1-.819.111-.043,3.527-1.374c-.484.491-1.473,1.722.093,2.294l-.706,1.209-1.364.529-2.193.851-4.561,1.771-1.307-.428C1314.476,2620.8,1313,2620.531,1312.308,2620.485Z" transform="translate(-1305.422 -2597.846)" fill="#82531d"/>
              <path id="Trazado_1088219" data-name="Trazado 1088219" d="M1383.274,2453.658l-10.356,4.046a.465.465,0,0,1-.628-.2l11.328-4.425A.486.486,0,0,1,1383.274,2453.658Z" transform="translate(-1370.748 -2449.826)" fill="#a6753c"/>
              <path id="Trazado_1088220" data-name="Trazado 1088220" d="M1383.86,2450.174l.018.049-11.328,4.425-.018-.049a.486.486,0,0,1,.344-.574l10.356-4.046A.464.464,0,0,1,1383.86,2450.174Z" transform="translate(-1371.008 -2446.965)" fill="#82531d"/>
              <path id="Trazado_1088221" data-name="Trazado 1088221" d="M1313.649,2639.634l-10.365,4.023a.487.487,0,0,0-.345.574l11.337-4.4A.465.465,0,0,0,1313.649,2639.634Z" transform="translate(-1295.026 -2619.235)" fill="#a6753c"/>
              <path id="Trazado_1088222" data-name="Trazado 1088222" d="M1313.864,2642.262l-.018-.049-11.337,4.4.018.049a.466.466,0,0,0,.627.2l10.365-4.024A.486.486,0,0,0,1313.864,2642.262Z" transform="translate(-1294.597 -2621.618)" fill="#82531d"/>
              <path id="Trazado_1088223" data-name="Trazado 1088223" d="M1437.235,2440.31l-.945.368Z" transform="translate(-1430.211 -2438.222)" fill="#734d54"/>
              <path id="Trazado_1088224" data-name="Trazado 1088224" d="M1320.559,2685.86l-2.2.855c0-.011-.011-.02-.015-.031Z" transform="translate(-1302.723 -2661.264)" fill="#734d54"/>
              <path id="Trazado_1088225" data-name="Trazado 1088225" d="M1306.035,2680.6h0l2.207-.857h0l1.587-.616a.952.952,0,0,1-.434,1.162l-.047.024c-.02.009-.037.022-.057.029l-7.751,3.009a.91.91,0,0,1-1.184-.547Z" transform="translate(-1290.402 -2655.146)" fill="#82531d"/>
              <path id="Trazado_1088226" data-name="Trazado 1088226" d="M1414.326,2430.876l-2.215.865a.065.065,0,0,1,0-.007l2.215-.865A.019.019,0,0,1,1414.326,2430.876Z" transform="translate(-1405.086 -2429.648)" fill="#a76b5c"/>
              <rect id="Rectángulo_420342" data-name="Rectángulo 420342" height="2.378" transform="matrix(-0.364, -0.931, 0.931, -0.364, 7.032, 2.098)" fill="#734d54"/>
              <path id="Trazado_1088227" data-name="Trazado 1088227" d="M1320.524,2685.78l0,.006-2.217.86,0-.006Z" transform="translate(-1302.688 -2661.191)" fill="#a76b5c"/>
              <rect id="Rectángulo_420343" data-name="Rectángulo 420343" height="2.289" transform="matrix(-0.364, -0.931, 0.931, -0.364, 9.25, 1.229)" fill="#a76b5c"/>
              <path id="Trazado_1088228" data-name="Trazado 1088228" d="M1297.193,2676.75l-2.133.828h0l2.134-.828Z" transform="translate(-1277.224 -2652.989)" fill="#a76b5c"/>
              <path id="Trazado_1088229" data-name="Trazado 1088229" d="M1370.451,2425.262l5.206-2.034.945-.369s0,0,0,.006l2.215-.865v0l2.155-.842a1.333,1.333,0,0,1,1.655.823h0a1.4,1.4,0,0,1-.785,1.786l-1.28.5s-1.639.62-1.363.532l-2.191.856-4.557,1.781-1.048.409a1.336,1.336,0,0,1-1.74-.8A1.4,1.4,0,0,1,1370.451,2425.262Z" transform="translate(-1369.577 -2420.772)" fill="#a6753c"/>
              <path id="Trazado_1088230" data-name="Trazado 1088230" d="M1390.736,2421.78l-2.155.842v0l2.132-.833C1390.719,2421.783,1390.728,2421.783,1390.736,2421.78Z" transform="translate(-1379.339 -2421.392)" fill="#a76b5c"/>
              <path id="Trazado_1088231" data-name="Trazado 1088231" d="M1390.441,2422.059h0l.487-.191c.02-.008.041-.01.061-.017l-2.131.833a.027.027,0,0,1,0-.006Z" transform="translate(-1379.616 -2421.456)" fill="#a76b5c"/>
              <path id="Trazado_1088232" data-name="Trazado 1088232" d="M1395.417,2420.623l7.745-3.026c.02-.008.041-.01.062-.017l.051-.014a.909.909,0,0,1,1.073.575l-1.586.619-2.215.865-.945.369-4.72,1.844A.952.952,0,0,1,1395.417,2420.623Z" transform="translate(-1393.522 -2417.54)" fill="#82531d"/>
              <rect id="Rectángulo_420344" data-name="Rectángulo 420344" height="1.702" transform="translate(10.033 0.061)" fill="#734d54"/>
              <path id="Trazado_1088233" data-name="Trazado 1088233" d="M1303.81,2482.437l.111-.043,5.555-2.163.111-.043,2.1-.819.111-.043,3.527-1.374.312-.121a.944.944,0,0,1,1.228.566.992.992,0,0,1-.383,1.173l1.375,3.738.1.268,1.792,4.868a.947.947,0,0,1,1.042.618.987.987,0,0,1-.556,1.26l-.312.122-3.527,1.373-.111.044-2.1.819-.111.043-5.555,2.163-.111.043a.944.944,0,0,1-1.228-.565.993.993,0,0,1,.384-1.173l-1.792-4.869-.1-.267-1.375-3.738a.947.947,0,0,1-1.042-.617A.988.988,0,0,1,1303.81,2482.437Z" transform="translate(-1301.63 -2472.244)" fill="#a6753c"/>
              <path id="Trazado_1088234" data-name="Trazado 1088234" d="M1297.139,2676.775l-2.074.8a.03.03,0,0,1,0-.006l2.134-.828C1297.176,2676.755,1297.159,2676.768,1297.139,2676.775Z" transform="translate(-1277.226 -2652.985)" fill="#a76b5c"/>
              <path id="Trazado_1088235" data-name="Trazado 1088235" d="M1296.977,2676.62l-.022.011-2.134.828v0Z" transform="translate(-1276.985 -2652.871)" fill="#a76b5c"/>
              <path id="Trazado_1088236" data-name="Trazado 1088236" d="M1287.015,2651.991l1.049-.407,4.561-1.771,2.193-.851,1.364-.529,1.281-.5a1.336,1.336,0,0,1,1.738.8,1.4,1.4,0,0,1-.71,1.744h0l-2.157.837v0l-2.216.861,0,.006-6.156,2.39a1.336,1.336,0,0,1-1.738-.8A1.4,1.4,0,0,1,1287.015,2651.991Z" transform="translate(-1278.499 -2626.734)" fill="#a6753c"/>
              <path id="Trazado_1088237" data-name="Trazado 1088237" d="M1319.539,2500.726l3.51-1.366,1.723-.671,2.719-1.059,1.369,3.719.1.267,1.785,4.85-2.719,1.059-1.723.672-3.51,1.367-4.239,1.65-1.785-4.849-.1-.268-1.369-3.719Z" transform="translate(-1312.627 -2490.288)" fill="#cf9855"/>
            </g>
            <g id="Grupo_1218181" data-name="Grupo 1218181" transform="translate(5.57 0.166)">
              <g id="Grupo_1218176" data-name="Grupo 1218176" transform="translate(46.042 11.944)">
                <path id="Trazado_1088238" data-name="Trazado 1088238" d="M1348.539,2554.12a.234.234,0,0,0,.083-.016.229.229,0,0,0,.13-.3l-1.571-4.013a.229.229,0,1,0-.427.167l1.571,4.013A.228.228,0,0,0,1348.539,2554.12Z" transform="translate(-1346.739 -2549.648)" fill="#252525"/>
              </g>
              <g id="Grupo_1218177" data-name="Grupo 1218177" transform="translate(33.772)">
                <path id="Trazado_1088239" data-name="Trazado 1088239" d="M1386.582,2423.787a.223.223,0,0,0,.083-.016l10.209-3.981a.229.229,0,0,0-.167-.427l-10.209,3.981a.229.229,0,0,0,.083.443Z" transform="translate(-1386.353 -2419.347)" fill="#252525"/>
              </g>
              <g id="Grupo_1218178" data-name="Grupo 1218178" transform="translate(32.59 14.57)">
                <path id="Trazado_1088240" data-name="Trazado 1088240" d="M1491.837,2583.959a.236.236,0,0,0,.079-.014.229.229,0,0,0,.136-.294l-1.918-5.213a.229.229,0,1,0-.43.158l1.918,5.213A.229.229,0,0,0,1491.837,2583.959Z" transform="translate(-1489.69 -2578.287)" fill="#252525"/>
              </g>
              <g id="Grupo_1218179" data-name="Grupo 1218179" transform="translate(44.535 23.355)">
                <path id="Trazado_1088241" data-name="Trazado 1088241" d="M1292.552,2677.727a.232.232,0,0,0,.083-.016l8.065-3.141a.229.229,0,0,0-.166-.427l-8.066,3.141a.229.229,0,0,0,.083.443Z" transform="translate(-1292.323 -2674.127)" fill="#252525"/>
              </g>
              <g id="Grupo_1218180" data-name="Grupo 1218180" transform="translate(0 27.057)">
                <path id="Trazado_1088242" data-name="Trazado 1088242" d="M1848.856,2719.772a.226.226,0,0,0,.079-.014.229.229,0,0,0,.136-.294l-1.767-4.8a.229.229,0,0,0-.43.158l1.767,4.8A.229.229,0,0,0,1848.856,2719.772Z" transform="translate(-1846.859 -2714.509)" fill="#252525"/>
              </g>
            </g>
          </g>
          <g id="Grupo_1218182" data-name="Grupo 1218182" transform="translate(50.964 47.017)">
            <path id="Trazado_1088243" data-name="Trazado 1088243" d="M1021.753,2931.458h215.9a.5.5,0,0,0,0-1.008h-215.9a.5.5,0,0,0,0,1.008Z" transform="translate(-1021.25 -2930.45)" fill="#1a292f"/>
          </g>
          <g id="hammer" transform="translate(217.902 26.5)">
            <g id="Grupo_1218183" data-name="Grupo 1218183">
              <path id="Trazado_1088244" data-name="Trazado 1088244" d="M1178.373,2714.436h33.586a.975.975,0,0,0,.952-1.348l-.767-1.677-1.919-4.2a1.04,1.04,0,0,0-.952-.587h-28.215a1.04,1.04,0,0,0-.952.587l-1.919,4.2-.767,1.677A.975.975,0,0,0,1178.373,2714.436Z" transform="translate(-1177.336 -2706.626)" fill="#82531d"/>
              <path id="Trazado_1088245" data-name="Trazado 1088245" d="M1178.373,2761.841h33.586a.975.975,0,0,0,.952-1.348l-.767-1.677h-33.957l-.767,1.677A.975.975,0,0,0,1178.373,2761.841Z" transform="translate(-1177.336 -2754.032)" fill="#694217"/>
            </g>
          </g>
          <g id="Grupo_1218184" data-name="Grupo 1218184" transform="translate(101.488 34.111)">
            <path id="Trazado_1088246" data-name="Trazado 1088246" d="M1162.685,2790.667h152.453a.5.5,0,1,0,0-1.008H1162.684a.5.5,0,1,0,0,1.008Z" transform="translate(-1162.18 -2789.66)" fill="#1a292f"/>
          </g>
        </g>
      </g>
    </g>
  </g>
</svg>
