<svg xmlns="http://www.w3.org/2000/svg" width="90" height="89" viewBox="0 0 90 89">
  <g id="Grupo_1219307" data-name="Grupo 1219307" transform="translate(-1297 -987)">
    <rect id="Rectángulo_420911" data-name="Rectángulo 420911" width="64" height="89" transform="translate(1323 987)" fill="#1172b3"/>
    <g id="derechos-humanos" transform="translate(1296 996)">
      <path id="Trazado_1088248" data-name="Trazado 1088248" d="M6,2a5.1,5.1,0,0,1,5.1,5.1V73.355a5.1,5.1,0,1,0,10.194,0V60.613H59.516V7.1A5.1,5.1,0,0,0,54.42,2Z" transform="translate(1.371 0.274)" fill="#e2e7f6"/>
      <path id="Trazado_1088249" data-name="Trazado 1088249" d="M33.387,37.387A20.411,20.411,0,0,1,13,17h2.548A17.839,17.839,0,0,0,44.091,31.271l1.376-1.05,1.546,2.026L45.628,33.3a20.227,20.227,0,0,1-12.241,4.084Z" transform="translate(3.29 4.387)" fill="#4c6cb5"/>
      <g id="Grupo_1218188" data-name="Grupo 1218188" transform="translate(2.274 2.274)">
        <path id="Trazado_1088250" data-name="Trazado 1088250" d="M15,36H43.032v2.548H15Z" transform="translate(1.565 7.323)" fill="#c8cded"/>
        <path id="Trazado_1088251" data-name="Trazado 1088251" d="M15,40H44.307v2.548H15Z" transform="translate(1.565 8.42)" fill="#c8cded"/>
        <path id="Trazado_1088252" data-name="Trazado 1088252" d="M12.194,19.839V7.1A5.1,5.1,0,1,0,2,7.1V19.839Z" transform="translate(-2 -2)" fill="#c8cded"/>
        <path id="Trazado_1088253" data-name="Trazado 1088253" d="M50.952,48H19.1V60.742a5.1,5.1,0,0,1-5.1,5.1H50.952Z" transform="translate(1.29 10.613)" fill="#c8cded"/>
      </g>
      <path id="Trazado_1088254" data-name="Trazado 1088254" d="M44.371,76.258v-32.6A10.194,10.194,0,0,1,38,34.21V18.282a3.186,3.186,0,1,1,6.371,0V15.734a3.186,3.186,0,1,1,6.371,0V13.186a3.186,3.186,0,0,1,6.371,0v2.548a3.186,3.186,0,1,1,6.371,0v3.186a5.1,5.1,0,0,1,5.1,5.1V34.21a10.194,10.194,0,0,1-6.371,9.453v32.6Z" transform="translate(10.145 2.468)" fill="#f2b9a1"/>
      <path id="Trazado_1088255" data-name="Trazado 1088255" d="M44.548,16.5v8.919a1.911,1.911,0,0,0,1.911,1.911v2.548A4.46,4.46,0,0,1,42,25.419V16.5Z" transform="translate(11.242 4.25)" fill="#fbe1ca"/>
      <path id="Trazado_1088256" data-name="Trazado 1088256" d="M50,38.936h2.548a6.379,6.379,0,0,1,6.371-6.371,1.274,1.274,0,0,0,1.274-1.274V23.645a1.274,1.274,0,0,0-1.274-1.274H54.46a1.911,1.911,0,0,1,0-3.823h5.734V16H54.46a4.45,4.45,0,0,0-1.911,8.472v1.084a4.46,4.46,0,0,0,4.46,4.46,4.414,4.414,0,0,0,.637-.051v.141A8.933,8.933,0,0,0,50,38.936Zm7.645-14.016v2.435a1.9,1.9,0,0,1-2.548-1.8v-.637Z" transform="translate(13.436 4.113)" fill="#fbe1ca"/>
      <path id="Trazado_1088257" data-name="Trazado 1088257" d="M49.548,25.968a1.911,1.911,0,0,0,1.911,1.911v2.548A4.46,4.46,0,0,1,47,25.968V14.5h2.548Z" transform="translate(12.613 3.702)" fill="#fbe1ca"/>
      <path id="Trazado_1088258" data-name="Trazado 1088258" d="M74.9,20.24V18.2a4.46,4.46,0,0,0-4.46-4.46,4.413,4.413,0,0,0-2.139.571,4.4,4.4,0,0,0-6.143-2.672V7.371A6.379,6.379,0,0,0,55.791,1H7.371A6.379,6.379,0,0,0,1,7.371V20.113a1.274,1.274,0,0,0,1.274,1.274h8.919V73.629A6.379,6.379,0,0,0,17.565,80H72.355a1.274,1.274,0,0,0,1.274-1.274V46.954A11.419,11.419,0,0,0,80,36.678V26.484a6.382,6.382,0,0,0-5.1-6.244Zm-4.46-3.95A1.911,1.911,0,0,1,72.355,18.2v1.911H68.533V18.2A1.911,1.911,0,0,1,70.444,16.29Zm-6.371-2.548a1.911,1.911,0,0,1,1.911,1.911V20.56a4.433,4.433,0,0,0,0,8.027V29.67a1.911,1.911,0,1,1-3.823,0V15.653a1.911,1.911,0,0,1,1.911-1.911Zm7.008,17.725a1.9,1.9,0,0,1-2.548-1.8v-.637h2.548ZM23.936,21.387c0-1.664,2.607-3.462,6.626-4.414a38.542,38.542,0,0,0,0,8.828C26.543,24.849,23.936,23.051,23.936,21.387Zm8.919,0a34.467,34.467,0,0,1,.338-4.879,28.323,28.323,0,0,1,3.485-.218,28.707,28.707,0,0,1,3.48.212,34.734,34.734,0,0,1,.343,4.885,34.507,34.507,0,0,1-.338,4.881,28.669,28.669,0,0,1-3.485.215,28.324,28.324,0,0,1-3.485-.218,34.469,34.469,0,0,1-.338-4.879Zm9.939-4.409a15.26,15.26,0,0,1,4.576,1.762,4.4,4.4,0,0,0-.5,2.009v3.568a16,16,0,0,1-4.077,1.5,38.621,38.621,0,0,0,0-8.837Zm-.427-2.7a19.144,19.144,0,0,0-1.646-4.969,12.761,12.761,0,0,1,7.68,7.11,19.3,19.3,0,0,0-6.031-2.141Zm-2.7-.382c-.973-.089-1.969-.153-2.988-.153s-2.023.05-2.985.138c.809-3.29,2.045-5.234,2.985-5.234S38.86,10.6,39.668,13.9Zm-8.679.357a18.9,18.9,0,0,0-6.021,2.113,12.8,12.8,0,0,1,7.659-7.053,19.186,19.186,0,0,0-1.636,4.94Zm0,14.261a19.186,19.186,0,0,0,1.639,4.94A12.8,12.8,0,0,1,24.966,26.4a18.9,18.9,0,0,0,6.023,2.123Zm2.7.382c.962.088,1.957.138,2.985.138s2.016-.057,2.988-.148c-.805,3.3-2.044,5.245-2.985,5.245s-2.176-1.944-2.985-5.234Zm8.676-.39a21.259,21.259,0,0,0,4.506-1.356v1.858a12.753,12.753,0,0,1-6.137,4.437A19.261,19.261,0,0,0,42.368,28.5Zm7.054.528V20.75a1.911,1.911,0,1,1,3.823,0V29.67a1.911,1.911,0,1,1-3.823,0Zm6.371-8.282V18.2a1.911,1.911,0,1,1,3.823,0V29.67a1.911,1.911,0,1,1-3.823,0Zm-44.6-1.911H3.548V7.371a3.823,3.823,0,0,1,7.645,0Zm2.548,54.791V7.371a6.3,6.3,0,0,0-1.307-3.823H55.791a3.823,3.823,0,0,1,3.823,3.823v6.818a4.4,4.4,0,0,0-6.143,2.676,4.413,4.413,0,0,0-2.139-.575c-.079,0-.152.019-.229.023a15.308,15.308,0,1,0-4.23,16.454v3.245a17.678,17.678,0,0,1-10.194,3.214A17.858,17.858,0,0,1,18.839,21.387H16.29A20.411,20.411,0,0,0,36.678,41.774a20.206,20.206,0,0,0,10.433-2.882,11.389,11.389,0,0,0,6.131,8.062V59.613H22.661a1.274,1.274,0,0,0-1.274,1.274V73.629a3.823,3.823,0,1,1-7.645,0Zm39.5-11.468v15.29H22.628a6.3,6.3,0,0,0,1.307-3.823V62.162Zm24.21-25.484a8.888,8.888,0,0,1-5.575,8.271,1.274,1.274,0,0,0-.8,1.181V77.452H55.791V46.131a1.274,1.274,0,0,0-.8-1.181,8.89,8.89,0,0,1-5.575-8.272v-3a4.391,4.391,0,0,0,5.1-.9,4.438,4.438,0,0,0,6.371,0,4.438,4.438,0,0,0,6.371,0,4.369,4.369,0,0,0,3.823,1.3v.141a8.933,8.933,0,0,0-7.645,8.829h2.548a6.379,6.379,0,0,1,6.371-6.371A1.274,1.274,0,0,0,73.629,35.4V27.758a1.274,1.274,0,0,0-1.274-1.274H67.9a1.911,1.911,0,0,1,0-3.823h5.734a3.823,3.823,0,0,1,3.823,3.823Z"/>
      <path id="Trazado_1088259" data-name="Trazado 1088259" d="M15,36H43.032v2.548H15Z" transform="translate(3.839 9.597)"/>
      <path id="Trazado_1088260" data-name="Trazado 1088260" d="M15,40H44.307v2.548H15Z" transform="translate(3.839 10.694)"/>
    </g>
  </g>
</svg>
