<svg xmlns="http://www.w3.org/2000/svg" xmlns:xlink="http://www.w3.org/1999/xlink" width="110" height="110" viewBox="0 0 110 110">
  <defs>
    <filter id="Trazado_982547" x="0" y="0" width="110" height="110" filterUnits="userSpaceOnUse">
      <feOffset dy="3" input="SourceAlpha"/>
      <feGaussianBlur stdDeviation="3" result="blur"/>
      <feFlood flood-opacity="0.161"/>
      <feComposite operator="in" in2="blur"/>
      <feComposite in="SourceGraphic"/>
    </filter>
  </defs>
  <g id="Grupo_1218524" data-name="Grupo 1218524" transform="translate(-799 -1351.989)">
    <g id="Grupo_1217623" data-name="Grupo 1217623" transform="translate(808 1357.989)">
      <g id="Grupo_1210976" data-name="Grupo 1210976" transform="translate(0 0)">
        <g id="Grupo_1200150" data-name="Grupo 1200150">
          <g id="Grupo_1185951" data-name="Grupo 1185951" transform="translate(0 0)">
            <g id="Grupo_1184083" data-name="Grupo 1184083" transform="translate(0 0)">
              <g id="Grupo_1183743" data-name="Grupo 1183743">
                <g id="Grupo_1181545" data-name="Grupo 1181545">
                  <g id="Grupo_1177562" data-name="Grupo 1177562">
                    <g id="Grupo_1173147" data-name="Grupo 1173147">
                      <g id="Grupo_1163801" data-name="Grupo 1163801" transform="translate(0 0)">
                        <g id="Grupo_1163014" data-name="Grupo 1163014" transform="translate(0 0)">
                          <g id="Grupo_1157015" data-name="Grupo 1157015">
                            <g id="Grupo_1155792" data-name="Grupo 1155792">
                              <g id="Grupo_1154703" data-name="Grupo 1154703">
                                <g id="Grupo_1150789" data-name="Grupo 1150789">
                                  <g id="Grupo_1154212" data-name="Grupo 1154212">
                                    <g id="Grupo_1152583" data-name="Grupo 1152583">
                                      <g id="Grupo_1146973" data-name="Grupo 1146973">
                                        <g id="Grupo_1146954" data-name="Grupo 1146954">
                                          <g transform="matrix(1, 0, 0, 1, -9, -6)" filter="url(#Trazado_982547)">
                                            <g id="Trazado_982547-2" data-name="Trazado 982547" transform="translate(9 6)" fill="#f2d944">
                                              <path d="M 46.00000381469727 90.49986267089844 C 39.99188232421875 90.49986267089844 34.16427230834961 89.32350158691406 28.67905807495117 87.00344848632812 C 23.38020324707031 84.76223754882812 18.62104415893555 81.55341339111328 14.53375053405762 77.46613311767578 C 10.44647026062012 73.37885284423828 7.237643718719482 68.61968994140625 4.996417045593262 63.32085037231445 C 2.676363706588745 57.83565139770508 1.500003814697266 52.00805282592773 1.500003814697266 45.99993133544922 C 1.500003814697266 39.99182510375977 2.676363706588745 34.16422653198242 4.996417045593262 28.67901039123535 C 7.237643718719482 23.38017082214355 10.44647026062012 18.62101173400879 14.53375053405762 14.53373146057129 C 18.62104415893555 10.44645118713379 23.38020324707031 7.237624645233154 28.67905807495117 4.996411323547363 C 34.16427230834961 2.676357984542847 39.99188232421875 1.499997973442078 46.00000381469727 1.499997973442078 C 52.00812530517578 1.499997973442078 57.83573532104492 2.676357984542847 63.32094955444336 4.996411323547363 C 68.61980438232422 7.237624645233154 73.37896728515625 10.44645118713379 77.46625518798828 14.53373146057129 C 81.55353546142578 18.62101173400879 84.76236724853516 23.38017082214355 87.00359344482422 28.67901039123535 C 89.32364654541016 34.16422653198242 90.5 39.99182510375977 90.5 45.99993133544922 C 90.5 52.00805282592773 89.32364654541016 57.83565139770508 87.00359344482422 63.32085037231445 C 84.76236724853516 68.61968994140625 81.55353546142578 73.37885284423828 77.46625518798828 77.46613311767578 C 73.37896728515625 81.55341339111328 68.61980438232422 84.76223754882812 63.32094955444336 87.00344848632812 C 57.83573532104492 89.32350158691406 52.00812530517578 90.49986267089844 46.00000381469727 90.49986267089844 Z" stroke="none"/>
                                              <path d="M 46.00000381469727 3 C 40.19371795654297 3 34.56270217895508 4.136505126953125 29.26337432861328 6.377914428710938 C 24.14333343505859 8.54351806640625 19.54441833496094 11.64438629150391 15.59440612792969 15.59439086914062 C 11.64440155029297 19.54440307617188 8.54351806640625 24.14330291748047 6.377914428710938 29.26334381103516 C 4.136505126953125 34.56266021728516 3.000007629394531 40.19366073608398 3.000007629394531 45.99993133544922 C 3.000007629394531 51.80620193481445 4.136505126953125 57.43720245361328 6.377914428710938 62.73651885986328 C 8.54351806640625 67.85655975341797 11.64440155029297 72.45545959472656 15.59440612792969 76.40547180175781 C 19.54441833496094 80.35547637939453 24.14333343505859 83.45634460449219 29.26337432861328 85.6219482421875 C 34.56270217895508 87.86335754394531 40.19371795654297 88.99986267089844 46.00000381469727 88.99986267089844 C 51.80628967285156 88.99986267089844 57.43730545043945 87.86335754394531 62.73661804199219 85.6219482421875 C 67.85667419433594 83.45634460449219 72.45557403564453 80.35547637939453 76.40558624267578 76.40547180175781 C 80.35560607910156 72.45545959472656 83.45647430419922 67.85655975341797 85.62207794189453 62.73651885986328 C 87.86350250244141 57.43720245361328 89 51.80620193481445 89 45.99993133544922 C 89 40.19366073608398 87.86350250244141 34.56266021728516 85.62207794189453 29.26334381103516 C 83.45647430419922 24.14330291748047 80.35560607910156 19.54440307617188 76.40558624267578 15.59439086914062 C 72.45557403564453 11.64438629150391 67.85667419433594 8.54351806640625 62.73661804199219 6.377914428710938 C 57.43730545043945 4.136505126953125 51.80628967285156 3 46.00000381469727 3 M 46.00000381469727 0 C 71.40509033203125 0 92 20.59487152099609 92 45.99993133544922 C 92 71.40499114990234 71.40509033203125 91.99986267089844 46.00000381469727 91.99986267089844 C 20.59490203857422 91.99986267089844 7.62939453125e-06 71.40499114990234 7.62939453125e-06 45.99993133544922 C 7.62939453125e-06 20.59487152099609 20.59490203857422 0 46.00000381469727 0 Z" stroke="none" fill="#ba9c5a"/>
                                            </g>
                                          </g>
                                        </g>
                                      </g>
                                    </g>
                                  </g>
                                </g>
                              </g>
                            </g>
                          </g>
                        </g>
                      </g>
                    </g>
                  </g>
                </g>
              </g>
            </g>
          </g>
        </g>
      </g>
    </g>
    <g id="subasta_4_" data-name="subasta (4)" transform="translate(819.44 1372.44)">
      <path id="Trazado_1089556" data-name="Trazado 1089556" d="M389.793,379.524a7.468,7.468,0,0,1,.25,7.586,7.594,7.594,0,0,1-12.049,1.775q-.22-.22-.418-.454l-6.439-7.4,9.725-9.725,7.391,6.447A8.024,8.024,0,0,1,389.793,379.524Z" transform="translate(-314.916 -315.06)" fill="#91552c"/>
      <path id="Trazado_1089557" data-name="Trazado 1089557" d="M358.52,348.95l-9.725,9.725-3.988-4.584.027-.024,9.1-9.1,0,0Z" transform="translate(-292.574 -292.703)" fill="#57555c"/>
      <path id="Trazado_1089558" data-name="Trazado 1089558" d="M200.311,24.185a4.544,4.544,0,1,1-6.426,6.427L181.031,17.758a4.544,4.544,0,1,1,6.427-6.426Z" transform="translate(-152.479 -8.485)" fill="#91552c"/>
      <path id="Trazado_1089559" data-name="Trazado 1089559" d="M88.414,69.136l-5.328,5.328-.029.027L74.488,83.06c-.009.009-.018.018-.027.029l-5.328,5.328-1.071-1.071L55.208,74.491,54.137,73.42l19.28-19.28,1.071,1.071L87.343,68.065Z" transform="translate(-45.936 -45.938)" fill="#feb756"/>
      <g id="Grupo_1218523" data-name="Grupo 1218523" transform="translate(1.515 27.223)">
        <path id="Trazado_1089560" data-name="Trazado 1089560" d="M195.294,188.871l1.071-1.071a3.03,3.03,0,0,0-4.257-4.312l-8.625,8.625a3.03,3.03,0,0,0,4.313,4.256l1.071-1.071,18.324,21.052.027-.024,9.1-9.1,0,0Z" transform="translate(-156.473 -182.184)" fill="#91552c"/>
        <path id="Trazado_1089561" data-name="Trazado 1089561" d="M49.384,458.043v1.515H10v-1.515a6.059,6.059,0,0,1,6.059-6.059H43.325A6.059,6.059,0,0,1,49.384,458.043Z" transform="translate(-10 -410.738)" fill="#91552c"/>
        <path id="Trazado_1089562" data-name="Trazado 1089562" d="M59.537,401.987a3.787,3.787,0,1,1,0,7.574H33.786a3.787,3.787,0,1,1,0-7.574Z" transform="translate(-26.969 -368.315)" fill="#91552c"/>
        <path id="Trazado_1089563" data-name="Trazado 1089563" d="M30.612,193.889a4.544,4.544,0,1,1-6.427,6.426L11.332,187.462a4.544,4.544,0,0,1,6.426-6.427Z" transform="translate(-10 -179.705)" fill="#91552c"/>
      </g>
      <path id="Trazado_1089564" data-name="Trazado 1089564" d="M101.148,171.863a1.515,1.515,0,1,0,2.142,0A1.513,1.513,0,0,0,101.148,171.863Z" transform="translate(-85.449 -145.452)"/>
      <path id="Trazado_1089565" data-name="Trazado 1089565" d="M38.356,400.429a5.3,5.3,0,0,0-4.273-8.442H8.331a5.3,5.3,0,0,0-4.269,8.441A7.58,7.58,0,0,0,0,407.135v1.515a1.515,1.515,0,0,0,1.515,1.515H40.9a1.515,1.515,0,0,0,1.515-1.515v-1.515A7.58,7.58,0,0,0,38.356,400.429ZM6.724,395.682a2.257,2.257,0,0,1,1.607-.665H34.083a2.272,2.272,0,1,1,0,4.544H8.331a2.273,2.273,0,0,1-1.607-3.879ZM3.03,407.135a4.55,4.55,0,0,1,4.544-4.544H34.84a4.55,4.55,0,0,1,4.544,4.544Z" transform="translate(0 -332.607)"/>
      <path id="Trazado_1089566" data-name="Trazado 1089566" d="M76.168,63.643a9.539,9.539,0,0,0-1.825-2.1l-7.078-6.173a1.5,1.5,0,0,0-.6-.525l-4.28-3.733L42.569,33.832a4.536,4.536,0,0,0-1.33-7.235l1.833-1.833A6.063,6.063,0,0,0,48.921,23.2a6.058,6.058,0,0,0,0-8.569L36.068,1.776a6.057,6.057,0,0,0-10.135,5.85L7.645,25.913a6.1,6.1,0,0,0-1.568-.205A6.058,6.058,0,0,0,1.793,36.051L14.646,48.9a6.057,6.057,0,0,0,10.135-5.85l1.829-1.829a4.545,4.545,0,0,0,7.237,1.328L54.95,66.8a1.521,1.521,0,0,0,.205.257c.027.027.056.052.085.076l6.288,7.225c.156.185.323.366.5.539a9.01,9.01,0,0,0,6.4,2.663,9.3,9.3,0,0,0,1.275-.088,9.167,9.167,0,0,0,6.763-4.682A8.963,8.963,0,0,0,76.168,63.643Zm-21.845-2.18,7.135-7.135,2.288,2-7.43,7.43ZM36,40.408l4.427-4.427,18.745,16.35-6.84,6.84ZM29.641,3.919a3.029,3.029,0,0,1,4.285,0L46.779,16.771A3.029,3.029,0,0,1,42.5,21.056L29.642,8.2h0A3.032,3.032,0,0,1,29.641,3.919ZM21.073,46.762a3.033,3.033,0,0,1-4.285,0L3.935,33.909a3.029,3.029,0,0,1,4.283-4.286L21.073,42.479A3.032,3.032,0,0,1,21.073,46.762ZM10.361,27.482,27.5,10.344,40.353,23.2,36.11,27.442l-.042.04L27.5,36.047l-.052.054-4.236,4.236Zm20.352,13.3a1.514,1.514,0,0,1-1.09-2.567l8.6-8.6A1.515,1.515,0,0,1,40.8,30.7a1.5,1.5,0,0,1-.444,1.071l-1.061,1.061-.022.022L32.86,39.261l-.009.009-1.067,1.067A1.506,1.506,0,0,1,30.713,40.78ZM73.823,71.31a6.162,6.162,0,0,1-4.535,3.161,6.019,6.019,0,0,1-5.121-1.717c-.116-.116-.228-.238-.332-.361l-.015-.017L58.31,66.044l7.724-7.724,6.324,5.517.015.013a6.521,6.521,0,0,1,1.25,1.438A5.981,5.981,0,0,1,73.823,71.31Z" transform="translate(-0.018)"/>
      <path id="Trazado_1089567" data-name="Trazado 1089567" d="M138,101.151a1.515,1.515,0,0,0-2.142,0l-6.427,6.427a1.515,1.515,0,0,0,2.142,2.142L138,103.293A1.515,1.515,0,0,0,138,101.151Z" transform="translate(-109.446 -85.451)"/>
    </g>
  </g>
</svg>
