<svg xmlns="http://www.w3.org/2000/svg" xmlns:xlink="http://www.w3.org/1999/xlink" width="110" height="110" viewBox="0 0 110 110">
  <defs>
    <filter id="Trazado_982547" x="0" y="0" width="110" height="110" filterUnits="userSpaceOnUse">
      <feOffset dy="3" input="SourceAlpha"/>
      <feGaussianBlur stdDeviation="3" result="blur"/>
      <feFlood flood-opacity="0.161"/>
      <feComposite operator="in" in2="blur"/>
      <feComposite in="SourceGraphic"/>
    </filter>
  </defs>
  <g id="Grupo_1219308" data-name="Grupo 1219308" transform="translate(-3296 -1352.989)">
    <g id="Grupo_1218655" data-name="Grupo 1218655">
      <g id="Grupo_1217625" data-name="Grupo 1217625" transform="translate(3305 1358.989)">
        <g id="Grupo_1211001" data-name="Grupo 1211001" transform="translate(0 0)">
          <g id="Grupo_1200151" data-name="Grupo 1200151">
            <g id="Grupo_1185952" data-name="Grupo 1185952" transform="translate(0 0)">
              <g id="Grupo_1184115" data-name="Grupo 1184115" transform="translate(0 0)">
                <g id="Grupo_1183744" data-name="Grupo 1183744">
                  <g id="Grupo_1181546" data-name="Grupo 1181546">
                    <g id="Grupo_1177563" data-name="Grupo 1177563">
                      <g id="Grupo_1173148" data-name="Grupo 1173148">
                        <g id="Grupo_1163803" data-name="Grupo 1163803" transform="translate(0 0)">
                          <g id="Grupo_1163015" data-name="Grupo 1163015" transform="translate(0 0)">
                            <g id="Grupo_1157017" data-name="Grupo 1157017">
                              <g id="Grupo_1155793" data-name="Grupo 1155793">
                                <g id="Grupo_1154704" data-name="Grupo 1154704">
                                  <g id="Grupo_1150790" data-name="Grupo 1150790">
                                    <g id="Grupo_1154214" data-name="Grupo 1154214">
                                      <g id="Grupo_1152583" data-name="Grupo 1152583">
                                        <g id="Grupo_1146973" data-name="Grupo 1146973">
                                          <g id="Grupo_1146954" data-name="Grupo 1146954">
                                            <g transform="matrix(1, 0, 0, 1, -9, -6)" filter="url(#Trazado_982547)">
                                              <g id="Trazado_982547-2" data-name="Trazado 982547" transform="translate(9 6)" fill="#f2d944">
                                                <path d="M 46.00000381469727 90.49986267089844 C 39.99188232421875 90.49986267089844 34.16427230834961 89.32350158691406 28.67905807495117 87.00344848632812 C 23.38020324707031 84.76223754882812 18.62104415893555 81.55341339111328 14.53375053405762 77.46613311767578 C 10.44647026062012 73.37885284423828 7.237643718719482 68.61968994140625 4.996417045593262 63.32085037231445 C 2.676363706588745 57.83565139770508 1.500003814697266 52.00805282592773 1.500003814697266 45.99993133544922 C 1.500003814697266 39.99182510375977 2.676363706588745 34.16422653198242 4.996417045593262 28.67901039123535 C 7.237643718719482 23.38017082214355 10.44647026062012 18.62101173400879 14.53375053405762 14.53373146057129 C 18.62104415893555 10.44645118713379 23.38020324707031 7.237624645233154 28.67905807495117 4.996411323547363 C 34.16427230834961 2.676357984542847 39.99188232421875 1.499997973442078 46.00000381469727 1.499997973442078 C 52.00812530517578 1.499997973442078 57.83573532104492 2.676357984542847 63.32094955444336 4.996411323547363 C 68.61980438232422 7.237624645233154 73.37896728515625 10.44645118713379 77.46625518798828 14.53373146057129 C 81.55353546142578 18.62101173400879 84.76236724853516 23.38017082214355 87.00359344482422 28.67901039123535 C 89.32364654541016 34.16422653198242 90.5 39.99182510375977 90.5 45.99993133544922 C 90.5 52.00805282592773 89.32364654541016 57.83565139770508 87.00359344482422 63.32085037231445 C 84.76236724853516 68.61968994140625 81.55353546142578 73.37885284423828 77.46625518798828 77.46613311767578 C 73.37896728515625 81.55341339111328 68.61980438232422 84.76223754882812 63.32094955444336 87.00344848632812 C 57.83573532104492 89.32350158691406 52.00812530517578 90.49986267089844 46.00000381469727 90.49986267089844 Z" stroke="none"/>
                                                <path d="M 46.00000381469727 3 C 40.19371795654297 3 34.56270217895508 4.136505126953125 29.26337432861328 6.377914428710938 C 24.14333343505859 8.54351806640625 19.54441833496094 11.64438629150391 15.59440612792969 15.59439086914062 C 11.64440155029297 19.54440307617188 8.54351806640625 24.14330291748047 6.377914428710938 29.26334381103516 C 4.136505126953125 34.56266021728516 3.000007629394531 40.19366073608398 3.000007629394531 45.99993133544922 C 3.000007629394531 51.80620193481445 4.136505126953125 57.43720245361328 6.377914428710938 62.73651885986328 C 8.54351806640625 67.85655975341797 11.64440155029297 72.45545959472656 15.59440612792969 76.40547180175781 C 19.54441833496094 80.35547637939453 24.14333343505859 83.45634460449219 29.26337432861328 85.6219482421875 C 34.56270217895508 87.86335754394531 40.19371795654297 88.99986267089844 46.00000381469727 88.99986267089844 C 51.80628967285156 88.99986267089844 57.43730545043945 87.86335754394531 62.73661804199219 85.6219482421875 C 67.85667419433594 83.45634460449219 72.45557403564453 80.35547637939453 76.40558624267578 76.40547180175781 C 80.35560607910156 72.45545959472656 83.45647430419922 67.85655975341797 85.62207794189453 62.73651885986328 C 87.86350250244141 57.43720245361328 89 51.80620193481445 89 45.99993133544922 C 89 40.19366073608398 87.86350250244141 34.56266021728516 85.62207794189453 29.26334381103516 C 83.45647430419922 24.14330291748047 80.35560607910156 19.54440307617188 76.40558624267578 15.59439086914062 C 72.45557403564453 11.64438629150391 67.85667419433594 8.54351806640625 62.73661804199219 6.377914428710938 C 57.43730545043945 4.136505126953125 51.80628967285156 3 46.00000381469727 3 M 46.00000381469727 0 C 71.40509033203125 0 92 20.59487152099609 92 45.99993133544922 C 92 71.40499114990234 71.40509033203125 91.99986267089844 46.00000381469727 91.99986267089844 C 20.59490203857422 91.99986267089844 7.62939453125e-06 71.40499114990234 7.62939453125e-06 45.99993133544922 C 7.62939453125e-06 20.59487152099609 20.59490203857422 0 46.00000381469727 0 Z" stroke="none" fill="#ba9c5a"/>
                                              </g>
                                            </g>
                                          </g>
                                        </g>
                                      </g>
                                    </g>
                                  </g>
                                </g>
                              </g>
                            </g>
                          </g>
                        </g>
                      </g>
                    </g>
                  </g>
                </g>
              </g>
            </g>
          </g>
        </g>
      </g>
    </g>
    <g id="justicia_5_" data-name="justicia (5)" transform="translate(3313.14 1375.281)">
      <g id="Grupo_1218653" data-name="Grupo 1218653" transform="translate(1.221 1.221)">
        <g id="Grupo_1218625" data-name="Grupo 1218625" transform="translate(29.311 4.885)">
          <path id="Trazado_1089654" data-name="Trazado 1089654" d="M32.328,5A7.328,7.328,0,1,1,25,12.328,7.333,7.333,0,0,1,32.328,5Zm2.443,7.328a2.443,2.443,0,1,0-2.443,2.443A2.45,2.45,0,0,0,34.77,12.328Z" transform="translate(-25 -5)" fill="#ef7385"/>
        </g>
        <g id="Grupo_1218626" data-name="Grupo 1218626" transform="translate(24.426)">
          <path id="Trazado_1089655" data-name="Trazado 1089655" d="M40.541,13.213a7.328,7.328,0,1,0-7.328,7.328A7.333,7.333,0,0,0,40.541,13.213ZM21.415,10.77a2.441,2.441,0,0,0,1.734-4.165L22.844,6.3,26.3,2.844l.305.305A2.441,2.441,0,0,0,30.77,1.415V1h4.885v.415A2.441,2.441,0,0,0,39.82,3.149l.305-.305L43.582,6.3l-.305.305A2.441,2.441,0,0,0,45.01,10.77h.415v4.885H45.01a2.441,2.441,0,0,0-1.734,4.165l.305.305-3.456,3.456-.305-.305a2.441,2.441,0,0,0-4.165,1.734v.415H30.77V25.01a2.441,2.441,0,0,0-4.165-1.734l-.305.305-3.456-3.456.305-.305a2.441,2.441,0,0,0-1.734-4.165H21V10.77Z" transform="translate(-21 -1)" fill="#ef7385"/>
        </g>
        <g id="Grupo_1218627" data-name="Grupo 1218627" transform="translate(48.851 26.868)">
          <path id="Trazado_1089656" data-name="Trazado 1089656" d="M41,23H58.1a7.339,7.339,0,0,1-7.328,7.328H48.328A7.334,7.334,0,0,1,41,23Z" transform="translate(-41 -23)" fill="#dfb28b"/>
        </g>
        <g id="Grupo_1218628" data-name="Grupo 1218628" transform="translate(7.328 26.868)">
          <path id="Trazado_1089657" data-name="Trazado 1089657" d="M7,23H24.1a7.339,7.339,0,0,1-7.328,7.328H14.328A7.334,7.334,0,0,1,7,23Z" transform="translate(-7 -23)" fill="#dfb28b"/>
        </g>
        <g id="Grupo_1218629" data-name="Grupo 1218629" transform="translate(48.851 9.77)">
          <path id="Trazado_1089658" data-name="Trazado 1089658" d="M58.1,10.221v2.443a1.225,1.225,0,0,1-1.221,1.221H41V9H56.877A1.225,1.225,0,0,1,58.1,10.221Z" transform="translate(-41 -9)" fill="#b27946"/>
        </g>
        <g id="Grupo_1218630" data-name="Grupo 1218630" transform="translate(7.328 9.77)">
          <path id="Trazado_1089659" data-name="Trazado 1089659" d="M24.1,9v4.885H8.221A1.225,1.225,0,0,1,7,12.664V10.221A1.225,1.225,0,0,1,8.221,9Z" transform="translate(-7 -9)" fill="#b27946"/>
        </g>
        <g id="Grupo_1218631" data-name="Grupo 1218631" transform="translate(34.196 24.426)">
          <path id="Trazado_1089660" data-name="Trazado 1089660" d="M33.885,21V35.594a9.221,9.221,0,0,1-1.014.061H29V21Z" transform="translate(-29 -21)" fill="#b27946"/>
        </g>
        <g id="Grupo_1218632" data-name="Grupo 1218632" transform="translate(26.868 36.638)">
          <path id="Trazado_1089661" data-name="Trazado 1089661" d="M23,45.655V39.549a6.109,6.109,0,0,1,6.106-6.106H34.2a9.222,9.222,0,0,0,1.014-.061A8.382,8.382,0,0,0,40.1,31a14.586,14.586,0,0,1,2.443,8.073v6.583H40.1v-.281a2.451,2.451,0,0,0-2.137-2.43l-3.8-.476a6.114,6.114,0,0,1-2.931-1.2v.012l-4.116,1.368a2.454,2.454,0,0,0-1.673,2.32v.684Z" transform="translate(-23 -31)" fill="#fcd770"/>
        </g>
        <g id="Grupo_1218633" data-name="Grupo 1218633" transform="translate(48.851 39.081)">
          <path id="Trazado_1089662" data-name="Trazado 1089662" d="M51.674,40.828v.012l-4.116,1.368a2.454,2.454,0,0,0-1.673,2.32v3.126a7.321,7.321,0,0,0,4.641,6.815v.012l-.977,2.943a6.238,6.238,0,0,0-2.821,1.917,5.834,5.834,0,0,0-.7,1.026A12.569,12.569,0,0,1,41,50.306V45.213a12.213,12.213,0,0,1,24.426,0v5.093a12.569,12.569,0,0,1-5.032,10.063,5.835,5.835,0,0,0-.7-1.026,6.238,6.238,0,0,0-2.821-1.917L55.9,54.482V54.47a7.132,7.132,0,0,0,2.491-1.637,7.26,7.26,0,0,0,2.149-5.178V44.932A2.451,2.451,0,0,0,58.4,42.5l-3.8-.476A6.114,6.114,0,0,1,51.674,40.828Z" transform="translate(-41 -33)" fill="#b27946"/>
        </g>
        <g id="Grupo_1218634" data-name="Grupo 1218634" transform="translate(2.443 39.081)">
          <path id="Trazado_1089663" data-name="Trazado 1089663" d="M11.231,40.841,7.116,42.208a2.454,2.454,0,0,0-1.673,2.32v.684H3V42.77a9.77,9.77,0,1,1,19.541,0v2.443H20.1v-.281a2.451,2.451,0,0,0-2.137-2.43l-3.8-.476a6.114,6.114,0,0,1-2.931-1.2Z" transform="translate(-3 -33)" fill="#b27946"/>
        </g>
        <g id="Grupo_1218635" data-name="Grupo 1218635" transform="translate(61.064 63.507)">
          <path id="Trazado_1089664" data-name="Trazado 1089664" d="M58.877,58.044l.672,4.726H51V55.443L54.664,53a6.238,6.238,0,0,1,2.821,1.917,5.834,5.834,0,0,1,.7,1.026A6.265,6.265,0,0,1,58.877,58.044Z" transform="translate(-51 -53)" fill="#ef7385"/>
        </g>
        <g id="Grupo_1218636" data-name="Grupo 1218636" transform="translate(52.515 63.507)">
          <path id="Trazado_1089665" data-name="Trazado 1089665" d="M52.549,55.443V62.77H44l.672-4.726a6.266,6.266,0,0,1,.7-2.1,5.834,5.834,0,0,1,.7-1.026A6.238,6.238,0,0,1,48.885,53Z" transform="translate(-44 -53)" fill="#ef7385"/>
        </g>
        <g id="Grupo_1218637" data-name="Grupo 1218637" transform="translate(37.86 63.507)">
          <path id="Trazado_1089666" data-name="Trazado 1089666" d="M34.443,53a6.237,6.237,0,0,1,4.213,5.044l.672,4.726H33.221L32,55.443Z" transform="translate(-32 -53)" fill="#e6e9ed"/>
        </g>
        <g id="Grupo_1218638" data-name="Grupo 1218638" transform="translate(28.089 63.507)">
          <path id="Trazado_1089667" data-name="Trazado 1089667" d="M31.328,55.443,30.106,62.77H24l.672-4.726A6.237,6.237,0,0,1,28.885,53Z" transform="translate(-24 -53)" fill="#e6e9ed"/>
        </g>
        <g id="Grupo_1218639" data-name="Grupo 1218639" transform="translate(13.434 63.507)">
          <path id="Trazado_1089668" data-name="Trazado 1089668" d="M14.443,53a6.237,6.237,0,0,1,4.213,5.044l.672,4.726H13.221L12,55.443Z" transform="translate(-12 -53)" fill="#e6e9ed"/>
        </g>
        <g id="Grupo_1218640" data-name="Grupo 1218640" transform="translate(3.664 63.507)">
          <path id="Trazado_1089669" data-name="Trazado 1089669" d="M11.328,55.443,10.106,62.77H4l.672-4.726A6.254,6.254,0,0,1,8.885,53Z" transform="translate(-4 -53)" fill="#e6e9ed"/>
        </g>
        <g id="Grupo_1218641" data-name="Grupo 1218641" transform="translate(34.196 65.949)">
          <path id="Trazado_1089670" data-name="Trazado 1089670" d="M32.664,55l1.221,7.328H29L30.221,55Z" transform="translate(-29 -55)" fill="#ef7385"/>
        </g>
        <g id="Grupo_1218642" data-name="Grupo 1218642" transform="translate(9.77 65.949)">
          <path id="Trazado_1089671" data-name="Trazado 1089671" d="M12.664,55l1.221,7.328H9L10.221,55Z" transform="translate(-9 -55)" fill="#ef7385"/>
        </g>
        <g id="Grupo_1218643" data-name="Grupo 1218643" transform="translate(57.4 60.551)">
          <path id="Trazado_1089672" data-name="Trazado 1089672" d="M55.328,53.535l-3.664,2.443L48,53.535l.977-2.943V50.58a7.255,7.255,0,0,0,2.687.513l2.687-.513v.012Z" transform="translate(-48 -50.58)" fill="#f5e0cd"/>
        </g>
        <g id="Grupo_1218644" data-name="Grupo 1218644" transform="translate(53.736 46.909)">
          <path id="Trazado_1089673" data-name="Trazado 1089673" d="M59.655,43.514v2.723a7.26,7.26,0,0,1-2.149,5.178,7.132,7.132,0,0,1-2.491,1.637l-2.687.513A7.336,7.336,0,0,1,45,46.237V43.11a2.454,2.454,0,0,1,1.673-2.32l4.116-1.368V39.41a6.114,6.114,0,0,0,2.931,1.2l3.8.476A2.451,2.451,0,0,1,59.655,43.514Z" transform="translate(-45 -39.41)" fill="#f5e0cd"/>
        </g>
        <g id="Grupo_1218645" data-name="Grupo 1218645" transform="translate(29.311 46.909)">
          <path id="Trazado_1089674" data-name="Trazado 1089674" d="M39.655,43.794v2.443a7.257,7.257,0,0,1-2.149,5.178,7.132,7.132,0,0,1-2.491,1.637,7.335,7.335,0,0,1-9.6-4.372A7.38,7.38,0,0,1,25,46.237V43.11a2.454,2.454,0,0,1,1.673-2.32l4.116-1.368V39.41a6.114,6.114,0,0,0,2.931,1.2l3.8.476a2.451,2.451,0,0,1,2.137,2.43Z" transform="translate(-25 -39.41)" fill="#f5e0cd"/>
        </g>
        <g id="Grupo_1218646" data-name="Grupo 1218646" transform="translate(32.975 60.551)">
          <path id="Trazado_1089675" data-name="Trazado 1089675" d="M34.351,50.592l.977,2.943-2.443,2.443H30.443L28,53.535l.977-2.943V50.58a7.293,7.293,0,0,0,5.374,0Z" transform="translate(-28 -50.58)" fill="#f5e0cd"/>
        </g>
        <g id="Grupo_1218647" data-name="Grupo 1218647" transform="translate(43.551 51.294)">
          <path id="Trazado_1089676" data-name="Trazado 1089676" d="M41.24,47.165a2.388,2.388,0,0,1-1.722.721H36.66a7.38,7.38,0,0,0,.415-2.443V43h2.443a2.45,2.45,0,0,1,2.443,2.443A2.388,2.388,0,0,1,41.24,47.165Z" transform="translate(-36.66 -43)" fill="#f5e0cd"/>
        </g>
        <g id="Grupo_1218648" data-name="Grupo 1218648" transform="translate(24.426 51.294)">
          <path id="Trazado_1089677" data-name="Trazado 1089677" d="M26.3,47.885H23.443A2.46,2.46,0,0,1,21,45.443,2.45,2.45,0,0,1,23.443,43h2.443v2.443A7.38,7.38,0,0,0,26.3,47.885Z" transform="translate(-21 -43)" fill="#f5e0cd"/>
        </g>
        <g id="Grupo_1218649" data-name="Grupo 1218649" transform="translate(19.125 51.294)">
          <path id="Trazado_1089678" data-name="Trazado 1089678" d="M19.518,43a2.45,2.45,0,0,1,2.443,2.443,2.46,2.46,0,0,1-2.443,2.443H16.66a7.38,7.38,0,0,0,.415-2.443V43Z" transform="translate(-16.66 -43)" fill="#f5e0cd"/>
        </g>
        <g id="Grupo_1218650" data-name="Grupo 1218650" transform="translate(4.885 46.909)">
          <path id="Trazado_1089679" data-name="Trazado 1089679" d="M19.655,43.794v2.443a7.257,7.257,0,0,1-2.149,5.178,7.286,7.286,0,0,1-7.853,1.637A7.292,7.292,0,0,1,5,46.237V43.11a2.454,2.454,0,0,1,1.673-2.32l4.116-1.368V39.41a6.114,6.114,0,0,0,2.931,1.2l3.8.476a2.451,2.451,0,0,1,2.137,2.43Z" transform="translate(-5 -39.41)" fill="#f5e0cd"/>
        </g>
        <g id="Grupo_1218651" data-name="Grupo 1218651" transform="translate(8.549 60.551)">
          <path id="Trazado_1089680" data-name="Trazado 1089680" d="M14.338,50.58l.989,2.955-2.443,2.443H10.443L8,53.535l.989-2.955a7.23,7.23,0,0,0,5.349,0Z" transform="translate(-8 -50.58)" fill="#f5e0cd"/>
        </g>
        <g id="Grupo_1218652" data-name="Grupo 1218652" transform="translate(0 51.294)">
          <path id="Trazado_1089681" data-name="Trazado 1089681" d="M5.885,45.443A7.38,7.38,0,0,0,6.3,47.885H3.443a2.388,2.388,0,0,1-1.722-.721A2.388,2.388,0,0,1,1,45.443,2.45,2.45,0,0,1,3.443,43H5.885Z" transform="translate(-1 -43)" fill="#f5e0cd"/>
        </g>
      </g>
      <g id="Grupo_1218654" data-name="Grupo 1218654" transform="translate(0 0)">
        <path id="Trazado_1089682" data-name="Trazado 1089682" d="M52.82,45.651a1.772,1.772,0,0,1-2.443,0l-.358-.358L48.293,47.02l.358.358a4.169,4.169,0,0,0,5.9,0l.358-.358-1.727-1.727Z" transform="translate(10.686 10.023)"/>
        <path id="Trazado_1089683" data-name="Trazado 1089683" d="M32.82,45.651a1.772,1.772,0,0,1-2.443,0l-.358-.358L28.293,47.02l.358.358a4.169,4.169,0,0,0,5.9,0l.358-.358-1.727-1.727Z" transform="translate(6.261 10.023)"/>
        <path id="Trazado_1089684" data-name="Trazado 1089684" d="M14.547,47.378l.358-.358-1.727-1.727-.358.358a1.772,1.772,0,0,1-2.443,0l-.358-.358L8.293,47.02l.358.358a4.169,4.169,0,0,0,5.9,0Z" transform="translate(1.835 10.023)"/>
        <path id="Trazado_1089685" data-name="Trazado 1089685" d="M75.719,57.607V52.514A13.427,13.427,0,0,0,48.9,51.534c-.016-.006-.033-.01-.05-.016V45.926A15.718,15.718,0,0,0,46.2,37.182l-.827-1.24L44.324,37a7.132,7.132,0,0,1-2.8,1.715V25.228a1.221,1.221,0,0,1,2.085-.865l1.16,1.16,5.181-5.181-1.16-1.16a1.221,1.221,0,0,1,.865-2.085H54.2L48.851,27.8v.288A8.56,8.56,0,0,0,57.4,36.638h2.443a8.56,8.56,0,0,0,8.549-8.549V27.8L63.04,17.1h2.909a2.445,2.445,0,0,0,2.443-2.443V12.213A2.445,2.445,0,0,0,65.949,9.77h-16.3a1.221,1.221,0,0,1-.865-2.085l1.16-1.16L44.769,1.345,43.608,2.5a1.221,1.221,0,0,1-2.085-.865V0H34.2V1.64a1.2,1.2,0,0,1-.754,1.13A1.2,1.2,0,0,1,32.111,2.5l-1.16-1.16L25.77,6.525l1.16,1.16a1.221,1.221,0,0,1-.865,2.085H9.77a2.445,2.445,0,0,0-2.443,2.443v2.443A2.445,2.445,0,0,0,9.77,17.1h2.909L7.328,27.8v.288a8.56,8.56,0,0,0,8.549,8.549h2.443a8.56,8.56,0,0,0,8.549-8.549V27.8L21.517,17.1h4.549a1.221,1.221,0,0,1,.865,2.085l-1.16,1.16,5.181,5.181,1.16-1.16a1.221,1.221,0,0,1,2.085.865V39.081a7.335,7.335,0,0,0-7.328,7.328v5.11a3.65,3.65,0,0,0-1.221.728,3.63,3.63,0,0,0-1.221-.728V50.073a10.992,10.992,0,1,0-21.983,0v1.446a3.655,3.655,0,0,0,1.221,7.1H5.722a8.6,8.6,0,0,0,3.534,3.787l-.462,1.385A7.429,7.429,0,0,0,4.35,69.6l-.873,6.119H72.244l-.874-6.12a7.555,7.555,0,0,0-.419-1.588A13.854,13.854,0,0,0,75.719,57.607ZM59.843,34.2H57.4a6.1,6.1,0,0,1-5.965-4.885H65.808A6.1,6.1,0,0,1,59.843,34.2Zm5.352-7.328H52.049l4.885-9.77h3.376Zm.755-14.655v2.443H51.294V12.213ZM18.319,34.2H15.877a6.1,6.1,0,0,1-5.965-4.885H24.284A6.1,6.1,0,0,1,18.319,34.2Zm5.352-7.328H10.525L15.41,17.1h3.376ZM9.77,14.655V12.213H24.426v2.443ZM62.285,61.064a6.113,6.113,0,0,1-6.106-6.106V51.832a1.219,1.219,0,0,1,.835-1.159l3.551-1.183a7.326,7.326,0,0,0,2.958,1.052l3.8.475a1.225,1.225,0,0,1,1.07,1.213v2.728A6.113,6.113,0,0,1,62.285,61.064Zm0,2.443a8.519,8.519,0,0,0,1.9-.22l.314.942L62.285,65.7,60.075,64.23l.314-.942A8.591,8.591,0,0,0,62.285,63.507Zm-3.8,2.6,2.582,1.721v5.453h-5.92l.476-3.332A4.991,4.991,0,0,1,58.482,66.1ZM53.2,69.6l-.526,3.677H47.468L46.942,69.6A7.429,7.429,0,0,0,42.5,63.792l-.462-1.385a8.6,8.6,0,0,0,3.534-3.787H47.63a3.619,3.619,0,0,0,1.268-.239,13.844,13.844,0,0,0,4.724,9.63A7.532,7.532,0,0,0,53.2,69.6ZM13.247,68.392h.374l.815,4.885h-2Zm2.716-.8,1.423-1.423A5,5,0,0,1,20.1,69.945l.475,3.332H16.911Zm6.555,2.01a7.429,7.429,0,0,0-4.444-5.807l-.462-1.385a8.6,8.6,0,0,0,3.534-3.787H23.2a3.64,3.64,0,0,0,2.443-.953,3.634,3.634,0,0,0,2.443.953h2.058a8.6,8.6,0,0,0,3.534,3.787l-.462,1.385A7.429,7.429,0,0,0,28.776,69.6l-.525,3.677H23.042Zm-.535-14.642V53.736H23.2a1.221,1.221,0,1,1,0,2.443H21.885A8.58,8.58,0,0,0,21.983,54.958ZM40.126,64.4l-1.551,1.551H37.144L35.593,64.4l.37-1.111a8.292,8.292,0,0,0,3.793,0ZM37.86,61.064a6.113,6.113,0,0,1-6.106-6.106V51.832a1.219,1.219,0,0,1,.835-1.159L36.14,49.49A7.319,7.319,0,0,0,39.1,50.542l3.8.475a1.225,1.225,0,0,1,1.07,1.213v2.728A6.113,6.113,0,0,1,37.86,61.064ZM31.2,69.945a5,5,0,0,1,2.714-3.779l1.423,1.423-.949,5.688H30.719Zm6.478-1.553h.374l.815,4.885h-2Zm2.716-.8,1.423-1.423a5,5,0,0,1,2.714,3.779L45,73.277H41.337Zm6.02-12.632V53.736H47.63a1.221,1.221,0,0,1,0,2.443H46.311A8.581,8.581,0,0,0,46.409,54.958ZM31.011,22.13l-1.847-1.847a3.674,3.674,0,0,0-2.3-5.543V12.129a3.674,3.674,0,0,0,2.3-5.543l1.847-1.847a3.6,3.6,0,0,0,3.366.287,3.6,3.6,0,0,0,2.178-2.583h2.612a3.6,3.6,0,0,0,2.178,2.583,3.6,3.6,0,0,0,3.366-.287l1.847,1.847a3.674,3.674,0,0,0,2.295,5.543v2.612a3.674,3.674,0,0,0-2.3,5.543l-1.847,1.847a3.674,3.674,0,0,0-5.543,2.3H36.553a3.674,3.674,0,0,0-5.542-2.3Zm5.628,4.739h2.443V39.081H36.638ZM34.2,41.524h5.1a9.628,9.628,0,0,0,5.584-1.8,13.282,13.282,0,0,1,1.534,6.207v5.368h-.137a3.659,3.659,0,0,0-3.073-2.7l-3.8-.475A4.936,4.936,0,0,1,35.355,44.8l-2.316.773A7.243,7.243,0,0,0,34.092,47.6l-2.275.758a3.658,3.658,0,0,0-2.462,2.936h-.044V46.408A4.89,4.89,0,0,1,34.2,41.524ZM28.089,53.736h1.221v1.221a8.581,8.581,0,0,0,.1,1.221H28.089a1.221,1.221,0,1,1,0-2.443ZM13.434,41.524a8.56,8.56,0,0,1,8.549,8.549v1.221h-.137a3.659,3.659,0,0,0-3.073-2.7l-3.8-.475A4.936,4.936,0,0,1,10.929,44.8l-2.316.773A7.243,7.243,0,0,0,9.666,47.6l-2.275.758a3.659,3.659,0,0,0-2.463,2.937H4.885V50.073a8.56,8.56,0,0,1,8.549-8.549ZM3.664,56.179a1.221,1.221,0,1,1,0-2.443H4.885v1.221a8.58,8.58,0,0,0,.1,1.221Zm3.664-1.221V51.832a1.219,1.219,0,0,1,.835-1.159l3.551-1.183a7.319,7.319,0,0,0,2.958,1.052l3.8.475a1.225,1.225,0,0,1,1.07,1.213v2.728a6.106,6.106,0,1,1-12.213,0Zm6.106,8.549a8.519,8.519,0,0,0,1.9-.22L15.7,64.4,14.15,65.949H12.718L11.167,64.4l.37-1.111a8.519,8.519,0,0,0,1.9.22ZM6.77,69.945a5,5,0,0,1,2.714-3.779l1.423,1.423-.949,5.688H6.293Zm56.737,3.332V67.824L66.088,66.1a4.991,4.991,0,0,1,2.861,3.843l.476,3.33Zm3.418-9.484-.462-1.385a8.548,8.548,0,0,0,4.371-7.45V52.229a3.67,3.67,0,0,0-3.21-3.636l-3.8-.475A4.936,4.936,0,0,1,59.781,44.8l-2.316.773A7.243,7.243,0,0,0,58.518,47.6l-2.275.758a3.66,3.66,0,0,0-2.506,3.476v3.125a8.551,8.551,0,0,0,4.371,7.451l-.462,1.385a7.419,7.419,0,0,0-2.778,2.08,11.418,11.418,0,0,1-3.573-8.267V52.514a10.992,10.992,0,1,1,21.983,0v5.093A11.41,11.41,0,0,1,69.7,65.872a7.44,7.44,0,0,0-2.777-2.08Z" transform="translate(0 0)"/>
        <path id="Trazado_1089686" data-name="Trazado 1089686" d="M35.328,11.664a3.664,3.664,0,1,0-3.664,3.664A3.668,3.668,0,0,0,35.328,11.664Zm-4.885,0a1.221,1.221,0,1,1,1.221,1.221A1.222,1.222,0,0,1,30.443,11.664Z" transform="translate(6.196 1.77)"/>
        <path id="Trazado_1089687" data-name="Trazado 1089687" d="M41.1,12.549A8.549,8.549,0,1,0,32.549,21.1,8.56,8.56,0,0,0,41.1,12.549Zm-14.655,0a6.106,6.106,0,1,1,6.106,6.106A6.113,6.113,0,0,1,26.443,12.549Z" transform="translate(5.311 0.885)"/>
      </g>
    </g>
  </g>
</svg>
