<svg xmlns="http://www.w3.org/2000/svg" xmlns:xlink="http://www.w3.org/1999/xlink" width="110" height="110" viewBox="0 0 110 110">
  <defs>
    <filter id="Trazado_982547" x="0" y="0" width="110" height="110" filterUnits="userSpaceOnUse">
      <feOffset dy="3" input="SourceAlpha"/>
      <feGaussianBlur stdDeviation="3" result="blur"/>
      <feFlood flood-opacity="0.161"/>
      <feComposite operator="in" in2="blur"/>
      <feComposite in="SourceGraphic"/>
    </filter>
  </defs>
  <g id="Grupo_1218724" data-name="Grupo 1218724" transform="translate(-3611 -1755.989)">
    <g id="Grupo_1217628" data-name="Grupo 1217628" transform="translate(3620 1761.989)">
      <g id="Grupo_1211001" data-name="Grupo 1211001" transform="translate(0 0)">
        <g id="Grupo_1200151" data-name="Grupo 1200151">
          <g id="Grupo_1185952" data-name="Grupo 1185952" transform="translate(0 0)">
            <g id="Grupo_1184115" data-name="Grupo 1184115" transform="translate(0 0)">
              <g id="Grupo_1183744" data-name="Grupo 1183744">
                <g id="Grupo_1181546" data-name="Grupo 1181546">
                  <g id="Grupo_1177563" data-name="Grupo 1177563">
                    <g id="Grupo_1173148" data-name="Grupo 1173148">
                      <g id="Grupo_1163803" data-name="Grupo 1163803" transform="translate(0 0)">
                        <g id="Grupo_1163015" data-name="Grupo 1163015" transform="translate(0 0)">
                          <g id="Grupo_1157017" data-name="Grupo 1157017">
                            <g id="Grupo_1155793" data-name="Grupo 1155793">
                              <g id="Grupo_1154704" data-name="Grupo 1154704">
                                <g id="Grupo_1150790" data-name="Grupo 1150790">
                                  <g id="Grupo_1154214" data-name="Grupo 1154214">
                                    <g id="Grupo_1152583" data-name="Grupo 1152583">
                                      <g id="Grupo_1146973" data-name="Grupo 1146973">
                                        <g id="Grupo_1146954" data-name="Grupo 1146954">
                                          <g transform="matrix(1, 0, 0, 1, -9, -6)" filter="url(#Trazado_982547)">
                                            <g id="Trazado_982547-2" data-name="Trazado 982547" transform="translate(9 6)" fill="#f2d944">
                                              <path d="M 46.00000381469727 90.49986267089844 C 39.99188232421875 90.49986267089844 34.16427230834961 89.32350158691406 28.67905807495117 87.00344848632812 C 23.38020324707031 84.76223754882812 18.62104415893555 81.55341339111328 14.53375053405762 77.46613311767578 C 10.44647026062012 73.37885284423828 7.237643718719482 68.61968994140625 4.996417045593262 63.32085037231445 C 2.676363706588745 57.83565139770508 1.500003814697266 52.00805282592773 1.500003814697266 45.99993133544922 C 1.500003814697266 39.99182510375977 2.676363706588745 34.16422653198242 4.996417045593262 28.67901039123535 C 7.237643718719482 23.38017082214355 10.44647026062012 18.62101173400879 14.53375053405762 14.53373146057129 C 18.62104415893555 10.44645118713379 23.38020324707031 7.237624645233154 28.67905807495117 4.996411323547363 C 34.16427230834961 2.676357984542847 39.99188232421875 1.499997973442078 46.00000381469727 1.499997973442078 C 52.00812530517578 1.499997973442078 57.83573532104492 2.676357984542847 63.32094955444336 4.996411323547363 C 68.61980438232422 7.237624645233154 73.37896728515625 10.44645118713379 77.46625518798828 14.53373146057129 C 81.55353546142578 18.62101173400879 84.76236724853516 23.38017082214355 87.00359344482422 28.67901039123535 C 89.32364654541016 34.16422653198242 90.5 39.99182510375977 90.5 45.99993133544922 C 90.5 52.00805282592773 89.32364654541016 57.83565139770508 87.00359344482422 63.32085037231445 C 84.76236724853516 68.61968994140625 81.55353546142578 73.37885284423828 77.46625518798828 77.46613311767578 C 73.37896728515625 81.55341339111328 68.61980438232422 84.76223754882812 63.32094955444336 87.00344848632812 C 57.83573532104492 89.32350158691406 52.00812530517578 90.49986267089844 46.00000381469727 90.49986267089844 Z" stroke="none"/>
                                              <path d="M 46.00000381469727 3 C 40.19371795654297 3 34.56270217895508 4.136505126953125 29.26337432861328 6.377914428710938 C 24.14333343505859 8.54351806640625 19.54441833496094 11.64438629150391 15.59440612792969 15.59439086914062 C 11.64440155029297 19.54440307617188 8.54351806640625 24.14330291748047 6.377914428710938 29.26334381103516 C 4.136505126953125 34.56266021728516 3.000007629394531 40.19366073608398 3.000007629394531 45.99993133544922 C 3.000007629394531 51.80620193481445 4.136505126953125 57.43720245361328 6.377914428710938 62.73651885986328 C 8.54351806640625 67.85655975341797 11.64440155029297 72.45545959472656 15.59440612792969 76.40547180175781 C 19.54441833496094 80.35547637939453 24.14333343505859 83.45634460449219 29.26337432861328 85.6219482421875 C 34.56270217895508 87.86335754394531 40.19371795654297 88.99986267089844 46.00000381469727 88.99986267089844 C 51.80628967285156 88.99986267089844 57.43730545043945 87.86335754394531 62.73661804199219 85.6219482421875 C 67.85667419433594 83.45634460449219 72.45557403564453 80.35547637939453 76.40558624267578 76.40547180175781 C 80.35560607910156 72.45545959472656 83.45647430419922 67.85655975341797 85.62207794189453 62.73651885986328 C 87.86350250244141 57.43720245361328 89 51.80620193481445 89 45.99993133544922 C 89 40.19366073608398 87.86350250244141 34.56266021728516 85.62207794189453 29.26334381103516 C 83.45647430419922 24.14330291748047 80.35560607910156 19.54440307617188 76.40558624267578 15.59439086914062 C 72.45557403564453 11.64438629150391 67.85667419433594 8.54351806640625 62.73661804199219 6.377914428710938 C 57.43730545043945 4.136505126953125 51.80628967285156 3 46.00000381469727 3 M 46.00000381469727 0 C 71.40509033203125 0 92 20.59487152099609 92 45.99993133544922 C 92 71.40499114990234 71.40509033203125 91.99986267089844 46.00000381469727 91.99986267089844 C 20.59490203857422 91.99986267089844 7.62939453125e-06 71.40499114990234 7.62939453125e-06 45.99993133544922 C 7.62939453125e-06 20.59487152099609 20.59490203857422 0 46.00000381469727 0 Z" stroke="none" fill="#ba9c5a"/>
                                            </g>
                                          </g>
                                        </g>
                                      </g>
                                    </g>
                                  </g>
                                </g>
                              </g>
                            </g>
                          </g>
                        </g>
                      </g>
                    </g>
                  </g>
                </g>
              </g>
            </g>
          </g>
        </g>
      </g>
    </g>
    <g id="juez_2_" data-name="juez (2)" transform="translate(3626.57 1775.508)">
      <g id="Grupo_1218722" data-name="Grupo 1218722" transform="translate(1.141 1.141)">
        <g id="Grupo_1218692" data-name="Grupo 1218692" transform="translate(10.6)">
          <g id="Grupo_1218670" data-name="Grupo 1218670" transform="translate(10.017)">
            <path id="Trazado_1089731" data-name="Trazado 1089731" d="M146.879,51.372h3.72l.557-.208V45.71a14.168,14.168,0,0,0,20.621,0v5.454l.557.208h3.72a3.8,3.8,0,0,0,3.8-3.8v-24.1A15.967,15.967,0,0,0,163.888,7.5h-4.843a15.967,15.967,0,0,0-15.967,15.967v24.1a3.8,3.8,0,0,0,3.8,3.8Z" transform="translate(-143.078 -7.5)" fill="#554e56"/>
          </g>
          <g id="Grupo_1218673" data-name="Grupo 1218673" transform="translate(26.228 0)">
            <g id="Grupo_1218671" data-name="Grupo 1218671">
              <path id="Trazado_1089732" data-name="Trazado 1089732" d="M261.271,22.631h1.886a3.041,3.041,0,0,1,3.041,3.041v4.213h.773a4.944,4.944,0,0,1,3.273,1.233V23.467A15.967,15.967,0,0,0,254.277,7.5h-4.6A16.514,16.514,0,0,1,261.271,22.631Z" transform="translate(-249.678 -7.5)" fill="#433f43"/>
            </g>
            <g id="Grupo_1218672" data-name="Grupo 1218672" transform="translate(12.488 31.081)">
              <path id="Trazado_1089733" data-name="Trazado 1089733" d="M331.8,224.471l.557.208h3.72a3.8,3.8,0,0,0,3.8-3.8v-8.989a4.945,4.945,0,0,1-3.273,1.233h-1.3a14.32,14.32,0,0,1-3.51,6.122v5.227Z" transform="translate(-331.801 -211.889)" fill="#433f43"/>
            </g>
          </g>
          <g id="Grupo_1218676" data-name="Grupo 1218676" transform="translate(8.326 22.385)">
            <g id="Grupo_1218674" data-name="Grupo 1218674">
              <path id="Trazado_1089734" data-name="Trazado 1089734" d="M137.843,160.79v-4.824a2.866,2.866,0,0,1,.294-1.261h-1.219a4.965,4.965,0,0,0,0,9.929h1.455A14.154,14.154,0,0,1,137.843,160.79Z" transform="translate(-131.953 -154.705)" fill="#ffb09e"/>
            </g>
            <g id="Grupo_1218675" data-name="Grupo 1218675" transform="translate(33.742)">
              <path id="Trazado_1089735" data-name="Trazado 1089735" d="M355.29,154.705h-.925v6.085a14.155,14.155,0,0,1-.529,3.844h1.455a4.965,4.965,0,1,0,0-9.929Z" transform="translate(-353.835 -154.705)" fill="#f89580"/>
            </g>
          </g>
          <g id="Grupo_1218691" data-name="Grupo 1218691" transform="translate(0 15.131)">
            <g id="Grupo_1218690" data-name="Grupo 1218690">
              <path id="Trazado_1089736" data-name="Trazado 1089736" d="M446.462,355.975h5.729l-1.825-11.968a9.124,9.124,0,0,0-5.821-7.17l-.152-.057v12.351h2.069a.76.76,0,0,1,.76.76v5.322A.76.76,0,0,1,446.462,355.975Z" transform="translate(-388.555 -301.838)" fill="#0067c5"/>
              <path id="Trazado_1089737" data-name="Trazado 1089737" d="M111.845,319.474v-5.322a.76.76,0,0,1,.76-.76h20.589V301.1l-17.274-6.467h-.172L106.014,313.2a.456.456,0,0,1-.808,0L95.471,294.63H95.3l-9.571,3.583a2.082,2.082,0,0,1-1.358,2.023,3.162,3.162,0,0,0-1.848,1.908l-.544,1.492.536.2a1.245,1.245,0,0,1,.743,1.6l-2.5,6.856a1.243,1.243,0,0,1-1.6.743l-.536-.2-.544,1.491a3.163,3.163,0,0,0,.185,2.65A2.078,2.078,0,0,1,77.2,319.94l.055.294h35.346A.761.761,0,0,1,111.845,319.474Z" transform="translate(-77.204 -266.097)" fill="#004281"/>
              <g id="Grupo_1218677" data-name="Grupo 1218677" transform="translate(32.119 28.533)">
                <path id="Trazado_1089738" data-name="Trazado 1089738" d="M295.016,294.63l-.859,1.312-5.738,10.948H312.29V301.1Z" transform="translate(-288.419 -294.63)" fill="#0055a3"/>
              </g>
              <g id="Grupo_1218678" data-name="Grupo 1218678" transform="translate(37.104 28.533)">
                <path id="Trazado_1089739" data-name="Trazado 1089739" d="M340.084,306.89V301.1L322.81,294.63h-.172l-1.441,2.75,13.154,4.924a1.521,1.521,0,0,1,.988,1.424v3.162Z" transform="translate(-321.197 -294.63)" fill="#004281"/>
              </g>
              <g id="Grupo_1218679" data-name="Grupo 1218679" transform="translate(4.775 28.533)">
                <path id="Trazado_1089740" data-name="Trazado 1089740" d="M112.228,299A2.078,2.078,0,0,1,111,300.236a3.162,3.162,0,0,0-1.848,1.908l-.544,1.492.536.2a1.245,1.245,0,0,1,.743,1.6l-.534,1.463h19.172l-5.738-10.948-.859-1.312-9.571,3.583A2.074,2.074,0,0,1,112.228,299Z" transform="translate(-108.604 -294.63)" fill="#0055a3"/>
              </g>
              <g id="Grupo_1218681" data-name="Grupo 1218681" transform="translate(51.245 40.793)">
                <g id="Grupo_1218680" data-name="Grupo 1218680">
                  <path id="Trazado_1089741" data-name="Trazado 1089741" d="M414.19,375.252h4.745v6.5H414.19Z" transform="translate(-414.19 -375.252)" fill="#00366d"/>
                </g>
              </g>
              <g id="Grupo_1218683" data-name="Grupo 1218683" transform="translate(20.87 28.704)">
                <g id="Grupo_1218682" data-name="Grupo 1218682">
                  <path id="Trazado_1089742" data-name="Trazado 1089742" d="M222.508,295.921a.912.912,0,0,0-1.054,0l-7.009,4.956,7.132,13.608a.456.456,0,0,0,.808,0l7.132-13.608Z" transform="translate(-214.445 -295.754)" fill="#fff"/>
                </g>
              </g>
              <g id="Grupo_1218684" data-name="Grupo 1218684" transform="translate(26.034 31.38)">
                <path id="Trazado_1089743" data-name="Trazado 1089743" d="M254.847,313.35l-6.446,12.3,1.968,3.755a.456.456,0,0,0,.808,0l7.132-13.608Z" transform="translate(-248.401 -313.35)" fill="#f9f3f1"/>
              </g>
              <g id="Grupo_1218685" data-name="Grupo 1218685" transform="translate(18.095 23.079)">
                <path id="Trazado_1089744" data-name="Trazado 1089744" d="M206.509,263.216a14.152,14.152,0,0,1-10.311-4.451v5.454l2.846,5.43,7.026-4.968a.76.76,0,0,1,.878,0l7.026,4.968,2.846-5.43v-5.454a14.152,14.152,0,0,1-10.31,4.451Z" transform="translate(-196.198 -258.765)" fill="#f9f3f1"/>
              </g>
              <g id="Grupo_1218687" data-name="Grupo 1218687" transform="translate(32.409 23.079)">
                <g id="Grupo_1218686" data-name="Grupo 1218686">
                  <path id="Trazado_1089745" data-name="Trazado 1089745" d="M291.886,262.077v1.767a1.52,1.52,0,0,1-.174.706l-1.389,2.651,3.462,2.448,2.846-5.43v-5.454A14.251,14.251,0,0,1,291.886,262.077Z" transform="translate(-290.323 -258.765)" fill="#efe2dd"/>
                </g>
              </g>
              <g id="Grupo_1218688" data-name="Grupo 1218688" transform="translate(14.064 0)">
                <path id="Trazado_1089746" data-name="Trazado 1089746" d="M169.685,115.516v4.824a14.342,14.342,0,1,0,28.685,0v-10.3A3.041,3.041,0,0,0,195.329,107h-6.774a3.041,3.041,0,0,0-2.659,1.564l-.194.35a6.923,6.923,0,0,1-6.051,3.561h-6.924A3.041,3.041,0,0,0,169.685,115.516Z" transform="translate(-169.685 -107)" fill="#ffcebf"/>
              </g>
              <g id="Grupo_1218689" data-name="Grupo 1218689" transform="translate(26.714)">
                <path id="Trazado_1089747" data-name="Trazado 1089747" d="M265.867,107h-3.451a3.1,3.1,0,0,1,1.882,2.848v10.482a14.6,14.6,0,0,1-11.424,14.252,14.345,14.345,0,0,0,16.034-14.243v-10.3A3.041,3.041,0,0,0,265.867,107Z" transform="translate(-252.874 -107)" fill="#ffb09e"/>
              </g>
            </g>
          </g>
        </g>
        <g id="Grupo_1218715" data-name="Grupo 1218715" transform="translate(0.925 42.642)">
          <g id="Grupo_1218712" data-name="Grupo 1218712">
            <g id="Grupo_1218693" data-name="Grupo 1218693" transform="translate(17.861 14.831)">
              <path id="Trazado_1089748" data-name="Trazado 1089748" d="M153.469,396.619a.76.76,0,0,1-.975.454l-21.464-7.829c.011-.024.021-.047.03-.072l1.335-3.659c.009-.025.016-.05.023-.074l21.464,7.829a.76.76,0,0,1,.454.975Z" transform="translate(-131.03 -385.438)" fill="#a44f3e"/>
            </g>
            <g id="Grupo_1218694" data-name="Grupo 1218694" transform="translate(18.626 14.831)">
              <path id="Trazado_1089749" data-name="Trazado 1089749" d="M158.148,393.268l-21.464-7.829c-.007.025-.014.05-.023.074l-.6,1.645,19.564,7.136a.76.76,0,0,1,.454.975l-.5,1.373,1.182.431a.76.76,0,0,0,.975-.454l.867-2.377A.76.76,0,0,0,158.148,393.268Z" transform="translate(-136.061 -385.439)" fill="#883f2e"/>
            </g>
            <g id="Grupo_1218695" data-name="Grupo 1218695" transform="translate(13.415 12.303)">
              <path id="Trazado_1089750" data-name="Trazado 1089750" d="M103.949,368.815l3.08,1.124a1.191,1.191,0,0,1,.711,1.527l-1.335,3.659a1.191,1.191,0,0,1-1.527.711l-3.08-1.124Z" transform="translate(-101.798 -368.815)" fill="#528fd8"/>
            </g>
            <g id="Grupo_1218696" data-name="Grupo 1218696" transform="translate(13.415 12.303)">
              <path id="Trazado_1089751" data-name="Trazado 1089751" d="M103.949,368.815l3.08,1.124a1.191,1.191,0,0,1,.711,1.527l-1.335,3.659a1.191,1.191,0,0,1-1.527.711l-3.08-1.124Z" transform="translate(-101.798 -368.815)" fill="#c96e59"/>
            </g>
            <g id="Grupo_1218697" data-name="Grupo 1218697" transform="translate(14.989 12.303)">
              <path id="Trazado_1089752" data-name="Trazado 1089752" d="M115.807,369.939l-3.08-1.124-.577,1.581,1.475.538a1.191,1.191,0,0,1,.711,1.527l-1.166,3.2.486.177a1.191,1.191,0,0,0,1.527-.711l1.335-3.659a1.191,1.191,0,0,0-.711-1.527Z" transform="translate(-112.15 -368.815)" fill="#bb5d4c"/>
            </g>
            <g id="Grupo_1218711" data-name="Grupo 1218711">
              <g id="Grupo_1218698" data-name="Grupo 1218698" transform="translate(0 16.558)">
                <path id="Trazado_1089753" data-name="Trazado 1089753" d="M13.716,401.419a2.227,2.227,0,0,1,1.322-1.328,3.022,3.022,0,0,0,1.758-1.818l.54-1.48,7.479,2.728-.54,1.48a3.022,3.022,0,0,0,.175,2.523,2.234,2.234,0,0,1-2.709,3.2l-6.692-2.441a2.235,2.235,0,0,1-1.333-2.865Z" transform="translate(-13.58 -396.793)" fill="#0573ce"/>
              </g>
              <g id="Grupo_1218699" data-name="Grupo 1218699" transform="translate(0 16.558)">
                <path id="Trazado_1089754" data-name="Trazado 1089754" d="M13.716,401.419a2.227,2.227,0,0,1,1.322-1.328,3.022,3.022,0,0,0,1.758-1.818l.54-1.48,7.479,2.728-.54,1.48a3.022,3.022,0,0,0,.175,2.523,2.234,2.234,0,0,1-2.709,3.2l-6.692-2.441a2.235,2.235,0,0,1-1.333-2.865Z" transform="translate(-13.58 -396.793)" fill="#a44f3e"/>
              </g>
              <g id="Grupo_1218701" data-name="Grupo 1218701" transform="translate(6.772 18.144)">
                <g id="Grupo_1218700" data-name="Grupo 1218700">
                  <path id="Trazado_1089755" data-name="Trazado 1089755" d="M62.035,409.847l.54-1.48-3.129-1.141-1.13,2.621a3.022,3.022,0,0,0,.175,2.523,2.226,2.226,0,0,1-.378,2.695l1.389.507a2.234,2.234,0,0,0,2.709-3.2A3.022,3.022,0,0,1,62.035,409.847Z" transform="translate(-58.111 -407.226)" fill="#883f2e"/>
                </g>
              </g>
              <g id="Grupo_1218702" data-name="Grupo 1218702" transform="translate(1.458 16.558)">
                <path id="Trazado_1089756" data-name="Trazado 1089756" d="M24.927,398.273l.54-1.48,7.479,2.728-.54,1.48a3.022,3.022,0,0,0,.175,2.523l-9.412-3.433A3.023,3.023,0,0,0,24.927,398.273Z" transform="translate(-23.169 -396.793)" fill="#c96e59"/>
              </g>
              <g id="Grupo_1218704" data-name="Grupo 1218704" transform="translate(6.782 18.144)">
                <g id="Grupo_1218703" data-name="Grupo 1218703">
                  <path id="Trazado_1089757" data-name="Trazado 1089757" d="M62.092,409.847l.54-1.48L59.5,407.226l-1.13,2.621a3.2,3.2,0,0,0-.193,1.032l4.088,1.491A3.022,3.022,0,0,1,62.092,409.847Z" transform="translate(-58.179 -407.226)" fill="#bb5d4c"/>
                </g>
              </g>
              <g id="Grupo_1218705" data-name="Grupo 1218705" transform="translate(7.118)">
                <path id="Trazado_1089758" data-name="Trazado 1089758" d="M60.39,295.25l.54-1.48a3.022,3.022,0,0,0-.175-2.523,2.234,2.234,0,0,1,2.709-3.2l6.692,2.441a2.234,2.234,0,0,1,.011,4.194,3.022,3.022,0,0,0-1.758,1.818l-.54,1.48Z" transform="translate(-60.39 -287.91)" fill="#0573ce"/>
              </g>
              <g id="Grupo_1218706" data-name="Grupo 1218706" transform="translate(7.118)">
                <path id="Trazado_1089759" data-name="Trazado 1089759" d="M60.39,295.25l.54-1.48a3.022,3.022,0,0,0-.175-2.523,2.234,2.234,0,0,1,2.709-3.2l6.692,2.441a2.234,2.234,0,0,1,.011,4.194,3.022,3.022,0,0,0-1.758,1.818l-.54,1.48Z" transform="translate(-60.39 -287.91)" fill="#a44f3e"/>
              </g>
              <g id="Grupo_1218707" data-name="Grupo 1218707" transform="translate(11.407 1.827)">
                <path id="Trazado_1089760" data-name="Trazado 1089760" d="M94.069,300.672l-2.057-.75a2.234,2.234,0,0,1-1.033,3.405,3.022,3.022,0,0,0-1.758,1.818L88.592,307l3.19,1.164.54-1.48a3.022,3.022,0,0,1,1.758-1.818,2.234,2.234,0,0,0-.011-4.194Z" transform="translate(-88.592 -299.922)" fill="#883f2e"/>
              </g>
              <g id="Grupo_1218709" data-name="Grupo 1218709" transform="translate(7.118 3.337)">
                <g id="Grupo_1218708" data-name="Grupo 1218708">
                  <path id="Trazado_1089761" data-name="Trazado 1089761" d="M60.39,313.86l.54-1.48a3.022,3.022,0,0,0-.175-2.523l9.412,3.433a3.022,3.022,0,0,0-1.758,1.818l-.54,1.48Z" transform="translate(-60.39 -309.857)" fill="#c96e59"/>
                </g>
              </g>
              <g id="Grupo_1218710" data-name="Grupo 1218710" transform="translate(11.407 5.465)">
                <path id="Trazado_1089762" data-name="Trazado 1089762" d="M90.5,323.846a3.089,3.089,0,0,0-1.279,1.585l-.629,1.855,3.19,1.164.54-1.48a3.022,3.022,0,0,1,1.758-1.818Z" transform="translate(-88.592 -323.846)" fill="#bb5d4c"/>
              </g>
            </g>
          </g>
          <g id="Grupo_1218713" data-name="Grupo 1218713" transform="translate(2.396 6.98)">
            <path id="Trazado_1089763" data-name="Trazado 1089763" d="M41.98,336.914,33.714,333.9a1.4,1.4,0,0,0-1.791.833l-2.5,6.856a1.4,1.4,0,0,0,.833,1.791l8.266,3.015a1.4,1.4,0,0,0,1.791-.833l2.5-6.856A1.4,1.4,0,0,0,41.98,336.914Z" transform="translate(-29.338 -333.814)" fill="#d8aa5e"/>
          </g>
          <g id="Grupo_1218714" data-name="Grupo 1218714" transform="translate(4.523 6.98)">
            <path id="Trazado_1089764" data-name="Trazado 1089764" d="M53.841,336.914,45.574,333.9a1.4,1.4,0,0,0-1.791.833l-.459,1.257,6.662,2.43a1.4,1.4,0,0,1,.833,1.791l-2.042,5.6,1.6.585a1.4,1.4,0,0,0,1.791-.833l2.5-6.856a1.4,1.4,0,0,0-.833-1.791Z" transform="translate(-43.325 -333.814)" fill="#c99c56"/>
          </g>
        </g>
        <g id="Grupo_1218716" data-name="Grupo 1218716" transform="translate(45.241 62.425)">
          <path id="Trazado_1089765" data-name="Trazado 1089765" d="M328.267,424.843H305.76a.76.76,0,0,1-.76-.76V418.76a.76.76,0,0,1,.76-.76h22.506a.76.76,0,0,1,.76.76v5.323A.76.76,0,0,1,328.267,424.843Z" transform="translate(-305 -418)" fill="#fe7d43"/>
        </g>
        <g id="Grupo_1218717" data-name="Grupo 1218717" transform="translate(45.241 62.425)">
          <path id="Trazado_1089766" data-name="Trazado 1089766" d="M328.267,418h-2.281v3.041a.76.76,0,0,1-.76.76H305v2.281a.76.76,0,0,0,.76.76h22.506a.76.76,0,0,0,.76-.76V418.76A.76.76,0,0,0,328.267,418Z" transform="translate(-305 -418)" fill="#fd6930"/>
        </g>
        <g id="Grupo_1218718" data-name="Grupo 1218718" transform="translate(59.535 62.425)">
          <path id="Trazado_1089767" data-name="Trazado 1089767" d="M399,418h4.562v6.843H399Z" transform="translate(-399 -418)" fill="#d8aa5e"/>
        </g>
        <g id="Grupo_1218719" data-name="Grupo 1218719" transform="translate(59.535 66.226)">
          <path id="Trazado_1089768" data-name="Trazado 1089768" d="M399,443h4.562v3.041H399Z" transform="translate(-399 -443)" fill="#c99c56"/>
        </g>
        <g id="Grupo_1218720" data-name="Grupo 1218720" transform="translate(0 69.116)">
          <path id="Trazado_1089769" data-name="Trazado 1089769" d="M82.318,468.463H8.26a.76.76,0,0,1-.76-.76V462.76a.76.76,0,0,1,.76-.76H82.318a.76.76,0,0,1,.76.76V467.7A.76.76,0,0,1,82.318,468.463Z" transform="translate(-7.5 -462)" fill="#c96e59"/>
        </g>
        <g id="Grupo_1218721" data-name="Grupo 1218721" transform="translate(0 69.116)">
          <path id="Trazado_1089770" data-name="Trazado 1089770" d="M82.318,462H76.768v2.661a.76.76,0,0,1-.76.76H7.5V467.7a.76.76,0,0,0,.76.76H82.318a.76.76,0,0,0,.76-.76V462.76A.76.76,0,0,0,82.318,462Z" transform="translate(-7.5 -462)" fill="#bb5d4c"/>
        </g>
      </g>
      <g id="Grupo_1218723" data-name="Grupo 1218723" transform="translate(0 0)">
        <path id="Trazado_1089771" data-name="Trazado 1089771" d="M243.812,170.4a1.141,1.141,0,1,0,0-2.281,1.34,1.34,0,0,1-.288-2.648,1.8,1.8,0,0,0,1.429-1.764v-1.249a1.141,1.141,0,1,0-2.281,0v.885a3.621,3.621,0,0,0,1.141,7.057Z" transform="translate(-203.665 -136.782)"/>
        <path id="Trazado_1089772" data-name="Trazado 1089772" d="M216.265,159.023a1.14,1.14,0,0,0,1.141-1.141v-2.242a1.141,1.141,0,0,0-2.281,0v2.242A1.14,1.14,0,0,0,216.265,159.023Z" transform="translate(-182.41 -131.005)"/>
        <path id="Trazado_1089773" data-name="Trazado 1089773" d="M299.017,154.5a1.14,1.14,0,0,0-1.141,1.141v2.242a1.141,1.141,0,1,0,2.281,0v-2.242A1.14,1.14,0,0,0,299.017,154.5Z" transform="translate(-252.578 -131.005)"/>
        <path id="Trazado_1089774" data-name="Trazado 1089774" d="M235.141,240.781h6.843a1.141,1.141,0,1,0,0-2.281h-6.843a1.141,1.141,0,0,0,0,2.281Z" transform="translate(-198.416 -202.231)"/>
        <path id="Trazado_1089775" data-name="Trazado 1089775" d="M279.014,133.541a1.162,1.162,0,0,0,.143-.009l6.083-.76a1.141,1.141,0,1,0-.283-2.264l-6.083.76a1.141,1.141,0,0,0,.14,2.273Z" transform="translate(-235.618 -110.654)"/>
        <path id="Trazado_1089776" data-name="Trazado 1089776" d="M257.641,324.585a1.14,1.14,0,0,0,1.141-1.141v-.3a1.141,1.141,0,1,0-2.281,0v.3A1.14,1.14,0,0,0,257.641,324.585Z" transform="translate(-217.494 -273.034)"/>
        <path id="Trazado_1089777" data-name="Trazado 1089777" d="M258.781,356.945v-.3a1.141,1.141,0,0,0-2.281,0v.3a1.141,1.141,0,0,0,2.281,0Z" transform="translate(-217.494 -301.439)"/>
        <path id="Trazado_1089778" data-name="Trazado 1089778" d="M76.339,69.154l-.561-3.679a1.14,1.14,0,1,0-2.255.344l.5,3.3H71.549v-4.79a1.9,1.9,0,0,0-1.9-1.9h-.776V53.116a7.99,7.99,0,0,1,3.553,5.5l.3,1.945a1.14,1.14,0,1,0,2.255-.344l-.3-1.945A10.273,10.273,0,0,0,68.131,50.2L56.47,45.837a4.95,4.95,0,0,0,3.206-4.627V32.7a6.089,6.089,0,0,0,0-8.423V17.108A17.127,17.127,0,0,0,42.568,0H37.725a17.16,17.16,0,0,0-12.57,5.5A1.141,1.141,0,0,0,26.83,7.052,14.873,14.873,0,0,1,37.725,2.281h4.843A14.844,14.844,0,0,1,57.395,17.108v5.663A6.061,6.061,0,0,0,55.63,22.4V19.313a4.187,4.187,0,0,0-4.182-4.182H44.673a4.184,4.184,0,0,0-3.656,2.151l-.194.35a5.785,5.785,0,0,1-5.054,2.974H28.846a4.179,4.179,0,0,0-3.42,1.78h-.395a6.074,6.074,0,0,0-2.132.385V17.108a14.726,14.726,0,0,1,1.227-5.913,1.14,1.14,0,1,0-2.091-.911,16.991,16.991,0,0,0-1.417,6.824v7.171a6.089,6.089,0,0,0,0,8.423v8.508a4.95,4.95,0,0,0,3.206,4.627l-2.68,1a3.361,3.361,0,0,0-1.8-1.553l-6.692-2.441a3.374,3.374,0,0,0-4.092,4.836,1.874,1.874,0,0,1,.1,1.569l-.137.375A2.538,2.538,0,0,0,5.976,51.29l-2.5,6.856a2.539,2.539,0,0,0,.872,2.908l-.137.375a1.874,1.874,0,0,1-1.083,1.139A3.375,3.375,0,0,0,3.144,68.9l.583.213H1.9a1.9,1.9,0,0,0-1.9,1.9v4.942a1.9,1.9,0,0,0,1.9,1.9H75.959a1.9,1.9,0,0,0,1.9-1.9V71.017a1.9,1.9,0,0,0-1.521-1.863Zm-7.071-4.448v4.41H66.378v-4.41ZM47.142,62.425a1.9,1.9,0,0,0-1.9,1.9v4.79H43.826l.477-1.307a1.9,1.9,0,0,0-1.135-2.437l-1.939-.707a1.592,1.592,0,0,0,.331-.428L44.721,58.2H66.59v4.22ZM64.1,64.706v4.41H61.816v-4.41Zm-4.562,0v4.41H47.522v-4.41ZM40.146,46.353l5.991,4.236-3.108,5.93,0,0-2.881,5.5L34.155,50.589Zm-7.059,2.2-2.111-4.028V42.078a15.4,15.4,0,0,0,7.18,2.888Zm9.049-3.585a15.4,15.4,0,0,0,7.18-2.888v2.445l-2.111,4.028ZM38.419,63.639,23.522,58.2h12.05Zm3.61,3.745-.606,1.662-19.9-7.259.3-.831.3-.831ZM66.59,52.062v3.862H45.917L51,46.225ZM55.629,29.611V24.685a3.823,3.823,0,0,1-.236,7.627,15.511,15.511,0,0,0,.236-2.7ZM54.806,34.6h.456a6.074,6.074,0,0,0,2.132-.385v7a2.664,2.664,0,0,1-2.661,2.661H51.6V40.021A15.5,15.5,0,0,0,54.806,34.6ZM26.945,24.787a1.9,1.9,0,0,1,1.9-1.9h6.924a8.067,8.067,0,0,0,7.048-4.147l.194-.35a1.9,1.9,0,0,1,1.662-.978h6.774a1.9,1.9,0,0,1,1.9,1.9v10.3a13.2,13.2,0,0,1-26.4,0V24.787Zm-5.738,3.7a3.829,3.829,0,0,1,3.46-3.806c0,.034,0,.068,0,.1v4.824a15.511,15.511,0,0,0,.236,2.7A3.828,3.828,0,0,1,21.206,28.491ZM22.9,41.211v-7a6.074,6.074,0,0,0,2.132.385h.456A15.5,15.5,0,0,0,28.7,40.021v3.851H25.559A2.664,2.664,0,0,1,22.9,41.211ZM19.357,51.622a3.37,3.37,0,0,0,2.13-2.475l7.806-2.922,5.083,9.7H20.516l-1.369-.5a2.546,2.546,0,0,0-1.011-2.285l.138-.378a1.874,1.874,0,0,1,1.083-1.139Zm.994,6.723L19.016,62a.047.047,0,0,1-.026.028.046.046,0,0,1-.038,0l-1.877-.685L18.443,57.6l1.877.685A.05.05,0,0,1,20.35,58.345Zm-9.887-12.7a1.094,1.094,0,0,1,1.4-.653l6.692,2.441a1.094,1.094,0,0,1,.315,1.877l-8.456-3.085a1.087,1.087,0,0,1,.046-.58Zm6.218,5.293a4.358,4.358,0,0,0-.55,1.044l-.1.277-5.336-1.946.1-.277a4.364,4.364,0,0,0,.251-1.154ZM5.618,58.928l2.5-6.856a.251.251,0,0,1,.133-.144.251.251,0,0,1,.2-.009l8.266,3.015a.256.256,0,0,1,.153.328l-2.5,6.856a.256.256,0,0,1-.328.153L5.771,59.256a.256.256,0,0,1-.153-.328ZM11.79,63.88l-.1.277a4.358,4.358,0,0,0-.251,1.153L5.8,63.255a4.36,4.36,0,0,0,.55-1.044l.1-.277,1.438.525ZM3.309,66.194a1.093,1.093,0,0,1,.3-1.31l8.456,3.085a1.091,1.091,0,0,1-.047.58,1.073,1.073,0,0,1-.475.568H10.384L3.926,66.76a1.085,1.085,0,0,1-.617-.566Zm72.27,9.385H2.281V71.4H19.313a1.141,1.141,0,1,0,0-2.281H14.232a3.366,3.366,0,0,0-.305-2.608,1.874,1.874,0,0,1-.1-1.569h0l.137-.377c.051,0,.1.007.153.007a2.548,2.548,0,0,0,2.095-1.1l1.953.712a2.318,2.318,0,0,0,2.247-.365l14.541,5.3H24.635a1.141,1.141,0,0,0,0,2.281H75.579Z" transform="translate(0 0)"/>
      </g>
    </g>
  </g>
</svg>
